<?xml version="1.0" encoding="utf-8" standalone="no"?>
<!DOCTYPE svg PUBLIC "-//W3C//DTD SVG 1.1//EN"
  "http://www.w3.org/Graphics/SVG/1.1/DTD/svg11.dtd">
<svg xmlns:xlink="http://www.w3.org/1999/xlink" width="720pt" height="432pt" viewBox="0 0 720 432" xmlns="http://www.w3.org/2000/svg" version="1.1">
 <metadata>
  <rdf:RDF xmlns:dc="http://purl.org/dc/elements/1.1/" xmlns:cc="http://creativecommons.org/ns#" xmlns:rdf="http://www.w3.org/1999/02/22-rdf-syntax-ns#">
   <cc:Work>
    <dc:type rdf:resource="http://purl.org/dc/dcmitype/StillImage"/>
    <dc:date>2026-07-07T11:22:12.459798</dc:date>
    <dc:format>image/svg+xml</dc:format>
    <dc:creator>
     <cc:Agent>
      <dc:title>Matplotlib v3.11.0, https://matplotlib.org/</dc:title>
     </cc:Agent>
    </dc:creator>
   </cc:Work>
  </rdf:RDF>
 </metadata>
 <defs>
  <style type="text/css">*{stroke-linejoin: round; stroke-linecap: butt}</style>
 </defs>
 <g id="figure_1">
  <g id="patch_1">
   <path d="M 0 432 
L 720 432 
L 720 0 
L 0 0 
z
" style="fill: #ffffff"/>
  </g>
  <g id="axes_1">
   <g id="patch_2">
    <path d="M 90 384.48 
L 648 384.48 
L 648 51.84 
L 90 51.84 
z
" style="fill: #ffffff"/>
   </g>
   <g id="matplotlib.axis_1">
    <g id="xtick_1">
     <g id="line2d_1">
      <path d="M 115.363636 384.48 
L 115.363636 51.84 
" clip-path="url(#p767c165b2c)" style="fill: none; stroke: #cccccc; stroke-linecap: round"/>
     </g>
     <g id="text_1">
      <!-- 0 -->
      <g style="fill: #262626" transform="translate(112.613636 403.433125) scale(0.11 -0.11)">
       <defs>
        <path id="SimHei-13" d="M 225 2537 
Q 250 3200 412 3587 
Q 575 3975 875 4225 
Q 1175 4475 1612 4475 
Q 2050 4475 2375 4112 
Q 2700 3750 2800 3200 
Q 2900 2650 2862 1937 
Q 2825 1225 2612 775 
Q 2400 325 1975 150 
Q 1550 -25 1125 187 
Q 700 400 525 750 
Q 350 1100 275 1487 
Q 200 1875 225 2537 
z
M 750 2687 
Q 675 2000 800 1462 
Q 925 925 1212 700 
Q 1500 475 1800 612 
Q 2100 750 2237 1162 
Q 2375 1575 2375 2062 
Q 2375 2550 2337 2950 
Q 2300 3350 2112 3675 
Q 1925 4000 1612 4012 
Q 1300 4025 1062 3700 
Q 825 3375 750 2687 
z
" transform="scale(0.015625)"/>
       </defs>
       <use xlink:href="#SimHei-13"/>
      </g>
     </g>
    </g>
    <g id="xtick_2">
     <g id="line2d_2">
      <path d="M 217.021498 384.48 
L 217.021498 51.84 
" clip-path="url(#p767c165b2c)" style="fill: none; stroke: #cccccc; stroke-linecap: round"/>
     </g>
     <g id="text_2">
      <!-- 100 -->
      <g style="fill: #262626" transform="translate(208.771498 403.433125) scale(0.11 -0.11)">
       <defs>
        <path id="SimHei-14" d="M 1400 3600 
Q 1075 3275 575 2975 
L 575 3450 
Q 1200 3875 1600 4450 
L 1900 4450 
L 1900 150 
L 1400 150 
L 1400 3600 
z
" transform="scale(0.015625)"/>
       </defs>
       <use xlink:href="#SimHei-14"/>
       <use xlink:href="#SimHei-13" transform="translate(50 0)"/>
       <use xlink:href="#SimHei-13" transform="translate(100 0)"/>
      </g>
     </g>
    </g>
    <g id="xtick_3">
     <g id="line2d_3">
      <path d="M 318.679359 384.48 
L 318.679359 51.84 
" clip-path="url(#p767c165b2c)" style="fill: none; stroke: #cccccc; stroke-linecap: round"/>
     </g>
     <g id="text_3">
      <!-- 200 -->
      <g style="fill: #262626" transform="translate(310.429359 403.433125) scale(0.11 -0.11)">
       <defs>
        <path id="SimHei-15" d="M 300 250 
Q 325 625 650 925 
Q 975 1225 1475 1862 
Q 1975 2500 2125 2850 
Q 2275 3200 2237 3450 
Q 2200 3700 2000 3862 
Q 1800 4025 1537 4000 
Q 1275 3975 1037 3800 
Q 800 3625 675 3275 
L 200 3350 
Q 400 3925 712 4187 
Q 1025 4450 1450 4475 
Q 1700 4500 1900 4462 
Q 2100 4425 2312 4287 
Q 2525 4150 2662 3875 
Q 2800 3600 2762 3212 
Q 2725 2825 2375 2287 
Q 2025 1750 1025 600 
L 2825 600 
L 2825 150 
L 300 150 
L 300 250 
z
" transform="scale(0.015625)"/>
       </defs>
       <use xlink:href="#SimHei-15"/>
       <use xlink:href="#SimHei-13" transform="translate(50 0)"/>
       <use xlink:href="#SimHei-13" transform="translate(100 0)"/>
      </g>
     </g>
    </g>
    <g id="xtick_4">
     <g id="line2d_4">
      <path d="M 420.33722 384.48 
L 420.33722 51.84 
" clip-path="url(#p767c165b2c)" style="fill: none; stroke: #cccccc; stroke-linecap: round"/>
     </g>
     <g id="text_4">
      <!-- 300 -->
      <g style="fill: #262626" transform="translate(412.08722 403.433125) scale(0.11 -0.11)">
       <defs>
        <path id="SimHei-16" d="M 250 1225 
L 700 1300 
Q 800 975 1025 762 
Q 1250 550 1587 562 
Q 1925 575 2125 837 
Q 2325 1100 2300 1437 
Q 2275 1775 2037 1962 
Q 1800 2150 1275 2225 
L 1275 2550 
Q 1800 2600 2037 2825 
Q 2275 3050 2250 3412 
Q 2225 3775 1925 3937 
Q 1625 4100 1287 3975 
Q 950 3850 750 3275 
L 300 3350 
Q 450 3800 712 4100 
Q 975 4400 1425 4450 
Q 1875 4500 2212 4337 
Q 2550 4175 2687 3837 
Q 2825 3500 2725 3100 
Q 2625 2700 2150 2400 
Q 2500 2250 2687 1950 
Q 2875 1650 2812 1162 
Q 2750 675 2375 375 
Q 2000 75 1525 87 
Q 1050 100 700 387 
Q 350 675 250 1225 
z
" transform="scale(0.015625)"/>
       </defs>
       <use xlink:href="#SimHei-16"/>
       <use xlink:href="#SimHei-13" transform="translate(50 0)"/>
       <use xlink:href="#SimHei-13" transform="translate(100 0)"/>
      </g>
     </g>
    </g>
    <g id="xtick_5">
     <g id="line2d_5">
      <path d="M 521.995081 384.48 
L 521.995081 51.84 
" clip-path="url(#p767c165b2c)" style="fill: none; stroke: #cccccc; stroke-linecap: round"/>
     </g>
     <g id="text_5">
      <!-- 400 -->
      <g style="fill: #262626" transform="translate(513.745081 403.433125) scale(0.11 -0.11)">
       <defs>
        <path id="SimHei-17" d="M 2000 1100 
L 75 1100 
L 75 1525 
L 2100 4450 
L 2475 4450 
L 2475 1525 
L 3075 1525 
L 3075 1100 
L 2475 1100 
L 2475 150 
L 2000 150 
L 2000 1100 
z
M 2000 1525 
L 2000 3500 
L 600 1525 
L 2000 1525 
z
" transform="scale(0.015625)"/>
       </defs>
       <use xlink:href="#SimHei-17"/>
       <use xlink:href="#SimHei-13" transform="translate(50 0)"/>
       <use xlink:href="#SimHei-13" transform="translate(100 0)"/>
      </g>
     </g>
    </g>
    <g id="xtick_6">
     <g id="line2d_6">
      <path d="M 623.652942 384.48 
L 623.652942 51.84 
" clip-path="url(#p767c165b2c)" style="fill: none; stroke: #cccccc; stroke-linecap: round"/>
     </g>
     <g id="text_6">
      <!-- 500 -->
      <g style="fill: #262626" transform="translate(615.402942 403.433125) scale(0.11 -0.11)">
       <defs>
        <path id="SimHei-18" d="M 550 1325 
Q 725 650 1150 575 
Q 1575 500 1837 662 
Q 2100 825 2212 1087 
Q 2325 1350 2312 1675 
Q 2300 2000 2137 2225 
Q 1975 2450 1725 2525 
Q 1475 2600 1162 2525 
Q 850 2450 650 2175 
L 225 2225 
Q 275 2375 700 4375 
L 2675 4375 
L 2675 3925 
L 1075 3925 
Q 950 3250 825 2850 
Q 1200 3025 1525 3012 
Q 1850 3000 2150 2862 
Q 2450 2725 2587 2487 
Q 2725 2250 2787 2012 
Q 2850 1775 2837 1500 
Q 2825 1225 2725 937 
Q 2625 650 2425 462 
Q 2225 275 1937 162 
Q 1650 50 1275 75 
Q 900 100 562 350 
Q 225 600 100 1200 
L 550 1325 
z
" transform="scale(0.015625)"/>
       </defs>
       <use xlink:href="#SimHei-18"/>
       <use xlink:href="#SimHei-13" transform="translate(50 0)"/>
       <use xlink:href="#SimHei-13" transform="translate(100 0)"/>
      </g>
     </g>
    </g>
    <g id="text_7">
     <!-- 重采样次数 (Iterations) -->
     <g style="fill: #262626" transform="translate(300 419.2925) scale(0.12 -0.12)">
      <defs>
       <path id="SimHei-4803" d="M 5300 4575 
Q 3900 4450 3425 4400 
L 3425 3875 
L 5150 3875 
Q 5500 3875 6000 3900 
L 6000 3450 
Q 5500 3475 5150 3475 
L 3425 3475 
L 3425 3050 
L 5150 3050 
Q 5125 2675 5125 2125 
Q 5125 1575 5150 1175 
L 3425 1175 
L 3425 750 
L 4550 750 
Q 5000 750 5500 775 
L 5500 375 
Q 5025 400 4575 400 
L 3425 400 
L 3425 -50 
L 5050 -50 
Q 5475 -50 5975 -25 
L 5975 -450 
Q 5475 -425 5075 -425 
L 1475 -425 
Q 975 -425 450 -450 
L 450 -25 
Q 975 -50 1450 -50 
L 2925 -50 
L 2925 400 
L 2050 400 
Q 1450 400 950 375 
L 950 775 
Q 1600 750 2075 750 
L 2925 750 
L 2925 1175 
L 1250 1175 
Q 1275 1800 1275 2125 
Q 1275 2450 1250 3050 
L 2925 3050 
L 2925 3475 
L 1225 3475 
Q 875 3475 400 3450 
L 400 3900 
Q 875 3875 1225 3875 
L 2925 3875 
L 2925 4375 
Q 2425 4350 1075 4250 
Q 1000 4475 875 4675 
Q 2275 4700 3362 4812 
Q 4450 4925 4925 5075 
Q 5025 4825 5300 4575 
z
M 4650 2300 
L 4650 2650 
L 3425 2650 
L 3425 2300 
L 4650 2300 
z
M 2925 2300 
L 2925 2650 
L 1750 2650 
L 1750 2300 
L 2925 2300 
z
M 4625 1575 
L 4625 1900 
L 3425 1900 
L 3425 1575 
L 4625 1575 
z
M 2925 1575 
L 2925 1900 
L 1750 1900 
L 1750 1575 
L 2925 1575 
z
" transform="scale(0.015625)"/>
       <path id="SimHei-47fd" d="M 2900 2250 
Q 2900 2475 2875 2925 
L 3400 2925 
Q 3375 2525 3375 2250 
L 5175 2250 
Q 5550 2250 6075 2275 
L 6075 1775 
Q 5550 1800 5200 1800 
L 3900 1800 
Q 4300 1125 4887 750 
Q 5475 375 6125 200 
Q 5800 0 5650 -350 
Q 4950 -75 4362 450 
Q 3775 975 3400 1750 
L 3375 1750 
L 3375 400 
Q 3375 -25 3400 -625 
L 2825 -625 
Q 2875 0 2875 400 
L 2875 1600 
Q 2500 1025 1950 525 
Q 1400 25 650 -400 
Q 475 -150 200 25 
Q 850 300 1437 775 
Q 2025 1250 2375 1800 
Q 750 1800 300 1775 
L 300 2275 
Q 825 2250 2900 2250 
z
M 5575 4525 
Q 4975 4525 3587 4387 
Q 2200 4250 850 4125 
Q 775 4450 625 4650 
Q 1200 4625 2775 4750 
Q 4350 4875 5250 5150 
Q 5375 4800 5575 4525 
z
M 5475 4025 
Q 5200 3700 5000 3400 
Q 4800 3100 4550 2700 
Q 4375 2850 4100 3000 
Q 4475 3475 4975 4350 
Q 5250 4150 5475 4025 
z
M 1375 4025 
Q 1950 3275 2075 2925 
Q 1875 2825 1600 2650 
Q 1400 3150 925 3750 
Q 1125 3850 1375 4025 
z
M 3000 4250 
Q 3425 3450 3500 3175 
Q 3225 3075 3025 2950 
Q 2900 3400 2550 4025 
Q 2775 4100 3000 4250 
z
" transform="scale(0.015625)"/>
       <path id="SimHei-1e6d" d="M 4350 4025 
Q 4600 4575 4850 5225 
Q 5250 5075 5375 5000 
Q 5150 4725 4850 4025 
L 4950 4025 
Q 5650 4050 5950 4050 
L 5950 3600 
Q 5675 3625 5175 3625 
L 4550 3625 
L 4550 2650 
L 4950 2650 
Q 5525 2675 5800 2675 
L 5800 2225 
Q 5475 2250 5025 2250 
L 4550 2250 
L 4550 1225 
L 5325 1225 
Q 5800 1250 6100 1250 
L 6100 800 
Q 5825 825 5325 825 
L 4550 825 
L 4550 275 
Q 4550 -250 4575 -600 
L 4075 -600 
L 4075 825 
L 3475 825 
Q 3000 825 2550 800 
L 2550 1275 
Q 3000 1250 3500 1225 
L 4075 1225 
L 4075 2250 
L 3650 2250 
Q 3225 2250 2900 2225 
L 2900 2700 
Q 3200 2675 3675 2650 
L 4075 2650 
L 4075 3625 
L 3475 3625 
Q 3050 3625 2750 3600 
L 2750 4075 
Q 3050 4050 3475 4025 
L 4350 4025 
z
M 1325 4350 
Q 1325 4775 1300 5125 
L 1825 5125 
Q 1800 4725 1800 4350 
L 1800 3750 
Q 2125 3750 2475 3775 
L 2475 3325 
Q 2125 3350 1800 3350 
L 1800 2425 
Q 2000 2600 2100 2675 
Q 2375 2325 2725 1775 
Q 2575 1700 2300 1475 
Q 2025 1975 1800 2350 
L 1800 475 
Q 1800 -50 1825 -575 
L 1300 -575 
Q 1325 -25 1325 475 
L 1325 2250 
Q 925 1300 525 725 
Q 425 950 225 1175 
Q 950 2150 1225 3350 
Q 825 3350 350 3325 
L 350 3775 
Q 825 3750 1325 3750 
L 1325 4350 
z
M 3575 5200 
Q 3800 4775 3950 4350 
Q 3650 4250 3525 4175 
Q 3350 4600 3150 5000 
Q 3425 5125 3575 5200 
z
" transform="scale(0.015625)"/>
       <path id="SimHei-2157" d="M 4150 3025 
Q 4000 2550 4050 2187 
Q 4100 1825 4275 1450 
Q 4450 1075 4800 750 
Q 5150 425 5475 212 
Q 5800 0 6150 -150 
Q 5875 -350 5750 -625 
Q 5250 -325 4887 -25 
Q 4525 275 4275 612 
Q 4025 950 3825 1425 
Q 3525 625 2950 125 
Q 2375 -375 1850 -650 
Q 1675 -400 1475 -225 
Q 2025 0 2487 362 
Q 2950 725 3162 1100 
Q 3375 1475 3450 1825 
Q 3525 2175 3537 2400 
Q 3550 2625 3525 3125 
Q 3825 3050 4150 3025 
z
M 3700 4975 
Q 3625 4900 3475 4575 
Q 3325 4250 3250 4075 
L 5775 4075 
Q 5650 3725 5550 3362 
Q 5450 3000 5275 2500 
Q 5000 2575 4775 2600 
Q 5025 3350 5100 3650 
L 3100 3650 
Q 2975 3400 2812 3100 
Q 2650 2800 2425 2450 
Q 2275 2600 1975 2700 
Q 2300 3050 2625 3762 
Q 2950 4475 3125 5200 
Q 3450 5025 3700 4975 
z
M 2025 2000 
Q 1825 1675 1475 1087 
Q 1125 500 725 -200 
Q 500 -25 250 175 
Q 725 725 1037 1262 
Q 1350 1800 1575 2325 
Q 1750 2175 2025 2000 
z
M 900 4750 
Q 1725 3725 1950 3375 
Q 1750 3250 1500 3050 
Q 1250 3525 500 4425 
Q 700 4575 900 4750 
z
" transform="scale(0.015625)"/>
       <path id="SimHei-1ba6" d="M 4525 4925 
Q 4475 4800 4400 4587 
Q 4325 4375 4175 3825 
L 5325 3825 
Q 5575 3825 5925 3850 
L 5925 3400 
Q 5650 3425 5500 3425 
Q 5500 3025 5362 2162 
Q 5225 1300 4875 675 
Q 5125 375 5437 137 
Q 5750 -100 6025 -200 
Q 5725 -425 5625 -625 
Q 5325 -450 5075 -225 
Q 4825 0 4575 325 
Q 4300 25 3987 -187 
Q 3675 -400 3200 -650 
Q 3075 -425 2850 -300 
Q 3225 -150 3650 125 
Q 4075 400 4300 675 
Q 4125 1025 3962 1425 
Q 3800 1825 3675 2475 
Q 3600 2275 3425 1950 
Q 3250 2050 3000 2150 
Q 3400 2850 3650 3675 
Q 3900 4500 3975 5100 
Q 4275 4975 4525 4925 
z
M 2100 2250 
Q 2000 2150 1875 1925 
L 3250 1925 
Q 3100 1300 2725 675 
Q 3125 525 3350 400 
Q 3225 225 3125 25 
Q 2900 175 2450 325 
Q 1950 -225 725 -650 
Q 600 -375 400 -275 
Q 1575 0 2000 475 
Q 1300 650 850 775 
Q 1000 1000 1250 1525 
Q 1000 1525 425 1500 
L 425 1950 
Q 900 1925 1400 1925 
Q 1500 2150 1550 2425 
Q 1825 2325 2100 2250 
z
M 1775 3950 
Q 1775 4550 1750 5100 
L 2250 5100 
Q 2225 4575 2225 3950 
Q 3075 3950 3425 3975 
L 3425 3525 
Q 3075 3550 2225 3550 
Q 2225 2825 2250 2425 
L 1750 2425 
Q 1775 2775 1775 3300 
Q 1650 3100 1300 2787 
Q 950 2475 650 2300 
Q 525 2525 275 2625 
Q 500 2700 875 2975 
Q 1250 3250 1450 3550 
Q 950 3550 500 3525 
L 500 3975 
Q 925 3950 1775 3950 
z
M 3975 3175 
Q 4200 1700 4600 1125 
Q 4850 1700 4937 2287 
Q 5025 2875 5050 3425 
L 4075 3425 
L 3975 3175 
z
M 1450 1000 
Q 1750 925 2275 800 
Q 2475 1050 2650 1525 
L 1725 1525 
Q 1600 1275 1450 1000 
z
M 3325 4825 
Q 3200 4625 3125 4450 
Q 3050 4275 2925 4025 
Q 2725 4125 2525 4175 
Q 2725 4500 2900 5000 
Q 3150 4875 3325 4825 
z
M 2575 3375 
Q 2900 3050 3200 2725 
Q 3050 2600 2875 2425 
Q 2525 2850 2300 3100 
Q 2450 3225 2575 3375 
z
M 925 5000 
Q 1275 4650 1500 4300 
L 1125 4075 
Q 950 4425 600 4725 
Q 825 4875 925 5000 
z
" transform="scale(0.015625)"/>
       <path id="SimHei-3" transform="scale(0.015625)"/>
       <path id="SimHei-b" d="M 2975 -200 
L 2700 -475 
Q 2075 125 1762 775 
Q 1450 1425 1450 2250 
Q 1450 3075 1762 3725 
Q 2075 4375 2700 5000 
L 2975 4725 
Q 2400 4175 2112 3587 
Q 1825 3000 1825 2250 
Q 1825 1500 2112 912 
Q 2400 325 2975 -200 
z
" transform="scale(0.015625)"/>
       <path id="SimHei-2c" d="M 1850 125 
L 1275 125 
L 1275 4400 
L 1850 4400 
L 1850 125 
z
" transform="scale(0.015625)"/>
       <path id="SimHei-57" d="M 2750 200 
Q 2625 150 2462 112 
Q 2300 75 2025 75 
Q 1575 75 1300 325 
Q 1025 575 1025 1025 
L 1025 2525 
L 175 2525 
L 175 2925 
L 1025 2925 
L 1025 3900 
L 1525 3900 
L 1525 2925 
L 2550 2925 
L 2550 2525 
L 1525 2525 
L 1525 1000 
Q 1525 800 1625 662 
Q 1725 525 2000 525 
Q 2275 525 2450 575 
Q 2625 625 2750 700 
L 2750 200 
z
" transform="scale(0.015625)"/>
       <path id="SimHei-48" d="M 2850 1075 
Q 2800 625 2450 350 
Q 2100 75 1625 75 
Q 1025 75 637 462 
Q 250 850 250 1525 
Q 250 2200 637 2587 
Q 1025 2975 1625 2975 
Q 2150 2975 2487 2637 
Q 2825 2300 2825 1525 
L 800 1525 
Q 800 975 1037 750 
Q 1275 525 1625 525 
Q 1900 525 2075 662 
Q 2250 800 2300 1075 
L 2850 1075 
z
M 2250 1925 
Q 2200 2275 2025 2412 
Q 1850 2550 1575 2550 
Q 1325 2550 1125 2412 
Q 925 2275 825 1925 
L 2250 1925 
z
" transform="scale(0.015625)"/>
       <path id="SimHei-55" d="M 2500 2425 
Q 2025 2500 1700 2287 
Q 1375 2075 1150 1550 
L 1150 125 
L 650 125 
L 650 2925 
L 1150 2925 
L 1150 2200 
Q 1375 2600 1712 2787 
Q 2050 2975 2500 2975 
L 2500 2425 
z
" transform="scale(0.015625)"/>
       <path id="SimHei-44" d="M 2875 125 
L 2275 125 
Q 2225 175 2200 262 
Q 2175 350 2175 475 
Q 2000 275 1750 175 
Q 1500 75 1225 75 
Q 825 75 550 275 
Q 275 475 275 850 
Q 275 1225 525 1450 
Q 775 1675 1300 1750 
Q 1650 1800 1912 1875 
Q 2175 1950 2175 2075 
Q 2175 2225 2062 2375 
Q 1950 2525 1575 2525 
Q 1275 2525 1137 2412 
Q 1000 2300 950 2100 
L 400 2100 
Q 450 2500 762 2737 
Q 1075 2975 1575 2975 
Q 2125 2975 2400 2725 
Q 2675 2475 2675 2025 
L 2675 650 
Q 2675 500 2725 375 
Q 2775 250 2875 125 
z
M 2175 1050 
L 2175 1550 
Q 2025 1500 1887 1462 
Q 1750 1425 1425 1375 
Q 1050 1325 937 1200 
Q 825 1075 825 900 
Q 825 750 937 637 
Q 1050 525 1275 525 
Q 1500 525 1762 650 
Q 2025 775 2175 1050 
z
" transform="scale(0.015625)"/>
       <path id="SimHei-4c" d="M 1800 3725 
L 1300 3725 
L 1300 4375 
L 1800 4375 
L 1800 3725 
z
M 1800 125 
L 1300 125 
L 1300 2925 
L 1800 2925 
L 1800 125 
z
" transform="scale(0.015625)"/>
       <path id="SimHei-52" d="M 2925 1525 
Q 2925 875 2525 475 
Q 2125 75 1575 75 
Q 1025 75 625 475 
Q 225 875 225 1525 
Q 225 2175 625 2575 
Q 1025 2975 1575 2975 
Q 2125 2975 2525 2575 
Q 2925 2175 2925 1525 
z
M 2375 1525 
Q 2375 2025 2125 2275 
Q 1875 2525 1575 2525 
Q 1275 2525 1025 2275 
Q 775 2025 775 1525 
Q 775 1025 1025 775 
Q 1275 525 1575 525 
Q 1875 525 2125 775 
Q 2375 1025 2375 1525 
z
" transform="scale(0.015625)"/>
       <path id="SimHei-51" d="M 2800 125 
L 2300 125 
L 2300 1925 
Q 2300 2225 2150 2400 
Q 2000 2575 1750 2575 
Q 1425 2575 1137 2237 
Q 850 1900 850 1400 
L 850 125 
L 350 125 
L 350 2925 
L 850 2925 
L 850 2400 
Q 1050 2675 1287 2825 
Q 1525 2975 1900 2975 
Q 2350 2975 2575 2725 
Q 2800 2475 2800 2100 
L 2800 125 
z
" transform="scale(0.015625)"/>
       <path id="SimHei-56" d="M 2750 900 
Q 2750 500 2437 287 
Q 2125 75 1650 75 
Q 1050 75 725 312 
Q 400 550 400 1000 
L 900 1000 
Q 900 700 1112 600 
Q 1325 500 1625 500 
Q 1925 500 2075 612 
Q 2225 725 2225 900 
Q 2225 1025 2100 1150 
Q 1975 1275 1475 1350 
Q 900 1425 687 1637 
Q 475 1850 475 2200 
Q 475 2500 762 2737 
Q 1050 2975 1600 2975 
Q 2100 2975 2387 2750 
Q 2675 2525 2675 2150 
L 2175 2150 
Q 2175 2375 2012 2462 
Q 1850 2550 1600 2550 
Q 1275 2550 1137 2437 
Q 1000 2325 1000 2175 
Q 1000 2000 1125 1900 
Q 1250 1800 1650 1750 
Q 2300 1650 2525 1437 
Q 2750 1225 2750 900 
z
" transform="scale(0.015625)"/>
       <path id="SimHei-c" d="M 1675 2250 
Q 1675 1425 1362 775 
Q 1050 125 425 -475 
L 150 -200 
Q 725 325 1012 912 
Q 1300 1500 1300 2250 
Q 1300 3000 1012 3587 
Q 725 4175 150 4725 
L 425 5000 
Q 1050 4375 1362 3725 
Q 1675 3075 1675 2250 
z
" transform="scale(0.015625)"/>
      </defs>
      <use xlink:href="#SimHei-4803"/>
      <use xlink:href="#SimHei-47fd" transform="translate(100 0)"/>
      <use xlink:href="#SimHei-1e6d" transform="translate(200 0)"/>
      <use xlink:href="#SimHei-2157" transform="translate(300 0)"/>
      <use xlink:href="#SimHei-1ba6" transform="translate(400 0)"/>
      <use xlink:href="#SimHei-3" transform="translate(500 0)"/>
      <use xlink:href="#SimHei-b" transform="translate(550 0)"/>
      <use xlink:href="#SimHei-2c" transform="translate(600 0)"/>
      <use xlink:href="#SimHei-57" transform="translate(650 0)"/>
      <use xlink:href="#SimHei-48" transform="translate(700 0)"/>
      <use xlink:href="#SimHei-55" transform="translate(750 0)"/>
      <use xlink:href="#SimHei-44" transform="translate(800 0)"/>
      <use xlink:href="#SimHei-57" transform="translate(850 0)"/>
      <use xlink:href="#SimHei-4c" transform="translate(900 0)"/>
      <use xlink:href="#SimHei-52" transform="translate(950 0)"/>
      <use xlink:href="#SimHei-51" transform="translate(1000 0)"/>
      <use xlink:href="#SimHei-56" transform="translate(1050 0)"/>
      <use xlink:href="#SimHei-c" transform="translate(1100 0)"/>
     </g>
    </g>
   </g>
   <g id="matplotlib.axis_2">
    <g id="ytick_1">
     <g id="line2d_7">
      <path d="M 90 383.76 
L 648 383.76 
" clip-path="url(#p767c165b2c)" style="fill: none; stroke: #cccccc; stroke-linecap: round"/>
     </g>
     <g id="text_8">
      <!-- 33.5 -->
      <g style="fill: #262626" transform="translate(58.5 388.486562) scale(0.11 -0.11)">
       <defs>
        <path id="SimHei-11" d="M 1075 125 
L 500 125 
L 500 675 
L 1075 675 
L 1075 125 
z
" transform="scale(0.015625)"/>
       </defs>
       <use xlink:href="#SimHei-16"/>
       <use xlink:href="#SimHei-16" transform="translate(50 0)"/>
       <use xlink:href="#SimHei-11" transform="translate(100 0)"/>
       <use xlink:href="#SimHei-18" transform="translate(150 0)"/>
      </g>
     </g>
    </g>
    <g id="ytick_2">
     <g id="line2d_8">
      <path d="M 90 326.16 
L 648 326.16 
" clip-path="url(#p767c165b2c)" style="fill: none; stroke: #cccccc; stroke-linecap: round"/>
     </g>
     <g id="text_9">
      <!-- 33.6 -->
      <g style="fill: #262626" transform="translate(58.5 330.886562) scale(0.11 -0.11)">
       <defs>
        <path id="SimHei-19" d="M 250 1612 
Q 275 1975 387 2225 
Q 500 2475 725 2850 
L 1750 4450 
L 2325 4450 
L 1275 2800 
Q 1950 2975 2350 2750 
Q 2750 2525 2887 2237 
Q 3025 1950 3037 1612 
Q 3050 1275 2937 950 
Q 2825 625 2537 362 
Q 2250 100 1737 75 
Q 1225 50 862 262 
Q 500 475 362 862 
Q 225 1250 250 1612 
z
M 1025 787 
Q 1250 550 1625 525 
Q 2000 500 2250 775 
Q 2500 1050 2500 1575 
Q 2500 2100 2187 2300 
Q 1875 2500 1487 2450 
Q 1100 2400 925 2075 
Q 750 1750 775 1387 
Q 800 1025 1025 787 
z
" transform="scale(0.015625)"/>
       </defs>
       <use xlink:href="#SimHei-16"/>
       <use xlink:href="#SimHei-16" transform="translate(50 0)"/>
       <use xlink:href="#SimHei-11" transform="translate(100 0)"/>
       <use xlink:href="#SimHei-19" transform="translate(150 0)"/>
      </g>
     </g>
    </g>
    <g id="ytick_3">
     <g id="line2d_9">
      <path d="M 90 268.56 
L 648 268.56 
" clip-path="url(#p767c165b2c)" style="fill: none; stroke: #cccccc; stroke-linecap: round"/>
     </g>
     <g id="text_10">
      <!-- 33.7 -->
      <g style="fill: #262626" transform="translate(58.5 273.286563) scale(0.11 -0.11)">
       <defs>
        <path id="SimHei-1a" d="M 850 150 
Q 1300 2050 2425 3925 
L 275 3925 
L 275 4375 
L 2950 4375 
L 2950 3950 
Q 1775 2050 1400 150 
L 850 150 
z
" transform="scale(0.015625)"/>
       </defs>
       <use xlink:href="#SimHei-16"/>
       <use xlink:href="#SimHei-16" transform="translate(50 0)"/>
       <use xlink:href="#SimHei-11" transform="translate(100 0)"/>
       <use xlink:href="#SimHei-1a" transform="translate(150 0)"/>
      </g>
     </g>
    </g>
    <g id="ytick_4">
     <g id="line2d_10">
      <path d="M 90 210.96 
L 648 210.96 
" clip-path="url(#p767c165b2c)" style="fill: none; stroke: #cccccc; stroke-linecap: round"/>
     </g>
     <g id="text_11">
      <!-- 33.8 -->
      <g style="fill: #262626" transform="translate(58.5 215.686562) scale(0.11 -0.11)">
       <defs>
        <path id="SimHei-1b" d="M 175 1375 
Q 175 1675 325 1962 
Q 475 2250 825 2425 
Q 525 2600 425 2812 
Q 325 3025 312 3300 
Q 300 3575 387 3775 
Q 475 3975 650 4150 
Q 825 4325 1037 4387 
Q 1250 4450 1500 4450 
Q 1750 4450 1950 4400 
Q 2150 4350 2375 4187 
Q 2600 4025 2700 3725 
Q 2800 3425 2687 3025 
Q 2575 2625 2100 2400 
Q 2525 2275 2700 2012 
Q 2875 1750 2875 1375 
Q 2875 1000 2762 775 
Q 2650 550 2512 400 
Q 2375 250 2137 162 
Q 1900 75 1537 75 
Q 1175 75 912 162 
Q 650 250 475 425 
Q 300 600 237 837 
Q 175 1075 175 1375 
z
M 687 1400 
Q 675 1100 787 875 
Q 900 650 1200 587 
Q 1500 525 1825 600 
Q 2150 675 2275 950 
Q 2400 1225 2362 1500 
Q 2325 1775 2050 1962 
Q 1775 2150 1450 2125 
Q 1125 2100 912 1900 
Q 700 1700 687 1400 
z
M 775 3350 
Q 775 3100 950 2875 
Q 1125 2650 1500 2650 
Q 1875 2650 2062 2875 
Q 2250 3100 2237 3412 
Q 2225 3725 2012 3875 
Q 1800 4025 1437 4000 
Q 1075 3975 925 3787 
Q 775 3600 775 3350 
z
" transform="scale(0.015625)"/>
       </defs>
       <use xlink:href="#SimHei-16"/>
       <use xlink:href="#SimHei-16" transform="translate(50 0)"/>
       <use xlink:href="#SimHei-11" transform="translate(100 0)"/>
       <use xlink:href="#SimHei-1b" transform="translate(150 0)"/>
      </g>
     </g>
    </g>
    <g id="ytick_5">
     <g id="line2d_11">
      <path d="M 90 153.36 
L 648 153.36 
" clip-path="url(#p767c165b2c)" style="fill: none; stroke: #cccccc; stroke-linecap: round"/>
     </g>
     <g id="text_12">
      <!-- 33.9 -->
      <g style="fill: #262626" transform="translate(58.5 158.086562) scale(0.11 -0.11)">
       <defs>
        <path id="SimHei-1c" d="M 800 75 
Q 1350 1000 1700 1750 
Q 1075 1650 662 1912 
Q 250 2175 162 2625 
Q 75 3075 175 3437 
Q 275 3800 487 4037 
Q 700 4275 1000 4375 
Q 1300 4475 1537 4475 
Q 1775 4475 2025 4375 
Q 2275 4275 2475 4075 
Q 2675 3875 2750 3662 
Q 2825 3450 2825 3112 
Q 2825 2775 2575 2250 
Q 2325 1725 1350 75 
L 800 75 
z
M 662 2875 
Q 700 2550 937 2337 
Q 1175 2125 1450 2150 
Q 1725 2175 1887 2300 
Q 2050 2425 2200 2725 
Q 2300 3100 2250 3362 
Q 2200 3625 1987 3800 
Q 1775 3975 1525 3975 
Q 1375 4000 1137 3900 
Q 900 3800 762 3500 
Q 625 3200 662 2875 
z
" transform="scale(0.015625)"/>
       </defs>
       <use xlink:href="#SimHei-16"/>
       <use xlink:href="#SimHei-16" transform="translate(50 0)"/>
       <use xlink:href="#SimHei-11" transform="translate(100 0)"/>
       <use xlink:href="#SimHei-1c" transform="translate(150 0)"/>
      </g>
     </g>
    </g>
    <g id="ytick_6">
     <g id="line2d_12">
      <path d="M 90 95.76 
L 648 95.76 
" clip-path="url(#p767c165b2c)" style="fill: none; stroke: #cccccc; stroke-linecap: round"/>
     </g>
     <g id="text_13">
      <!-- 34.0 -->
      <g style="fill: #262626" transform="translate(58.5 100.486562) scale(0.11 -0.11)">
       <use xlink:href="#SimHei-16"/>
       <use xlink:href="#SimHei-17" transform="translate(50 0)"/>
       <use xlink:href="#SimHei-11" transform="translate(100 0)"/>
       <use xlink:href="#SimHei-13" transform="translate(150 0)"/>
      </g>
     </g>
    </g>
    <g id="text_14">
     <!-- 统计量数值 -->
     <g style="fill: #262626" transform="translate(52.8125 248.16) rotate(-90) scale(0.12 -0.12)">
      <defs>
       <path id="SimHei-3515" d="M 5150 4300 
Q 5525 4300 5950 4325 
L 5950 3875 
Q 5550 3900 5175 3900 
L 3775 3900 
Q 3975 3750 4250 3600 
Q 4050 3450 3837 3162 
Q 3625 2875 3225 2375 
Q 3800 2375 5025 2500 
Q 4925 2625 4625 2975 
Q 4850 3100 5025 3250 
Q 5450 2800 5950 2100 
Q 5700 1950 5525 1775 
Q 5375 1975 5275 2125 
Q 4925 2100 4825 2075 
L 4825 200 
Q 4825 -100 5075 -100 
L 5325 -100 
Q 5550 -100 5625 575 
Q 5850 400 6150 325 
Q 5925 -525 5525 -525 
L 4850 -525 
Q 4350 -525 4350 0 
L 4350 2025 
Q 4000 2000 3875 1975 
Q 3900 1050 3637 462 
Q 3375 -125 2625 -700 
Q 2500 -500 2175 -375 
Q 2575 -125 2850 175 
Q 3125 475 3275 850 
Q 3425 1225 3400 1925 
Q 3025 1900 2725 1825 
Q 2650 2200 2525 2475 
Q 2825 2500 3187 2975 
Q 3550 3450 3675 3900 
L 3275 3900 
Q 2950 3900 2475 3875 
L 2475 4325 
Q 2875 4300 3250 4300 
L 5150 4300 
z
M 1875 4825 
Q 1700 4600 1500 4250 
Q 1300 3900 900 3250 
Q 1375 3275 1650 3275 
Q 1850 3625 1975 3975 
Q 2250 3800 2550 3675 
Q 2375 3500 2075 3037 
Q 1775 2575 1225 1725 
Q 1950 1800 2500 1900 
Q 2375 1600 2375 1425 
Q 2150 1400 1587 1325 
Q 1025 1250 600 1125 
Q 525 1375 425 1625 
Q 700 1700 950 2075 
Q 1200 2450 1450 2900 
Q 1225 2875 925 2837 
Q 625 2800 425 2750 
Q 325 3000 200 3225 
Q 500 3300 862 4025 
Q 1225 4750 1275 5075 
Q 1575 4925 1875 4825 
z
M 2550 825 
Q 2525 575 2550 350 
Q 1975 200 1412 37 
Q 850 -125 550 -250 
Q 450 0 275 275 
Q 900 375 1450 500 
Q 2000 625 2550 825 
z
M 4100 5275 
Q 4375 4825 4500 4575 
Q 4325 4500 4025 4350 
Q 3825 4825 3650 5075 
Q 3950 5175 4100 5275 
z
" transform="scale(0.015625)"/>
       <path id="SimHei-41d7" d="M 3925 3100 
L 3925 4350 
Q 3925 4850 3900 5125 
L 4425 5125 
Q 4400 4800 4400 4550 
L 4400 3100 
L 5425 3100 
Q 5725 3100 6075 3125 
L 6075 2650 
Q 5700 2675 5450 2675 
L 4400 2675 
L 4400 175 
Q 4400 -125 4425 -550 
L 3900 -550 
Q 3925 -125 3925 150 
L 3925 2675 
L 2950 2675 
Q 2575 2675 2200 2650 
L 2200 3125 
Q 2575 3100 2900 3100 
L 3925 3100 
z
M 1775 3150 
Q 1750 2675 1750 2150 
L 1750 625 
Q 2175 1050 2425 1400 
Q 2575 1200 2775 1000 
L 2075 300 
Q 1750 -25 1450 -350 
Q 1275 -125 1125 50 
Q 1300 250 1275 650 
L 1275 2725 
Q 600 2725 275 2700 
L 275 3175 
Q 675 3150 825 3150 
L 1775 3150 
z
M 1150 5050 
Q 1475 4725 2175 4000 
Q 1950 3800 1750 3625 
Q 1425 4100 775 4750 
Q 950 4875 1150 5050 
z
" transform="scale(0.015625)"/>
       <path id="SimHei-4805" d="M 5250 2500 
Q 5225 2200 5225 1700 
Q 5225 1225 5250 950 
L 3425 950 
L 3425 625 
L 4575 625 
Q 5000 625 5375 650 
L 5375 275 
Q 5025 300 4575 300 
L 3425 300 
L 3425 -75 
L 5125 -75 
Q 5525 -75 5925 -50 
L 5925 -425 
Q 5525 -400 5125 -400 
L 1275 -400 
Q 900 -400 475 -425 
L 475 -50 
Q 925 -50 1275 -75 
L 2975 -75 
L 2975 300 
L 1725 300 
Q 1350 300 975 250 
L 975 650 
Q 1375 625 1725 625 
L 2975 625 
L 2975 950 
L 1150 950 
Q 1175 1375 1175 1775 
Q 1175 2175 1150 2500 
L 5250 2500 
z
M 5200 4950 
Q 5175 4575 5175 4250 
Q 5175 3925 5200 3400 
L 1200 3400 
Q 1225 3925 1225 4250 
Q 1225 4575 1200 4950 
L 5200 4950 
z
M 4900 3100 
Q 5500 3125 6000 3150 
L 6000 2750 
Q 5500 2775 4925 2775 
L 1650 2775 
Q 975 2775 325 2750 
L 325 3150 
Q 975 3125 1650 3100 
L 4900 3100 
z
M 4725 3700 
L 4725 4025 
L 1675 4025 
L 1675 3700 
L 4725 3700 
z
M 4725 4350 
L 4725 4650 
L 1675 4650 
L 1675 4350 
L 4725 4350 
z
M 4750 1875 
L 4750 2175 
L 3425 2175 
L 3425 1875 
L 4750 1875 
z
M 2975 1875 
L 2975 2175 
L 1650 2175 
L 1650 1875 
L 2975 1875 
z
M 2975 1275 
L 2975 1550 
L 1650 1550 
L 1650 1275 
L 2975 1275 
z
M 4750 1275 
L 4750 1550 
L 3425 1550 
L 3425 1275 
L 4750 1275 
z
" transform="scale(0.015625)"/>
       <path id="SimHei-672" d="M 3675 4450 
L 3675 5100 
Q 3975 5075 4350 5050 
Q 4225 4875 4200 4450 
L 5125 4450 
Q 5550 4450 5875 4475 
L 5875 4025 
Q 5525 4050 5125 4050 
L 4175 4050 
L 4125 3500 
L 5400 3500 
Q 5375 3200 5375 2700 
L 5375 150 
Q 5875 150 6100 175 
L 6100 -275 
Q 5775 -250 5200 -250 
L 2850 -250 
Q 2275 -250 1900 -275 
L 1900 175 
Q 2125 150 2600 150 
L 2600 2700 
Q 2600 3175 2575 3500 
L 3600 3500 
L 3650 4050 
L 3200 4050 
Q 2575 4050 2225 4025 
L 2225 4475 
Q 2550 4450 3200 4450 
L 3675 4450 
z
M 2225 4900 
Q 2025 4675 1650 3750 
L 1650 450 
Q 1650 -75 1675 -550 
L 1150 -550 
Q 1175 -125 1175 375 
L 1175 2950 
Q 875 2450 625 2150 
Q 425 2425 250 2575 
Q 500 2825 937 3537 
Q 1375 4250 1625 5150 
Q 1975 4975 2225 4900 
z
M 4925 2650 
L 4925 3150 
L 3075 3150 
L 3075 2650 
L 4925 2650 
z
M 4925 150 
L 4925 625 
L 3075 625 
L 3075 150 
L 4925 150 
z
M 4925 1000 
L 4925 1450 
L 3075 1450 
L 3075 1000 
L 4925 1000 
z
M 4925 1825 
L 4925 2275 
L 3075 2275 
L 3075 1825 
L 4925 1825 
z
" transform="scale(0.015625)"/>
      </defs>
      <use xlink:href="#SimHei-3515"/>
      <use xlink:href="#SimHei-41d7" transform="translate(100 0)"/>
      <use xlink:href="#SimHei-4805" transform="translate(200 0)"/>
      <use xlink:href="#SimHei-1ba6" transform="translate(300 0)"/>
      <use xlink:href="#SimHei-672" transform="translate(400 0)"/>
     </g>
    </g>
   </g>
   <g id="line2d_13">
    <path d="M 115.363636 354.96 
L 116.380215 369.36 
L 117.396794 249.36 
L 118.413372 196.56 
L 119.429951 170.64 
L 120.446529 177.36 
L 121.463108 153.36 
L 122.479687 117.36 
L 123.496265 73.36 
L 124.512844 66.96 
L 125.529422 161.214545 
L 126.546001 124.56 
L 127.56258 175.513846 
L 128.579158 190.388571 
L 129.595737 187.92 
L 130.612316 210.96 
L 131.628894 187.242353 
L 132.645473 159.76 
L 133.662051 173.065263 
L 134.67863 153.36 
L 135.695209 145.131429 
L 136.711787 145.505455 
L 137.728366 163.377391 
L 138.744944 150.96 
L 139.761523 130.32 
L 140.778102 137.852308 
L 141.79468 168.293333 
L 142.811259 174.96 
L 143.827837 189.111724 
L 144.844416 182.16 
L 145.860995 198.882581 
L 146.877573 199.26 
L 148.910731 174.536471 
L 149.927309 180.514286 
L 150.943888 164.56 
L 151.960466 181.381622 
L 152.977045 205.654737 
L 153.993624 204.313846 
L 155.010202 210.24 
L 157.043359 204.788571 
L 158.059938 206.941395 
L 159.076517 229.287273 
L 160.093095 218 
L 161.109674 211.586087 
L 162.126253 207.89617 
L 163.142831 200.76 
L 164.15941 196.266122 
L 165.175988 192.528 
L 166.192567 210.96 
L 167.209146 212.621538 
L 168.225724 215.30717 
L 169.242303 206.693333 
L 170.258881 201.534545 
L 171.27546 193.988571 
L 172.292039 188.223158 
L 173.308617 192.091034 
L 174.325196 183.624407 
L 175.341774 187.44 
L 176.358353 195.851803 
L 177.374932 193.772903 
L 178.39151 188.102857 
L 179.408089 197.91 
L 180.424668 200.769231 
L 181.441246 199.178182 
L 182.457825 195.915224 
L 183.474403 199.524706 
L 184.490982 199.690435 
L 185.507561 200.674286 
L 186.524139 199.19662 
L 187.540718 194.56 
L 188.557296 192.417534 
L 189.573875 195.392432 
L 190.590454 201.744 
L 191.607032 200.349474 
L 192.623611 194.502857 
L 193.640189 192.498462 
L 194.656768 183.982785 
L 197.706504 171.974634 
L 198.723083 168.974458 
L 200.75624 175.383529 
L 201.772818 175.797209 
L 202.789397 171.897931 
L 203.805976 170.050909 
L 204.822554 160.155506 
L 205.839133 162.96 
L 206.855711 161.272088 
L 207.87229 158.681739 
L 208.888869 155.527742 
L 209.905447 158.568511 
L 210.922026 157.604211 
L 211.938604 155.16 
L 212.955183 150.390928 
L 213.971762 144.543673 
L 214.98834 141.723636 
L 216.004919 149.904 
L 217.021498 145.946139 
L 218.038076 155.618824 
L 219.054655 158.39301 
L 220.071233 154.467692 
L 221.087812 157.2 
L 222.104391 157.163774 
L 223.120969 152.283364 
L 224.137548 156.026667 
L 225.154126 152.303119 
L 226.170705 154.930909 
L 227.187284 148.68973 
L 228.203862 158.245714 
L 229.220441 152.595398 
L 230.237019 151.591579 
L 232.270177 150.132414 
L 233.286755 155.821538 
L 234.303334 157.75322 
L 235.319913 157.716303 
L 236.336491 162 
L 237.35307 156.692231 
L 238.369648 155.720656 
L 239.386227 158.979512 
L 240.402806 157.540645 
L 241.419384 165.3408 
L 242.435963 160.217143 
L 243.452541 159.029291 
L 244.46912 158.085 
L 245.485699 155.369302 
L 246.502277 154.910769 
L 247.518856 150.06229 
L 248.535435 149.650909 
L 249.552013 147.296842 
L 250.568592 146.912239 
L 251.58517 145.68 
L 252.601749 143.407059 
L 253.618328 140.116204 
L 254.634906 138.125217 
L 255.651485 133.676547 
L 257.684642 141.308936 
L 258.701221 142.813521 
L 259.717799 142.484476 
L 260.734378 149.36 
L 261.750956 147.798621 
L 262.767535 145.469589 
L 263.784114 146.894694 
L 264.800692 146.549189 
L 265.817271 143.888859 
L 267.850428 142.869934 
L 268.867007 144.454737 
L 269.883585 142.065882 
L 270.900164 140.643117 
L 271.916743 144.069677 
L 272.933321 141.36 
L 273.9499 142.72051 
L 274.966478 142.241013 
L 275.983057 145.571321 
L 276.999636 147.06 
L 278.016214 148.88795 
L 279.032793 157.448889 
L 280.049371 157.070429 
L 281.06595 163.369756 
L 282.082529 164.705455 
L 283.099107 163.596145 
L 284.115686 164.224671 
L 285.132265 164.16 
L 286.148843 163.073609 
L 287.165422 161.491765 
L 288.182 157.570526 
L 289.198579 156.206512 
L 290.215158 157.355376 
L 291.231736 156.835862 
L 292.248315 155.993143 
L 293.264893 155.978182 
L 294.281472 155.637966 
L 295.298051 156.595955 
L 296.314629 158.186816 
L 297.331208 157.84 
L 298.347786 158.133481 
L 299.364365 158.74022 
L 300.380944 162.802623 
L 301.397522 159.777391 
L 302.414101 158.185946 
L 303.43068 159.089032 
L 304.447258 157.672299 
L 305.463837 157.649362 
L 306.480415 157.931429 
L 307.496994 160.635789 
L 308.513573 158.788272 
L 309.530151 156.51 
L 310.54673 155.598342 
L 311.563308 157.07134 
L 312.579887 156.313846 
L 313.596466 157.180408 
L 314.613044 157.453401 
L 315.629623 156.56 
L 316.646201 158.57005 
L 317.66278 159.696 
L 318.679359 166.255522 
L 319.695937 167.617426 
L 320.712516 172.938325 
L 321.729095 173.830588 
L 322.745673 172.325854 
L 323.762252 171.255146 
L 324.77883 170.890435 
L 325.795409 171.498462 
L 326.811988 172.789665 
L 327.828566 169.68 
L 328.845145 167.418768 
L 329.861723 167.080755 
L 330.878302 168.098028 
L 331.894881 172.066542 
L 332.911459 170.64 
L 333.928038 171.626667 
L 334.944617 168.622673 
L 335.961195 170.930642 
L 336.977774 175.321644 
L 337.994352 174.436364 
L 339.010931 177.207964 
L 341.044088 175.831749 
L 342.060667 175.474286 
L 343.077245 172.56 
L 344.093824 171.200708 
L 345.110403 170.487753 
L 346.126981 167.507368 
L 348.160138 166.006957 
L 349.176717 162.336623 
L 350.193296 161.553103 
L 351.209874 159.911073 
L 352.226453 159.883077 
L 353.243032 160.958298 
L 354.25961 162.634576 
L 355.276189 160.894177 
L 356.292767 161.830588 
L 357.309346 162.156653 
L 358.325925 160.92 
L 359.342503 165.310207 
L 360.359082 165.02281 
L 361.37566 166.16 
L 362.392239 166.93377 
L 363.408818 168.994286 
L 364.425396 168.228293 
L 365.441975 168.984291 
L 366.458553 167.992258 
L 367.475132 166.776867 
L 368.491711 166.032 
L 370.524868 168.102857 
L 371.541447 166.450909 
L 372.558025 166.39937 
L 373.574604 165.218824 
L 374.591182 164.2725 
L 375.607761 163.78179 
L 376.62434 162.40186 
L 377.640918 158.808649 
L 379.674075 155.235862 
L 380.690654 154.349313 
L 381.707233 154.89308 
L 382.723811 153.141818 
L 383.74039 151.621132 
L 384.756968 149.029173 
L 385.773547 148.398202 
L 386.790126 147.557015 
L 387.806704 148.113903 
L 388.823283 145.786667 
L 389.839862 149.002804 
L 390.85644 150.501176 
L 391.873019 151.461099 
L 392.889597 151.888467 
L 393.906176 149.589818 
L 394.922755 150.646957 
L 395.939333 153.36 
L 396.955912 151.080863 
L 398.989069 152.742857 
L 400.005648 152.540071 
L 401.022226 153.257872 
L 402.038805 152.138799 
L 404.071962 147.701053 
L 405.088541 147.720839 
L 406.105119 148.743972 
L 407.121698 148.46 
L 408.138277 152.263806 
L 409.154855 149.884138 
L 410.171434 148.708454 
L 411.188012 148.527123 
L 412.204591 146.38116 
L 413.22117 145.817143 
L 414.237748 149.357288 
L 415.254327 147.814054 
L 416.270905 149.578182 
L 417.287484 152.973423 
L 418.304063 152.011505 
L 419.320641 152.016 
L 420.33722 151.829103 
L 421.353799 149.926887 
L 422.370377 150.888713 
L 423.386956 150.328421 
L 425.420113 149.877647 
L 426.436692 147.825147 
L 428.469849 149.165825 
L 429.486427 147.414194 
L 430.503006 146.136849 
L 431.519585 145.790769 
L 432.536163 145.262875 
L 433.552742 145.930701 
L 434.56932 146.777143 
L 435.585899 149.896709 
L 437.619056 148.922264 
L 438.635635 149.838997 
L 440.668792 148.784299 
L 441.685371 147.635776 
L 442.701949 149.971765 
L 443.718528 150.16 
L 444.735107 149.992615 
L 445.751685 150.709693 
L 446.768264 151.598532 
L 447.784842 151.077073 
L 448.801421 149.946018 
L 449.818 147.687273 
L 450.834578 149.705619 
L 451.851157 149.196145 
L 452.867735 148.257297 
L 453.884314 146.892934 
L 454.900893 146.482388 
L 455.917471 144.531429 
L 456.93405 144.728546 
L 457.950629 145.180118 
L 458.967207 145.798938 
L 459.983786 147.345882 
L 461.000364 146.687859 
L 462.016943 144.770526 
L 463.033522 144.123848 
L 464.0501 144.31814 
L 465.066679 143.092174 
L 466.083257 145.951908 
L 467.099836 144.14732 
L 468.116415 146.656552 
L 469.132993 145.850544 
L 471.16615 147.534359 
L 472.182729 146.487273 
L 473.199308 147.648952 
L 474.215886 147.665085 
L 475.232465 145.815211 
L 476.249044 145.674607 
L 477.265622 146.825546 
L 478.282201 146.441564 
L 479.298779 144.695933 
L 481.331937 142.510139 
L 482.348515 141.585414 
L 483.365094 139.793058 
L 484.381672 139.355604 
L 485.398251 138.76274 
L 486.41483 139.196066 
L 487.431408 140.804142 
L 488.447987 139.116522 
L 489.464565 138.686829 
L 490.481144 138.103784 
L 491.497723 136.902857 
L 492.514301 137.334194 
L 493.53088 138.149276 
L 494.547459 136.418824 
L 495.564037 135.696 
L 496.580616 138.040851 
L 497.597194 138.539841 
L 498.613773 136.369524 
L 499.630352 135.654459 
L 500.64693 136.762105 
L 501.663509 135.218268 
L 503.696666 136.591332 
L 504.713245 136.185 
L 505.729823 136.005195 
L 506.746402 136.348601 
L 507.762981 137.136744 
L 508.779559 137.549691 
L 509.796138 136.701902 
L 510.812716 138.516923 
L 511.829295 141.648491 
L 512.845874 141.972245 
L 513.862452 141.121832 
L 514.879031 142.541726 
L 515.895609 143.225316 
L 516.912188 144.341818 
L 517.928767 146.831033 
L 518.945345 146.847437 
L 519.961924 144.337444 
L 520.978502 143.64 
L 521.995081 144.957007 
L 523.01166 145.551045 
L 524.028238 145.71335 
L 525.044817 146.16 
L 526.061396 146.035556 
L 527.077974 144.493005 
L 528.094553 144.373268 
L 530.12771 143.783472 
L 531.144289 143.947317 
L 534.194024 141.993414 
L 535.210603 142.229565 
L 536.227182 141.354217 
L 537.24376 142.283077 
L 538.260339 141.895252 
L 539.276917 142.542775 
L 540.293496 143.805823 
L 541.310075 143.691429 
L 542.326653 143.372352 
L 543.343232 143.805498 
L 544.359811 143.419574 
L 545.376389 146.567547 
L 546.392968 147.803294 
L 547.409546 149.709296 
L 548.426125 149.582951 
L 549.442704 149.726355 
L 550.459282 148.257902 
L 551.475861 147.666977 
L 552.492439 147.4129 
L 553.509018 146.76 
L 554.525597 146.974781 
L 555.542175 147.454009 
L 556.558754 147.335172 
L 557.575332 148.537982 
L 558.591911 149.208055 
L 560.625068 147.324465 
L 561.641647 146.814545 
L 562.658226 146.176327 
L 563.674804 144.759095 
L 565.707961 144.473514 
L 566.72454 143.97573 
L 567.741119 144.642511 
L 568.757697 144.919732 
L 569.774276 145.517143 
L 570.790854 145.149755 
L 571.807433 144.656 
L 572.824012 144.419867 
L 573.84059 142.974159 
L 574.857169 141.725563 
L 575.873747 141.434009 
L 576.890326 141.586813 
L 577.906905 140.412632 
L 578.923483 139.558687 
L 579.940062 138.897118 
L 581.973219 136.330435 
L 582.989798 136.24243 
L 584.006376 135.718442 
L 585.022955 136.378575 
L 587.056112 136.141935 
L 588.072691 134.819227 
L 589.089269 135.413961 
L 590.105848 136.990769 
L 591.122427 137.148486 
L 592.139005 135.773617 
L 593.155584 134.954904 
L 594.172163 134.322712 
L 596.20532 133.673924 
L 597.221898 134.200421 
L 598.238477 134.05916 
L 599.255056 134.220377 
L 600.271634 132.513138 
L 601.288213 132.436409 
L 602.304791 132 
L 603.32137 130.607401 
L 604.337949 131.49112 
L 605.354527 131.417143 
L 606.371106 133.545124 
L 607.387684 132.992165 
L 608.404263 134.100741 
L 609.420842 134.672526 
L 610.43742 134.120656 
L 611.453999 134.748957 
L 612.470578 134.022857 
L 615.520313 136.009899 
L 616.536892 135.170526 
L 617.553471 134.974545 
L 618.570049 135.418065 
L 619.586628 135.685956 
L 620.603206 134.449157 
L 622.636364 135.6192 
L 622.636364 135.6192 
" clip-path="url(#p767c165b2c)" style="fill: none; stroke: #800080; stroke-width: 1.5; stroke-linecap: round"/>
   </g>
   <g id="patch_3">
    <path d="M 90 384.48 
L 90 51.84 
" style="fill: none; stroke: #cccccc; stroke-width: 1.25; stroke-linejoin: miter; stroke-linecap: square"/>
   </g>
   <g id="patch_4">
    <path d="M 648 384.48 
L 648 51.84 
" style="fill: none; stroke: #cccccc; stroke-width: 1.25; stroke-linejoin: miter; stroke-linecap: square"/>
   </g>
   <g id="patch_5">
    <path d="M 90 384.48 
L 648 384.48 
" style="fill: none; stroke: #cccccc; stroke-width: 1.25; stroke-linejoin: miter; stroke-linecap: square"/>
   </g>
   <g id="patch_6">
    <path d="M 90 51.84 
L 648 51.84 
" style="fill: none; stroke: #cccccc; stroke-width: 1.25; stroke-linejoin: miter; stroke-linecap: square"/>
   </g>
   <g id="text_15">
    <!-- Bootstrap 统计量收敛演化曲线 -->
    <g style="fill: #262626" transform="translate(285 45.84) scale(0.12 -0.12)">
     <defs>
      <path id="SimHei-25" d="M 2950 1400 
Q 2950 675 2550 400 
Q 2150 125 1525 125 
L 275 125 
L 275 4400 
L 1575 4400 
Q 2200 4400 2512 4075 
Q 2825 3750 2825 3300 
Q 2825 2850 2612 2637 
Q 2400 2425 2175 2350 
Q 2475 2275 2712 2037 
Q 2950 1800 2950 1400 
z
M 2250 3300 
Q 2250 3625 2062 3775 
Q 1875 3925 1600 3925 
L 850 3925 
L 850 2600 
L 1575 2600 
Q 1850 2600 2050 2762 
Q 2250 2925 2250 3300 
z
M 2350 1400 
Q 2350 1800 2087 1962 
Q 1825 2125 1500 2125 
L 850 2125 
L 850 600 
L 1425 600 
Q 1875 600 2112 775 
Q 2350 950 2350 1400 
z
" transform="scale(0.015625)"/>
      <path id="SimHei-53" d="M 2825 1525 
Q 2825 800 2475 425 
Q 2125 50 1625 50 
Q 1350 50 1150 162 
Q 950 275 800 500 
L 800 -800 
L 300 -800 
L 300 2925 
L 800 2925 
L 800 2550 
Q 950 2775 1150 2875 
Q 1350 2975 1625 2975 
Q 2125 2975 2475 2612 
Q 2825 2250 2825 1525 
z
M 2275 1525 
Q 2275 2000 2087 2262 
Q 1900 2525 1525 2525 
Q 1225 2525 1012 2262 
Q 800 2000 800 1525 
Q 800 1050 1012 775 
Q 1225 500 1525 500 
Q 1900 500 2087 775 
Q 2275 1050 2275 1525 
z
" transform="scale(0.015625)"/>
      <path id="SimHei-1b6c" d="M 4250 5050 
Q 4125 4850 3750 4050 
L 5150 4050 
Q 5675 4050 6125 4075 
L 6125 3600 
Q 5675 3625 5300 3625 
Q 5225 2625 5025 1975 
Q 4825 1325 4575 900 
Q 4900 500 5287 275 
Q 5675 50 6200 -75 
Q 5900 -275 5800 -550 
Q 5300 -350 4950 -100 
Q 4600 150 4275 525 
Q 3800 0 2775 -625 
Q 2650 -425 2300 -225 
Q 3275 150 3950 925 
Q 3775 1325 3612 1787 
Q 3450 2250 3250 3000 
Q 2975 2450 2825 2275 
Q 2650 2400 2425 2525 
Q 2775 3025 3137 3837 
Q 3500 4650 3625 5250 
Q 3925 5125 4250 5050 
z
M 975 4275 
Q 925 3950 925 3450 
L 925 1575 
L 1775 1725 
L 1775 4425 
Q 1775 4775 1750 5150 
L 2250 5150 
Q 2225 4850 2225 4450 
L 2225 300 
Q 2225 -50 2250 -550 
L 1750 -550 
Q 1775 -25 1775 350 
L 1775 1350 
Q 625 1050 500 925 
Q 375 1125 225 1350 
Q 450 1475 450 1800 
L 450 3575 
Q 450 3925 425 4275 
L 975 4275 
z
M 3725 3150 
Q 3800 2700 3962 2212 
Q 4125 1725 4300 1375 
Q 4725 2150 4825 3625 
L 3575 3625 
Q 3400 3275 3300 3100 
L 3725 3150 
z
" transform="scale(0.015625)"/>
      <path id="SimHei-1b91" d="M 3525 2325 
Q 3375 2500 3125 2675 
Q 3525 3150 3775 3837 
Q 4025 4525 4125 5175 
Q 4350 5100 4700 5000 
Q 4625 4975 4537 4712 
Q 4450 4450 4300 4025 
L 5600 4025 
Q 5825 4025 6100 4050 
L 6100 3575 
Q 5725 3600 5525 3600 
Q 5450 2850 5325 2162 
Q 5200 1475 4900 800 
Q 5350 250 6200 -50 
Q 5975 -275 5850 -575 
Q 5050 -75 4625 425 
Q 4100 -200 3250 -675 
Q 3100 -350 2925 -175 
Q 3750 75 4325 775 
Q 4075 1225 3900 1687 
Q 3725 2150 3650 2550 
L 3525 2325 
z
M 2975 2925 
Q 2650 2950 2075 2950 
Q 1450 2950 1175 2925 
L 1175 3325 
Q 900 3000 575 2750 
Q 425 2975 175 3125 
Q 750 3525 1237 4187 
Q 1725 4850 1875 5275 
Q 2175 5100 2400 5000 
Q 2325 4900 2200 4700 
Q 2875 4300 3525 3850 
Q 3325 3575 3175 3375 
Q 2950 3625 2612 3900 
Q 2275 4175 1975 4375 
Q 1650 3925 1225 3375 
Q 1500 3350 2075 3350 
Q 2650 3350 2975 3375 
L 2975 2925 
z
M 3325 2450 
Q 3175 2250 3050 1725 
Q 2925 1200 2775 625 
Q 3075 675 3475 775 
Q 3400 575 3450 325 
Q 2300 150 1600 0 
Q 900 -150 725 -250 
Q 650 75 550 325 
Q 1125 350 2325 550 
Q 2475 1125 2600 1725 
Q 2725 2325 2750 2600 
Q 3000 2525 3325 2450 
z
M 3925 3000 
Q 4050 2500 4262 1925 
Q 4475 1350 4600 1175 
Q 4825 1725 4925 2287 
Q 5025 2850 5075 3600 
L 4175 3600 
Q 4100 3375 3925 3000 
z
M 1025 2350 
Q 1275 1625 1450 925 
Q 1200 850 1000 775 
Q 725 1875 575 2175 
Q 825 2250 1025 2350 
z
M 2000 2525 
Q 2150 1975 2275 1250 
Q 2050 1225 1825 1150 
Q 1775 1525 1575 2425 
Q 1775 2475 2000 2525 
z
" transform="scale(0.015625)"/>
      <path id="SimHei-254a" d="M 4475 3575 
Q 4825 3575 5250 3600 
L 5250 3200 
Q 4850 3225 4475 3225 
L 4175 3225 
L 4175 2700 
L 5675 2700 
Q 5650 2375 5650 2000 
L 5650 1275 
Q 5650 975 5675 625 
L 4750 625 
Q 5025 475 5375 250 
Q 5725 25 6100 -250 
Q 5925 -450 5800 -650 
Q 5425 -350 5075 -112 
Q 4725 125 4425 300 
Q 4600 500 4675 625 
L 2300 625 
Q 2325 975 2325 1275 
L 2325 2000 
Q 2325 2375 2300 2700 
L 3750 2700 
L 3750 3225 
L 3475 3225 
Q 3125 3225 2700 3200 
L 2700 3600 
Q 3150 3575 3450 3575 
L 4475 3575 
z
M 3850 5275 
Q 4125 4825 4275 4475 
L 6100 4475 
Q 6075 4175 6075 3925 
Q 6075 3700 6100 3400 
L 5600 3400 
L 5600 4125 
L 2425 4125 
L 2425 3450 
L 1925 3450 
Q 1950 3750 1950 3975 
Q 1950 4200 1925 4475 
L 3725 4475 
Q 3625 4775 3375 5100 
Q 3650 5175 3850 5275 
z
M 1775 1325 
Q 1500 850 1337 575 
Q 1175 300 1025 37 
Q 875 -225 700 -550 
Q 500 -350 275 -175 
Q 600 200 900 737 
Q 1200 1275 1400 1700 
Q 1575 1500 1775 1325 
z
M 3600 225 
Q 3425 125 3012 -162 
Q 2600 -450 2175 -700 
Q 2025 -500 1850 -350 
Q 2200 -200 2537 12 
Q 2875 225 3200 550 
Q 3375 375 3600 225 
z
M 525 3425 
Q 1275 2975 1550 2750 
Q 1400 2550 1275 2325 
Q 1050 2550 275 3050 
Q 400 3200 525 3425 
z
M 725 5025 
Q 1475 4575 1750 4375 
Q 1575 4225 1475 3975 
Q 750 4550 475 4650 
Q 650 4875 725 5025 
z
M 5200 975 
L 5200 1475 
L 4175 1475 
L 4175 975 
L 5200 975 
z
M 5200 1850 
L 5200 2350 
L 4175 2350 
L 4175 1850 
L 5200 1850 
z
M 3750 1850 
L 3750 2350 
L 2750 2350 
L 2750 1850 
L 3750 1850 
z
M 3750 975 
L 3750 1475 
L 2750 1475 
L 2750 975 
L 3750 975 
z
" transform="scale(0.015625)"/>
      <path id="SimHei-94c" d="M 3925 5025 
Q 3900 4900 3900 4400 
L 3900 2625 
Q 4375 3025 4775 3450 
Q 5175 3875 5400 4300 
Q 5600 4100 5900 3925 
Q 5700 3700 5225 3212 
Q 4750 2725 4487 2512 
Q 4225 2300 3900 2025 
L 3900 450 
Q 3900 50 4225 50 
L 5200 50 
Q 5400 75 5462 262 
Q 5525 450 5575 850 
Q 5800 650 6150 600 
Q 6000 -100 5825 -250 
Q 5650 -400 5350 -400 
L 3950 -400 
Q 3425 -400 3400 200 
L 3400 1675 
Q 3225 1525 2962 1350 
Q 2700 1175 2375 975 
Q 2225 1225 2025 1400 
Q 2350 1550 2737 1787 
Q 3125 2025 3400 2250 
L 3400 4500 
Q 3400 4800 3375 5025 
L 3925 5025 
z
M 2400 4850 
Q 2175 4550 2075 4337 
Q 1975 4125 1825 3775 
L 1825 675 
Q 1825 -75 1850 -550 
L 1325 -550 
Q 1350 -125 1350 650 
L 1350 3050 
Q 1125 2725 962 2525 
Q 800 2325 675 2175 
Q 500 2375 275 2525 
Q 625 2850 875 3212 
Q 1125 3575 1312 3912 
Q 1500 4250 1625 4575 
Q 1750 4900 1825 5100 
Q 1975 4975 2400 4850 
z
" transform="scale(0.015625)"/>
      <path id="SimHei-1d28" d="M 5825 500 
Q 5825 -200 5850 -550 
L 5275 -550 
L 5275 -50 
L 1150 -50 
L 1150 -550 
L 575 -550 
Q 600 125 600 550 
L 600 2775 
Q 600 3425 575 3900 
L 2150 3900 
L 2150 4450 
Q 2125 4850 2125 5150 
L 2700 5150 
Q 2650 4825 2650 4475 
L 2650 3900 
L 3700 3900 
L 3700 4525 
Q 3700 4850 3675 5175 
L 4250 5175 
Q 4225 4875 4225 4550 
L 4225 3900 
L 5850 3900 
Q 5825 3525 5825 2750 
L 5825 500 
z
M 3700 325 
L 3700 1875 
L 2650 1875 
L 2650 325 
L 3700 325 
z
M 5275 325 
L 5275 1875 
L 4225 1875 
L 4225 325 
L 5275 325 
z
M 2150 325 
L 2150 1875 
L 1150 1875 
L 1150 325 
L 2150 325 
z
M 3700 2250 
L 3700 3525 
L 2650 3525 
L 2650 2250 
L 3700 2250 
z
M 5275 2250 
L 5275 3525 
L 4225 3525 
L 4225 2250 
L 5275 2250 
z
M 2150 2250 
L 2150 3525 
L 1150 3525 
L 1150 2250 
L 2150 2250 
z
" transform="scale(0.015625)"/>
      <path id="SimHei-34f5" d="M 3450 4300 
Q 3450 4675 3375 5125 
Q 3700 5100 4050 5050 
Q 3975 4900 3950 4562 
Q 3925 4225 3950 3600 
L 4800 3750 
Q 5225 3850 5650 3975 
L 5750 3500 
Q 5325 3450 4875 3375 
L 3975 3200 
Q 3975 2800 4025 2500 
L 5000 2675 
Q 5500 2775 5950 2925 
L 6025 2450 
Q 5575 2375 5075 2275 
L 4100 2100 
Q 4150 1600 4350 1175 
Q 4575 1350 4787 1575 
Q 5000 1800 5175 2075 
Q 5550 1775 5750 1675 
Q 5425 1525 5237 1337 
Q 5050 1150 4625 750 
Q 4925 250 5162 112 
Q 5400 -25 5500 100 
Q 5600 225 5675 625 
Q 5900 450 6200 350 
Q 5775 -750 5275 -537 
Q 4775 -325 4225 450 
Q 3875 175 3537 -62 
Q 3200 -300 2700 -550 
Q 2575 -300 2325 -100 
Q 2825 75 3175 275 
Q 3525 475 3975 850 
Q 3750 1350 3650 2025 
Q 2900 1900 2600 1800 
L 2525 2275 
Q 2825 2275 3550 2425 
Q 3500 2825 3500 3100 
Q 2825 2950 2575 2875 
L 2475 3350 
Q 2725 3350 3450 3500 
L 3450 4300 
z
M 1950 4875 
Q 1700 4650 1462 4237 
Q 1225 3825 825 3225 
Q 1425 3250 1650 3250 
Q 1875 3625 2050 4075 
Q 2300 3900 2600 3800 
Q 2350 3550 2087 3125 
Q 1825 2700 1175 1675 
Q 1850 1725 2375 1775 
Q 2300 1525 2300 1350 
Q 2125 1350 1525 1287 
Q 925 1225 550 1125 
Q 525 1375 400 1650 
Q 700 1725 950 2050 
Q 1200 2375 1475 2875 
Q 650 2825 425 2675 
Q 350 2950 200 3225 
Q 525 3450 825 3962 
Q 1125 4475 1375 5150 
Q 1625 4975 1950 4875 
z
M 2575 875 
Q 2550 600 2575 450 
Q 1950 325 1450 200 
Q 950 75 525 -75 
Q 450 200 250 475 
Q 950 550 1325 612 
Q 1700 675 2575 875 
z
M 4850 4025 
Q 4675 4300 4375 4675 
L 4775 4875 
Q 4875 4750 5275 4275 
Q 5025 4175 4850 4025 
z
" transform="scale(0.015625)"/>
     </defs>
     <use xlink:href="#SimHei-25"/>
     <use xlink:href="#SimHei-52" transform="translate(50 0)"/>
     <use xlink:href="#SimHei-52" transform="translate(100 0)"/>
     <use xlink:href="#SimHei-57" transform="translate(150 0)"/>
     <use xlink:href="#SimHei-56" transform="translate(200 0)"/>
     <use xlink:href="#SimHei-57" transform="translate(250 0)"/>
     <use xlink:href="#SimHei-55" transform="translate(300 0)"/>
     <use xlink:href="#SimHei-44" transform="translate(350 0)"/>
     <use xlink:href="#SimHei-53" transform="translate(400 0)"/>
     <use xlink:href="#SimHei-3" transform="translate(450 0)"/>
     <use xlink:href="#SimHei-3515" transform="translate(500 0)"/>
     <use xlink:href="#SimHei-41d7" transform="translate(600 0)"/>
     <use xlink:href="#SimHei-4805" transform="translate(700 0)"/>
     <use xlink:href="#SimHei-1b6c" transform="translate(800 0)"/>
     <use xlink:href="#SimHei-1b91" transform="translate(900 0)"/>
     <use xlink:href="#SimHei-254a" transform="translate(1000 0)"/>
     <use xlink:href="#SimHei-94c" transform="translate(1100 0)"/>
     <use xlink:href="#SimHei-1d28" transform="translate(1200 0)"/>
     <use xlink:href="#SimHei-34f5" transform="translate(1300 0)"/>
    </g>
   </g>
   <g id="legend_1">
    <g id="patch_7">
     <path d="M 561.1 77.14 
L 640.3 77.14 
Q 642.5 77.14 642.5 74.94 
L 642.5 59.54 
Q 642.5 57.34 640.3 57.34 
L 561.1 57.34 
Q 558.9 57.34 558.9 59.54 
L 558.9 74.94 
Q 558.9 77.14 561.1 77.14 
z
" style="fill: #ffffff; opacity: 0.8; stroke: #cccccc; stroke-linejoin: miter"/>
    </g>
    <g id="line2d_14">
     <path d="M 563.3 67.343125 
L 574.3 67.343125 
L 585.3 67.343125 
" style="fill: none; stroke: #800080; stroke-width: 1.5; stroke-linecap: round"/>
    </g>
    <g id="text_16">
     <!-- 累积均值 -->
     <g style="fill: #262626" transform="translate(594.1 71.193125) scale(0.11 -0.11)">
      <defs>
       <path id="SimHei-3365" d="M 5475 5000 
Q 5450 4600 5450 3975 
Q 5450 3350 5475 2950 
L 4675 2950 
Q 4850 2775 5075 2600 
Q 4800 2525 4237 2275 
Q 3675 2025 3262 1837 
Q 2850 1650 2400 1425 
Q 3850 1525 4650 1575 
Q 4425 1725 4200 1850 
Q 4375 2000 4500 2175 
Q 5125 1800 5900 1300 
Q 5750 1125 5575 900 
Q 5375 1075 5100 1250 
Q 4250 1175 3475 1125 
L 3475 50 
Q 3475 -350 3212 -462 
Q 2950 -575 2600 -600 
Q 2575 -375 2375 -50 
Q 2800 -75 2900 -25 
Q 3000 25 3000 125 
L 3000 1075 
Q 2400 1050 1987 1012 
Q 1575 975 850 875 
Q 775 1125 700 1350 
Q 1150 1400 1575 1512 
Q 2000 1625 3025 2125 
Q 1775 2025 1250 1925 
Q 1200 2200 1100 2375 
Q 1325 2375 1737 2537 
Q 2150 2700 2475 2950 
L 950 2950 
Q 975 3375 975 3975 
Q 975 4600 950 5000 
L 5475 5000 
z
M 2425 525 
Q 2200 400 1762 137 
Q 1325 -125 850 -425 
Q 700 -225 500 -25 
Q 850 125 1250 362 
Q 1650 600 2025 900 
Q 2150 725 2425 525 
z
M 2975 4100 
L 2975 4650 
L 1450 4650 
L 1450 4100 
L 2975 4100 
z
M 4975 4100 
L 4975 4650 
L 3450 4650 
L 3450 4100 
L 4975 4100 
z
M 4275 850 
Q 4750 650 5050 500 
L 5850 100 
Q 5675 -125 5575 -375 
Q 5150 -100 4775 100 
Q 4400 300 4050 450 
Q 4200 675 4275 850 
z
M 2975 3275 
L 2975 3750 
L 1450 3750 
L 1450 3275 
L 2975 3275 
z
M 4975 3275 
L 4975 3750 
L 3450 3750 
L 3450 3275 
L 4975 3275 
z
M 3700 2475 
Q 4200 2700 4575 2950 
L 3225 2950 
Q 2900 2750 2300 2425 
Q 3075 2450 3700 2475 
z
" transform="scale(0.015625)"/>
       <path id="SimHei-3025" d="M 5675 4700 
Q 5650 4275 5650 3575 
L 5650 2750 
Q 5650 2225 5675 1750 
L 3100 1750 
Q 3125 2225 3125 2750 
L 3125 3600 
Q 3125 4275 3100 4700 
L 5675 4700 
z
M 2850 4625 
Q 2600 4575 2400 4525 
Q 2200 4475 1925 4425 
L 1925 3275 
Q 2525 3275 2875 3300 
L 2875 2825 
Q 2525 2850 1925 2850 
L 1925 2075 
Q 2125 2225 2250 2350 
Q 2650 1775 2875 1450 
Q 2750 1375 2450 1150 
Q 2250 1575 1925 2000 
L 1925 300 
Q 1925 -75 1950 -675 
L 1425 -675 
Q 1475 -75 1475 300 
L 1475 1925 
Q 1275 1475 1125 1225 
Q 975 975 650 525 
Q 450 700 200 825 
Q 575 1200 900 1750 
Q 1225 2300 1375 2850 
Q 1025 2850 300 2825 
L 300 3300 
Q 1025 3275 1475 3275 
L 1475 4325 
Q 975 4250 525 4175 
Q 450 4400 350 4625 
Q 675 4600 1462 4750 
Q 2250 4900 2550 5075 
Q 2725 4775 2850 4625 
z
M 5175 2175 
L 5175 4300 
L 3575 4300 
L 3575 2175 
L 5175 2175 
z
M 4025 1075 
Q 3875 850 3512 350 
Q 3150 -150 2700 -650 
Q 2525 -475 2300 -300 
Q 2625 -50 2950 375 
Q 3275 800 3575 1400 
Q 3825 1200 4025 1075 
z
M 5050 1325 
Q 5275 1025 5587 625 
Q 5900 225 6200 -225 
Q 5900 -400 5725 -550 
Q 5550 -225 5200 287 
Q 4850 800 4650 1025 
Q 4850 1150 5050 1325 
z
" transform="scale(0.015625)"/>
       <path id="SimHei-d7d" d="M 5775 275 
Q 5775 -325 5362 -450 
Q 4950 -575 4425 -600 
Q 4375 -275 4250 25 
Q 4950 -25 5125 62 
Q 5300 150 5300 500 
L 5375 3700 
L 3550 3700 
Q 3425 3375 3262 3037 
Q 3100 2700 2925 2400 
Q 2675 2550 2475 2625 
Q 3150 3625 3500 5200 
Q 3800 5100 4075 5025 
Q 3975 4875 3875 4650 
Q 3775 4425 3675 4125 
L 5900 4125 
L 5775 275 
z
M 1250 3625 
L 1250 4375 
Q 1250 4775 1225 5100 
L 1775 5100 
Q 1750 4725 1750 4375 
L 1750 3625 
L 1900 3625 
Q 2200 3625 2525 3650 
L 2525 3150 
Q 2200 3175 1900 3175 
L 1750 3175 
L 1750 1100 
L 2500 1375 
Q 2475 1125 2525 900 
Q 1225 475 962 362 
Q 700 250 475 150 
Q 375 475 250 750 
Q 575 800 800 850 
Q 1025 900 1250 975 
L 1250 3175 
L 1125 3175 
Q 850 3175 400 3150 
L 400 3650 
Q 850 3625 1100 3625 
L 1250 3625 
z
M 4950 1625 
Q 4675 1425 4137 1050 
Q 3600 675 3175 300 
Q 3000 575 2850 775 
Q 3350 1050 3762 1325 
Q 4175 1600 4775 2075 
Q 4825 1850 4950 1625 
z
M 3775 3150 
Q 4125 2800 4475 2300 
Q 4250 2125 4100 1975 
Q 3900 2325 3450 2825 
Q 3600 3000 3775 3150 
z
" transform="scale(0.015625)"/>
      </defs>
      <use xlink:href="#SimHei-3365"/>
      <use xlink:href="#SimHei-3025" transform="translate(100 0)"/>
      <use xlink:href="#SimHei-d7d" transform="translate(200 0)"/>
      <use xlink:href="#SimHei-672" transform="translate(300 0)"/>
     </g>
    </g>
   </g>
  </g>
 </g>
 <defs>
  <clipPath id="p767c165b2c">
   <rect x="90" y="51.84" width="558" height="332.64"/>
  </clipPath>
 </defs>
</svg>
