<?xml version="1.0" encoding="utf-8" standalone="no"?>
<!DOCTYPE svg PUBLIC "-//W3C//DTD SVG 1.1//EN"
  "http://www.w3.org/Graphics/SVG/1.1/DTD/svg11.dtd">
<svg xmlns:xlink="http://www.w3.org/1999/xlink" width="720pt" height="432pt" viewBox="0 0 720 432" xmlns="http://www.w3.org/2000/svg" version="1.1">
 <metadata>
  <rdf:RDF xmlns:dc="http://purl.org/dc/elements/1.1/" xmlns:cc="http://creativecommons.org/ns#" xmlns:rdf="http://www.w3.org/1999/02/22-rdf-syntax-ns#">
   <cc:Work>
    <dc:type rdf:resource="http://purl.org/dc/dcmitype/StillImage"/>
    <dc:date>2026-07-07T11:22:18.499434</dc:date>
    <dc:format>image/svg+xml</dc:format>
    <dc:creator>
     <cc:Agent>
      <dc:title>Matplotlib v3.11.0, https://matplotlib.org/</dc:title>
     </cc:Agent>
    </dc:creator>
   </cc:Work>
  </rdf:RDF>
 </metadata>
 <defs>
  <style type="text/css">*{stroke-linejoin: round; stroke-linecap: butt}</style>
 </defs>
 <g id="figure_1">
  <g id="patch_1">
   <path d="M 0 432 
L 720 432 
L 720 0 
L 0 0 
z
" style="fill: #ffffff"/>
  </g>
  <g id="axes_1">
   <g id="patch_2">
    <path d="M 90 384.48 
L 648 384.48 
L 648 51.84 
L 90 51.84 
z
" style="fill: #ffffff"/>
   </g>
   <g id="matplotlib.axis_1">
    <g id="xtick_1">
     <g id="line2d_1">
      <path d="M 115.363636 384.48 
L 115.363636 51.84 
" clip-path="url(#p328bdb3f48)" style="fill: none; stroke: #cccccc; stroke-linecap: round"/>
     </g>
     <g id="text_1">
      <!-- 0 -->
      <g style="fill: #262626" transform="translate(112.613636 403.433125) scale(0.11 -0.11)">
       <defs>
        <path id="SimHei-13" d="M 225 2537 
Q 250 3200 412 3587 
Q 575 3975 875 4225 
Q 1175 4475 1612 4475 
Q 2050 4475 2375 4112 
Q 2700 3750 2800 3200 
Q 2900 2650 2862 1937 
Q 2825 1225 2612 775 
Q 2400 325 1975 150 
Q 1550 -25 1125 187 
Q 700 400 525 750 
Q 350 1100 275 1487 
Q 200 1875 225 2537 
z
M 750 2687 
Q 675 2000 800 1462 
Q 925 925 1212 700 
Q 1500 475 1800 612 
Q 2100 750 2237 1162 
Q 2375 1575 2375 2062 
Q 2375 2550 2337 2950 
Q 2300 3350 2112 3675 
Q 1925 4000 1612 4012 
Q 1300 4025 1062 3700 
Q 825 3375 750 2687 
z
" transform="scale(0.015625)"/>
       </defs>
       <use xlink:href="#SimHei-13"/>
      </g>
     </g>
    </g>
    <g id="xtick_2">
     <g id="line2d_2">
      <path d="M 216.919738 384.48 
L 216.919738 51.84 
" clip-path="url(#p328bdb3f48)" style="fill: none; stroke: #cccccc; stroke-linecap: round"/>
     </g>
     <g id="text_2">
      <!-- 200 -->
      <g style="fill: #262626" transform="translate(208.669738 403.433125) scale(0.11 -0.11)">
       <defs>
        <path id="SimHei-15" d="M 300 250 
Q 325 625 650 925 
Q 975 1225 1475 1862 
Q 1975 2500 2125 2850 
Q 2275 3200 2237 3450 
Q 2200 3700 2000 3862 
Q 1800 4025 1537 4000 
Q 1275 3975 1037 3800 
Q 800 3625 675 3275 
L 200 3350 
Q 400 3925 712 4187 
Q 1025 4450 1450 4475 
Q 1700 4500 1900 4462 
Q 2100 4425 2312 4287 
Q 2525 4150 2662 3875 
Q 2800 3600 2762 3212 
Q 2725 2825 2375 2287 
Q 2025 1750 1025 600 
L 2825 600 
L 2825 150 
L 300 150 
L 300 250 
z
" transform="scale(0.015625)"/>
       </defs>
       <use xlink:href="#SimHei-15"/>
       <use xlink:href="#SimHei-13" transform="translate(50 0)"/>
       <use xlink:href="#SimHei-13" transform="translate(100 0)"/>
      </g>
     </g>
    </g>
    <g id="xtick_3">
     <g id="line2d_3">
      <path d="M 318.475839 384.48 
L 318.475839 51.84 
" clip-path="url(#p328bdb3f48)" style="fill: none; stroke: #cccccc; stroke-linecap: round"/>
     </g>
     <g id="text_3">
      <!-- 400 -->
      <g style="fill: #262626" transform="translate(310.225839 403.433125) scale(0.11 -0.11)">
       <defs>
        <path id="SimHei-17" d="M 2000 1100 
L 75 1100 
L 75 1525 
L 2100 4450 
L 2475 4450 
L 2475 1525 
L 3075 1525 
L 3075 1100 
L 2475 1100 
L 2475 150 
L 2000 150 
L 2000 1100 
z
M 2000 1525 
L 2000 3500 
L 600 1525 
L 2000 1525 
z
" transform="scale(0.015625)"/>
       </defs>
       <use xlink:href="#SimHei-17"/>
       <use xlink:href="#SimHei-13" transform="translate(50 0)"/>
       <use xlink:href="#SimHei-13" transform="translate(100 0)"/>
      </g>
     </g>
    </g>
    <g id="xtick_4">
     <g id="line2d_4">
      <path d="M 420.031941 384.48 
L 420.031941 51.84 
" clip-path="url(#p328bdb3f48)" style="fill: none; stroke: #cccccc; stroke-linecap: round"/>
     </g>
     <g id="text_4">
      <!-- 600 -->
      <g style="fill: #262626" transform="translate(411.781941 403.433125) scale(0.11 -0.11)">
       <defs>
        <path id="SimHei-19" d="M 250 1612 
Q 275 1975 387 2225 
Q 500 2475 725 2850 
L 1750 4450 
L 2325 4450 
L 1275 2800 
Q 1950 2975 2350 2750 
Q 2750 2525 2887 2237 
Q 3025 1950 3037 1612 
Q 3050 1275 2937 950 
Q 2825 625 2537 362 
Q 2250 100 1737 75 
Q 1225 50 862 262 
Q 500 475 362 862 
Q 225 1250 250 1612 
z
M 1025 787 
Q 1250 550 1625 525 
Q 2000 500 2250 775 
Q 2500 1050 2500 1575 
Q 2500 2100 2187 2300 
Q 1875 2500 1487 2450 
Q 1100 2400 925 2075 
Q 750 1750 775 1387 
Q 800 1025 1025 787 
z
" transform="scale(0.015625)"/>
       </defs>
       <use xlink:href="#SimHei-19"/>
       <use xlink:href="#SimHei-13" transform="translate(50 0)"/>
       <use xlink:href="#SimHei-13" transform="translate(100 0)"/>
      </g>
     </g>
    </g>
    <g id="xtick_5">
     <g id="line2d_5">
      <path d="M 521.588043 384.48 
L 521.588043 51.84 
" clip-path="url(#p328bdb3f48)" style="fill: none; stroke: #cccccc; stroke-linecap: round"/>
     </g>
     <g id="text_5">
      <!-- 800 -->
      <g style="fill: #262626" transform="translate(513.338043 403.433125) scale(0.11 -0.11)">
       <defs>
        <path id="SimHei-1b" d="M 175 1375 
Q 175 1675 325 1962 
Q 475 2250 825 2425 
Q 525 2600 425 2812 
Q 325 3025 312 3300 
Q 300 3575 387 3775 
Q 475 3975 650 4150 
Q 825 4325 1037 4387 
Q 1250 4450 1500 4450 
Q 1750 4450 1950 4400 
Q 2150 4350 2375 4187 
Q 2600 4025 2700 3725 
Q 2800 3425 2687 3025 
Q 2575 2625 2100 2400 
Q 2525 2275 2700 2012 
Q 2875 1750 2875 1375 
Q 2875 1000 2762 775 
Q 2650 550 2512 400 
Q 2375 250 2137 162 
Q 1900 75 1537 75 
Q 1175 75 912 162 
Q 650 250 475 425 
Q 300 600 237 837 
Q 175 1075 175 1375 
z
M 687 1400 
Q 675 1100 787 875 
Q 900 650 1200 587 
Q 1500 525 1825 600 
Q 2150 675 2275 950 
Q 2400 1225 2362 1500 
Q 2325 1775 2050 1962 
Q 1775 2150 1450 2125 
Q 1125 2100 912 1900 
Q 700 1700 687 1400 
z
M 775 3350 
Q 775 3100 950 2875 
Q 1125 2650 1500 2650 
Q 1875 2650 2062 2875 
Q 2250 3100 2237 3412 
Q 2225 3725 2012 3875 
Q 1800 4025 1437 4000 
Q 1075 3975 925 3787 
Q 775 3600 775 3350 
z
" transform="scale(0.015625)"/>
       </defs>
       <use xlink:href="#SimHei-1b"/>
       <use xlink:href="#SimHei-13" transform="translate(50 0)"/>
       <use xlink:href="#SimHei-13" transform="translate(100 0)"/>
      </g>
     </g>
    </g>
    <g id="xtick_6">
     <g id="line2d_6">
      <path d="M 623.144144 384.48 
L 623.144144 51.84 
" clip-path="url(#p328bdb3f48)" style="fill: none; stroke: #cccccc; stroke-linecap: round"/>
     </g>
     <g id="text_6">
      <!-- 1000 -->
      <g style="fill: #262626" transform="translate(612.144144 403.433125) scale(0.11 -0.11)">
       <defs>
        <path id="SimHei-14" d="M 1400 3600 
Q 1075 3275 575 2975 
L 575 3450 
Q 1200 3875 1600 4450 
L 1900 4450 
L 1900 150 
L 1400 150 
L 1400 3600 
z
" transform="scale(0.015625)"/>
       </defs>
       <use xlink:href="#SimHei-14"/>
       <use xlink:href="#SimHei-13" transform="translate(50 0)"/>
       <use xlink:href="#SimHei-13" transform="translate(100 0)"/>
       <use xlink:href="#SimHei-13" transform="translate(150 0)"/>
      </g>
     </g>
    </g>
    <g id="text_7">
     <!-- 重采样次数 (Iterations) -->
     <g style="fill: #262626" transform="translate(300 419.2925) scale(0.12 -0.12)">
      <defs>
       <path id="SimHei-4803" d="M 5300 4575 
Q 3900 4450 3425 4400 
L 3425 3875 
L 5150 3875 
Q 5500 3875 6000 3900 
L 6000 3450 
Q 5500 3475 5150 3475 
L 3425 3475 
L 3425 3050 
L 5150 3050 
Q 5125 2675 5125 2125 
Q 5125 1575 5150 1175 
L 3425 1175 
L 3425 750 
L 4550 750 
Q 5000 750 5500 775 
L 5500 375 
Q 5025 400 4575 400 
L 3425 400 
L 3425 -50 
L 5050 -50 
Q 5475 -50 5975 -25 
L 5975 -450 
Q 5475 -425 5075 -425 
L 1475 -425 
Q 975 -425 450 -450 
L 450 -25 
Q 975 -50 1450 -50 
L 2925 -50 
L 2925 400 
L 2050 400 
Q 1450 400 950 375 
L 950 775 
Q 1600 750 2075 750 
L 2925 750 
L 2925 1175 
L 1250 1175 
Q 1275 1800 1275 2125 
Q 1275 2450 1250 3050 
L 2925 3050 
L 2925 3475 
L 1225 3475 
Q 875 3475 400 3450 
L 400 3900 
Q 875 3875 1225 3875 
L 2925 3875 
L 2925 4375 
Q 2425 4350 1075 4250 
Q 1000 4475 875 4675 
Q 2275 4700 3362 4812 
Q 4450 4925 4925 5075 
Q 5025 4825 5300 4575 
z
M 4650 2300 
L 4650 2650 
L 3425 2650 
L 3425 2300 
L 4650 2300 
z
M 2925 2300 
L 2925 2650 
L 1750 2650 
L 1750 2300 
L 2925 2300 
z
M 4625 1575 
L 4625 1900 
L 3425 1900 
L 3425 1575 
L 4625 1575 
z
M 2925 1575 
L 2925 1900 
L 1750 1900 
L 1750 1575 
L 2925 1575 
z
" transform="scale(0.015625)"/>
       <path id="SimHei-47fd" d="M 2900 2250 
Q 2900 2475 2875 2925 
L 3400 2925 
Q 3375 2525 3375 2250 
L 5175 2250 
Q 5550 2250 6075 2275 
L 6075 1775 
Q 5550 1800 5200 1800 
L 3900 1800 
Q 4300 1125 4887 750 
Q 5475 375 6125 200 
Q 5800 0 5650 -350 
Q 4950 -75 4362 450 
Q 3775 975 3400 1750 
L 3375 1750 
L 3375 400 
Q 3375 -25 3400 -625 
L 2825 -625 
Q 2875 0 2875 400 
L 2875 1600 
Q 2500 1025 1950 525 
Q 1400 25 650 -400 
Q 475 -150 200 25 
Q 850 300 1437 775 
Q 2025 1250 2375 1800 
Q 750 1800 300 1775 
L 300 2275 
Q 825 2250 2900 2250 
z
M 5575 4525 
Q 4975 4525 3587 4387 
Q 2200 4250 850 4125 
Q 775 4450 625 4650 
Q 1200 4625 2775 4750 
Q 4350 4875 5250 5150 
Q 5375 4800 5575 4525 
z
M 5475 4025 
Q 5200 3700 5000 3400 
Q 4800 3100 4550 2700 
Q 4375 2850 4100 3000 
Q 4475 3475 4975 4350 
Q 5250 4150 5475 4025 
z
M 1375 4025 
Q 1950 3275 2075 2925 
Q 1875 2825 1600 2650 
Q 1400 3150 925 3750 
Q 1125 3850 1375 4025 
z
M 3000 4250 
Q 3425 3450 3500 3175 
Q 3225 3075 3025 2950 
Q 2900 3400 2550 4025 
Q 2775 4100 3000 4250 
z
" transform="scale(0.015625)"/>
       <path id="SimHei-1e6d" d="M 4350 4025 
Q 4600 4575 4850 5225 
Q 5250 5075 5375 5000 
Q 5150 4725 4850 4025 
L 4950 4025 
Q 5650 4050 5950 4050 
L 5950 3600 
Q 5675 3625 5175 3625 
L 4550 3625 
L 4550 2650 
L 4950 2650 
Q 5525 2675 5800 2675 
L 5800 2225 
Q 5475 2250 5025 2250 
L 4550 2250 
L 4550 1225 
L 5325 1225 
Q 5800 1250 6100 1250 
L 6100 800 
Q 5825 825 5325 825 
L 4550 825 
L 4550 275 
Q 4550 -250 4575 -600 
L 4075 -600 
L 4075 825 
L 3475 825 
Q 3000 825 2550 800 
L 2550 1275 
Q 3000 1250 3500 1225 
L 4075 1225 
L 4075 2250 
L 3650 2250 
Q 3225 2250 2900 2225 
L 2900 2700 
Q 3200 2675 3675 2650 
L 4075 2650 
L 4075 3625 
L 3475 3625 
Q 3050 3625 2750 3600 
L 2750 4075 
Q 3050 4050 3475 4025 
L 4350 4025 
z
M 1325 4350 
Q 1325 4775 1300 5125 
L 1825 5125 
Q 1800 4725 1800 4350 
L 1800 3750 
Q 2125 3750 2475 3775 
L 2475 3325 
Q 2125 3350 1800 3350 
L 1800 2425 
Q 2000 2600 2100 2675 
Q 2375 2325 2725 1775 
Q 2575 1700 2300 1475 
Q 2025 1975 1800 2350 
L 1800 475 
Q 1800 -50 1825 -575 
L 1300 -575 
Q 1325 -25 1325 475 
L 1325 2250 
Q 925 1300 525 725 
Q 425 950 225 1175 
Q 950 2150 1225 3350 
Q 825 3350 350 3325 
L 350 3775 
Q 825 3750 1325 3750 
L 1325 4350 
z
M 3575 5200 
Q 3800 4775 3950 4350 
Q 3650 4250 3525 4175 
Q 3350 4600 3150 5000 
Q 3425 5125 3575 5200 
z
" transform="scale(0.015625)"/>
       <path id="SimHei-2157" d="M 4150 3025 
Q 4000 2550 4050 2187 
Q 4100 1825 4275 1450 
Q 4450 1075 4800 750 
Q 5150 425 5475 212 
Q 5800 0 6150 -150 
Q 5875 -350 5750 -625 
Q 5250 -325 4887 -25 
Q 4525 275 4275 612 
Q 4025 950 3825 1425 
Q 3525 625 2950 125 
Q 2375 -375 1850 -650 
Q 1675 -400 1475 -225 
Q 2025 0 2487 362 
Q 2950 725 3162 1100 
Q 3375 1475 3450 1825 
Q 3525 2175 3537 2400 
Q 3550 2625 3525 3125 
Q 3825 3050 4150 3025 
z
M 3700 4975 
Q 3625 4900 3475 4575 
Q 3325 4250 3250 4075 
L 5775 4075 
Q 5650 3725 5550 3362 
Q 5450 3000 5275 2500 
Q 5000 2575 4775 2600 
Q 5025 3350 5100 3650 
L 3100 3650 
Q 2975 3400 2812 3100 
Q 2650 2800 2425 2450 
Q 2275 2600 1975 2700 
Q 2300 3050 2625 3762 
Q 2950 4475 3125 5200 
Q 3450 5025 3700 4975 
z
M 2025 2000 
Q 1825 1675 1475 1087 
Q 1125 500 725 -200 
Q 500 -25 250 175 
Q 725 725 1037 1262 
Q 1350 1800 1575 2325 
Q 1750 2175 2025 2000 
z
M 900 4750 
Q 1725 3725 1950 3375 
Q 1750 3250 1500 3050 
Q 1250 3525 500 4425 
Q 700 4575 900 4750 
z
" transform="scale(0.015625)"/>
       <path id="SimHei-1ba6" d="M 4525 4925 
Q 4475 4800 4400 4587 
Q 4325 4375 4175 3825 
L 5325 3825 
Q 5575 3825 5925 3850 
L 5925 3400 
Q 5650 3425 5500 3425 
Q 5500 3025 5362 2162 
Q 5225 1300 4875 675 
Q 5125 375 5437 137 
Q 5750 -100 6025 -200 
Q 5725 -425 5625 -625 
Q 5325 -450 5075 -225 
Q 4825 0 4575 325 
Q 4300 25 3987 -187 
Q 3675 -400 3200 -650 
Q 3075 -425 2850 -300 
Q 3225 -150 3650 125 
Q 4075 400 4300 675 
Q 4125 1025 3962 1425 
Q 3800 1825 3675 2475 
Q 3600 2275 3425 1950 
Q 3250 2050 3000 2150 
Q 3400 2850 3650 3675 
Q 3900 4500 3975 5100 
Q 4275 4975 4525 4925 
z
M 2100 2250 
Q 2000 2150 1875 1925 
L 3250 1925 
Q 3100 1300 2725 675 
Q 3125 525 3350 400 
Q 3225 225 3125 25 
Q 2900 175 2450 325 
Q 1950 -225 725 -650 
Q 600 -375 400 -275 
Q 1575 0 2000 475 
Q 1300 650 850 775 
Q 1000 1000 1250 1525 
Q 1000 1525 425 1500 
L 425 1950 
Q 900 1925 1400 1925 
Q 1500 2150 1550 2425 
Q 1825 2325 2100 2250 
z
M 1775 3950 
Q 1775 4550 1750 5100 
L 2250 5100 
Q 2225 4575 2225 3950 
Q 3075 3950 3425 3975 
L 3425 3525 
Q 3075 3550 2225 3550 
Q 2225 2825 2250 2425 
L 1750 2425 
Q 1775 2775 1775 3300 
Q 1650 3100 1300 2787 
Q 950 2475 650 2300 
Q 525 2525 275 2625 
Q 500 2700 875 2975 
Q 1250 3250 1450 3550 
Q 950 3550 500 3525 
L 500 3975 
Q 925 3950 1775 3950 
z
M 3975 3175 
Q 4200 1700 4600 1125 
Q 4850 1700 4937 2287 
Q 5025 2875 5050 3425 
L 4075 3425 
L 3975 3175 
z
M 1450 1000 
Q 1750 925 2275 800 
Q 2475 1050 2650 1525 
L 1725 1525 
Q 1600 1275 1450 1000 
z
M 3325 4825 
Q 3200 4625 3125 4450 
Q 3050 4275 2925 4025 
Q 2725 4125 2525 4175 
Q 2725 4500 2900 5000 
Q 3150 4875 3325 4825 
z
M 2575 3375 
Q 2900 3050 3200 2725 
Q 3050 2600 2875 2425 
Q 2525 2850 2300 3100 
Q 2450 3225 2575 3375 
z
M 925 5000 
Q 1275 4650 1500 4300 
L 1125 4075 
Q 950 4425 600 4725 
Q 825 4875 925 5000 
z
" transform="scale(0.015625)"/>
       <path id="SimHei-3" transform="scale(0.015625)"/>
       <path id="SimHei-b" d="M 2975 -200 
L 2700 -475 
Q 2075 125 1762 775 
Q 1450 1425 1450 2250 
Q 1450 3075 1762 3725 
Q 2075 4375 2700 5000 
L 2975 4725 
Q 2400 4175 2112 3587 
Q 1825 3000 1825 2250 
Q 1825 1500 2112 912 
Q 2400 325 2975 -200 
z
" transform="scale(0.015625)"/>
       <path id="SimHei-2c" d="M 1850 125 
L 1275 125 
L 1275 4400 
L 1850 4400 
L 1850 125 
z
" transform="scale(0.015625)"/>
       <path id="SimHei-57" d="M 2750 200 
Q 2625 150 2462 112 
Q 2300 75 2025 75 
Q 1575 75 1300 325 
Q 1025 575 1025 1025 
L 1025 2525 
L 175 2525 
L 175 2925 
L 1025 2925 
L 1025 3900 
L 1525 3900 
L 1525 2925 
L 2550 2925 
L 2550 2525 
L 1525 2525 
L 1525 1000 
Q 1525 800 1625 662 
Q 1725 525 2000 525 
Q 2275 525 2450 575 
Q 2625 625 2750 700 
L 2750 200 
z
" transform="scale(0.015625)"/>
       <path id="SimHei-48" d="M 2850 1075 
Q 2800 625 2450 350 
Q 2100 75 1625 75 
Q 1025 75 637 462 
Q 250 850 250 1525 
Q 250 2200 637 2587 
Q 1025 2975 1625 2975 
Q 2150 2975 2487 2637 
Q 2825 2300 2825 1525 
L 800 1525 
Q 800 975 1037 750 
Q 1275 525 1625 525 
Q 1900 525 2075 662 
Q 2250 800 2300 1075 
L 2850 1075 
z
M 2250 1925 
Q 2200 2275 2025 2412 
Q 1850 2550 1575 2550 
Q 1325 2550 1125 2412 
Q 925 2275 825 1925 
L 2250 1925 
z
" transform="scale(0.015625)"/>
       <path id="SimHei-55" d="M 2500 2425 
Q 2025 2500 1700 2287 
Q 1375 2075 1150 1550 
L 1150 125 
L 650 125 
L 650 2925 
L 1150 2925 
L 1150 2200 
Q 1375 2600 1712 2787 
Q 2050 2975 2500 2975 
L 2500 2425 
z
" transform="scale(0.015625)"/>
       <path id="SimHei-44" d="M 2875 125 
L 2275 125 
Q 2225 175 2200 262 
Q 2175 350 2175 475 
Q 2000 275 1750 175 
Q 1500 75 1225 75 
Q 825 75 550 275 
Q 275 475 275 850 
Q 275 1225 525 1450 
Q 775 1675 1300 1750 
Q 1650 1800 1912 1875 
Q 2175 1950 2175 2075 
Q 2175 2225 2062 2375 
Q 1950 2525 1575 2525 
Q 1275 2525 1137 2412 
Q 1000 2300 950 2100 
L 400 2100 
Q 450 2500 762 2737 
Q 1075 2975 1575 2975 
Q 2125 2975 2400 2725 
Q 2675 2475 2675 2025 
L 2675 650 
Q 2675 500 2725 375 
Q 2775 250 2875 125 
z
M 2175 1050 
L 2175 1550 
Q 2025 1500 1887 1462 
Q 1750 1425 1425 1375 
Q 1050 1325 937 1200 
Q 825 1075 825 900 
Q 825 750 937 637 
Q 1050 525 1275 525 
Q 1500 525 1762 650 
Q 2025 775 2175 1050 
z
" transform="scale(0.015625)"/>
       <path id="SimHei-4c" d="M 1800 3725 
L 1300 3725 
L 1300 4375 
L 1800 4375 
L 1800 3725 
z
M 1800 125 
L 1300 125 
L 1300 2925 
L 1800 2925 
L 1800 125 
z
" transform="scale(0.015625)"/>
       <path id="SimHei-52" d="M 2925 1525 
Q 2925 875 2525 475 
Q 2125 75 1575 75 
Q 1025 75 625 475 
Q 225 875 225 1525 
Q 225 2175 625 2575 
Q 1025 2975 1575 2975 
Q 2125 2975 2525 2575 
Q 2925 2175 2925 1525 
z
M 2375 1525 
Q 2375 2025 2125 2275 
Q 1875 2525 1575 2525 
Q 1275 2525 1025 2275 
Q 775 2025 775 1525 
Q 775 1025 1025 775 
Q 1275 525 1575 525 
Q 1875 525 2125 775 
Q 2375 1025 2375 1525 
z
" transform="scale(0.015625)"/>
       <path id="SimHei-51" d="M 2800 125 
L 2300 125 
L 2300 1925 
Q 2300 2225 2150 2400 
Q 2000 2575 1750 2575 
Q 1425 2575 1137 2237 
Q 850 1900 850 1400 
L 850 125 
L 350 125 
L 350 2925 
L 850 2925 
L 850 2400 
Q 1050 2675 1287 2825 
Q 1525 2975 1900 2975 
Q 2350 2975 2575 2725 
Q 2800 2475 2800 2100 
L 2800 125 
z
" transform="scale(0.015625)"/>
       <path id="SimHei-56" d="M 2750 900 
Q 2750 500 2437 287 
Q 2125 75 1650 75 
Q 1050 75 725 312 
Q 400 550 400 1000 
L 900 1000 
Q 900 700 1112 600 
Q 1325 500 1625 500 
Q 1925 500 2075 612 
Q 2225 725 2225 900 
Q 2225 1025 2100 1150 
Q 1975 1275 1475 1350 
Q 900 1425 687 1637 
Q 475 1850 475 2200 
Q 475 2500 762 2737 
Q 1050 2975 1600 2975 
Q 2100 2975 2387 2750 
Q 2675 2525 2675 2150 
L 2175 2150 
Q 2175 2375 2012 2462 
Q 1850 2550 1600 2550 
Q 1275 2550 1137 2437 
Q 1000 2325 1000 2175 
Q 1000 2000 1125 1900 
Q 1250 1800 1650 1750 
Q 2300 1650 2525 1437 
Q 2750 1225 2750 900 
z
" transform="scale(0.015625)"/>
       <path id="SimHei-c" d="M 1675 2250 
Q 1675 1425 1362 775 
Q 1050 125 425 -475 
L 150 -200 
Q 725 325 1012 912 
Q 1300 1500 1300 2250 
Q 1300 3000 1012 3587 
Q 725 4175 150 4725 
L 425 5000 
Q 1050 4375 1362 3725 
Q 1675 3075 1675 2250 
z
" transform="scale(0.015625)"/>
      </defs>
      <use xlink:href="#SimHei-4803"/>
      <use xlink:href="#SimHei-47fd" transform="translate(100 0)"/>
      <use xlink:href="#SimHei-1e6d" transform="translate(200 0)"/>
      <use xlink:href="#SimHei-2157" transform="translate(300 0)"/>
      <use xlink:href="#SimHei-1ba6" transform="translate(400 0)"/>
      <use xlink:href="#SimHei-3" transform="translate(500 0)"/>
      <use xlink:href="#SimHei-b" transform="translate(550 0)"/>
      <use xlink:href="#SimHei-2c" transform="translate(600 0)"/>
      <use xlink:href="#SimHei-57" transform="translate(650 0)"/>
      <use xlink:href="#SimHei-48" transform="translate(700 0)"/>
      <use xlink:href="#SimHei-55" transform="translate(750 0)"/>
      <use xlink:href="#SimHei-44" transform="translate(800 0)"/>
      <use xlink:href="#SimHei-57" transform="translate(850 0)"/>
      <use xlink:href="#SimHei-4c" transform="translate(900 0)"/>
      <use xlink:href="#SimHei-52" transform="translate(950 0)"/>
      <use xlink:href="#SimHei-51" transform="translate(1000 0)"/>
      <use xlink:href="#SimHei-56" transform="translate(1050 0)"/>
      <use xlink:href="#SimHei-c" transform="translate(1100 0)"/>
     </g>
    </g>
   </g>
   <g id="matplotlib.axis_2">
    <g id="ytick_1">
     <g id="line2d_7">
      <path d="M 90 346.623158 
L 648 346.623158 
" clip-path="url(#p328bdb3f48)" style="fill: none; stroke: #cccccc; stroke-linecap: round"/>
     </g>
     <g id="text_8">
      <!-- 33.0 -->
      <g style="fill: #262626" transform="translate(58.5 351.34972) scale(0.11 -0.11)">
       <defs>
        <path id="SimHei-16" d="M 250 1225 
L 700 1300 
Q 800 975 1025 762 
Q 1250 550 1587 562 
Q 1925 575 2125 837 
Q 2325 1100 2300 1437 
Q 2275 1775 2037 1962 
Q 1800 2150 1275 2225 
L 1275 2550 
Q 1800 2600 2037 2825 
Q 2275 3050 2250 3412 
Q 2225 3775 1925 3937 
Q 1625 4100 1287 3975 
Q 950 3850 750 3275 
L 300 3350 
Q 450 3800 712 4100 
Q 975 4400 1425 4450 
Q 1875 4500 2212 4337 
Q 2550 4175 2687 3837 
Q 2825 3500 2725 3100 
Q 2625 2700 2150 2400 
Q 2500 2250 2687 1950 
Q 2875 1650 2812 1162 
Q 2750 675 2375 375 
Q 2000 75 1525 87 
Q 1050 100 700 387 
Q 350 675 250 1225 
z
" transform="scale(0.015625)"/>
        <path id="SimHei-11" d="M 1075 125 
L 500 125 
L 500 675 
L 1075 675 
L 1075 125 
z
" transform="scale(0.015625)"/>
       </defs>
       <use xlink:href="#SimHei-16"/>
       <use xlink:href="#SimHei-16" transform="translate(50 0)"/>
       <use xlink:href="#SimHei-11" transform="translate(100 0)"/>
       <use xlink:href="#SimHei-13" transform="translate(150 0)"/>
      </g>
     </g>
    </g>
    <g id="ytick_2">
     <g id="line2d_8">
      <path d="M 90 301.149474 
L 648 301.149474 
" clip-path="url(#p328bdb3f48)" style="fill: none; stroke: #cccccc; stroke-linecap: round"/>
     </g>
     <g id="text_9">
      <!-- 33.2 -->
      <g style="fill: #262626" transform="translate(58.5 305.876036) scale(0.11 -0.11)">
       <use xlink:href="#SimHei-16"/>
       <use xlink:href="#SimHei-16" transform="translate(50 0)"/>
       <use xlink:href="#SimHei-11" transform="translate(100 0)"/>
       <use xlink:href="#SimHei-15" transform="translate(150 0)"/>
      </g>
     </g>
    </g>
    <g id="ytick_3">
     <g id="line2d_9">
      <path d="M 90 255.675789 
L 648 255.675789 
" clip-path="url(#p328bdb3f48)" style="fill: none; stroke: #cccccc; stroke-linecap: round"/>
     </g>
     <g id="text_10">
      <!-- 33.4 -->
      <g style="fill: #262626" transform="translate(58.5 260.402352) scale(0.11 -0.11)">
       <use xlink:href="#SimHei-16"/>
       <use xlink:href="#SimHei-16" transform="translate(50 0)"/>
       <use xlink:href="#SimHei-11" transform="translate(100 0)"/>
       <use xlink:href="#SimHei-17" transform="translate(150 0)"/>
      </g>
     </g>
    </g>
    <g id="ytick_4">
     <g id="line2d_10">
      <path d="M 90 210.202105 
L 648 210.202105 
" clip-path="url(#p328bdb3f48)" style="fill: none; stroke: #cccccc; stroke-linecap: round"/>
     </g>
     <g id="text_11">
      <!-- 33.6 -->
      <g style="fill: #262626" transform="translate(58.5 214.928668) scale(0.11 -0.11)">
       <use xlink:href="#SimHei-16"/>
       <use xlink:href="#SimHei-16" transform="translate(50 0)"/>
       <use xlink:href="#SimHei-11" transform="translate(100 0)"/>
       <use xlink:href="#SimHei-19" transform="translate(150 0)"/>
      </g>
     </g>
    </g>
    <g id="ytick_5">
     <g id="line2d_11">
      <path d="M 90 164.728421 
L 648 164.728421 
" clip-path="url(#p328bdb3f48)" style="fill: none; stroke: #cccccc; stroke-linecap: round"/>
     </g>
     <g id="text_12">
      <!-- 33.8 -->
      <g style="fill: #262626" transform="translate(58.5 169.454984) scale(0.11 -0.11)">
       <use xlink:href="#SimHei-16"/>
       <use xlink:href="#SimHei-16" transform="translate(50 0)"/>
       <use xlink:href="#SimHei-11" transform="translate(100 0)"/>
       <use xlink:href="#SimHei-1b" transform="translate(150 0)"/>
      </g>
     </g>
    </g>
    <g id="ytick_6">
     <g id="line2d_12">
      <path d="M 90 119.254737 
L 648 119.254737 
" clip-path="url(#p328bdb3f48)" style="fill: none; stroke: #cccccc; stroke-linecap: round"/>
     </g>
     <g id="text_13">
      <!-- 34.0 -->
      <g style="fill: #262626" transform="translate(58.5 123.981299) scale(0.11 -0.11)">
       <use xlink:href="#SimHei-16"/>
       <use xlink:href="#SimHei-17" transform="translate(50 0)"/>
       <use xlink:href="#SimHei-11" transform="translate(100 0)"/>
       <use xlink:href="#SimHei-13" transform="translate(150 0)"/>
      </g>
     </g>
    </g>
    <g id="ytick_7">
     <g id="line2d_13">
      <path d="M 90 73.781053 
L 648 73.781053 
" clip-path="url(#p328bdb3f48)" style="fill: none; stroke: #cccccc; stroke-linecap: round"/>
     </g>
     <g id="text_14">
      <!-- 34.2 -->
      <g style="fill: #262626" transform="translate(58.5 78.507615) scale(0.11 -0.11)">
       <use xlink:href="#SimHei-16"/>
       <use xlink:href="#SimHei-17" transform="translate(50 0)"/>
       <use xlink:href="#SimHei-11" transform="translate(100 0)"/>
       <use xlink:href="#SimHei-15" transform="translate(150 0)"/>
      </g>
     </g>
    </g>
    <g id="text_15">
     <!-- 统计量数值 -->
     <g style="fill: #262626" transform="translate(52.8125 248.16) rotate(-90) scale(0.12 -0.12)">
      <defs>
       <path id="SimHei-3515" d="M 5150 4300 
Q 5525 4300 5950 4325 
L 5950 3875 
Q 5550 3900 5175 3900 
L 3775 3900 
Q 3975 3750 4250 3600 
Q 4050 3450 3837 3162 
Q 3625 2875 3225 2375 
Q 3800 2375 5025 2500 
Q 4925 2625 4625 2975 
Q 4850 3100 5025 3250 
Q 5450 2800 5950 2100 
Q 5700 1950 5525 1775 
Q 5375 1975 5275 2125 
Q 4925 2100 4825 2075 
L 4825 200 
Q 4825 -100 5075 -100 
L 5325 -100 
Q 5550 -100 5625 575 
Q 5850 400 6150 325 
Q 5925 -525 5525 -525 
L 4850 -525 
Q 4350 -525 4350 0 
L 4350 2025 
Q 4000 2000 3875 1975 
Q 3900 1050 3637 462 
Q 3375 -125 2625 -700 
Q 2500 -500 2175 -375 
Q 2575 -125 2850 175 
Q 3125 475 3275 850 
Q 3425 1225 3400 1925 
Q 3025 1900 2725 1825 
Q 2650 2200 2525 2475 
Q 2825 2500 3187 2975 
Q 3550 3450 3675 3900 
L 3275 3900 
Q 2950 3900 2475 3875 
L 2475 4325 
Q 2875 4300 3250 4300 
L 5150 4300 
z
M 1875 4825 
Q 1700 4600 1500 4250 
Q 1300 3900 900 3250 
Q 1375 3275 1650 3275 
Q 1850 3625 1975 3975 
Q 2250 3800 2550 3675 
Q 2375 3500 2075 3037 
Q 1775 2575 1225 1725 
Q 1950 1800 2500 1900 
Q 2375 1600 2375 1425 
Q 2150 1400 1587 1325 
Q 1025 1250 600 1125 
Q 525 1375 425 1625 
Q 700 1700 950 2075 
Q 1200 2450 1450 2900 
Q 1225 2875 925 2837 
Q 625 2800 425 2750 
Q 325 3000 200 3225 
Q 500 3300 862 4025 
Q 1225 4750 1275 5075 
Q 1575 4925 1875 4825 
z
M 2550 825 
Q 2525 575 2550 350 
Q 1975 200 1412 37 
Q 850 -125 550 -250 
Q 450 0 275 275 
Q 900 375 1450 500 
Q 2000 625 2550 825 
z
M 4100 5275 
Q 4375 4825 4500 4575 
Q 4325 4500 4025 4350 
Q 3825 4825 3650 5075 
Q 3950 5175 4100 5275 
z
" transform="scale(0.015625)"/>
       <path id="SimHei-41d7" d="M 3925 3100 
L 3925 4350 
Q 3925 4850 3900 5125 
L 4425 5125 
Q 4400 4800 4400 4550 
L 4400 3100 
L 5425 3100 
Q 5725 3100 6075 3125 
L 6075 2650 
Q 5700 2675 5450 2675 
L 4400 2675 
L 4400 175 
Q 4400 -125 4425 -550 
L 3900 -550 
Q 3925 -125 3925 150 
L 3925 2675 
L 2950 2675 
Q 2575 2675 2200 2650 
L 2200 3125 
Q 2575 3100 2900 3100 
L 3925 3100 
z
M 1775 3150 
Q 1750 2675 1750 2150 
L 1750 625 
Q 2175 1050 2425 1400 
Q 2575 1200 2775 1000 
L 2075 300 
Q 1750 -25 1450 -350 
Q 1275 -125 1125 50 
Q 1300 250 1275 650 
L 1275 2725 
Q 600 2725 275 2700 
L 275 3175 
Q 675 3150 825 3150 
L 1775 3150 
z
M 1150 5050 
Q 1475 4725 2175 4000 
Q 1950 3800 1750 3625 
Q 1425 4100 775 4750 
Q 950 4875 1150 5050 
z
" transform="scale(0.015625)"/>
       <path id="SimHei-4805" d="M 5250 2500 
Q 5225 2200 5225 1700 
Q 5225 1225 5250 950 
L 3425 950 
L 3425 625 
L 4575 625 
Q 5000 625 5375 650 
L 5375 275 
Q 5025 300 4575 300 
L 3425 300 
L 3425 -75 
L 5125 -75 
Q 5525 -75 5925 -50 
L 5925 -425 
Q 5525 -400 5125 -400 
L 1275 -400 
Q 900 -400 475 -425 
L 475 -50 
Q 925 -50 1275 -75 
L 2975 -75 
L 2975 300 
L 1725 300 
Q 1350 300 975 250 
L 975 650 
Q 1375 625 1725 625 
L 2975 625 
L 2975 950 
L 1150 950 
Q 1175 1375 1175 1775 
Q 1175 2175 1150 2500 
L 5250 2500 
z
M 5200 4950 
Q 5175 4575 5175 4250 
Q 5175 3925 5200 3400 
L 1200 3400 
Q 1225 3925 1225 4250 
Q 1225 4575 1200 4950 
L 5200 4950 
z
M 4900 3100 
Q 5500 3125 6000 3150 
L 6000 2750 
Q 5500 2775 4925 2775 
L 1650 2775 
Q 975 2775 325 2750 
L 325 3150 
Q 975 3125 1650 3100 
L 4900 3100 
z
M 4725 3700 
L 4725 4025 
L 1675 4025 
L 1675 3700 
L 4725 3700 
z
M 4725 4350 
L 4725 4650 
L 1675 4650 
L 1675 4350 
L 4725 4350 
z
M 4750 1875 
L 4750 2175 
L 3425 2175 
L 3425 1875 
L 4750 1875 
z
M 2975 1875 
L 2975 2175 
L 1650 2175 
L 1650 1875 
L 2975 1875 
z
M 2975 1275 
L 2975 1550 
L 1650 1550 
L 1650 1275 
L 2975 1275 
z
M 4750 1275 
L 4750 1550 
L 3425 1550 
L 3425 1275 
L 4750 1275 
z
" transform="scale(0.015625)"/>
       <path id="SimHei-672" d="M 3675 4450 
L 3675 5100 
Q 3975 5075 4350 5050 
Q 4225 4875 4200 4450 
L 5125 4450 
Q 5550 4450 5875 4475 
L 5875 4025 
Q 5525 4050 5125 4050 
L 4175 4050 
L 4125 3500 
L 5400 3500 
Q 5375 3200 5375 2700 
L 5375 150 
Q 5875 150 6100 175 
L 6100 -275 
Q 5775 -250 5200 -250 
L 2850 -250 
Q 2275 -250 1900 -275 
L 1900 175 
Q 2125 150 2600 150 
L 2600 2700 
Q 2600 3175 2575 3500 
L 3600 3500 
L 3650 4050 
L 3200 4050 
Q 2575 4050 2225 4025 
L 2225 4475 
Q 2550 4450 3200 4450 
L 3675 4450 
z
M 2225 4900 
Q 2025 4675 1650 3750 
L 1650 450 
Q 1650 -75 1675 -550 
L 1150 -550 
Q 1175 -125 1175 375 
L 1175 2950 
Q 875 2450 625 2150 
Q 425 2425 250 2575 
Q 500 2825 937 3537 
Q 1375 4250 1625 5150 
Q 1975 4975 2225 4900 
z
M 4925 2650 
L 4925 3150 
L 3075 3150 
L 3075 2650 
L 4925 2650 
z
M 4925 150 
L 4925 625 
L 3075 625 
L 3075 150 
L 4925 150 
z
M 4925 1000 
L 4925 1450 
L 3075 1450 
L 3075 1000 
L 4925 1000 
z
M 4925 1825 
L 4925 2275 
L 3075 2275 
L 3075 1825 
L 4925 1825 
z
" transform="scale(0.015625)"/>
      </defs>
      <use xlink:href="#SimHei-3515"/>
      <use xlink:href="#SimHei-41d7" transform="translate(100 0)"/>
      <use xlink:href="#SimHei-4805" transform="translate(200 0)"/>
      <use xlink:href="#SimHei-1ba6" transform="translate(300 0)"/>
      <use xlink:href="#SimHei-672" transform="translate(400 0)"/>
     </g>
    </g>
   </g>
   <g id="line2d_14">
    <path d="M 115.363636 369.36 
L 115.871417 295.465263 
L 116.379197 198.833684 
L 116.886978 144.833684 
L 117.394758 66.96 
L 117.902539 113.570526 
L 118.410319 101.390075 
L 118.9181 151.938947 
L 119.42588 140.728421 
L 119.933661 99.928421 
L 120.441441 103.752344 
L 120.949222 97.465263 
L 121.457002 134.121134 
L 121.964783 115.194586 
L 122.980344 107.175789 
L 123.488124 105.211393 
L 123.995905 104.096842 
L 124.503686 112.074681 
L 125.011466 131.76 
L 125.519247 126.292331 
L 126.027027 146.642297 
L 126.534808 151.382883 
L 127.042588 157.623158 
L 127.550369 153.36 
L 128.058149 159.044211 
L 128.56593 156.728421 
L 129.07371 154.98406 
L 129.581491 153.752015 
L 130.089271 165.486316 
L 130.597052 163.628251 
L 131.104832 165.794211 
L 132.120393 161.384768 
L 132.628174 166.677293 
L 133.135954 159.675789 
L 133.643735 157.968819 
L 134.151515 162.933407 
L 134.659296 160.647449 
L 136.182637 150.11188 
L 136.690418 149.394272 
L 137.198198 151.809761 
L 137.705979 156.138947 
L 138.213759 155.337117 
L 138.72154 153.118119 
L 139.22932 149.333684 
L 139.737101 148.719828 
L 140.244881 143.583158 
L 140.752662 143.10613 
L 141.768223 152.073009 
L 142.276003 153.149474 
L 142.783784 151.293014 
L 143.291564 149.908872 
L 143.799345 147.37662 
L 144.307125 150.027877 
L 144.814906 147.386762 
L 145.322686 146.16 
L 145.830467 147.582606 
L 146.338247 147.492428 
L 146.846028 146.683308 
L 147.353808 148.031053 
L 147.861589 146.014251 
L 148.369369 143.197321 
L 148.87715 148.948374 
L 149.38493 146.839876 
L 149.892711 143.144897 
L 150.400491 141.017143 
L 150.908272 142.632053 
L 151.416052 139.149474 
L 151.923833 138.876943 
L 152.431613 135.231977 
L 152.939394 134.412632 
L 153.447174 130.922327 
L 153.954955 131.509009 
L 154.462735 130.914656 
L 154.970516 131.198774 
L 155.478296 131.049474 
L 155.986077 132.167018 
L 156.493857 130.900436 
L 157.001638 131.58194 
L 157.509419 126.563008 
L 158.017199 124.738328 
L 159.03276 127.225699 
L 159.540541 132.044211 
L 160.048321 132.155979 
L 160.556102 130.370526 
L 161.063882 130.248375 
L 161.571663 129.881739 
L 162.079443 132.212292 
L 162.587224 131.10692 
L 163.095004 131.460831 
L 163.602785 130.86 
L 164.110565 130.037157 
L 164.618346 127.839055 
L 165.126126 123.159043 
L 166.141687 127.133841 
L 167.157248 124.773388 
L 167.665029 125.922753 
L 168.172809 125.209624 
L 168.68059 123.866455 
L 169.18837 123.185873 
L 169.696151 126.728421 
L 170.203931 129.267291 
L 170.711712 126.385837 
L 171.219492 126.116757 
L 171.727273 124.634436 
L 172.742834 124.938947 
L 173.250614 124.889519 
L 173.758395 124.252922 
L 174.266175 124.598866 
L 174.773956 127.443854 
L 175.281736 127.757169 
L 175.789517 126.549474 
L 176.297297 127.240818 
L 176.805078 126.336704 
L 177.312858 126.094275 
L 177.820639 123.930458 
L 178.328419 123.529263 
L 178.8362 120.60812 
L 179.34398 123.103887 
L 179.851761 122.008026 
L 180.867322 123.714656 
L 181.375102 121.77141 
L 181.882883 122.785837 
L 182.390663 122.41738 
L 182.898444 122.902812 
L 183.406224 121.696842 
L 183.914005 122.180433 
L 184.421785 120.831379 
L 184.929566 121.643753 
L 185.437346 121.79014 
L 185.945127 123.802105 
L 186.960688 125.259185 
L 187.468468 124.740199 
L 188.484029 126.389401 
L 188.99181 126.106936 
L 189.49959 125.596305 
L 191.022932 125.393684 
L 192.038493 124.714571 
L 192.546274 123.564334 
L 193.054054 123.093424 
L 193.561835 124.608896 
L 194.069615 124.5017 
L 195.085176 128.104837 
L 195.592957 127.620179 
L 196.100737 126.715263 
L 196.608518 128.151762 
L 197.116298 127.395088 
L 197.624079 126.438463 
L 198.63964 123.457608 
L 199.14742 123.29532 
L 199.655201 125.721803 
L 200.162981 125.615639 
L 200.670762 126.183419 
L 201.178542 128.683839 
L 201.686323 128.562216 
L 202.194103 127.516671 
L 202.701884 127.600341 
L 203.209664 126.637677 
L 203.717445 125.945865 
L 204.225225 125.520287 
L 204.733006 125.42066 
L 205.240786 124.87508 
L 205.748567 123.573467 
L 206.256347 124.054737 
L 206.764128 125.284397 
L 207.271908 125.001411 
L 207.779689 124.970009 
L 208.287469 125.556796 
L 208.79525 125.891437 
L 209.30303 124.755586 
L 209.810811 124.482995 
L 210.318591 124.455185 
L 210.826372 123.104361 
L 211.334152 123.203767 
L 211.841933 122.94501 
L 212.349713 122.866579 
L 212.857494 123.024576 
L 213.365274 122.946544 
L 213.873055 122.461215 
L 214.380835 123.6629 
L 214.888616 123.4674 
L 215.904177 123.425062 
L 216.411957 123.631579 
L 216.919738 122.817973 
L 217.427518 122.575216 
L 217.935299 121.326814 
L 218.443079 121.316656 
L 218.95086 120.197484 
L 219.45864 119.696229 
L 219.966421 119.694096 
L 220.474201 118.489555 
L 220.981982 119.037159 
L 221.489762 118.605113 
L 221.997543 119.254737 
L 222.505324 118.182244 
L 223.013104 118.027161 
L 223.520885 117.607909 
L 224.028665 116.8753 
L 224.536446 116.886316 
L 225.044226 115.954228 
L 225.552007 115.760773 
L 226.059787 115.724816 
L 226.567568 116.309282 
L 227.075348 115.911084 
L 227.583129 115.721309 
L 228.59869 114.687068 
L 229.10647 115.212632 
L 230.122031 113.144837 
L 231.137592 114.389648 
L 231.645373 114.262517 
L 232.153153 115.071552 
L 232.660934 115.530599 
L 233.168714 114.570752 
L 233.676495 114.785101 
L 234.184275 114.368735 
L 234.692056 113.088814 
L 235.199836 113.786382 
L 235.707617 113.140628 
L 236.723178 112.623158 
L 237.230958 112.556331 
L 237.738739 113.570526 
L 238.246519 114.108538 
L 238.7543 113.430751 
L 240.277641 112.212759 
L 240.785422 112.057793 
L 241.800983 111.251368 
L 242.816544 110.908872 
L 243.324324 109.953301 
L 244.339885 109.402105 
L 244.847666 110.32875 
L 245.355446 110.761597 
L 245.863227 109.825116 
L 246.371007 110.388246 
L 246.878788 110.378623 
L 247.386568 110.151289 
L 248.402129 110.134064 
L 248.90991 111.546603 
L 249.41769 112.047587 
L 249.925471 111.476343 
L 250.433251 111.377741 
L 250.941032 112.297942 
L 251.448812 111.605353 
L 251.956593 112.054737 
L 252.464373 112.165205 
L 252.972154 111.773313 
L 253.479934 112.133858 
L 253.987715 111.205563 
L 254.495495 111.152153 
L 255.003276 111.42865 
L 255.511057 111.867315 
L 256.018837 111.648527 
L 256.526618 110.779355 
L 257.034398 111.175038 
L 257.542179 111.041963 
L 258.049959 111.433908 
L 258.55774 110.658122 
L 259.573301 110.67856 
L 260.081081 109.317306 
L 260.588862 109.351931 
L 261.096642 108.517895 
L 261.604423 108.555046 
L 262.112203 108.27833 
L 262.619984 108.159783 
L 263.127764 107.496986 
L 263.635545 108.313117 
L 264.651106 108.117538 
L 265.158886 108.308791 
L 265.666667 108.651866 
L 266.174447 108.191508 
L 266.682228 108.152466 
L 267.190008 110.16 
L 267.697789 110.567903 
L 268.205569 110.596668 
L 268.71335 111.000438 
L 269.22113 110.691025 
L 269.728911 111.464573 
L 270.236691 111.861548 
L 270.744472 111.811569 
L 271.252252 111.208257 
L 271.760033 110.903178 
L 272.267813 111.333514 
L 272.775594 111.505202 
L 273.283374 112.550283 
L 273.791155 112.462741 
L 274.806716 111.459248 
L 275.314496 111.91563 
L 275.822277 112.656032 
L 276.330057 112.462284 
L 276.837838 111.913374 
L 277.345618 111.616579 
L 277.853399 111.852868 
L 278.361179 111.240353 
L 278.86896 111.617129 
L 279.37674 111.324912 
L 280.392301 111.303817 
L 280.900082 112.023448 
L 281.407862 111.906855 
L 281.915643 112.067407 
L 282.423423 112.640383 
L 282.931204 113.89681 
L 283.438984 114.186886 
L 283.946765 113.997269 
L 284.454545 113.332266 
L 284.962326 113.07846 
L 285.470106 112.995338 
L 285.977887 114.329546 
L 286.485667 113.90687 
L 287.501229 112.834923 
L 288.009009 114.320642 
L 289.02457 113.852251 
L 289.532351 113.207001 
L 290.040131 113.092723 
L 290.547912 113.110532 
L 291.055692 114.405958 
L 291.563473 114.615898 
L 292.071253 114.531467 
L 292.579034 113.830376 
L 293.086814 113.554332 
L 294.102375 114.230732 
L 294.610156 114.919322 
L 295.117936 114.80344 
L 296.641278 114.745475 
L 297.149058 114.5047 
L 297.656839 114.865263 
L 298.164619 114.688474 
L 298.6724 114.041593 
L 299.18018 113.930683 
L 299.687961 113.945309 
L 300.703522 112.980362 
L 301.211302 112.997459 
L 301.719083 112.458398 
L 302.226863 112.600051 
L 302.734644 112.894566 
L 303.242424 112.421427 
L 303.750205 112.928761 
L 304.257985 112.94572 
L 304.765766 113.448939 
L 305.273546 113.221895 
L 305.781327 114.386876 
L 306.289107 114.761647 
L 307.304668 115.865208 
L 307.812449 114.916787 
L 308.320229 114.301567 
L 308.82801 113.391965 
L 309.33579 114.238384 
L 309.843571 113.156053 
L 310.351351 113.467177 
L 312.382473 113.439015 
L 312.890254 113.716275 
L 313.398034 113.614139 
L 313.905815 113.94754 
L 314.413595 113.700699 
L 314.921376 113.97448 
L 315.936937 114.173397 
L 316.444717 113.95711 
L 317.460278 115.123356 
L 318.475839 115.058911 
L 319.4914 114.966896 
L 319.999181 115.033788 
L 320.506962 114.819649 
L 321.014742 114.438558 
L 321.522523 113.891747 
L 322.538084 113.41765 
L 323.045864 114.707368 
L 323.553645 114.109904 
L 324.061425 114.398324 
L 325.076986 114.311945 
L 325.584767 113.967736 
L 326.092547 113.871134 
L 326.600328 114.429292 
L 327.615889 114.316664 
L 328.123669 113.976541 
L 328.63145 114.421133 
L 329.13923 114.378708 
L 329.647011 114.658992 
L 330.154791 115.23289 
L 330.662572 114.65387 
L 331.170352 114.931534 
L 331.678133 114.355932 
L 332.185913 114.287693 
L 333.201474 113.623403 
L 333.709255 113.900237 
L 334.217035 113.596842 
L 334.724816 113.557399 
L 335.232596 113.806277 
L 335.740377 113.348385 
L 336.248157 113.361931 
L 336.755938 113.921725 
L 337.263718 113.778169 
L 337.771499 113.505786 
L 338.279279 113.493014 
L 338.78706 113.763867 
L 339.802621 113.352396 
L 340.818182 113.915411 
L 341.325962 113.927383 
L 341.833743 113.735839 
L 343.357084 114.505263 
L 344.372645 114.475976 
L 344.880426 114.210471 
L 345.388206 114.121419 
L 345.895987 113.63299 
L 346.403767 113.470803 
L 346.911548 113.980984 
L 347.419328 114.265539 
L 347.927109 113.781053 
L 348.434889 113.71881 
L 348.94267 114.618591 
L 349.45045 114.530198 
L 349.958231 115.178802 
L 350.466011 114.673067 
L 350.973792 114.462886 
L 352.497133 114.250688 
L 353.004914 113.825043 
L 353.512695 113.957536 
L 354.020475 113.703279 
L 355.036036 113.606578 
L 355.543817 112.75507 
L 356.559378 112.328598 
L 357.067158 112.343118 
L 357.574939 112.143528 
L 358.082719 112.39571 
L 358.5905 112.220526 
L 359.09828 112.4715 
L 359.606061 112.438401 
L 360.113841 112.264217 
L 360.621622 112.231683 
L 361.129402 112.527444 
L 362.144963 114.002386 
L 362.652744 114.222813 
L 363.160524 113.954123 
L 363.668305 114.707368 
L 365.699427 115.089384 
L 366.207207 114.914067 
L 366.714988 115.15202 
L 367.222768 115.846498 
L 367.730549 116.013139 
L 368.238329 115.518422 
L 368.74611 115.503158 
L 369.25389 115.374497 
L 370.269451 115.322122 
L 370.777232 114.878797 
L 371.285012 114.684857 
L 372.300573 114.613192 
L 372.808354 114.577571 
L 373.316134 114.363412 
L 374.331695 114.449299 
L 374.839476 114.192237 
L 375.855037 113.880172 
L 376.362817 113.537414 
L 376.870598 113.636622 
L 377.378378 114.087273 
L 377.886159 113.965568 
L 378.90172 114.466883 
L 379.4095 114.301509 
L 379.917281 113.875426 
L 380.425061 113.603132 
L 381.948403 113.246332 
L 382.456183 113.495024 
L 383.471744 113.49531 
L 383.979525 114.149672 
L 384.487305 114.073649 
L 384.995086 113.762849 
L 386.010647 113.825996 
L 386.518428 114.601121 
L 387.533989 113.962176 
L 388.041769 114.415762 
L 389.05733 114.433684 
L 389.565111 115.073007 
L 390.580672 114.62781 
L 391.088452 114.740805 
L 391.596233 114.999401 
L 392.104013 115.007195 
L 392.611794 114.807128 
L 393.627355 114.864745 
L 394.642916 113.972857 
L 395.658477 114.403114 
L 396.166257 114.001459 
L 396.674038 114.523016 
L 397.689599 114.662466 
L 398.197379 114.854058 
L 398.70516 114.86193 
L 399.21294 114.707368 
L 399.720721 114.715474 
L 400.228501 114.946065 
L 401.751843 114.506157 
L 402.259623 114.835916 
L 402.767404 114.563008 
L 403.782965 114.959112 
L 404.290745 114.707368 
L 404.798526 115.153345 
L 405.814087 115.366062 
L 406.321867 115.768949 
L 406.829648 115.695927 
L 407.337428 115.86 
L 407.845209 115.806776 
L 408.352989 115.635724 
L 408.86077 115.641974 
L 409.36855 115.256189 
L 409.876331 115.263071 
L 410.384111 115.68013 
L 411.907453 115.270931 
L 412.415233 115.39413 
L 412.923014 115.63311 
L 413.430794 115.349259 
L 414.446355 115.844211 
L 414.954136 115.61915 
L 415.461916 115.932546 
L 416.985258 115.490739 
L 417.493038 115.344458 
L 418.000819 115.750902 
L 418.5086 115.756761 
L 419.01638 115.990349 
L 419.524161 115.844211 
L 420.031941 116.020128 
L 420.539722 115.912194 
L 421.047502 116.2948 
L 421.555283 116.99611 
L 422.063063 116.511283 
L 422.570844 117.247441 
L 423.078624 117.625326 
L 424.094185 117.705346 
L 425.109746 116.928955 
L 426.125307 116.936543 
L 426.633088 117.106957 
L 427.140868 117.96077 
L 427.648649 118.553438 
L 428.156429 118.775679 
L 428.66421 118.610894 
L 429.17199 119.052713 
L 429.679771 118.90635 
L 430.695332 119.181628 
L 431.203112 119.364224 
L 432.218673 119.091032 
L 432.726454 119.291058 
L 433.234234 119.145948 
L 433.742015 119.363352 
L 434.249795 119.001704 
L 434.757576 118.857744 
L 435.265356 119.038539 
L 436.280917 118.931464 
L 436.788698 119.469912 
L 437.804259 119.647984 
L 438.312039 119.843682 
L 438.81982 119.486382 
L 439.3276 119.592765 
L 439.835381 119.414605 
L 440.343161 119.769065 
L 440.850942 119.71514 
L 441.358722 119.325458 
L 441.866503 119.537182 
L 442.374283 119.571995 
L 442.882064 119.923467 
L 443.389844 119.834579 
L 443.897625 119.605614 
L 444.405405 120.480915 
L 445.420966 120.14535 
L 445.928747 120.492709 
L 446.436527 121.013099 
L 447.959869 121.438306 
L 448.467649 121.296554 
L 448.97543 121.276173 
L 449.48321 121.945896 
L 450.498771 121.69697 
L 451.006552 122.277157 
L 451.514333 122.546949 
L 452.529894 122.058378 
L 453.545455 123.20897 
L 455.068796 123.089458 
L 455.576577 123.253168 
L 456.592138 123.241286 
L 457.607699 122.993684 
L 458.115479 123.240411 
L 458.62326 123.0666 
L 459.13104 123.53047 
L 459.638821 123.691602 
L 460.146601 123.333994 
L 460.654382 123.227841 
L 461.669943 122.833376 
L 462.177723 122.778283 
L 462.685504 122.408022 
L 463.193284 122.552573 
L 463.701065 122.33265 
L 465.224406 122.484027 
L 465.732187 122.380641 
L 466.239967 122.655406 
L 467.255528 122.973226 
L 468.271089 122.880871 
L 468.77887 122.875669 
L 469.28665 123.017065 
L 469.794431 122.9141 
L 470.302211 123.071278 
L 471.317772 122.995628 
L 471.825553 123.184362 
L 472.333333 122.985 
L 472.841114 123.044211 
L 473.348894 122.910022 
L 473.856675 123.226448 
L 474.364455 123.060268 
L 474.872236 122.702142 
L 475.380016 122.665263 
L 476.395577 122.224577 
L 477.411138 122.15257 
L 477.918919 122.148517 
L 478.426699 122.017454 
L 478.93448 122.1563 
L 479.44226 122.468928 
L 480.965602 122.849744 
L 481.981163 122.808351 
L 482.996724 123.174882 
L 483.504505 123.169482 
L 485.027846 122.825887 
L 485.535627 122.805422 
L 486.043407 123.049394 
L 486.551188 122.919965 
L 487.058968 122.604776 
L 488.074529 122.270849 
L 488.58231 122.343982 
L 489.597871 121.873479 
L 490.105651 122.269907 
L 490.613432 122.020028 
L 491.121212 122.399847 
L 491.628993 122.487536 
L 492.136773 122.238374 
L 494.167895 122.55721 
L 494.675676 122.400811 
L 495.183456 122.487679 
L 496.199017 121.782735 
L 496.706798 121.779373 
L 497.214578 122.01758 
L 497.722359 121.893296 
L 498.73792 122.141955 
L 499.753481 122.059347 
L 500.261261 121.756089 
L 500.769042 121.782715 
L 501.276822 122.18274 
L 501.784603 122.044625 
L 502.292383 122.204864 
L 502.800164 122.498606 
L 503.307944 122.301176 
L 503.815725 122.297199 
L 506.862408 120.977671 
L 507.370188 120.975442 
L 507.877969 120.841028 
L 508.385749 120.838981 
L 508.89353 120.543939 
L 509.40131 120.395968 
L 509.909091 120.102254 
L 510.416871 119.648764 
L 511.940213 119.690866 
L 512.447993 119.98069 
L 513.463554 119.703681 
L 513.971335 119.847746 
L 514.479115 119.789212 
L 516.002457 120.262065 
L 516.510238 119.944603 
L 517.018018 120.058565 
L 517.525799 120.028879 
L 518.033579 119.770182 
L 518.54136 119.740933 
L 519.04914 119.511812 
L 519.556921 119.468697 
L 520.064701 119.753352 
L 522.095823 119.679989 
L 523.111384 120.018288 
L 523.619165 120.144439 
L 525.142506 119.719041 
L 525.650287 119.943306 
L 527.173628 119.60475 
L 527.681409 119.744152 
L 528.189189 120.092704 
L 529.20475 119.951331 
L 529.712531 119.672182 
L 532.251433 119.904756 
L 532.759214 120.194047 
L 533.266994 120.082534 
L 533.774775 120.20555 
L 534.790336 119.942066 
L 535.298116 120.284485 
L 535.805897 120.200962 
L 536.313677 120.692911 
L 536.821458 120.827984 
L 538.85258 120.806833 
L 539.868141 120.653718 
L 540.375921 121.086165 
L 540.883702 121.029782 
L 541.391482 121.163008 
L 542.914824 121.264102 
L 544.438165 121.431669 
L 544.945946 121.160659 
L 545.453726 121.037756 
L 546.469287 121.006811 
L 547.484848 121.002698 
L 547.992629 121.267201 
L 548.50041 121.344716 
L 549.515971 121.074215 
L 550.023751 121.218011 
L 550.531532 121.003725 
L 551.039312 121.09433 
L 551.547093 121.594517 
L 552.054873 121.327724 
L 554.085995 121.488993 
L 554.593776 121.276373 
L 556.117117 121.256312 
L 556.624898 121.646025 
L 557.132678 121.512758 
L 557.640459 121.066905 
L 558.148239 121.507585 
L 558.65602 121.635081 
L 560.687142 121.015677 
L 562.210483 120.274153 
L 563.226044 120.20747 
L 563.733825 120.643639 
L 564.749386 120.294062 
L 565.764947 120.803812 
L 566.272727 121.147342 
L 567.288288 121.36 
L 567.796069 121.153722 
L 568.81163 121.047743 
L 569.31941 120.791697 
L 569.827191 121.157932 
L 570.334971 120.88966 
L 570.842752 120.849861 
L 571.350532 121.164227 
L 571.858313 121.111579 
L 572.366093 121.374487 
L 572.873874 121.485569 
L 573.381654 121.369792 
L 573.889435 121.417755 
L 574.397215 121.339994 
L 575.412776 121.485805 
L 576.428337 121.618468 
L 577.443898 122.012608 
L 577.951679 121.897396 
L 578.459459 121.944309 
L 578.96724 121.71748 
L 579.47502 121.714789 
L 579.982801 121.53835 
L 580.490581 121.734218 
L 580.998362 121.706749 
L 581.506143 121.95149 
L 583.029484 121.992036 
L 583.537265 122.333941 
L 584.045045 122.47825 
L 584.552826 122.868051 
L 585.060606 123.011472 
L 586.583948 123.04829 
L 587.599509 123.28436 
L 589.12285 123.271417 
L 589.630631 123.413026 
L 590.646192 123.31922 
L 591.661753 122.935248 
L 592.169533 122.882956 
L 592.677314 122.97575 
L 593.185094 122.730432 
L 594.708436 122.89985 
L 595.216216 122.883979 
L 595.723997 122.616044 
L 596.231777 123.044211 
L 596.739558 123.18397 
L 597.755119 122.888806 
L 598.77068 123.155549 
L 599.27846 123.60429 
L 599.786241 123.361653 
L 600.801802 123.709447 
L 601.309582 123.597996 
L 601.817363 123.332669 
L 603.340704 123.343587 
L 603.848485 123.410172 
L 604.356265 123.252553 
L 604.864046 123.295533 
L 605.371826 123.032442 
L 605.879607 122.98151 
L 606.387387 123.423941 
L 606.895168 123.536959 
L 607.910729 123.153485 
L 608.418509 123.149474 
L 608.92629 122.876741 
L 609.941851 122.880972 
L 610.449631 122.644297 
L 610.957412 122.768824 
L 611.465192 122.695486 
L 612.480753 122.816069 
L 612.988534 122.569078 
L 613.496314 122.554126 
L 614.004095 122.342599 
L 614.511876 122.662953 
L 615.019656 122.451745 
L 615.527437 122.379323 
L 616.035217 122.433748 
L 616.542998 122.338479 
L 617.050778 122.565258 
L 617.558559 122.538947 
L 618.066339 122.363558 
L 618.57412 122.360424 
L 619.0819 122.162671 
L 620.097461 121.974017 
L 620.605242 122.199569 
L 621.620803 122.159494 
L 622.128583 122.031408 
L 622.636364 122.119579 
L 622.636364 122.119579 
" clip-path="url(#p328bdb3f48)" style="fill: none; stroke: #800080; stroke-width: 1.5; stroke-linecap: round"/>
   </g>
   <g id="patch_3">
    <path d="M 90 384.48 
L 90 51.84 
" style="fill: none; stroke: #cccccc; stroke-width: 1.25; stroke-linejoin: miter; stroke-linecap: square"/>
   </g>
   <g id="patch_4">
    <path d="M 648 384.48 
L 648 51.84 
" style="fill: none; stroke: #cccccc; stroke-width: 1.25; stroke-linejoin: miter; stroke-linecap: square"/>
   </g>
   <g id="patch_5">
    <path d="M 90 384.48 
L 648 384.48 
" style="fill: none; stroke: #cccccc; stroke-width: 1.25; stroke-linejoin: miter; stroke-linecap: square"/>
   </g>
   <g id="patch_6">
    <path d="M 90 51.84 
L 648 51.84 
" style="fill: none; stroke: #cccccc; stroke-width: 1.25; stroke-linejoin: miter; stroke-linecap: square"/>
   </g>
   <g id="text_16">
    <!-- Bootstrap 统计量收敛演化曲线 -->
    <g style="fill: #262626" transform="translate(285 45.84) scale(0.12 -0.12)">
     <defs>
      <path id="SimHei-25" d="M 2950 1400 
Q 2950 675 2550 400 
Q 2150 125 1525 125 
L 275 125 
L 275 4400 
L 1575 4400 
Q 2200 4400 2512 4075 
Q 2825 3750 2825 3300 
Q 2825 2850 2612 2637 
Q 2400 2425 2175 2350 
Q 2475 2275 2712 2037 
Q 2950 1800 2950 1400 
z
M 2250 3300 
Q 2250 3625 2062 3775 
Q 1875 3925 1600 3925 
L 850 3925 
L 850 2600 
L 1575 2600 
Q 1850 2600 2050 2762 
Q 2250 2925 2250 3300 
z
M 2350 1400 
Q 2350 1800 2087 1962 
Q 1825 2125 1500 2125 
L 850 2125 
L 850 600 
L 1425 600 
Q 1875 600 2112 775 
Q 2350 950 2350 1400 
z
" transform="scale(0.015625)"/>
      <path id="SimHei-53" d="M 2825 1525 
Q 2825 800 2475 425 
Q 2125 50 1625 50 
Q 1350 50 1150 162 
Q 950 275 800 500 
L 800 -800 
L 300 -800 
L 300 2925 
L 800 2925 
L 800 2550 
Q 950 2775 1150 2875 
Q 1350 2975 1625 2975 
Q 2125 2975 2475 2612 
Q 2825 2250 2825 1525 
z
M 2275 1525 
Q 2275 2000 2087 2262 
Q 1900 2525 1525 2525 
Q 1225 2525 1012 2262 
Q 800 2000 800 1525 
Q 800 1050 1012 775 
Q 1225 500 1525 500 
Q 1900 500 2087 775 
Q 2275 1050 2275 1525 
z
" transform="scale(0.015625)"/>
      <path id="SimHei-1b6c" d="M 4250 5050 
Q 4125 4850 3750 4050 
L 5150 4050 
Q 5675 4050 6125 4075 
L 6125 3600 
Q 5675 3625 5300 3625 
Q 5225 2625 5025 1975 
Q 4825 1325 4575 900 
Q 4900 500 5287 275 
Q 5675 50 6200 -75 
Q 5900 -275 5800 -550 
Q 5300 -350 4950 -100 
Q 4600 150 4275 525 
Q 3800 0 2775 -625 
Q 2650 -425 2300 -225 
Q 3275 150 3950 925 
Q 3775 1325 3612 1787 
Q 3450 2250 3250 3000 
Q 2975 2450 2825 2275 
Q 2650 2400 2425 2525 
Q 2775 3025 3137 3837 
Q 3500 4650 3625 5250 
Q 3925 5125 4250 5050 
z
M 975 4275 
Q 925 3950 925 3450 
L 925 1575 
L 1775 1725 
L 1775 4425 
Q 1775 4775 1750 5150 
L 2250 5150 
Q 2225 4850 2225 4450 
L 2225 300 
Q 2225 -50 2250 -550 
L 1750 -550 
Q 1775 -25 1775 350 
L 1775 1350 
Q 625 1050 500 925 
Q 375 1125 225 1350 
Q 450 1475 450 1800 
L 450 3575 
Q 450 3925 425 4275 
L 975 4275 
z
M 3725 3150 
Q 3800 2700 3962 2212 
Q 4125 1725 4300 1375 
Q 4725 2150 4825 3625 
L 3575 3625 
Q 3400 3275 3300 3100 
L 3725 3150 
z
" transform="scale(0.015625)"/>
      <path id="SimHei-1b91" d="M 3525 2325 
Q 3375 2500 3125 2675 
Q 3525 3150 3775 3837 
Q 4025 4525 4125 5175 
Q 4350 5100 4700 5000 
Q 4625 4975 4537 4712 
Q 4450 4450 4300 4025 
L 5600 4025 
Q 5825 4025 6100 4050 
L 6100 3575 
Q 5725 3600 5525 3600 
Q 5450 2850 5325 2162 
Q 5200 1475 4900 800 
Q 5350 250 6200 -50 
Q 5975 -275 5850 -575 
Q 5050 -75 4625 425 
Q 4100 -200 3250 -675 
Q 3100 -350 2925 -175 
Q 3750 75 4325 775 
Q 4075 1225 3900 1687 
Q 3725 2150 3650 2550 
L 3525 2325 
z
M 2975 2925 
Q 2650 2950 2075 2950 
Q 1450 2950 1175 2925 
L 1175 3325 
Q 900 3000 575 2750 
Q 425 2975 175 3125 
Q 750 3525 1237 4187 
Q 1725 4850 1875 5275 
Q 2175 5100 2400 5000 
Q 2325 4900 2200 4700 
Q 2875 4300 3525 3850 
Q 3325 3575 3175 3375 
Q 2950 3625 2612 3900 
Q 2275 4175 1975 4375 
Q 1650 3925 1225 3375 
Q 1500 3350 2075 3350 
Q 2650 3350 2975 3375 
L 2975 2925 
z
M 3325 2450 
Q 3175 2250 3050 1725 
Q 2925 1200 2775 625 
Q 3075 675 3475 775 
Q 3400 575 3450 325 
Q 2300 150 1600 0 
Q 900 -150 725 -250 
Q 650 75 550 325 
Q 1125 350 2325 550 
Q 2475 1125 2600 1725 
Q 2725 2325 2750 2600 
Q 3000 2525 3325 2450 
z
M 3925 3000 
Q 4050 2500 4262 1925 
Q 4475 1350 4600 1175 
Q 4825 1725 4925 2287 
Q 5025 2850 5075 3600 
L 4175 3600 
Q 4100 3375 3925 3000 
z
M 1025 2350 
Q 1275 1625 1450 925 
Q 1200 850 1000 775 
Q 725 1875 575 2175 
Q 825 2250 1025 2350 
z
M 2000 2525 
Q 2150 1975 2275 1250 
Q 2050 1225 1825 1150 
Q 1775 1525 1575 2425 
Q 1775 2475 2000 2525 
z
" transform="scale(0.015625)"/>
      <path id="SimHei-254a" d="M 4475 3575 
Q 4825 3575 5250 3600 
L 5250 3200 
Q 4850 3225 4475 3225 
L 4175 3225 
L 4175 2700 
L 5675 2700 
Q 5650 2375 5650 2000 
L 5650 1275 
Q 5650 975 5675 625 
L 4750 625 
Q 5025 475 5375 250 
Q 5725 25 6100 -250 
Q 5925 -450 5800 -650 
Q 5425 -350 5075 -112 
Q 4725 125 4425 300 
Q 4600 500 4675 625 
L 2300 625 
Q 2325 975 2325 1275 
L 2325 2000 
Q 2325 2375 2300 2700 
L 3750 2700 
L 3750 3225 
L 3475 3225 
Q 3125 3225 2700 3200 
L 2700 3600 
Q 3150 3575 3450 3575 
L 4475 3575 
z
M 3850 5275 
Q 4125 4825 4275 4475 
L 6100 4475 
Q 6075 4175 6075 3925 
Q 6075 3700 6100 3400 
L 5600 3400 
L 5600 4125 
L 2425 4125 
L 2425 3450 
L 1925 3450 
Q 1950 3750 1950 3975 
Q 1950 4200 1925 4475 
L 3725 4475 
Q 3625 4775 3375 5100 
Q 3650 5175 3850 5275 
z
M 1775 1325 
Q 1500 850 1337 575 
Q 1175 300 1025 37 
Q 875 -225 700 -550 
Q 500 -350 275 -175 
Q 600 200 900 737 
Q 1200 1275 1400 1700 
Q 1575 1500 1775 1325 
z
M 3600 225 
Q 3425 125 3012 -162 
Q 2600 -450 2175 -700 
Q 2025 -500 1850 -350 
Q 2200 -200 2537 12 
Q 2875 225 3200 550 
Q 3375 375 3600 225 
z
M 525 3425 
Q 1275 2975 1550 2750 
Q 1400 2550 1275 2325 
Q 1050 2550 275 3050 
Q 400 3200 525 3425 
z
M 725 5025 
Q 1475 4575 1750 4375 
Q 1575 4225 1475 3975 
Q 750 4550 475 4650 
Q 650 4875 725 5025 
z
M 5200 975 
L 5200 1475 
L 4175 1475 
L 4175 975 
L 5200 975 
z
M 5200 1850 
L 5200 2350 
L 4175 2350 
L 4175 1850 
L 5200 1850 
z
M 3750 1850 
L 3750 2350 
L 2750 2350 
L 2750 1850 
L 3750 1850 
z
M 3750 975 
L 3750 1475 
L 2750 1475 
L 2750 975 
L 3750 975 
z
" transform="scale(0.015625)"/>
      <path id="SimHei-94c" d="M 3925 5025 
Q 3900 4900 3900 4400 
L 3900 2625 
Q 4375 3025 4775 3450 
Q 5175 3875 5400 4300 
Q 5600 4100 5900 3925 
Q 5700 3700 5225 3212 
Q 4750 2725 4487 2512 
Q 4225 2300 3900 2025 
L 3900 450 
Q 3900 50 4225 50 
L 5200 50 
Q 5400 75 5462 262 
Q 5525 450 5575 850 
Q 5800 650 6150 600 
Q 6000 -100 5825 -250 
Q 5650 -400 5350 -400 
L 3950 -400 
Q 3425 -400 3400 200 
L 3400 1675 
Q 3225 1525 2962 1350 
Q 2700 1175 2375 975 
Q 2225 1225 2025 1400 
Q 2350 1550 2737 1787 
Q 3125 2025 3400 2250 
L 3400 4500 
Q 3400 4800 3375 5025 
L 3925 5025 
z
M 2400 4850 
Q 2175 4550 2075 4337 
Q 1975 4125 1825 3775 
L 1825 675 
Q 1825 -75 1850 -550 
L 1325 -550 
Q 1350 -125 1350 650 
L 1350 3050 
Q 1125 2725 962 2525 
Q 800 2325 675 2175 
Q 500 2375 275 2525 
Q 625 2850 875 3212 
Q 1125 3575 1312 3912 
Q 1500 4250 1625 4575 
Q 1750 4900 1825 5100 
Q 1975 4975 2400 4850 
z
" transform="scale(0.015625)"/>
      <path id="SimHei-1d28" d="M 5825 500 
Q 5825 -200 5850 -550 
L 5275 -550 
L 5275 -50 
L 1150 -50 
L 1150 -550 
L 575 -550 
Q 600 125 600 550 
L 600 2775 
Q 600 3425 575 3900 
L 2150 3900 
L 2150 4450 
Q 2125 4850 2125 5150 
L 2700 5150 
Q 2650 4825 2650 4475 
L 2650 3900 
L 3700 3900 
L 3700 4525 
Q 3700 4850 3675 5175 
L 4250 5175 
Q 4225 4875 4225 4550 
L 4225 3900 
L 5850 3900 
Q 5825 3525 5825 2750 
L 5825 500 
z
M 3700 325 
L 3700 1875 
L 2650 1875 
L 2650 325 
L 3700 325 
z
M 5275 325 
L 5275 1875 
L 4225 1875 
L 4225 325 
L 5275 325 
z
M 2150 325 
L 2150 1875 
L 1150 1875 
L 1150 325 
L 2150 325 
z
M 3700 2250 
L 3700 3525 
L 2650 3525 
L 2650 2250 
L 3700 2250 
z
M 5275 2250 
L 5275 3525 
L 4225 3525 
L 4225 2250 
L 5275 2250 
z
M 2150 2250 
L 2150 3525 
L 1150 3525 
L 1150 2250 
L 2150 2250 
z
" transform="scale(0.015625)"/>
      <path id="SimHei-34f5" d="M 3450 4300 
Q 3450 4675 3375 5125 
Q 3700 5100 4050 5050 
Q 3975 4900 3950 4562 
Q 3925 4225 3950 3600 
L 4800 3750 
Q 5225 3850 5650 3975 
L 5750 3500 
Q 5325 3450 4875 3375 
L 3975 3200 
Q 3975 2800 4025 2500 
L 5000 2675 
Q 5500 2775 5950 2925 
L 6025 2450 
Q 5575 2375 5075 2275 
L 4100 2100 
Q 4150 1600 4350 1175 
Q 4575 1350 4787 1575 
Q 5000 1800 5175 2075 
Q 5550 1775 5750 1675 
Q 5425 1525 5237 1337 
Q 5050 1150 4625 750 
Q 4925 250 5162 112 
Q 5400 -25 5500 100 
Q 5600 225 5675 625 
Q 5900 450 6200 350 
Q 5775 -750 5275 -537 
Q 4775 -325 4225 450 
Q 3875 175 3537 -62 
Q 3200 -300 2700 -550 
Q 2575 -300 2325 -100 
Q 2825 75 3175 275 
Q 3525 475 3975 850 
Q 3750 1350 3650 2025 
Q 2900 1900 2600 1800 
L 2525 2275 
Q 2825 2275 3550 2425 
Q 3500 2825 3500 3100 
Q 2825 2950 2575 2875 
L 2475 3350 
Q 2725 3350 3450 3500 
L 3450 4300 
z
M 1950 4875 
Q 1700 4650 1462 4237 
Q 1225 3825 825 3225 
Q 1425 3250 1650 3250 
Q 1875 3625 2050 4075 
Q 2300 3900 2600 3800 
Q 2350 3550 2087 3125 
Q 1825 2700 1175 1675 
Q 1850 1725 2375 1775 
Q 2300 1525 2300 1350 
Q 2125 1350 1525 1287 
Q 925 1225 550 1125 
Q 525 1375 400 1650 
Q 700 1725 950 2050 
Q 1200 2375 1475 2875 
Q 650 2825 425 2675 
Q 350 2950 200 3225 
Q 525 3450 825 3962 
Q 1125 4475 1375 5150 
Q 1625 4975 1950 4875 
z
M 2575 875 
Q 2550 600 2575 450 
Q 1950 325 1450 200 
Q 950 75 525 -75 
Q 450 200 250 475 
Q 950 550 1325 612 
Q 1700 675 2575 875 
z
M 4850 4025 
Q 4675 4300 4375 4675 
L 4775 4875 
Q 4875 4750 5275 4275 
Q 5025 4175 4850 4025 
z
" transform="scale(0.015625)"/>
     </defs>
     <use xlink:href="#SimHei-25"/>
     <use xlink:href="#SimHei-52" transform="translate(50 0)"/>
     <use xlink:href="#SimHei-52" transform="translate(100 0)"/>
     <use xlink:href="#SimHei-57" transform="translate(150 0)"/>
     <use xlink:href="#SimHei-56" transform="translate(200 0)"/>
     <use xlink:href="#SimHei-57" transform="translate(250 0)"/>
     <use xlink:href="#SimHei-55" transform="translate(300 0)"/>
     <use xlink:href="#SimHei-44" transform="translate(350 0)"/>
     <use xlink:href="#SimHei-53" transform="translate(400 0)"/>
     <use xlink:href="#SimHei-3" transform="translate(450 0)"/>
     <use xlink:href="#SimHei-3515" transform="translate(500 0)"/>
     <use xlink:href="#SimHei-41d7" transform="translate(600 0)"/>
     <use xlink:href="#SimHei-4805" transform="translate(700 0)"/>
     <use xlink:href="#SimHei-1b6c" transform="translate(800 0)"/>
     <use xlink:href="#SimHei-1b91" transform="translate(900 0)"/>
     <use xlink:href="#SimHei-254a" transform="translate(1000 0)"/>
     <use xlink:href="#SimHei-94c" transform="translate(1100 0)"/>
     <use xlink:href="#SimHei-1d28" transform="translate(1200 0)"/>
     <use xlink:href="#SimHei-34f5" transform="translate(1300 0)"/>
    </g>
   </g>
   <g id="legend_1">
    <g id="patch_7">
     <path d="M 561.1 77.14 
L 640.3 77.14 
Q 642.5 77.14 642.5 74.94 
L 642.5 59.54 
Q 642.5 57.34 640.3 57.34 
L 561.1 57.34 
Q 558.9 57.34 558.9 59.54 
L 558.9 74.94 
Q 558.9 77.14 561.1 77.14 
z
" style="fill: #ffffff; opacity: 0.8; stroke: #cccccc; stroke-linejoin: miter"/>
    </g>
    <g id="line2d_15">
     <path d="M 563.3 67.343125 
L 574.3 67.343125 
L 585.3 67.343125 
" style="fill: none; stroke: #800080; stroke-width: 1.5; stroke-linecap: round"/>
    </g>
    <g id="text_17">
     <!-- 累积均值 -->
     <g style="fill: #262626" transform="translate(594.1 71.193125) scale(0.11 -0.11)">
      <defs>
       <path id="SimHei-3365" d="M 5475 5000 
Q 5450 4600 5450 3975 
Q 5450 3350 5475 2950 
L 4675 2950 
Q 4850 2775 5075 2600 
Q 4800 2525 4237 2275 
Q 3675 2025 3262 1837 
Q 2850 1650 2400 1425 
Q 3850 1525 4650 1575 
Q 4425 1725 4200 1850 
Q 4375 2000 4500 2175 
Q 5125 1800 5900 1300 
Q 5750 1125 5575 900 
Q 5375 1075 5100 1250 
Q 4250 1175 3475 1125 
L 3475 50 
Q 3475 -350 3212 -462 
Q 2950 -575 2600 -600 
Q 2575 -375 2375 -50 
Q 2800 -75 2900 -25 
Q 3000 25 3000 125 
L 3000 1075 
Q 2400 1050 1987 1012 
Q 1575 975 850 875 
Q 775 1125 700 1350 
Q 1150 1400 1575 1512 
Q 2000 1625 3025 2125 
Q 1775 2025 1250 1925 
Q 1200 2200 1100 2375 
Q 1325 2375 1737 2537 
Q 2150 2700 2475 2950 
L 950 2950 
Q 975 3375 975 3975 
Q 975 4600 950 5000 
L 5475 5000 
z
M 2425 525 
Q 2200 400 1762 137 
Q 1325 -125 850 -425 
Q 700 -225 500 -25 
Q 850 125 1250 362 
Q 1650 600 2025 900 
Q 2150 725 2425 525 
z
M 2975 4100 
L 2975 4650 
L 1450 4650 
L 1450 4100 
L 2975 4100 
z
M 4975 4100 
L 4975 4650 
L 3450 4650 
L 3450 4100 
L 4975 4100 
z
M 4275 850 
Q 4750 650 5050 500 
L 5850 100 
Q 5675 -125 5575 -375 
Q 5150 -100 4775 100 
Q 4400 300 4050 450 
Q 4200 675 4275 850 
z
M 2975 3275 
L 2975 3750 
L 1450 3750 
L 1450 3275 
L 2975 3275 
z
M 4975 3275 
L 4975 3750 
L 3450 3750 
L 3450 3275 
L 4975 3275 
z
M 3700 2475 
Q 4200 2700 4575 2950 
L 3225 2950 
Q 2900 2750 2300 2425 
Q 3075 2450 3700 2475 
z
" transform="scale(0.015625)"/>
       <path id="SimHei-3025" d="M 5675 4700 
Q 5650 4275 5650 3575 
L 5650 2750 
Q 5650 2225 5675 1750 
L 3100 1750 
Q 3125 2225 3125 2750 
L 3125 3600 
Q 3125 4275 3100 4700 
L 5675 4700 
z
M 2850 4625 
Q 2600 4575 2400 4525 
Q 2200 4475 1925 4425 
L 1925 3275 
Q 2525 3275 2875 3300 
L 2875 2825 
Q 2525 2850 1925 2850 
L 1925 2075 
Q 2125 2225 2250 2350 
Q 2650 1775 2875 1450 
Q 2750 1375 2450 1150 
Q 2250 1575 1925 2000 
L 1925 300 
Q 1925 -75 1950 -675 
L 1425 -675 
Q 1475 -75 1475 300 
L 1475 1925 
Q 1275 1475 1125 1225 
Q 975 975 650 525 
Q 450 700 200 825 
Q 575 1200 900 1750 
Q 1225 2300 1375 2850 
Q 1025 2850 300 2825 
L 300 3300 
Q 1025 3275 1475 3275 
L 1475 4325 
Q 975 4250 525 4175 
Q 450 4400 350 4625 
Q 675 4600 1462 4750 
Q 2250 4900 2550 5075 
Q 2725 4775 2850 4625 
z
M 5175 2175 
L 5175 4300 
L 3575 4300 
L 3575 2175 
L 5175 2175 
z
M 4025 1075 
Q 3875 850 3512 350 
Q 3150 -150 2700 -650 
Q 2525 -475 2300 -300 
Q 2625 -50 2950 375 
Q 3275 800 3575 1400 
Q 3825 1200 4025 1075 
z
M 5050 1325 
Q 5275 1025 5587 625 
Q 5900 225 6200 -225 
Q 5900 -400 5725 -550 
Q 5550 -225 5200 287 
Q 4850 800 4650 1025 
Q 4850 1150 5050 1325 
z
" transform="scale(0.015625)"/>
       <path id="SimHei-d7d" d="M 5775 275 
Q 5775 -325 5362 -450 
Q 4950 -575 4425 -600 
Q 4375 -275 4250 25 
Q 4950 -25 5125 62 
Q 5300 150 5300 500 
L 5375 3700 
L 3550 3700 
Q 3425 3375 3262 3037 
Q 3100 2700 2925 2400 
Q 2675 2550 2475 2625 
Q 3150 3625 3500 5200 
Q 3800 5100 4075 5025 
Q 3975 4875 3875 4650 
Q 3775 4425 3675 4125 
L 5900 4125 
L 5775 275 
z
M 1250 3625 
L 1250 4375 
Q 1250 4775 1225 5100 
L 1775 5100 
Q 1750 4725 1750 4375 
L 1750 3625 
L 1900 3625 
Q 2200 3625 2525 3650 
L 2525 3150 
Q 2200 3175 1900 3175 
L 1750 3175 
L 1750 1100 
L 2500 1375 
Q 2475 1125 2525 900 
Q 1225 475 962 362 
Q 700 250 475 150 
Q 375 475 250 750 
Q 575 800 800 850 
Q 1025 900 1250 975 
L 1250 3175 
L 1125 3175 
Q 850 3175 400 3150 
L 400 3650 
Q 850 3625 1100 3625 
L 1250 3625 
z
M 4950 1625 
Q 4675 1425 4137 1050 
Q 3600 675 3175 300 
Q 3000 575 2850 775 
Q 3350 1050 3762 1325 
Q 4175 1600 4775 2075 
Q 4825 1850 4950 1625 
z
M 3775 3150 
Q 4125 2800 4475 2300 
Q 4250 2125 4100 1975 
Q 3900 2325 3450 2825 
Q 3600 3000 3775 3150 
z
" transform="scale(0.015625)"/>
      </defs>
      <use xlink:href="#SimHei-3365"/>
      <use xlink:href="#SimHei-3025" transform="translate(100 0)"/>
      <use xlink:href="#SimHei-d7d" transform="translate(200 0)"/>
      <use xlink:href="#SimHei-672" transform="translate(300 0)"/>
     </g>
    </g>
   </g>
  </g>
 </g>
 <defs>
  <clipPath id="p328bdb3f48">
   <rect x="90" y="51.84" width="558" height="332.64"/>
  </clipPath>
 </defs>
</svg>
