<?xml version="1.0" encoding="utf-8" standalone="no"?>
<!DOCTYPE svg PUBLIC "-//W3C//DTD SVG 1.1//EN"
  "http://www.w3.org/Graphics/SVG/1.1/DTD/svg11.dtd">
<svg xmlns:xlink="http://www.w3.org/1999/xlink" width="720pt" height="432pt" viewBox="0 0 720 432" xmlns="http://www.w3.org/2000/svg" version="1.1">
 <metadata>
  <rdf:RDF xmlns:dc="http://purl.org/dc/elements/1.1/" xmlns:cc="http://creativecommons.org/ns#" xmlns:rdf="http://www.w3.org/1999/02/22-rdf-syntax-ns#">
   <cc:Work>
    <dc:type rdf:resource="http://purl.org/dc/dcmitype/StillImage"/>
    <dc:date>2026-07-07T11:22:08.517299</dc:date>
    <dc:format>image/svg+xml</dc:format>
    <dc:creator>
     <cc:Agent>
      <dc:title>Matplotlib v3.11.0, https://matplotlib.org/</dc:title>
     </cc:Agent>
    </dc:creator>
   </cc:Work>
  </rdf:RDF>
 </metadata>
 <defs>
  <style type="text/css">*{stroke-linejoin: round; stroke-linecap: butt}</style>
 </defs>
 <g id="figure_1">
  <g id="patch_1">
   <path d="M 0 432 
L 720 432 
L 720 0 
L 0 0 
z
" style="fill: #ffffff"/>
  </g>
  <g id="axes_1">
   <g id="patch_2">
    <path d="M 90 384.48 
L 648 384.48 
L 648 51.84 
L 90 51.84 
z
" style="fill: #ffffff"/>
   </g>
   <g id="matplotlib.axis_1">
    <g id="xtick_1">
     <g id="line2d_1">
      <path d="M 176.480832 384.48 
L 176.480832 51.84 
" clip-path="url(#p90833b3718)" style="fill: none; stroke: #cccccc; stroke-linecap: round"/>
     </g>
     <g id="text_1">
      <!-- 32 -->
      <g style="fill: #262626" transform="translate(170.980832 403.433125) scale(0.11 -0.11)">
       <defs>
        <path id="SimHei-16" d="M 250 1225 
L 700 1300 
Q 800 975 1025 762 
Q 1250 550 1587 562 
Q 1925 575 2125 837 
Q 2325 1100 2300 1437 
Q 2275 1775 2037 1962 
Q 1800 2150 1275 2225 
L 1275 2550 
Q 1800 2600 2037 2825 
Q 2275 3050 2250 3412 
Q 2225 3775 1925 3937 
Q 1625 4100 1287 3975 
Q 950 3850 750 3275 
L 300 3350 
Q 450 3800 712 4100 
Q 975 4400 1425 4450 
Q 1875 4500 2212 4337 
Q 2550 4175 2687 3837 
Q 2825 3500 2725 3100 
Q 2625 2700 2150 2400 
Q 2500 2250 2687 1950 
Q 2875 1650 2812 1162 
Q 2750 675 2375 375 
Q 2000 75 1525 87 
Q 1050 100 700 387 
Q 350 675 250 1225 
z
" transform="scale(0.015625)"/>
        <path id="SimHei-15" d="M 300 250 
Q 325 625 650 925 
Q 975 1225 1475 1862 
Q 1975 2500 2125 2850 
Q 2275 3200 2237 3450 
Q 2200 3700 2000 3862 
Q 1800 4025 1537 4000 
Q 1275 3975 1037 3800 
Q 800 3625 675 3275 
L 200 3350 
Q 400 3925 712 4187 
Q 1025 4450 1450 4475 
Q 1700 4500 1900 4462 
Q 2100 4425 2312 4287 
Q 2525 4150 2662 3875 
Q 2800 3600 2762 3212 
Q 2725 2825 2375 2287 
Q 2025 1750 1025 600 
L 2825 600 
L 2825 150 
L 300 150 
L 300 250 
z
" transform="scale(0.015625)"/>
       </defs>
       <use xlink:href="#SimHei-16"/>
       <use xlink:href="#SimHei-15" transform="translate(50 0)"/>
      </g>
     </g>
    </g>
    <g id="xtick_2">
     <g id="line2d_2">
      <path d="M 298.715225 384.48 
L 298.715225 51.84 
" clip-path="url(#p90833b3718)" style="fill: none; stroke: #cccccc; stroke-linecap: round"/>
     </g>
     <g id="text_2">
      <!-- 33 -->
      <g style="fill: #262626" transform="translate(293.215225 403.433125) scale(0.11 -0.11)">
       <use xlink:href="#SimHei-16"/>
       <use xlink:href="#SimHei-16" transform="translate(50 0)"/>
      </g>
     </g>
    </g>
    <g id="xtick_3">
     <g id="line2d_3">
      <path d="M 420.949617 384.48 
L 420.949617 51.84 
" clip-path="url(#p90833b3718)" style="fill: none; stroke: #cccccc; stroke-linecap: round"/>
     </g>
     <g id="text_3">
      <!-- 34 -->
      <g style="fill: #262626" transform="translate(415.449617 403.433125) scale(0.11 -0.11)">
       <defs>
        <path id="SimHei-17" d="M 2000 1100 
L 75 1100 
L 75 1525 
L 2100 4450 
L 2475 4450 
L 2475 1525 
L 3075 1525 
L 3075 1100 
L 2475 1100 
L 2475 150 
L 2000 150 
L 2000 1100 
z
M 2000 1525 
L 2000 3500 
L 600 1525 
L 2000 1525 
z
" transform="scale(0.015625)"/>
       </defs>
       <use xlink:href="#SimHei-16"/>
       <use xlink:href="#SimHei-17" transform="translate(50 0)"/>
      </g>
     </g>
    </g>
    <g id="xtick_4">
     <g id="line2d_4">
      <path d="M 543.184009 384.48 
L 543.184009 51.84 
" clip-path="url(#p90833b3718)" style="fill: none; stroke: #cccccc; stroke-linecap: round"/>
     </g>
     <g id="text_4">
      <!-- 35 -->
      <g style="fill: #262626" transform="translate(537.684009 403.433125) scale(0.11 -0.11)">
       <defs>
        <path id="SimHei-18" d="M 550 1325 
Q 725 650 1150 575 
Q 1575 500 1837 662 
Q 2100 825 2212 1087 
Q 2325 1350 2312 1675 
Q 2300 2000 2137 2225 
Q 1975 2450 1725 2525 
Q 1475 2600 1162 2525 
Q 850 2450 650 2175 
L 225 2225 
Q 275 2375 700 4375 
L 2675 4375 
L 2675 3925 
L 1075 3925 
Q 950 3250 825 2850 
Q 1200 3025 1525 3012 
Q 1850 3000 2150 2862 
Q 2450 2725 2587 2487 
Q 2725 2250 2787 2012 
Q 2850 1775 2837 1500 
Q 2825 1225 2725 937 
Q 2625 650 2425 462 
Q 2225 275 1937 162 
Q 1650 50 1275 75 
Q 900 100 562 350 
Q 225 600 100 1200 
L 550 1325 
z
" transform="scale(0.015625)"/>
       </defs>
       <use xlink:href="#SimHei-16"/>
       <use xlink:href="#SimHei-18" transform="translate(50 0)"/>
      </g>
     </g>
    </g>
    <g id="text_5">
     <!-- 统计量数值 -->
     <g style="fill: #262626" transform="translate(339 419.2925) scale(0.12 -0.12)">
      <defs>
       <path id="SimHei-3515" d="M 5150 4300 
Q 5525 4300 5950 4325 
L 5950 3875 
Q 5550 3900 5175 3900 
L 3775 3900 
Q 3975 3750 4250 3600 
Q 4050 3450 3837 3162 
Q 3625 2875 3225 2375 
Q 3800 2375 5025 2500 
Q 4925 2625 4625 2975 
Q 4850 3100 5025 3250 
Q 5450 2800 5950 2100 
Q 5700 1950 5525 1775 
Q 5375 1975 5275 2125 
Q 4925 2100 4825 2075 
L 4825 200 
Q 4825 -100 5075 -100 
L 5325 -100 
Q 5550 -100 5625 575 
Q 5850 400 6150 325 
Q 5925 -525 5525 -525 
L 4850 -525 
Q 4350 -525 4350 0 
L 4350 2025 
Q 4000 2000 3875 1975 
Q 3900 1050 3637 462 
Q 3375 -125 2625 -700 
Q 2500 -500 2175 -375 
Q 2575 -125 2850 175 
Q 3125 475 3275 850 
Q 3425 1225 3400 1925 
Q 3025 1900 2725 1825 
Q 2650 2200 2525 2475 
Q 2825 2500 3187 2975 
Q 3550 3450 3675 3900 
L 3275 3900 
Q 2950 3900 2475 3875 
L 2475 4325 
Q 2875 4300 3250 4300 
L 5150 4300 
z
M 1875 4825 
Q 1700 4600 1500 4250 
Q 1300 3900 900 3250 
Q 1375 3275 1650 3275 
Q 1850 3625 1975 3975 
Q 2250 3800 2550 3675 
Q 2375 3500 2075 3037 
Q 1775 2575 1225 1725 
Q 1950 1800 2500 1900 
Q 2375 1600 2375 1425 
Q 2150 1400 1587 1325 
Q 1025 1250 600 1125 
Q 525 1375 425 1625 
Q 700 1700 950 2075 
Q 1200 2450 1450 2900 
Q 1225 2875 925 2837 
Q 625 2800 425 2750 
Q 325 3000 200 3225 
Q 500 3300 862 4025 
Q 1225 4750 1275 5075 
Q 1575 4925 1875 4825 
z
M 2550 825 
Q 2525 575 2550 350 
Q 1975 200 1412 37 
Q 850 -125 550 -250 
Q 450 0 275 275 
Q 900 375 1450 500 
Q 2000 625 2550 825 
z
M 4100 5275 
Q 4375 4825 4500 4575 
Q 4325 4500 4025 4350 
Q 3825 4825 3650 5075 
Q 3950 5175 4100 5275 
z
" transform="scale(0.015625)"/>
       <path id="SimHei-41d7" d="M 3925 3100 
L 3925 4350 
Q 3925 4850 3900 5125 
L 4425 5125 
Q 4400 4800 4400 4550 
L 4400 3100 
L 5425 3100 
Q 5725 3100 6075 3125 
L 6075 2650 
Q 5700 2675 5450 2675 
L 4400 2675 
L 4400 175 
Q 4400 -125 4425 -550 
L 3900 -550 
Q 3925 -125 3925 150 
L 3925 2675 
L 2950 2675 
Q 2575 2675 2200 2650 
L 2200 3125 
Q 2575 3100 2900 3100 
L 3925 3100 
z
M 1775 3150 
Q 1750 2675 1750 2150 
L 1750 625 
Q 2175 1050 2425 1400 
Q 2575 1200 2775 1000 
L 2075 300 
Q 1750 -25 1450 -350 
Q 1275 -125 1125 50 
Q 1300 250 1275 650 
L 1275 2725 
Q 600 2725 275 2700 
L 275 3175 
Q 675 3150 825 3150 
L 1775 3150 
z
M 1150 5050 
Q 1475 4725 2175 4000 
Q 1950 3800 1750 3625 
Q 1425 4100 775 4750 
Q 950 4875 1150 5050 
z
" transform="scale(0.015625)"/>
       <path id="SimHei-4805" d="M 5250 2500 
Q 5225 2200 5225 1700 
Q 5225 1225 5250 950 
L 3425 950 
L 3425 625 
L 4575 625 
Q 5000 625 5375 650 
L 5375 275 
Q 5025 300 4575 300 
L 3425 300 
L 3425 -75 
L 5125 -75 
Q 5525 -75 5925 -50 
L 5925 -425 
Q 5525 -400 5125 -400 
L 1275 -400 
Q 900 -400 475 -425 
L 475 -50 
Q 925 -50 1275 -75 
L 2975 -75 
L 2975 300 
L 1725 300 
Q 1350 300 975 250 
L 975 650 
Q 1375 625 1725 625 
L 2975 625 
L 2975 950 
L 1150 950 
Q 1175 1375 1175 1775 
Q 1175 2175 1150 2500 
L 5250 2500 
z
M 5200 4950 
Q 5175 4575 5175 4250 
Q 5175 3925 5200 3400 
L 1200 3400 
Q 1225 3925 1225 4250 
Q 1225 4575 1200 4950 
L 5200 4950 
z
M 4900 3100 
Q 5500 3125 6000 3150 
L 6000 2750 
Q 5500 2775 4925 2775 
L 1650 2775 
Q 975 2775 325 2750 
L 325 3150 
Q 975 3125 1650 3100 
L 4900 3100 
z
M 4725 3700 
L 4725 4025 
L 1675 4025 
L 1675 3700 
L 4725 3700 
z
M 4725 4350 
L 4725 4650 
L 1675 4650 
L 1675 4350 
L 4725 4350 
z
M 4750 1875 
L 4750 2175 
L 3425 2175 
L 3425 1875 
L 4750 1875 
z
M 2975 1875 
L 2975 2175 
L 1650 2175 
L 1650 1875 
L 2975 1875 
z
M 2975 1275 
L 2975 1550 
L 1650 1550 
L 1650 1275 
L 2975 1275 
z
M 4750 1275 
L 4750 1550 
L 3425 1550 
L 3425 1275 
L 4750 1275 
z
" transform="scale(0.015625)"/>
       <path id="SimHei-1ba6" d="M 4525 4925 
Q 4475 4800 4400 4587 
Q 4325 4375 4175 3825 
L 5325 3825 
Q 5575 3825 5925 3850 
L 5925 3400 
Q 5650 3425 5500 3425 
Q 5500 3025 5362 2162 
Q 5225 1300 4875 675 
Q 5125 375 5437 137 
Q 5750 -100 6025 -200 
Q 5725 -425 5625 -625 
Q 5325 -450 5075 -225 
Q 4825 0 4575 325 
Q 4300 25 3987 -187 
Q 3675 -400 3200 -650 
Q 3075 -425 2850 -300 
Q 3225 -150 3650 125 
Q 4075 400 4300 675 
Q 4125 1025 3962 1425 
Q 3800 1825 3675 2475 
Q 3600 2275 3425 1950 
Q 3250 2050 3000 2150 
Q 3400 2850 3650 3675 
Q 3900 4500 3975 5100 
Q 4275 4975 4525 4925 
z
M 2100 2250 
Q 2000 2150 1875 1925 
L 3250 1925 
Q 3100 1300 2725 675 
Q 3125 525 3350 400 
Q 3225 225 3125 25 
Q 2900 175 2450 325 
Q 1950 -225 725 -650 
Q 600 -375 400 -275 
Q 1575 0 2000 475 
Q 1300 650 850 775 
Q 1000 1000 1250 1525 
Q 1000 1525 425 1500 
L 425 1950 
Q 900 1925 1400 1925 
Q 1500 2150 1550 2425 
Q 1825 2325 2100 2250 
z
M 1775 3950 
Q 1775 4550 1750 5100 
L 2250 5100 
Q 2225 4575 2225 3950 
Q 3075 3950 3425 3975 
L 3425 3525 
Q 3075 3550 2225 3550 
Q 2225 2825 2250 2425 
L 1750 2425 
Q 1775 2775 1775 3300 
Q 1650 3100 1300 2787 
Q 950 2475 650 2300 
Q 525 2525 275 2625 
Q 500 2700 875 2975 
Q 1250 3250 1450 3550 
Q 950 3550 500 3525 
L 500 3975 
Q 925 3950 1775 3950 
z
M 3975 3175 
Q 4200 1700 4600 1125 
Q 4850 1700 4937 2287 
Q 5025 2875 5050 3425 
L 4075 3425 
L 3975 3175 
z
M 1450 1000 
Q 1750 925 2275 800 
Q 2475 1050 2650 1525 
L 1725 1525 
Q 1600 1275 1450 1000 
z
M 3325 4825 
Q 3200 4625 3125 4450 
Q 3050 4275 2925 4025 
Q 2725 4125 2525 4175 
Q 2725 4500 2900 5000 
Q 3150 4875 3325 4825 
z
M 2575 3375 
Q 2900 3050 3200 2725 
Q 3050 2600 2875 2425 
Q 2525 2850 2300 3100 
Q 2450 3225 2575 3375 
z
M 925 5000 
Q 1275 4650 1500 4300 
L 1125 4075 
Q 950 4425 600 4725 
Q 825 4875 925 5000 
z
" transform="scale(0.015625)"/>
       <path id="SimHei-672" d="M 3675 4450 
L 3675 5100 
Q 3975 5075 4350 5050 
Q 4225 4875 4200 4450 
L 5125 4450 
Q 5550 4450 5875 4475 
L 5875 4025 
Q 5525 4050 5125 4050 
L 4175 4050 
L 4125 3500 
L 5400 3500 
Q 5375 3200 5375 2700 
L 5375 150 
Q 5875 150 6100 175 
L 6100 -275 
Q 5775 -250 5200 -250 
L 2850 -250 
Q 2275 -250 1900 -275 
L 1900 175 
Q 2125 150 2600 150 
L 2600 2700 
Q 2600 3175 2575 3500 
L 3600 3500 
L 3650 4050 
L 3200 4050 
Q 2575 4050 2225 4025 
L 2225 4475 
Q 2550 4450 3200 4450 
L 3675 4450 
z
M 2225 4900 
Q 2025 4675 1650 3750 
L 1650 450 
Q 1650 -75 1675 -550 
L 1150 -550 
Q 1175 -125 1175 375 
L 1175 2950 
Q 875 2450 625 2150 
Q 425 2425 250 2575 
Q 500 2825 937 3537 
Q 1375 4250 1625 5150 
Q 1975 4975 2225 4900 
z
M 4925 2650 
L 4925 3150 
L 3075 3150 
L 3075 2650 
L 4925 2650 
z
M 4925 150 
L 4925 625 
L 3075 625 
L 3075 150 
L 4925 150 
z
M 4925 1000 
L 4925 1450 
L 3075 1450 
L 3075 1000 
L 4925 1000 
z
M 4925 1825 
L 4925 2275 
L 3075 2275 
L 3075 1825 
L 4925 1825 
z
" transform="scale(0.015625)"/>
      </defs>
      <use xlink:href="#SimHei-3515"/>
      <use xlink:href="#SimHei-41d7" transform="translate(100 0)"/>
      <use xlink:href="#SimHei-4805" transform="translate(200 0)"/>
      <use xlink:href="#SimHei-1ba6" transform="translate(300 0)"/>
      <use xlink:href="#SimHei-672" transform="translate(400 0)"/>
     </g>
    </g>
   </g>
   <g id="matplotlib.axis_2">
    <g id="ytick_1">
     <g id="line2d_5">
      <path d="M 90 384.48 
L 648 384.48 
" clip-path="url(#p90833b3718)" style="fill: none; stroke: #cccccc; stroke-linecap: round"/>
     </g>
     <g id="text_6">
      <!-- 0.0 -->
      <g style="fill: #262626" transform="translate(64 389.206563) scale(0.11 -0.11)">
       <defs>
        <path id="SimHei-13" d="M 225 2537 
Q 250 3200 412 3587 
Q 575 3975 875 4225 
Q 1175 4475 1612 4475 
Q 2050 4475 2375 4112 
Q 2700 3750 2800 3200 
Q 2900 2650 2862 1937 
Q 2825 1225 2612 775 
Q 2400 325 1975 150 
Q 1550 -25 1125 187 
Q 700 400 525 750 
Q 350 1100 275 1487 
Q 200 1875 225 2537 
z
M 750 2687 
Q 675 2000 800 1462 
Q 925 925 1212 700 
Q 1500 475 1800 612 
Q 2100 750 2237 1162 
Q 2375 1575 2375 2062 
Q 2375 2550 2337 2950 
Q 2300 3350 2112 3675 
Q 1925 4000 1612 4012 
Q 1300 4025 1062 3700 
Q 825 3375 750 2687 
z
" transform="scale(0.015625)"/>
        <path id="SimHei-11" d="M 1075 125 
L 500 125 
L 500 675 
L 1075 675 
L 1075 125 
z
" transform="scale(0.015625)"/>
       </defs>
       <use xlink:href="#SimHei-13"/>
       <use xlink:href="#SimHei-11" transform="translate(50 0)"/>
       <use xlink:href="#SimHei-13" transform="translate(100 0)"/>
      </g>
     </g>
    </g>
    <g id="ytick_2">
     <g id="line2d_6">
      <path d="M 90 336.427368 
L 648 336.427368 
" clip-path="url(#p90833b3718)" style="fill: none; stroke: #cccccc; stroke-linecap: round"/>
     </g>
     <g id="text_7">
      <!-- 0.1 -->
      <g style="fill: #262626" transform="translate(64 341.153931) scale(0.11 -0.11)">
       <defs>
        <path id="SimHei-14" d="M 1400 3600 
Q 1075 3275 575 2975 
L 575 3450 
Q 1200 3875 1600 4450 
L 1900 4450 
L 1900 150 
L 1400 150 
L 1400 3600 
z
" transform="scale(0.015625)"/>
       </defs>
       <use xlink:href="#SimHei-13"/>
       <use xlink:href="#SimHei-11" transform="translate(50 0)"/>
       <use xlink:href="#SimHei-14" transform="translate(100 0)"/>
      </g>
     </g>
    </g>
    <g id="ytick_3">
     <g id="line2d_7">
      <path d="M 90 288.374737 
L 648 288.374737 
" clip-path="url(#p90833b3718)" style="fill: none; stroke: #cccccc; stroke-linecap: round"/>
     </g>
     <g id="text_8">
      <!-- 0.2 -->
      <g style="fill: #262626" transform="translate(64 293.101299) scale(0.11 -0.11)">
       <use xlink:href="#SimHei-13"/>
       <use xlink:href="#SimHei-11" transform="translate(50 0)"/>
       <use xlink:href="#SimHei-15" transform="translate(100 0)"/>
      </g>
     </g>
    </g>
    <g id="ytick_4">
     <g id="line2d_8">
      <path d="M 90 240.322105 
L 648 240.322105 
" clip-path="url(#p90833b3718)" style="fill: none; stroke: #cccccc; stroke-linecap: round"/>
     </g>
     <g id="text_9">
      <!-- 0.3 -->
      <g style="fill: #262626" transform="translate(64 245.048668) scale(0.11 -0.11)">
       <use xlink:href="#SimHei-13"/>
       <use xlink:href="#SimHei-11" transform="translate(50 0)"/>
       <use xlink:href="#SimHei-16" transform="translate(100 0)"/>
      </g>
     </g>
    </g>
    <g id="ytick_5">
     <g id="line2d_9">
      <path d="M 90 192.269474 
L 648 192.269474 
" clip-path="url(#p90833b3718)" style="fill: none; stroke: #cccccc; stroke-linecap: round"/>
     </g>
     <g id="text_10">
      <!-- 0.4 -->
      <g style="fill: #262626" transform="translate(64 196.996036) scale(0.11 -0.11)">
       <use xlink:href="#SimHei-13"/>
       <use xlink:href="#SimHei-11" transform="translate(50 0)"/>
       <use xlink:href="#SimHei-17" transform="translate(100 0)"/>
      </g>
     </g>
    </g>
    <g id="ytick_6">
     <g id="line2d_10">
      <path d="M 90 144.216842 
L 648 144.216842 
" clip-path="url(#p90833b3718)" style="fill: none; stroke: #cccccc; stroke-linecap: round"/>
     </g>
     <g id="text_11">
      <!-- 0.5 -->
      <g style="fill: #262626" transform="translate(64 148.943405) scale(0.11 -0.11)">
       <use xlink:href="#SimHei-13"/>
       <use xlink:href="#SimHei-11" transform="translate(50 0)"/>
       <use xlink:href="#SimHei-18" transform="translate(100 0)"/>
      </g>
     </g>
    </g>
    <g id="ytick_7">
     <g id="line2d_11">
      <path d="M 90 96.164211 
L 648 96.164211 
" clip-path="url(#p90833b3718)" style="fill: none; stroke: #cccccc; stroke-linecap: round"/>
     </g>
     <g id="text_12">
      <!-- 0.6 -->
      <g style="fill: #262626" transform="translate(64 100.890773) scale(0.11 -0.11)">
       <defs>
        <path id="SimHei-19" d="M 250 1612 
Q 275 1975 387 2225 
Q 500 2475 725 2850 
L 1750 4450 
L 2325 4450 
L 1275 2800 
Q 1950 2975 2350 2750 
Q 2750 2525 2887 2237 
Q 3025 1950 3037 1612 
Q 3050 1275 2937 950 
Q 2825 625 2537 362 
Q 2250 100 1737 75 
Q 1225 50 862 262 
Q 500 475 362 862 
Q 225 1250 250 1612 
z
M 1025 787 
Q 1250 550 1625 525 
Q 2000 500 2250 775 
Q 2500 1050 2500 1575 
Q 2500 2100 2187 2300 
Q 1875 2500 1487 2450 
Q 1100 2400 925 2075 
Q 750 1750 775 1387 
Q 800 1025 1025 787 
z
" transform="scale(0.015625)"/>
       </defs>
       <use xlink:href="#SimHei-13"/>
       <use xlink:href="#SimHei-11" transform="translate(50 0)"/>
       <use xlink:href="#SimHei-19" transform="translate(100 0)"/>
      </g>
     </g>
    </g>
    <g id="text_13">
     <!-- 密度 -->
     <g style="fill: #262626" transform="translate(58.3125 230.16) rotate(-90) scale(0.12 -0.12)">
      <defs>
       <path id="SimHei-11fc" d="M 4825 3350 
Q 4475 3125 3962 2750 
Q 3450 2375 2775 2025 
L 4025 2025 
Q 4550 2025 4550 2600 
Q 4800 2450 5150 2325 
Q 4900 1775 4712 1687 
Q 4525 1600 4200 1600 
L 2875 1600 
Q 2225 1575 2175 1675 
Q 1125 1325 575 1175 
Q 475 1425 250 1675 
Q 850 1725 1262 1850 
Q 1675 1975 2000 2100 
L 2000 2750 
Q 2000 3000 1975 3400 
L 2550 3400 
Q 2525 3025 2525 2775 
L 2525 2350 
Q 2900 2525 3425 2887 
Q 3950 3250 4325 3775 
Q 4475 3625 4825 3350 
z
M 1225 550 
Q 1225 825 1200 1125 
L 1750 1125 
Q 1725 775 1725 525 
L 1725 0 
L 3075 0 
L 3075 700 
Q 3075 950 3025 1375 
L 3600 1375 
Q 3575 1100 3575 675 
L 3575 0 
L 4975 0 
L 4975 625 
Q 4975 875 4950 1200 
L 5500 1200 
Q 5475 900 5475 600 
L 5475 -225 
Q 5475 -425 5500 -700 
L 4975 -700 
L 4975 -400 
L 1200 -400 
Q 1225 -150 1225 75 
L 1225 550 
z
M 5375 3575 
L 5375 4150 
L 1150 4150 
L 1150 3550 
L 600 3550 
Q 625 3700 625 4000 
Q 625 4300 600 4575 
L 2975 4575 
Q 2900 4800 2775 5050 
Q 3000 5125 3325 5225 
Q 3425 5075 3575 4575 
L 5925 4575 
Q 5900 4250 5900 4025 
Q 5900 3825 5925 3575 
L 5375 3575 
z
M 1650 3275 
Q 1500 2850 1225 2250 
Q 900 2350 675 2400 
Q 950 2800 1100 3400 
Q 1350 3325 1650 3275 
z
M 5450 3325 
Q 5775 2925 6100 2450 
Q 5825 2350 5625 2200 
Q 5350 2675 5000 3050 
Q 5200 3175 5450 3325 
z
M 3225 3150 
Q 2875 3600 2575 3825 
Q 2775 3950 2975 4125 
Q 3175 3975 3650 3475 
Q 3450 3300 3225 3150 
z
" transform="scale(0.015625)"/>
       <path id="SimHei-14dc" d="M 1750 1675 
Q 2450 1650 2875 1650 
L 5200 1650 
Q 4975 1250 4650 850 
Q 4325 450 4025 200 
Q 4350 50 4950 -50 
Q 5550 -150 6100 -150 
Q 5950 -300 5825 -650 
Q 5100 -550 4550 -412 
Q 4000 -275 3625 -100 
Q 3100 -325 2587 -462 
Q 2075 -600 1525 -675 
Q 1450 -475 1225 -250 
Q 1675 -250 2250 -125 
Q 2825 0 3250 200 
Q 2825 550 2400 1275 
L 1750 1250 
L 1750 1675 
z
M 2975 5075 
Q 3250 5150 3475 5250 
Q 3625 4975 3775 4525 
L 4700 4525 
Q 4975 4525 5700 4550 
L 5700 4100 
Q 5000 4125 4650 4125 
L 1375 4125 
Q 1375 3000 1350 2312 
Q 1325 1625 1212 950 
Q 1100 275 725 -525 
Q 500 -375 250 -300 
Q 650 400 762 1075 
Q 875 1750 887 2800 
Q 900 3850 875 4525 
L 3200 4525 
Q 3100 4850 2975 5075 
z
M 2475 3300 
Q 2475 3700 2450 3925 
L 2975 3925 
Q 2950 3725 2950 3300 
L 4300 3300 
Q 4300 3700 4275 3950 
L 4800 3950 
Q 4775 3650 4775 3300 
Q 5325 3300 5725 3325 
L 5725 2900 
Q 5350 2925 4775 2925 
Q 4775 2250 4800 1950 
L 2450 1950 
Q 2475 2350 2475 2925 
Q 2175 2925 1600 2900 
L 1600 3325 
Q 2175 3300 2475 3300 
z
M 4300 2350 
L 4300 2925 
L 2950 2925 
L 2950 2350 
L 4300 2350 
z
M 2875 1275 
Q 3200 775 3650 425 
Q 4025 700 4425 1275 
L 2900 1275 
L 2875 1275 
z
" transform="scale(0.015625)"/>
      </defs>
      <use xlink:href="#SimHei-11fc"/>
      <use xlink:href="#SimHei-14dc" transform="translate(100 0)"/>
     </g>
    </g>
   </g>
   <g id="patch_3">
    <path d="M 115.363636 384.48 
L 142.062201 384.48 
L 142.062201 371.28 
L 115.363636 371.28 
z
" clip-path="url(#p90833b3718)" style="fill: #fa8072; fill-opacity: 0.7; stroke: #ffffff; stroke-linejoin: miter"/>
   </g>
   <g id="patch_4">
    <path d="M 142.062201 384.48 
L 168.760766 384.48 
L 168.760766 380.08 
L 142.062201 380.08 
z
" clip-path="url(#p90833b3718)" style="fill: #fa8072; fill-opacity: 0.7; stroke: #ffffff; stroke-linejoin: miter"/>
   </g>
   <g id="patch_5">
    <path d="M 168.760766 384.48 
L 195.45933 384.48 
L 195.45933 344.88 
L 168.760766 344.88 
z
" clip-path="url(#p90833b3718)" style="fill: #fa8072; fill-opacity: 0.7; stroke: #ffffff; stroke-linejoin: miter"/>
   </g>
   <g id="patch_6">
    <path d="M 195.45933 384.48 
L 222.157895 384.48 
L 222.157895 340.48 
L 195.45933 340.48 
z
" clip-path="url(#p90833b3718)" style="fill: #fa8072; fill-opacity: 0.7; stroke: #ffffff; stroke-linejoin: miter"/>
   </g>
   <g id="patch_7">
    <path d="M 222.157895 384.48 
L 248.856459 384.48 
L 248.856459 353.68 
L 222.157895 353.68 
z
" clip-path="url(#p90833b3718)" style="fill: #fa8072; fill-opacity: 0.7; stroke: #ffffff; stroke-linejoin: miter"/>
   </g>
   <g id="patch_8">
    <path d="M 248.856459 384.48 
L 275.555024 384.48 
L 275.555024 336.08 
L 248.856459 336.08 
z
" clip-path="url(#p90833b3718)" style="fill: #fa8072; fill-opacity: 0.7; stroke: #ffffff; stroke-linejoin: miter"/>
   </g>
   <g id="patch_9">
    <path d="M 275.555024 384.48 
L 302.253589 384.48 
L 302.253589 296.48 
L 275.555024 296.48 
z
" clip-path="url(#p90833b3718)" style="fill: #fa8072; fill-opacity: 0.7; stroke: #ffffff; stroke-linejoin: miter"/>
   </g>
   <g id="patch_10">
    <path d="M 302.253589 384.48 
L 328.952153 384.48 
L 328.952153 322.88 
L 302.253589 322.88 
z
" clip-path="url(#p90833b3718)" style="fill: #fa8072; fill-opacity: 0.7; stroke: #ffffff; stroke-linejoin: miter"/>
   </g>
   <g id="patch_11">
    <path d="M 328.952153 384.48 
L 355.650718 384.48 
L 355.650718 177.68 
L 328.952153 177.68 
z
" clip-path="url(#p90833b3718)" style="fill: #fa8072; fill-opacity: 0.7; stroke: #ffffff; stroke-linejoin: miter"/>
   </g>
   <g id="patch_12">
    <path d="M 355.650718 384.48 
L 382.349282 384.48 
L 382.349282 155.68 
L 355.650718 155.68 
z
" clip-path="url(#p90833b3718)" style="fill: #fa8072; fill-opacity: 0.7; stroke: #ffffff; stroke-linejoin: miter"/>
   </g>
   <g id="patch_13">
    <path d="M 382.349282 384.48 
L 409.047847 384.48 
L 409.047847 204.08 
L 382.349282 204.08 
z
" clip-path="url(#p90833b3718)" style="fill: #fa8072; fill-opacity: 0.7; stroke: #ffffff; stroke-linejoin: miter"/>
   </g>
   <g id="patch_14">
    <path d="M 409.047847 384.48 
L 435.746411 384.48 
L 435.746411 111.68 
L 409.047847 111.68 
z
" clip-path="url(#p90833b3718)" style="fill: #fa8072; fill-opacity: 0.7; stroke: #ffffff; stroke-linejoin: miter"/>
   </g>
   <g id="patch_15">
    <path d="M 435.746411 384.48 
L 462.444976 384.48 
L 462.444976 67.68 
L 435.746411 67.68 
z
" clip-path="url(#p90833b3718)" style="fill: #fa8072; fill-opacity: 0.7; stroke: #ffffff; stroke-linejoin: miter"/>
   </g>
   <g id="patch_16">
    <path d="M 462.444976 384.48 
L 489.143541 384.48 
L 489.143541 116.08 
L 462.444976 116.08 
z
" clip-path="url(#p90833b3718)" style="fill: #fa8072; fill-opacity: 0.7; stroke: #ffffff; stroke-linejoin: miter"/>
   </g>
   <g id="patch_17">
    <path d="M 489.143541 384.48 
L 515.842105 384.48 
L 515.842105 234.88 
L 489.143541 234.88 
z
" clip-path="url(#p90833b3718)" style="fill: #fa8072; fill-opacity: 0.7; stroke: #ffffff; stroke-linejoin: miter"/>
   </g>
   <g id="patch_18">
    <path d="M 515.842105 384.48 
L 542.54067 384.48 
L 542.54067 336.08 
L 515.842105 336.08 
z
" clip-path="url(#p90833b3718)" style="fill: #fa8072; fill-opacity: 0.7; stroke: #ffffff; stroke-linejoin: miter"/>
   </g>
   <g id="patch_19">
    <path d="M 542.54067 384.48 
L 569.239234 384.48 
L 569.239234 212.88 
L 542.54067 212.88 
z
" clip-path="url(#p90833b3718)" style="fill: #fa8072; fill-opacity: 0.7; stroke: #ffffff; stroke-linejoin: miter"/>
   </g>
   <g id="patch_20">
    <path d="M 569.239234 384.48 
L 595.937799 384.48 
L 595.937799 366.88 
L 569.239234 366.88 
z
" clip-path="url(#p90833b3718)" style="fill: #fa8072; fill-opacity: 0.7; stroke: #ffffff; stroke-linejoin: miter"/>
   </g>
   <g id="patch_21">
    <path d="M 595.937799 384.48 
L 622.636364 384.48 
L 622.636364 375.68 
L 595.937799 375.68 
z
" clip-path="url(#p90833b3718)" style="fill: #fa8072; fill-opacity: 0.7; stroke: #ffffff; stroke-linejoin: miter"/>
   </g>
   <g id="line2d_12">
    <path d="M 115.363636 378.220673 
L 130.658291 375.792929 
L 135.75651 374.790116 
L 140.854728 373.556534 
L 145.952947 372.002011 
L 151.051165 370.053077 
L 156.149383 367.671848 
L 161.247602 364.872072 
L 166.34582 361.728446 
L 181.640475 351.806818 
L 186.738693 349.007207 
L 189.287803 347.810746 
L 191.836912 346.773021 
L 194.386021 345.905907 
L 196.93513 345.216306 
L 199.484239 344.705911 
L 202.033349 344.371201 
L 204.582458 344.203648 
L 207.131567 344.190131 
L 209.680676 344.31351 
L 214.778894 344.886626 
L 222.426222 346.197046 
L 227.52444 347.076501 
L 232.622659 347.742359 
L 237.720877 348.039121 
L 240.269986 348.009834 
L 242.819095 347.845513 
L 245.368205 347.53634 
L 247.917314 347.0745 
L 250.466423 346.454111 
L 253.015532 345.671159 
L 255.564641 344.723453 
L 258.113751 343.610575 
L 260.66286 342.333821 
L 263.211969 340.896102 
L 265.761078 339.301775 
L 268.310187 337.556396 
L 273.408406 333.638373 
L 278.506624 329.193513 
L 283.604842 324.257046 
L 288.703061 318.823031 
L 293.801279 312.822098 
L 296.350388 309.567082 
L 298.899497 306.111154 
L 301.448607 302.426656 
L 303.997716 298.484105 
L 306.546825 294.253984 
L 309.095934 289.70888 
L 311.645043 284.825878 
L 314.194153 279.589061 
L 316.743262 273.991974 
L 319.292371 268.039873 
L 321.84148 261.751576 
L 326.939698 248.316468 
L 342.234354 206.367241 
L 344.783463 200.142644 
L 347.332572 194.402578 
L 349.881681 189.228006 
L 352.43079 184.682842 
L 354.979899 180.810436 
L 357.529009 177.630943 
L 360.078118 175.139748 
L 362.627227 173.307036 
L 365.176336 172.078568 
L 367.725445 171.377622 
L 370.274555 171.107999 
L 372.823664 171.15795 
L 383.020101 172.045904 
L 385.56921 171.818319 
L 388.118319 171.192978 
L 390.667428 170.088798 
L 393.216537 168.446109 
L 395.765646 166.228739 
L 398.314756 163.425083 
L 400.863865 160.048171 
L 403.412974 156.134743 
L 405.962083 151.743412 
L 408.511192 146.952039 
L 413.609411 136.556611 
L 421.256738 120.617702 
L 423.805847 115.677863 
L 426.354957 111.106652 
L 428.904066 106.999081 
L 431.453175 103.437096 
L 434.002284 100.48792 
L 436.551393 98.203122 
L 439.100503 96.618396 
L 441.649612 95.754006 
L 444.198721 95.615809 
L 446.74783 96.196731 
L 449.296939 97.478597 
L 451.846048 99.434137 
L 454.395158 102.029054 
L 456.944267 105.224008 
L 459.493376 108.976393 
L 462.042485 113.241839 
L 464.591594 117.975343 
L 467.140704 123.132026 
L 469.689813 128.667501 
L 472.238922 134.537903 
L 477.33714 147.108835 
L 482.435359 160.490137 
L 497.730014 201.615651 
L 502.828232 214.275229 
L 505.377341 220.193404 
L 507.92645 225.790994 
L 510.47556 231.04503 
L 513.024669 235.943748 
L 515.573778 240.487666 
L 518.122887 244.690105 
L 520.671996 248.577071 
L 523.221106 252.186438 
L 528.319324 258.773585 
L 541.06487 274.408151 
L 543.613979 277.857106 
L 546.163088 281.511006 
L 548.712197 285.388137 
L 551.261307 289.493005 
L 556.359525 298.336761 
L 561.457743 307.826712 
L 571.65418 327.255012 
L 576.752398 336.375776 
L 579.301508 340.63528 
L 581.850617 344.653858 
L 584.399726 348.411367 
L 586.948835 351.895737 
L 589.497944 355.10249 
L 592.047053 358.03393 
L 594.596163 360.698124 
L 597.145272 363.107743 
L 599.694381 365.278874 
L 602.24349 367.229865 
L 604.792599 368.98026 
L 607.341709 370.549885 
L 609.890818 371.958091 
L 612.439927 373.22318 
L 617.538145 375.389699 
L 622.636364 377.163266 
L 622.636364 377.163266 
" clip-path="url(#p90833b3718)" style="fill: none; stroke: #fa8072; stroke-width: 1.5; stroke-linecap: round"/>
   </g>
   <g id="line2d_13">
    <path d="M 427.061336 384.48 
L 427.061336 51.84 
" clip-path="url(#p90833b3718)" style="fill: none; stroke-dasharray: 7.4,3.2; stroke-dashoffset: 0; stroke: #ff0000; stroke-width: 2"/>
   </g>
   <g id="patch_22">
    <path d="M 90 384.48 
L 90 51.84 
" style="fill: none; stroke: #cccccc; stroke-width: 1.25; stroke-linejoin: miter; stroke-linecap: square"/>
   </g>
   <g id="patch_23">
    <path d="M 648 384.48 
L 648 51.84 
" style="fill: none; stroke: #cccccc; stroke-width: 1.25; stroke-linejoin: miter; stroke-linecap: square"/>
   </g>
   <g id="patch_24">
    <path d="M 90 384.48 
L 648 384.48 
" style="fill: none; stroke: #cccccc; stroke-width: 1.25; stroke-linejoin: miter; stroke-linecap: square"/>
   </g>
   <g id="patch_25">
    <path d="M 90 51.84 
L 648 51.84 
" style="fill: none; stroke: #cccccc; stroke-width: 1.25; stroke-linejoin: miter; stroke-linecap: square"/>
   </g>
   <g id="text_14">
    <!-- Bootstrap 统计量抽样分布 -->
    <g style="fill: #262626" transform="translate(297 45.84) scale(0.12 -0.12)">
     <defs>
      <path id="SimHei-25" d="M 2950 1400 
Q 2950 675 2550 400 
Q 2150 125 1525 125 
L 275 125 
L 275 4400 
L 1575 4400 
Q 2200 4400 2512 4075 
Q 2825 3750 2825 3300 
Q 2825 2850 2612 2637 
Q 2400 2425 2175 2350 
Q 2475 2275 2712 2037 
Q 2950 1800 2950 1400 
z
M 2250 3300 
Q 2250 3625 2062 3775 
Q 1875 3925 1600 3925 
L 850 3925 
L 850 2600 
L 1575 2600 
Q 1850 2600 2050 2762 
Q 2250 2925 2250 3300 
z
M 2350 1400 
Q 2350 1800 2087 1962 
Q 1825 2125 1500 2125 
L 850 2125 
L 850 600 
L 1425 600 
Q 1875 600 2112 775 
Q 2350 950 2350 1400 
z
" transform="scale(0.015625)"/>
      <path id="SimHei-52" d="M 2925 1525 
Q 2925 875 2525 475 
Q 2125 75 1575 75 
Q 1025 75 625 475 
Q 225 875 225 1525 
Q 225 2175 625 2575 
Q 1025 2975 1575 2975 
Q 2125 2975 2525 2575 
Q 2925 2175 2925 1525 
z
M 2375 1525 
Q 2375 2025 2125 2275 
Q 1875 2525 1575 2525 
Q 1275 2525 1025 2275 
Q 775 2025 775 1525 
Q 775 1025 1025 775 
Q 1275 525 1575 525 
Q 1875 525 2125 775 
Q 2375 1025 2375 1525 
z
" transform="scale(0.015625)"/>
      <path id="SimHei-57" d="M 2750 200 
Q 2625 150 2462 112 
Q 2300 75 2025 75 
Q 1575 75 1300 325 
Q 1025 575 1025 1025 
L 1025 2525 
L 175 2525 
L 175 2925 
L 1025 2925 
L 1025 3900 
L 1525 3900 
L 1525 2925 
L 2550 2925 
L 2550 2525 
L 1525 2525 
L 1525 1000 
Q 1525 800 1625 662 
Q 1725 525 2000 525 
Q 2275 525 2450 575 
Q 2625 625 2750 700 
L 2750 200 
z
" transform="scale(0.015625)"/>
      <path id="SimHei-56" d="M 2750 900 
Q 2750 500 2437 287 
Q 2125 75 1650 75 
Q 1050 75 725 312 
Q 400 550 400 1000 
L 900 1000 
Q 900 700 1112 600 
Q 1325 500 1625 500 
Q 1925 500 2075 612 
Q 2225 725 2225 900 
Q 2225 1025 2100 1150 
Q 1975 1275 1475 1350 
Q 900 1425 687 1637 
Q 475 1850 475 2200 
Q 475 2500 762 2737 
Q 1050 2975 1600 2975 
Q 2100 2975 2387 2750 
Q 2675 2525 2675 2150 
L 2175 2150 
Q 2175 2375 2012 2462 
Q 1850 2550 1600 2550 
Q 1275 2550 1137 2437 
Q 1000 2325 1000 2175 
Q 1000 2000 1125 1900 
Q 1250 1800 1650 1750 
Q 2300 1650 2525 1437 
Q 2750 1225 2750 900 
z
" transform="scale(0.015625)"/>
      <path id="SimHei-55" d="M 2500 2425 
Q 2025 2500 1700 2287 
Q 1375 2075 1150 1550 
L 1150 125 
L 650 125 
L 650 2925 
L 1150 2925 
L 1150 2200 
Q 1375 2600 1712 2787 
Q 2050 2975 2500 2975 
L 2500 2425 
z
" transform="scale(0.015625)"/>
      <path id="SimHei-44" d="M 2875 125 
L 2275 125 
Q 2225 175 2200 262 
Q 2175 350 2175 475 
Q 2000 275 1750 175 
Q 1500 75 1225 75 
Q 825 75 550 275 
Q 275 475 275 850 
Q 275 1225 525 1450 
Q 775 1675 1300 1750 
Q 1650 1800 1912 1875 
Q 2175 1950 2175 2075 
Q 2175 2225 2062 2375 
Q 1950 2525 1575 2525 
Q 1275 2525 1137 2412 
Q 1000 2300 950 2100 
L 400 2100 
Q 450 2500 762 2737 
Q 1075 2975 1575 2975 
Q 2125 2975 2400 2725 
Q 2675 2475 2675 2025 
L 2675 650 
Q 2675 500 2725 375 
Q 2775 250 2875 125 
z
M 2175 1050 
L 2175 1550 
Q 2025 1500 1887 1462 
Q 1750 1425 1425 1375 
Q 1050 1325 937 1200 
Q 825 1075 825 900 
Q 825 750 937 637 
Q 1050 525 1275 525 
Q 1500 525 1762 650 
Q 2025 775 2175 1050 
z
" transform="scale(0.015625)"/>
      <path id="SimHei-53" d="M 2825 1525 
Q 2825 800 2475 425 
Q 2125 50 1625 50 
Q 1350 50 1150 162 
Q 950 275 800 500 
L 800 -800 
L 300 -800 
L 300 2925 
L 800 2925 
L 800 2550 
Q 950 2775 1150 2875 
Q 1350 2975 1625 2975 
Q 2125 2975 2475 2612 
Q 2825 2250 2825 1525 
z
M 2275 1525 
Q 2275 2000 2087 2262 
Q 1900 2525 1525 2525 
Q 1225 2525 1012 2262 
Q 800 2000 800 1525 
Q 800 1050 1012 775 
Q 1225 500 1525 500 
Q 1900 500 2087 775 
Q 2275 1050 2275 1525 
z
" transform="scale(0.015625)"/>
      <path id="SimHei-3" transform="scale(0.015625)"/>
      <path id="SimHei-18f3" d="M 4050 3875 
Q 4050 4425 4025 5150 
L 4525 5150 
Q 4500 4425 4500 3875 
L 5900 3875 
Q 5875 3425 5875 2875 
L 5875 450 
Q 5875 25 5900 -475 
L 5400 -475 
L 5400 50 
L 3125 50 
L 3125 -550 
L 2675 -550 
Q 2700 0 2700 475 
L 2700 2875 
Q 2700 3425 2675 3875 
L 4050 3875 
z
M 1275 3850 
Q 1275 4500 1250 5175 
L 1725 5175 
Q 1700 4575 1700 3850 
Q 1975 3850 2350 3875 
L 2350 3425 
Q 1875 3450 1700 3450 
L 1700 2350 
Q 1950 2425 2350 2600 
Q 2350 2325 2400 2125 
Q 2150 2050 1700 1875 
L 1700 250 
Q 1700 -175 1525 -300 
Q 1350 -425 725 -525 
Q 675 -225 525 75 
Q 925 75 1100 112 
Q 1275 150 1275 375 
L 1275 1750 
Q 850 1575 450 1400 
Q 350 1700 275 1900 
Q 525 1950 1275 2200 
L 1275 3450 
Q 750 3450 375 3425 
L 375 3875 
Q 725 3850 1275 3850 
z
M 4050 450 
L 4050 1825 
L 3125 1825 
L 3125 450 
L 4050 450 
z
M 5400 425 
L 5400 1825 
L 4500 1825 
L 4500 425 
L 5400 425 
z
M 4050 2225 
L 4050 3475 
L 3125 3475 
L 3125 2225 
L 4050 2225 
z
M 5400 2225 
L 5400 3475 
L 4500 3475 
L 4500 2225 
L 5400 2225 
z
" transform="scale(0.015625)"/>
      <path id="SimHei-1e6d" d="M 4350 4025 
Q 4600 4575 4850 5225 
Q 5250 5075 5375 5000 
Q 5150 4725 4850 4025 
L 4950 4025 
Q 5650 4050 5950 4050 
L 5950 3600 
Q 5675 3625 5175 3625 
L 4550 3625 
L 4550 2650 
L 4950 2650 
Q 5525 2675 5800 2675 
L 5800 2225 
Q 5475 2250 5025 2250 
L 4550 2250 
L 4550 1225 
L 5325 1225 
Q 5800 1250 6100 1250 
L 6100 800 
Q 5825 825 5325 825 
L 4550 825 
L 4550 275 
Q 4550 -250 4575 -600 
L 4075 -600 
L 4075 825 
L 3475 825 
Q 3000 825 2550 800 
L 2550 1275 
Q 3000 1250 3500 1225 
L 4075 1225 
L 4075 2250 
L 3650 2250 
Q 3225 2250 2900 2225 
L 2900 2700 
Q 3200 2675 3675 2650 
L 4075 2650 
L 4075 3625 
L 3475 3625 
Q 3050 3625 2750 3600 
L 2750 4075 
Q 3050 4050 3475 4025 
L 4350 4025 
z
M 1325 4350 
Q 1325 4775 1300 5125 
L 1825 5125 
Q 1800 4725 1800 4350 
L 1800 3750 
Q 2125 3750 2475 3775 
L 2475 3325 
Q 2125 3350 1800 3350 
L 1800 2425 
Q 2000 2600 2100 2675 
Q 2375 2325 2725 1775 
Q 2575 1700 2300 1475 
Q 2025 1975 1800 2350 
L 1800 475 
Q 1800 -50 1825 -575 
L 1300 -575 
Q 1325 -25 1325 475 
L 1325 2250 
Q 925 1300 525 725 
Q 425 950 225 1175 
Q 950 2150 1225 3350 
Q 825 3350 350 3325 
L 350 3775 
Q 825 3750 1325 3750 
L 1325 4350 
z
M 3575 5200 
Q 3800 4775 3950 4350 
Q 3650 4250 3525 4175 
Q 3350 4600 3150 5000 
Q 3425 5125 3575 5200 
z
" transform="scale(0.015625)"/>
      <path id="SimHei-83c" d="M 1000 -650 
Q 825 -375 575 -225 
Q 975 -75 1300 137 
Q 1625 350 1875 662 
Q 2125 975 2250 1350 
Q 2375 1725 2425 2275 
Q 1850 2275 1500 2250 
L 1500 2775 
Q 1900 2750 2525 2750 
L 5025 2750 
Q 4975 2375 4950 2100 
L 4750 250 
Q 4700 -200 4350 -350 
Q 4000 -500 3575 -525 
Q 3550 -275 3325 50 
Q 3850 25 4037 87 
Q 4225 150 4275 525 
L 4450 2275 
L 2950 2275 
Q 2875 1625 2737 1187 
Q 2600 750 2350 425 
Q 2100 100 1750 -175 
Q 1400 -450 1000 -650 
z
M 3950 5175 
Q 4125 4650 4662 3975 
Q 5200 3300 6175 2800 
Q 5975 2625 5775 2275 
Q 5325 2600 4987 2887 
Q 4650 3175 4425 3425 
Q 4200 3675 3925 4137 
Q 3650 4600 3475 5000 
Q 3750 5075 3950 5175 
z
M 2700 4825 
Q 2475 4425 2325 4125 
Q 2175 3825 2025 3587 
Q 1875 3350 1575 2950 
Q 1275 2550 850 2125 
Q 625 2350 400 2475 
Q 900 2925 1187 3300 
Q 1475 3675 1737 4112 
Q 2000 4550 2200 5075 
Q 2400 4925 2700 4825 
z
" transform="scale(0.015625)"/>
      <path id="SimHei-1439" d="M 2375 4225 
Q 2650 4775 2775 5300 
Q 3125 5175 3400 5075 
Q 3275 4975 2950 4225 
L 4800 4225 
Q 5550 4225 6025 4250 
L 6025 3800 
L 2725 3800 
Q 2325 3100 1975 2675 
L 3275 2675 
Q 3275 3225 3250 3575 
L 3775 3575 
Q 3750 3225 3750 2675 
L 5500 2675 
Q 5475 2225 5475 1775 
L 5475 750 
Q 5475 275 5212 150 
Q 4950 25 4450 -25 
Q 4400 325 4225 550 
Q 4800 550 4912 625 
Q 5025 700 5000 1025 
L 5000 2250 
L 3750 2250 
L 3750 550 
Q 3750 25 3775 -600 
L 3250 -600 
Q 3275 25 3275 550 
L 3275 2250 
L 2100 2250 
L 2100 0 
L 1600 0 
Q 1625 525 1625 1025 
L 1625 2225 
Q 1300 1850 650 1275 
Q 475 1475 200 1650 
Q 750 2025 1262 2562 
Q 1775 3100 2150 3800 
L 1550 3800 
Q 925 3800 400 3775 
L 400 4250 
Q 925 4225 1550 4225 
L 2375 4225 
z
" transform="scale(0.015625)"/>
     </defs>
     <use xlink:href="#SimHei-25"/>
     <use xlink:href="#SimHei-52" transform="translate(50 0)"/>
     <use xlink:href="#SimHei-52" transform="translate(100 0)"/>
     <use xlink:href="#SimHei-57" transform="translate(150 0)"/>
     <use xlink:href="#SimHei-56" transform="translate(200 0)"/>
     <use xlink:href="#SimHei-57" transform="translate(250 0)"/>
     <use xlink:href="#SimHei-55" transform="translate(300 0)"/>
     <use xlink:href="#SimHei-44" transform="translate(350 0)"/>
     <use xlink:href="#SimHei-53" transform="translate(400 0)"/>
     <use xlink:href="#SimHei-3" transform="translate(450 0)"/>
     <use xlink:href="#SimHei-3515" transform="translate(500 0)"/>
     <use xlink:href="#SimHei-41d7" transform="translate(600 0)"/>
     <use xlink:href="#SimHei-4805" transform="translate(700 0)"/>
     <use xlink:href="#SimHei-18f3" transform="translate(800 0)"/>
     <use xlink:href="#SimHei-1e6d" transform="translate(900 0)"/>
     <use xlink:href="#SimHei-83c" transform="translate(1000 0)"/>
     <use xlink:href="#SimHei-1439" transform="translate(1100 0)"/>
    </g>
   </g>
   <g id="legend_1">
    <g id="patch_26">
     <path d="M 511.6 77.14 
L 640.3 77.14 
Q 642.5 77.14 642.5 74.94 
L 642.5 59.54 
Q 642.5 57.34 640.3 57.34 
L 511.6 57.34 
Q 509.4 57.34 509.4 59.54 
L 509.4 74.94 
Q 509.4 77.14 511.6 77.14 
z
" style="fill: #ffffff; opacity: 0.8; stroke: #cccccc; stroke-linejoin: miter"/>
    </g>
    <g id="line2d_14">
     <path d="M 513.8 67.343125 
L 524.8 67.343125 
L 535.8 67.343125 
" style="fill: none; stroke-dasharray: 7.4,3.2; stroke-dashoffset: 0; stroke: #ff0000; stroke-width: 2"/>
    </g>
    <g id="text_15">
     <!-- 点估计值: 34.0500 -->
     <g style="fill: #262626" transform="translate(544.6 71.193125) scale(0.11 -0.11)">
      <defs>
       <path id="SimHei-26ef" d="M 3325 5200 
Q 3300 4925 3300 4375 
L 4900 4375 
Q 5275 4375 5725 4400 
L 5725 3925 
Q 5300 3950 4900 3950 
L 3300 3950 
L 3300 3225 
L 5225 3225 
Q 5200 2700 5200 2150 
Q 5200 1625 5225 1175 
L 1175 1175 
Q 1200 1625 1200 2175 
Q 1200 2725 1175 3225 
L 2775 3225 
L 2775 4500 
Q 2775 4900 2750 5200 
L 3325 5200 
z
M 4700 1600 
L 4700 2800 
L 1725 2800 
L 1725 1600 
L 4700 1600 
z
M 1500 750 
Q 1025 -250 825 -625 
Q 625 -475 325 -375 
Q 650 50 950 925 
Q 1200 800 1500 750 
z
M 5325 850 
Q 5775 150 6075 -350 
Q 5925 -425 5575 -625 
Q 5375 -150 4900 575 
Q 5150 700 5325 850 
z
M 3975 -575 
Q 3775 -100 3400 575 
Q 3575 675 3825 825 
Q 4350 -75 4450 -325 
Q 4200 -450 3975 -575 
z
M 2375 -575 
Q 2350 -300 1975 550 
Q 2200 625 2425 775 
Q 2800 -75 2900 -350 
Q 2625 -450 2375 -575 
z
" transform="scale(0.015625)"/>
       <path id="SimHei-566" d="M 3700 3800 
L 3700 4375 
Q 3700 4700 3650 5075 
L 4250 5075 
Q 4200 4700 4200 4400 
L 4200 3800 
L 5125 3800 
Q 5600 3800 6000 3825 
L 6000 3350 
Q 5650 3375 5125 3375 
L 4200 3375 
L 4200 2225 
L 5500 2225 
Q 5475 1525 5475 825 
Q 5475 150 5500 -450 
L 5000 -450 
L 5000 25 
L 2925 25 
L 2925 -500 
L 2425 -500 
Q 2450 175 2450 850 
Q 2450 1525 2425 2225 
L 3700 2225 
L 3700 3375 
L 2950 3375 
Q 2425 3375 2025 3350 
L 2025 3825 
Q 2425 3800 2925 3800 
L 3700 3800 
z
M 2200 4900 
Q 1975 4650 1625 3700 
L 1625 675 
Q 1625 -100 1650 -525 
L 1100 -525 
Q 1150 -75 1150 650 
L 1150 2925 
Q 800 2350 500 1975 
Q 425 2150 200 2425 
Q 500 2775 937 3550 
Q 1375 4325 1575 5150 
Q 1775 5050 2200 4900 
z
M 5000 450 
L 5000 1800 
L 2925 1800 
L 2925 450 
L 5000 450 
z
" transform="scale(0.015625)"/>
       <path id="SimHei-1d" d="M 1825 2425 
L 1250 2425 
L 1250 2975 
L 1825 2975 
L 1825 2425 
z
M 1825 125 
L 1250 125 
L 1250 675 
L 1825 675 
L 1825 125 
z
" transform="scale(0.015625)"/>
      </defs>
      <use xlink:href="#SimHei-26ef"/>
      <use xlink:href="#SimHei-566" transform="translate(100 0)"/>
      <use xlink:href="#SimHei-41d7" transform="translate(200 0)"/>
      <use xlink:href="#SimHei-672" transform="translate(300 0)"/>
      <use xlink:href="#SimHei-1d" transform="translate(400 0)"/>
      <use xlink:href="#SimHei-3" transform="translate(450 0)"/>
      <use xlink:href="#SimHei-16" transform="translate(500 0)"/>
      <use xlink:href="#SimHei-17" transform="translate(550 0)"/>
      <use xlink:href="#SimHei-11" transform="translate(600 0)"/>
      <use xlink:href="#SimHei-13" transform="translate(650 0)"/>
      <use xlink:href="#SimHei-18" transform="translate(700 0)"/>
      <use xlink:href="#SimHei-13" transform="translate(750 0)"/>
      <use xlink:href="#SimHei-13" transform="translate(800 0)"/>
     </g>
    </g>
   </g>
  </g>
 </g>
 <defs>
  <clipPath id="p90833b3718">
   <rect x="90" y="51.84" width="558" height="332.64"/>
  </clipPath>
 </defs>
</svg>
