<?xml version="1.0" encoding="utf-8" standalone="no"?>
<!DOCTYPE svg PUBLIC "-//W3C//DTD SVG 1.1//EN"
  "http://www.w3.org/Graphics/SVG/1.1/DTD/svg11.dtd">
<svg xmlns:xlink="http://www.w3.org/1999/xlink" width="550.08pt" height="269.91pt" viewBox="0 0 550.08 269.91" xmlns="http://www.w3.org/2000/svg" version="1.1">
 <metadata>
  <rdf:RDF xmlns:dc="http://purl.org/dc/elements/1.1/" xmlns:cc="http://creativecommons.org/ns#" xmlns:rdf="http://www.w3.org/1999/02/22-rdf-syntax-ns#">
   <cc:Work>
    <dc:type rdf:resource="http://purl.org/dc/dcmitype/StillImage"/>
    <dc:date>2026-07-07T11:21:53.670207</dc:date>
    <dc:format>image/svg+xml</dc:format>
    <dc:creator>
     <cc:Agent>
      <dc:title>Matplotlib v3.11.0, https://matplotlib.org/</dc:title>
     </cc:Agent>
    </dc:creator>
   </cc:Work>
  </rdf:RDF>
 </metadata>
 <defs>
  <style type="text/css">*{stroke-linejoin: round; stroke-linecap: butt}</style>
 </defs>
 <g id="figure_1">
  <g id="patch_1">
   <path d="M 0 269.91 
L 550.08 269.91 
L 550.08 0 
L 0 0 
z
" style="fill: #ffffff"/>
  </g>
  <g id="axes_1">
   <g id="table_1">
    <g id="patch_2">
     <path d="M 7.2 67.83 
L 141.12 67.83 
L 141.12 43.83 
L 7.2 43.83 
z
" style="fill: #ffffff; stroke: #1a1a1a; stroke-linejoin: miter"/>
    </g>
    <g id="text_1">
     <!-- S1 -->
     <g style="fill: #262626" transform="translate(68.16 60.1425) scale(0.12 -0.12)">
      <defs>
       <path id="SimHei-36" d="M 2900 1325 
Q 2900 750 2537 412 
Q 2175 75 1550 75 
Q 925 75 575 425 
Q 225 775 225 1300 
L 225 1475 
L 800 1475 
L 800 1325 
Q 800 950 1025 750 
Q 1250 550 1550 550 
Q 1950 550 2137 762 
Q 2325 975 2325 1275 
Q 2325 1525 2100 1737 
Q 1875 1950 1450 2125 
Q 850 2350 587 2625 
Q 325 2900 325 3275 
Q 325 3800 687 4125 
Q 1050 4450 1550 4450 
Q 2200 4450 2487 4062 
Q 2775 3675 2775 3225 
L 2200 3225 
Q 2225 3500 2050 3725 
Q 1875 3950 1550 3950 
Q 1250 3950 1075 3787 
Q 900 3625 900 3350 
Q 900 3125 1037 2962 
Q 1175 2800 1750 2575 
Q 2300 2350 2600 2037 
Q 2900 1725 2900 1325 
z
" transform="scale(0.015625)"/>
       <path id="SimHei-14" d="M 1400 3600 
Q 1075 3275 575 2975 
L 575 3450 
Q 1200 3875 1600 4450 
L 1900 4450 
L 1900 150 
L 1400 150 
L 1400 3600 
z
" transform="scale(0.015625)"/>
      </defs>
      <use xlink:href="#SimHei-36"/>
      <use xlink:href="#SimHei-14" transform="translate(50 0)"/>
     </g>
    </g>
    <g id="patch_3">
     <path d="M 141.12 67.83 
L 275.04 67.83 
L 275.04 43.83 
L 141.12 43.83 
z
" style="fill: #ffffff; stroke: #1a1a1a; stroke-linejoin: miter"/>
    </g>
    <g id="text_2">
     <!-- S2 -->
     <g style="fill: #262626" transform="translate(202.08 60.1425) scale(0.12 -0.12)">
      <defs>
       <path id="SimHei-15" d="M 300 250 
Q 325 625 650 925 
Q 975 1225 1475 1862 
Q 1975 2500 2125 2850 
Q 2275 3200 2237 3450 
Q 2200 3700 2000 3862 
Q 1800 4025 1537 4000 
Q 1275 3975 1037 3800 
Q 800 3625 675 3275 
L 200 3350 
Q 400 3925 712 4187 
Q 1025 4450 1450 4475 
Q 1700 4500 1900 4462 
Q 2100 4425 2312 4287 
Q 2525 4150 2662 3875 
Q 2800 3600 2762 3212 
Q 2725 2825 2375 2287 
Q 2025 1750 1025 600 
L 2825 600 
L 2825 150 
L 300 150 
L 300 250 
z
" transform="scale(0.015625)"/>
      </defs>
      <use xlink:href="#SimHei-36"/>
      <use xlink:href="#SimHei-15" transform="translate(50 0)"/>
     </g>
    </g>
    <g id="patch_4">
     <path d="M 275.04 67.83 
L 408.96 67.83 
L 408.96 43.83 
L 275.04 43.83 
z
" style="fill: #ffffff; stroke: #1a1a1a; stroke-linejoin: miter"/>
    </g>
    <g id="text_3">
     <!-- S3 -->
     <g style="fill: #262626" transform="translate(336 60.1425) scale(0.12 -0.12)">
      <defs>
       <path id="SimHei-16" d="M 250 1225 
L 700 1300 
Q 800 975 1025 762 
Q 1250 550 1587 562 
Q 1925 575 2125 837 
Q 2325 1100 2300 1437 
Q 2275 1775 2037 1962 
Q 1800 2150 1275 2225 
L 1275 2550 
Q 1800 2600 2037 2825 
Q 2275 3050 2250 3412 
Q 2225 3775 1925 3937 
Q 1625 4100 1287 3975 
Q 950 3850 750 3275 
L 300 3350 
Q 450 3800 712 4100 
Q 975 4400 1425 4450 
Q 1875 4500 2212 4337 
Q 2550 4175 2687 3837 
Q 2825 3500 2725 3100 
Q 2625 2700 2150 2400 
Q 2500 2250 2687 1950 
Q 2875 1650 2812 1162 
Q 2750 675 2375 375 
Q 2000 75 1525 87 
Q 1050 100 700 387 
Q 350 675 250 1225 
z
" transform="scale(0.015625)"/>
      </defs>
      <use xlink:href="#SimHei-36"/>
      <use xlink:href="#SimHei-16" transform="translate(50 0)"/>
     </g>
    </g>
    <g id="patch_5">
     <path d="M 408.96 67.83 
L 542.88 67.83 
L 542.88 43.83 
L 408.96 43.83 
z
" style="fill: #ffffff; stroke: #1a1a1a; stroke-linejoin: miter"/>
    </g>
    <g id="text_4">
     <!-- 灯状态(L) -->
     <g style="fill: #262626" transform="translate(448.92 60.1425) scale(0.12 -0.12)">
      <defs>
       <path id="SimHei-26a5" d="M 3125 3450 
Q 3000 3375 2650 3125 
Q 2300 2875 1975 2650 
Q 1925 2225 1875 1825 
Q 2200 1550 2512 1237 
Q 2825 925 3225 450 
Q 3000 275 2800 50 
Q 2550 375 2337 650 
Q 2125 925 1775 1300 
Q 1650 900 1450 475 
Q 1250 50 800 -600 
Q 575 -425 275 -300 
Q 750 150 1025 700 
Q 1300 1250 1412 1912 
Q 1525 2575 1550 3362 
Q 1575 4150 1550 5225 
Q 1825 5150 2100 5150 
Q 2025 4775 2012 4325 
Q 2000 3875 2000 3200 
Q 2400 3450 2750 3875 
Q 2900 3625 3125 3450 
z
M 2775 4700 
Q 3325 4675 3525 4675 
L 5325 4675 
Q 5550 4675 6125 4700 
L 6125 4225 
Q 5575 4250 5350 4250 
L 4900 4250 
L 4900 125 
Q 4900 -400 4650 -487 
Q 4400 -575 3875 -675 
Q 3825 -350 3675 -25 
Q 4150 -50 4275 -25 
Q 4400 0 4400 325 
L 4400 4250 
L 3500 4250 
Q 3300 4250 2775 4225 
L 2775 4700 
z
M 1075 3725 
Q 1000 3575 937 3087 
Q 875 2600 800 2075 
Q 600 2125 325 2150 
Q 425 2550 487 2962 
Q 550 3375 575 3825 
Q 775 3750 1075 3725 
z
" transform="scale(0.015625)"/>
       <path id="SimHei-28ec" d="M 2225 -275 
Q 2675 25 2975 475 
Q 3275 925 3450 1350 
Q 3625 1775 3700 2175 
Q 3775 2575 3800 2875 
L 3225 2875 
Q 2850 2875 2500 2850 
L 2500 3325 
Q 2850 3300 3200 3300 
L 3825 3300 
Q 3825 3975 3812 4375 
Q 3800 4775 3775 5075 
L 4425 5075 
Q 4350 4750 4337 4412 
Q 4325 4075 4325 3300 
L 5350 3300 
Q 5625 3300 5975 3325 
L 5975 2850 
Q 5625 2875 5350 2875 
L 4375 2875 
Q 4675 1450 5012 962 
Q 5350 475 5625 262 
Q 5900 50 6125 -75 
Q 5775 -225 5625 -525 
Q 5225 -200 4987 112 
Q 4750 425 4587 725 
Q 4425 1025 4312 1337 
Q 4200 1650 4125 2000 
Q 4000 1400 3812 975 
Q 3625 550 3425 237 
Q 3225 -75 2750 -625 
Q 2525 -400 2225 -275 
z
M 2225 5200 
Q 2200 4825 2200 4250 
L 2200 775 
Q 2200 50 2225 -625 
L 1675 -625 
Q 1700 75 1700 775 
L 1700 1950 
Q 1525 1750 1200 1350 
Q 875 950 700 750 
Q 500 1000 275 1150 
Q 575 1375 912 1712 
Q 1250 2050 1700 2600 
L 1700 4250 
Q 1700 4825 1675 5200 
L 2225 5200 
z
M 625 4325 
Q 800 4125 1000 3875 
Q 1200 3625 1375 3375 
Q 1175 3225 1050 3075 
Q 850 3350 250 4050 
Q 400 4175 625 4325 
z
M 5475 3650 
Q 5250 3975 4700 4475 
Q 4900 4625 5025 4750 
Q 5250 4575 5425 4387 
Q 5600 4200 5825 3975 
Q 5625 3800 5475 3650 
z
" transform="scale(0.015625)"/>
       <path id="SimHei-1637" d="M 2575 4325 
Q 2700 4800 2725 5250 
Q 3075 5125 3350 5100 
Q 3225 4875 3100 4325 
L 5025 4325 
Q 5375 4325 5825 4375 
L 5825 3850 
Q 5350 3875 5000 3875 
L 3975 3875 
Q 4225 3300 4575 2987 
Q 4925 2675 5250 2525 
Q 5575 2375 6100 2275 
Q 5800 2075 5675 1775 
Q 4900 2100 4525 2412 
Q 4150 2725 3900 3075 
Q 3650 3425 3500 3875 
L 2975 3875 
Q 2675 3200 2187 2687 
Q 1700 2175 725 1625 
Q 650 1850 300 2075 
Q 900 2275 1512 2750 
Q 2125 3225 2425 3875 
L 1300 3875 
Q 900 3875 450 3850 
L 450 4375 
Q 875 4325 1300 4325 
L 2575 4325 
z
M 2525 1350 
Q 2500 875 2500 575 
Q 2500 300 2512 150 
Q 2525 0 2800 0 
L 3825 0 
Q 4025 -25 4175 62 
Q 4325 150 4400 625 
Q 4650 450 4975 375 
Q 4775 -150 4625 -312 
Q 4475 -475 4000 -450 
L 2500 -450 
Q 2050 -400 2012 -162 
Q 1975 75 1975 425 
Q 1975 800 1950 1350 
L 2525 1350 
z
M 1425 1175 
Q 1175 450 825 -325 
Q 625 -175 325 -125 
Q 775 625 875 1375 
Q 1175 1250 1425 1175 
z
M 5175 1525 
Q 5600 950 6050 350 
Q 5800 175 5600 0 
Q 5225 700 4750 1250 
Q 5000 1350 5175 1525 
z
M 2700 3050 
Q 3175 2675 3500 2325 
Q 3275 2175 3100 1975 
Q 2825 2350 2350 2700 
L 2700 3050 
z
M 3375 1750 
Q 3625 1350 3825 925 
Q 3625 800 3375 675 
Q 3200 1175 2950 1525 
Q 3175 1600 3375 1750 
z
" transform="scale(0.015625)"/>
       <path id="SimHei-b" d="M 2975 -200 
L 2700 -475 
Q 2075 125 1762 775 
Q 1450 1425 1450 2250 
Q 1450 3075 1762 3725 
Q 2075 4375 2700 5000 
L 2975 4725 
Q 2400 4175 2112 3587 
Q 1825 3000 1825 2250 
Q 1825 1500 2112 912 
Q 2400 325 2975 -200 
z
" transform="scale(0.015625)"/>
       <path id="SimHei-2f" d="M 2900 125 
L 300 125 
L 300 4400 
L 875 4400 
L 875 600 
L 2900 600 
L 2900 125 
z
" transform="scale(0.015625)"/>
       <path id="SimHei-c" d="M 1675 2250 
Q 1675 1425 1362 775 
Q 1050 125 425 -475 
L 150 -200 
Q 725 325 1012 912 
Q 1300 1500 1300 2250 
Q 1300 3000 1012 3587 
Q 725 4175 150 4725 
L 425 5000 
Q 1050 4375 1362 3725 
Q 1675 3075 1675 2250 
z
" transform="scale(0.015625)"/>
      </defs>
      <use xlink:href="#SimHei-26a5"/>
      <use xlink:href="#SimHei-28ec" transform="translate(100 0)"/>
      <use xlink:href="#SimHei-1637" transform="translate(200 0)"/>
      <use xlink:href="#SimHei-b" transform="translate(300 0)"/>
      <use xlink:href="#SimHei-2f" transform="translate(350 0)"/>
      <use xlink:href="#SimHei-c" transform="translate(400 0)"/>
     </g>
    </g>
    <g id="patch_6">
     <path d="M 7.2 91.83 
L 141.12 91.83 
L 141.12 67.83 
L 7.2 67.83 
z
" style="fill: #ffffff; stroke: #1a1a1a; stroke-linejoin: miter"/>
    </g>
    <g id="text_5">
     <!-- 0 -->
     <g style="fill: #262626" transform="translate(71.16 84.1425) scale(0.12 -0.12)">
      <defs>
       <path id="SimHei-13" d="M 225 2537 
Q 250 3200 412 3587 
Q 575 3975 875 4225 
Q 1175 4475 1612 4475 
Q 2050 4475 2375 4112 
Q 2700 3750 2800 3200 
Q 2900 2650 2862 1937 
Q 2825 1225 2612 775 
Q 2400 325 1975 150 
Q 1550 -25 1125 187 
Q 700 400 525 750 
Q 350 1100 275 1487 
Q 200 1875 225 2537 
z
M 750 2687 
Q 675 2000 800 1462 
Q 925 925 1212 700 
Q 1500 475 1800 612 
Q 2100 750 2237 1162 
Q 2375 1575 2375 2062 
Q 2375 2550 2337 2950 
Q 2300 3350 2112 3675 
Q 1925 4000 1612 4012 
Q 1300 4025 1062 3700 
Q 825 3375 750 2687 
z
" transform="scale(0.015625)"/>
      </defs>
      <use xlink:href="#SimHei-13"/>
     </g>
    </g>
    <g id="patch_7">
     <path d="M 141.12 91.83 
L 275.04 91.83 
L 275.04 67.83 
L 141.12 67.83 
z
" style="fill: #ffffff; stroke: #1a1a1a; stroke-linejoin: miter"/>
    </g>
    <g id="text_6">
     <!-- 0 -->
     <g style="fill: #262626" transform="translate(205.08 84.1425) scale(0.12 -0.12)">
      <use xlink:href="#SimHei-13"/>
     </g>
    </g>
    <g id="patch_8">
     <path d="M 275.04 91.83 
L 408.96 91.83 
L 408.96 67.83 
L 275.04 67.83 
z
" style="fill: #ffffff; stroke: #1a1a1a; stroke-linejoin: miter"/>
    </g>
    <g id="text_7">
     <!-- 0 -->
     <g style="fill: #262626" transform="translate(339 84.1425) scale(0.12 -0.12)">
      <use xlink:href="#SimHei-13"/>
     </g>
    </g>
    <g id="patch_9">
     <path d="M 408.96 91.83 
L 542.88 91.83 
L 542.88 67.83 
L 408.96 67.83 
z
" style="fill: #ff9999; stroke: #1a1a1a; stroke-linejoin: miter"/>
    </g>
    <g id="text_8">
     <!-- 0 -->
     <g transform="translate(472.92 84.1425) scale(0.12 -0.12)">
      <use xlink:href="#SimHei-13"/>
     </g>
    </g>
    <g id="patch_10">
     <path d="M 7.2 115.83 
L 141.12 115.83 
L 141.12 91.83 
L 7.2 91.83 
z
" style="fill: #ffffff; stroke: #1a1a1a; stroke-linejoin: miter"/>
    </g>
    <g id="text_9">
     <!-- 0 -->
     <g style="fill: #262626" transform="translate(71.16 108.1425) scale(0.12 -0.12)">
      <use xlink:href="#SimHei-13"/>
     </g>
    </g>
    <g id="patch_11">
     <path d="M 141.12 115.83 
L 275.04 115.83 
L 275.04 91.83 
L 141.12 91.83 
z
" style="fill: #ffffff; stroke: #1a1a1a; stroke-linejoin: miter"/>
    </g>
    <g id="text_10">
     <!-- 0 -->
     <g style="fill: #262626" transform="translate(205.08 108.1425) scale(0.12 -0.12)">
      <use xlink:href="#SimHei-13"/>
     </g>
    </g>
    <g id="patch_12">
     <path d="M 275.04 115.83 
L 408.96 115.83 
L 408.96 91.83 
L 275.04 91.83 
z
" style="fill: #ffffff; stroke: #1a1a1a; stroke-linejoin: miter"/>
    </g>
    <g id="text_11">
     <!-- 1 -->
     <g style="fill: #262626" transform="translate(339 108.1425) scale(0.12 -0.12)">
      <use xlink:href="#SimHei-14"/>
     </g>
    </g>
    <g id="patch_13">
     <path d="M 408.96 115.83 
L 542.88 115.83 
L 542.88 91.83 
L 408.96 91.83 
z
" style="fill: #99ff99; stroke: #1a1a1a; stroke-linejoin: miter"/>
    </g>
    <g id="text_12">
     <!-- 1 -->
     <g transform="translate(472.92 108.1425) scale(0.12 -0.12)">
      <use xlink:href="#SimHei-14"/>
     </g>
    </g>
    <g id="patch_14">
     <path d="M 7.2 139.83 
L 141.12 139.83 
L 141.12 115.83 
L 7.2 115.83 
z
" style="fill: #ffffff; stroke: #1a1a1a; stroke-linejoin: miter"/>
    </g>
    <g id="text_13">
     <!-- 0 -->
     <g style="fill: #262626" transform="translate(71.16 132.1425) scale(0.12 -0.12)">
      <use xlink:href="#SimHei-13"/>
     </g>
    </g>
    <g id="patch_15">
     <path d="M 141.12 139.83 
L 275.04 139.83 
L 275.04 115.83 
L 141.12 115.83 
z
" style="fill: #ffffff; stroke: #1a1a1a; stroke-linejoin: miter"/>
    </g>
    <g id="text_14">
     <!-- 1 -->
     <g style="fill: #262626" transform="translate(205.08 132.1425) scale(0.12 -0.12)">
      <use xlink:href="#SimHei-14"/>
     </g>
    </g>
    <g id="patch_16">
     <path d="M 275.04 139.83 
L 408.96 139.83 
L 408.96 115.83 
L 275.04 115.83 
z
" style="fill: #ffffff; stroke: #1a1a1a; stroke-linejoin: miter"/>
    </g>
    <g id="text_15">
     <!-- 0 -->
     <g style="fill: #262626" transform="translate(339 132.1425) scale(0.12 -0.12)">
      <use xlink:href="#SimHei-13"/>
     </g>
    </g>
    <g id="patch_17">
     <path d="M 408.96 139.83 
L 542.88 139.83 
L 542.88 115.83 
L 408.96 115.83 
z
" style="fill: #99ff99; stroke: #1a1a1a; stroke-linejoin: miter"/>
    </g>
    <g id="text_16">
     <!-- 1 -->
     <g transform="translate(472.92 132.1425) scale(0.12 -0.12)">
      <use xlink:href="#SimHei-14"/>
     </g>
    </g>
    <g id="patch_18">
     <path d="M 7.2 163.83 
L 141.12 163.83 
L 141.12 139.83 
L 7.2 139.83 
z
" style="fill: #ffffff; stroke: #1a1a1a; stroke-linejoin: miter"/>
    </g>
    <g id="text_17">
     <!-- 0 -->
     <g style="fill: #262626" transform="translate(71.16 156.1425) scale(0.12 -0.12)">
      <use xlink:href="#SimHei-13"/>
     </g>
    </g>
    <g id="patch_19">
     <path d="M 141.12 163.83 
L 275.04 163.83 
L 275.04 139.83 
L 141.12 139.83 
z
" style="fill: #ffffff; stroke: #1a1a1a; stroke-linejoin: miter"/>
    </g>
    <g id="text_18">
     <!-- 1 -->
     <g style="fill: #262626" transform="translate(205.08 156.1425) scale(0.12 -0.12)">
      <use xlink:href="#SimHei-14"/>
     </g>
    </g>
    <g id="patch_20">
     <path d="M 275.04 163.83 
L 408.96 163.83 
L 408.96 139.83 
L 275.04 139.83 
z
" style="fill: #ffffff; stroke: #1a1a1a; stroke-linejoin: miter"/>
    </g>
    <g id="text_19">
     <!-- 1 -->
     <g style="fill: #262626" transform="translate(339 156.1425) scale(0.12 -0.12)">
      <use xlink:href="#SimHei-14"/>
     </g>
    </g>
    <g id="patch_21">
     <path d="M 408.96 163.83 
L 542.88 163.83 
L 542.88 139.83 
L 408.96 139.83 
z
" style="fill: #ff9999; stroke: #1a1a1a; stroke-linejoin: miter"/>
    </g>
    <g id="text_20">
     <!-- 0 -->
     <g transform="translate(472.92 156.1425) scale(0.12 -0.12)">
      <use xlink:href="#SimHei-13"/>
     </g>
    </g>
    <g id="patch_22">
     <path d="M 7.2 187.83 
L 141.12 187.83 
L 141.12 163.83 
L 7.2 163.83 
z
" style="fill: #ffffff; stroke: #1a1a1a; stroke-linejoin: miter"/>
    </g>
    <g id="text_21">
     <!-- 1 -->
     <g style="fill: #262626" transform="translate(71.16 180.1425) scale(0.12 -0.12)">
      <use xlink:href="#SimHei-14"/>
     </g>
    </g>
    <g id="patch_23">
     <path d="M 141.12 187.83 
L 275.04 187.83 
L 275.04 163.83 
L 141.12 163.83 
z
" style="fill: #ffffff; stroke: #1a1a1a; stroke-linejoin: miter"/>
    </g>
    <g id="text_22">
     <!-- 0 -->
     <g style="fill: #262626" transform="translate(205.08 180.1425) scale(0.12 -0.12)">
      <use xlink:href="#SimHei-13"/>
     </g>
    </g>
    <g id="patch_24">
     <path d="M 275.04 187.83 
L 408.96 187.83 
L 408.96 163.83 
L 275.04 163.83 
z
" style="fill: #ffffff; stroke: #1a1a1a; stroke-linejoin: miter"/>
    </g>
    <g id="text_23">
     <!-- 0 -->
     <g style="fill: #262626" transform="translate(339 180.1425) scale(0.12 -0.12)">
      <use xlink:href="#SimHei-13"/>
     </g>
    </g>
    <g id="patch_25">
     <path d="M 408.96 187.83 
L 542.88 187.83 
L 542.88 163.83 
L 408.96 163.83 
z
" style="fill: #99ff99; stroke: #1a1a1a; stroke-linejoin: miter"/>
    </g>
    <g id="text_24">
     <!-- 1 -->
     <g transform="translate(472.92 180.1425) scale(0.12 -0.12)">
      <use xlink:href="#SimHei-14"/>
     </g>
    </g>
    <g id="patch_26">
     <path d="M 7.2 211.83 
L 141.12 211.83 
L 141.12 187.83 
L 7.2 187.83 
z
" style="fill: #ffffff; stroke: #1a1a1a; stroke-linejoin: miter"/>
    </g>
    <g id="text_25">
     <!-- 1 -->
     <g style="fill: #262626" transform="translate(71.16 204.1425) scale(0.12 -0.12)">
      <use xlink:href="#SimHei-14"/>
     </g>
    </g>
    <g id="patch_27">
     <path d="M 141.12 211.83 
L 275.04 211.83 
L 275.04 187.83 
L 141.12 187.83 
z
" style="fill: #ffffff; stroke: #1a1a1a; stroke-linejoin: miter"/>
    </g>
    <g id="text_26">
     <!-- 0 -->
     <g style="fill: #262626" transform="translate(205.08 204.1425) scale(0.12 -0.12)">
      <use xlink:href="#SimHei-13"/>
     </g>
    </g>
    <g id="patch_28">
     <path d="M 275.04 211.83 
L 408.96 211.83 
L 408.96 187.83 
L 275.04 187.83 
z
" style="fill: #ffffff; stroke: #1a1a1a; stroke-linejoin: miter"/>
    </g>
    <g id="text_27">
     <!-- 1 -->
     <g style="fill: #262626" transform="translate(339 204.1425) scale(0.12 -0.12)">
      <use xlink:href="#SimHei-14"/>
     </g>
    </g>
    <g id="patch_29">
     <path d="M 408.96 211.83 
L 542.88 211.83 
L 542.88 187.83 
L 408.96 187.83 
z
" style="fill: #ff9999; stroke: #1a1a1a; stroke-linejoin: miter"/>
    </g>
    <g id="text_28">
     <!-- 0 -->
     <g transform="translate(472.92 204.1425) scale(0.12 -0.12)">
      <use xlink:href="#SimHei-13"/>
     </g>
    </g>
    <g id="patch_30">
     <path d="M 7.2 235.83 
L 141.12 235.83 
L 141.12 211.83 
L 7.2 211.83 
z
" style="fill: #ffffff; stroke: #1a1a1a; stroke-linejoin: miter"/>
    </g>
    <g id="text_29">
     <!-- 1 -->
     <g style="fill: #262626" transform="translate(71.16 228.1425) scale(0.12 -0.12)">
      <use xlink:href="#SimHei-14"/>
     </g>
    </g>
    <g id="patch_31">
     <path d="M 141.12 235.83 
L 275.04 235.83 
L 275.04 211.83 
L 141.12 211.83 
z
" style="fill: #ffffff; stroke: #1a1a1a; stroke-linejoin: miter"/>
    </g>
    <g id="text_30">
     <!-- 1 -->
     <g style="fill: #262626" transform="translate(205.08 228.1425) scale(0.12 -0.12)">
      <use xlink:href="#SimHei-14"/>
     </g>
    </g>
    <g id="patch_32">
     <path d="M 275.04 235.83 
L 408.96 235.83 
L 408.96 211.83 
L 275.04 211.83 
z
" style="fill: #ffffff; stroke: #1a1a1a; stroke-linejoin: miter"/>
    </g>
    <g id="text_31">
     <!-- 0 -->
     <g style="fill: #262626" transform="translate(339 228.1425) scale(0.12 -0.12)">
      <use xlink:href="#SimHei-13"/>
     </g>
    </g>
    <g id="patch_33">
     <path d="M 408.96 235.83 
L 542.88 235.83 
L 542.88 211.83 
L 408.96 211.83 
z
" style="fill: #ff9999; stroke: #1a1a1a; stroke-linejoin: miter"/>
    </g>
    <g id="text_32">
     <!-- 0 -->
     <g transform="translate(472.92 228.1425) scale(0.12 -0.12)">
      <use xlink:href="#SimHei-13"/>
     </g>
    </g>
    <g id="patch_34">
     <path d="M 7.2 259.83 
L 141.12 259.83 
L 141.12 235.83 
L 7.2 235.83 
z
" style="fill: #ffffff; stroke: #1a1a1a; stroke-linejoin: miter"/>
    </g>
    <g id="text_33">
     <!-- 1 -->
     <g style="fill: #262626" transform="translate(71.16 252.1425) scale(0.12 -0.12)">
      <use xlink:href="#SimHei-14"/>
     </g>
    </g>
    <g id="patch_35">
     <path d="M 141.12 259.83 
L 275.04 259.83 
L 275.04 235.83 
L 141.12 235.83 
z
" style="fill: #ffffff; stroke: #1a1a1a; stroke-linejoin: miter"/>
    </g>
    <g id="text_34">
     <!-- 1 -->
     <g style="fill: #262626" transform="translate(205.08 252.1425) scale(0.12 -0.12)">
      <use xlink:href="#SimHei-14"/>
     </g>
    </g>
    <g id="patch_36">
     <path d="M 275.04 259.83 
L 408.96 259.83 
L 408.96 235.83 
L 275.04 235.83 
z
" style="fill: #ffffff; stroke: #1a1a1a; stroke-linejoin: miter"/>
    </g>
    <g id="text_35">
     <!-- 1 -->
     <g style="fill: #262626" transform="translate(339 252.1425) scale(0.12 -0.12)">
      <use xlink:href="#SimHei-14"/>
     </g>
    </g>
    <g id="patch_37">
     <path d="M 408.96 259.83 
L 542.88 259.83 
L 542.88 235.83 
L 408.96 235.83 
z
" style="fill: #99ff99; stroke: #1a1a1a; stroke-linejoin: miter"/>
    </g>
    <g id="text_36">
     <!-- 1 -->
     <g transform="translate(472.92 252.1425) scale(0.12 -0.12)">
      <use xlink:href="#SimHei-14"/>
     </g>
    </g>
   </g>
   <g id="text_37">
    <!-- 三控开关真值表 (共 8 种状态) -->
    <g style="fill: #262626" transform="translate(163.04 20.95) scale(0.16 -0.16)">
     <defs>
      <path id="SimHei-43f" d="M 6000 -200 
Q 5550 -175 5200 -175 
L 1300 -175 
Q 900 -175 375 -200 
L 375 350 
Q 850 325 1300 325 
L 5200 325 
Q 5575 325 6000 375 
L 6000 -200 
z
M 900 4600 
Q 1400 4575 1825 4575 
L 4600 4575 
Q 5075 4575 5475 4600 
L 5475 4075 
Q 5100 4100 4600 4100 
L 1800 4100 
Q 1375 4100 900 4075 
L 900 4600 
z
M 2075 2100 
Q 1700 2100 1275 2075 
L 1275 2625 
Q 1675 2600 2075 2600 
L 4225 2600 
Q 4600 2600 5050 2625 
L 5050 2075 
Q 4550 2100 4225 2100 
L 2075 2100 
z
" transform="scale(0.015625)"/>
      <path id="SimHei-19dd" d="M 400 1300 
Q 350 1650 225 1875 
Q 725 2000 1100 2125 
L 1100 3350 
L 925 3350 
Q 550 3350 325 3325 
L 325 3775 
Q 550 3750 925 3750 
L 1100 3750 
L 1100 4325 
Q 1100 4750 1050 5150 
L 1625 5150 
Q 1575 4850 1575 4425 
L 1575 3750 
Q 1850 3750 2125 3775 
L 2125 3325 
Q 1850 3350 1575 3350 
L 1575 2300 
Q 1950 2500 2125 2575 
Q 2125 2475 2150 2100 
Q 1850 1975 1575 1850 
L 1575 125 
Q 1550 -400 1312 -475 
Q 1075 -550 700 -625 
Q 625 -225 500 -25 
Q 900 -75 1012 -37 
Q 1125 0 1100 275 
L 1100 1650 
Q 900 1575 400 1300 
z
M 4850 2025 
Q 5300 2025 5675 2050 
L 5675 1600 
Q 5300 1625 4875 1625 
L 4400 1625 
L 4400 75 
L 5225 75 
Q 5675 75 6125 125 
L 6125 -350 
Q 5675 -325 5275 -325 
L 3200 -325 
Q 2600 -325 2300 -350 
L 2300 125 
Q 2600 75 3125 75 
L 3925 75 
L 3925 1625 
L 3350 1625 
Q 2900 1625 2600 1575 
L 2600 2050 
Q 2875 2025 3325 2025 
L 4850 2025 
z
M 3900 4475 
Q 3825 4750 3675 5075 
Q 3900 5125 4250 5200 
Q 4350 4900 4450 4475 
L 6050 4475 
Q 6025 4200 6025 3900 
Q 6025 3600 6050 3375 
L 5550 3375 
L 5550 4025 
L 2875 4025 
L 2875 3375 
L 2375 3375 
Q 2400 3625 2400 3875 
Q 2400 4150 2375 4475 
L 3900 4475 
z
M 3975 3350 
Q 3825 3225 3575 2925 
Q 3325 2625 2825 2100 
L 2425 2450 
Q 3050 2975 3500 3675 
Q 3750 3475 3975 3350 
z
M 4875 3650 
Q 5700 2775 5900 2475 
Q 5775 2375 5475 2175 
Q 4825 3075 4475 3350 
Q 4625 3450 4875 3650 
z
" transform="scale(0.015625)"/>
      <path id="SimHei-1536" d="M 2200 4450 
Q 1450 4450 800 4425 
L 800 4925 
Q 1425 4900 1950 4900 
L 4650 4900 
Q 5150 4900 5725 4925 
L 5725 4425 
Q 5175 4450 4500 4450 
L 4500 2600 
L 4975 2600 
Q 5475 2600 6050 2625 
L 6050 2125 
Q 5475 2175 4975 2175 
L 4500 2175 
L 4500 825 
Q 4500 200 4525 -575 
L 3950 -575 
Q 3975 200 3975 825 
L 3975 2175 
L 2725 2175 
Q 2650 1700 2525 1287 
Q 2400 875 2125 450 
Q 1850 25 1100 -575 
Q 900 -350 500 -150 
Q 1000 50 1362 412 
Q 1725 775 1937 1262 
Q 2150 1750 2175 2175 
L 1600 2175 
Q 950 2175 350 2100 
L 350 2625 
Q 975 2600 1600 2600 
L 2200 2600 
L 2200 4450 
z
M 3975 2600 
L 3975 4450 
L 2725 4450 
L 2725 2600 
L 3975 2600 
z
" transform="scale(0.015625)"/>
      <path id="SimHei-7a9" d="M 4675 4850 
Q 4525 4675 4362 4375 
Q 4200 4075 4075 3825 
L 4625 3825 
Q 5150 3825 5550 3850 
L 5550 3375 
Q 5225 3400 4700 3400 
L 3400 3400 
L 3400 2150 
L 4975 2150 
Q 5475 2150 5875 2175 
L 5875 1700 
Q 5475 1725 5025 1725 
L 3500 1725 
Q 4250 450 6000 75 
Q 5775 -175 5600 -525 
Q 4025 0 3225 1300 
Q 2800 200 875 -600 
Q 775 -350 500 -150 
Q 2425 375 2875 1725 
L 1550 1725 
Q 975 1725 600 1700 
L 600 2150 
Q 875 2125 1450 2125 
L 2925 2125 
L 2925 3400 
L 1750 3400 
Q 1275 3400 900 3375 
L 900 3850 
Q 1275 3825 1775 3825 
L 3575 3825 
Q 3925 4625 4075 5150 
Q 4325 5000 4675 4850 
z
M 2125 5125 
Q 2450 4725 2800 4175 
Q 2500 4025 2325 3875 
Q 2025 4450 1725 4825 
Q 1950 4975 2125 5125 
z
" transform="scale(0.015625)"/>
      <path id="SimHei-2d55" d="M 3550 5100 
Q 3450 4925 3400 4625 
L 4850 4625 
Q 5175 4625 5725 4650 
L 5725 4250 
Q 5200 4275 4850 4275 
L 3350 4275 
L 3300 3850 
L 5050 3850 
Q 5025 3550 5025 3150 
L 5025 1075 
L 5400 1075 
Q 5800 1075 6075 1100 
L 6075 625 
Q 5575 650 4900 650 
L 1450 650 
Q 775 650 350 625 
L 350 1100 
Q 725 1075 1100 1075 
L 1425 1075 
L 1425 3075 
Q 1425 3450 1400 3850 
L 2825 3850 
L 2850 4275 
L 1400 4275 
Q 1050 4275 625 4250 
L 625 4650 
Q 1175 4625 1375 4625 
L 2925 4625 
Q 2950 4875 2950 5125 
Q 3300 5100 3550 5100 
z
M 4075 525 
Q 4500 425 4925 250 
Q 5350 75 5825 -150 
Q 5550 -425 5450 -575 
Q 5025 -300 4550 -100 
Q 4075 100 3800 175 
Q 3925 350 4075 525 
z
M 4525 3150 
L 4525 3475 
L 1925 3475 
L 1925 3150 
L 4525 3150 
z
M 4525 1075 
L 4525 1400 
L 1925 1400 
L 1925 1075 
L 4525 1075 
z
M 2775 200 
Q 2375 -25 1875 -225 
Q 1375 -425 950 -575 
Q 775 -400 600 -250 
Q 1225 -50 1625 137 
Q 2025 325 2350 525 
Q 2550 350 2775 200 
z
M 4525 1775 
L 4525 2075 
L 1925 2075 
L 1925 1775 
L 4525 1775 
z
M 4525 2475 
L 4525 2775 
L 1925 2775 
L 1925 2475 
L 4525 2475 
z
" transform="scale(0.015625)"/>
      <path id="SimHei-672" d="M 3675 4450 
L 3675 5100 
Q 3975 5075 4350 5050 
Q 4225 4875 4200 4450 
L 5125 4450 
Q 5550 4450 5875 4475 
L 5875 4025 
Q 5525 4050 5125 4050 
L 4175 4050 
L 4125 3500 
L 5400 3500 
Q 5375 3200 5375 2700 
L 5375 150 
Q 5875 150 6100 175 
L 6100 -275 
Q 5775 -250 5200 -250 
L 2850 -250 
Q 2275 -250 1900 -275 
L 1900 175 
Q 2125 150 2600 150 
L 2600 2700 
Q 2600 3175 2575 3500 
L 3600 3500 
L 3650 4050 
L 3200 4050 
Q 2575 4050 2225 4025 
L 2225 4475 
Q 2550 4450 3200 4450 
L 3675 4450 
z
M 2225 4900 
Q 2025 4675 1650 3750 
L 1650 450 
Q 1650 -75 1675 -550 
L 1150 -550 
Q 1175 -125 1175 375 
L 1175 2950 
Q 875 2450 625 2150 
Q 425 2425 250 2575 
Q 500 2825 937 3537 
Q 1375 4250 1625 5150 
Q 1975 4975 2225 4900 
z
M 4925 2650 
L 4925 3150 
L 3075 3150 
L 3075 2650 
L 4925 2650 
z
M 4925 150 
L 4925 625 
L 3075 625 
L 3075 150 
L 4925 150 
z
M 4925 1000 
L 4925 1450 
L 3075 1450 
L 3075 1000 
L 4925 1000 
z
M 4925 1825 
L 4925 2275 
L 3075 2275 
L 3075 1825 
L 4925 1825 
z
" transform="scale(0.015625)"/>
      <path id="SimHei-3e9e" d="M 2950 4475 
Q 2950 4800 2925 5200 
L 3500 5200 
Q 3450 4900 3450 4475 
L 4975 4475 
Q 5325 4475 5725 4500 
L 5725 4025 
Q 5325 4075 5000 4075 
L 3450 4075 
L 3450 3600 
L 4675 3600 
Q 5075 3600 5450 3625 
L 5450 3175 
Q 5100 3200 4675 3200 
L 3450 3200 
L 3450 2650 
L 5225 2650 
Q 5675 2650 6075 2675 
L 6075 2200 
Q 5700 2250 5250 2250 
L 3075 2250 
Q 2900 2025 2525 1625 
L 2525 175 
Q 2975 425 3525 800 
Q 3575 500 3700 275 
Q 3225 50 2837 -200 
Q 2450 -450 2250 -625 
Q 2050 -375 1900 -175 
Q 2075 -50 2050 400 
L 2050 1200 
Q 1750 950 1425 737 
Q 1100 525 750 325 
Q 600 550 375 750 
Q 975 1000 1562 1425 
Q 2150 1850 2450 2250 
L 1275 2250 
Q 800 2250 350 2200 
L 350 2675 
Q 650 2650 1350 2650 
L 2950 2650 
L 2950 3200 
L 1825 3200 
Q 1400 3200 1125 3175 
L 1125 3625 
Q 1525 3600 1825 3600 
L 2950 3600 
L 2950 4075 
L 1700 4075 
Q 1225 4075 825 4025 
L 825 4525 
Q 1200 4475 1825 4475 
L 2950 4475 
z
M 3550 2125 
Q 3725 1600 4150 1050 
Q 4650 1450 5050 2000 
Q 5275 1775 5575 1575 
Q 5350 1500 5075 1262 
Q 4800 1025 4475 725 
Q 4725 475 5225 337 
Q 5725 200 6150 175 
Q 5925 -100 5875 -425 
Q 4600 -125 4012 500 
Q 3425 1125 3150 1950 
L 3550 2125 
z
" transform="scale(0.015625)"/>
      <path id="SimHei-3" transform="scale(0.015625)"/>
      <path id="SimHei-7a7" d="M 2025 3700 
Q 2025 4700 2000 5000 
L 2600 5000 
Q 2550 4700 2550 3700 
L 3925 3700 
Q 3925 4725 3900 5025 
L 4500 5025 
Q 4450 4725 4450 3700 
L 4950 3700 
Q 5400 3700 5725 3725 
L 5725 3275 
Q 5400 3300 4950 3300 
L 4450 3300 
L 4450 1850 
L 5300 1850 
Q 5750 1850 6050 1875 
L 6050 1425 
Q 5775 1450 5325 1450 
L 1075 1450 
Q 600 1450 325 1425 
L 325 1875 
Q 600 1850 1075 1850 
L 2025 1850 
L 2025 3300 
L 1600 3300 
Q 1000 3300 700 3275 
L 700 3725 
Q 1025 3700 1625 3700 
L 2025 3700 
z
M 3925 1850 
L 3925 3300 
L 2550 3300 
L 2550 1850 
L 3925 1850 
z
M 2875 725 
Q 2525 550 1962 137 
Q 1400 -275 850 -525 
Q 675 -275 450 -100 
Q 975 125 1437 412 
Q 1900 700 2325 1125 
Q 2600 900 2875 725 
z
M 4050 1125 
Q 4350 950 4925 600 
Q 5500 250 5925 -100 
Q 5700 -275 5525 -500 
Q 5100 -175 4587 162 
Q 4075 500 3675 700 
Q 3875 900 4050 1125 
z
" transform="scale(0.015625)"/>
      <path id="SimHei-1b" d="M 175 1375 
Q 175 1675 325 1962 
Q 475 2250 825 2425 
Q 525 2600 425 2812 
Q 325 3025 312 3300 
Q 300 3575 387 3775 
Q 475 3975 650 4150 
Q 825 4325 1037 4387 
Q 1250 4450 1500 4450 
Q 1750 4450 1950 4400 
Q 2150 4350 2375 4187 
Q 2600 4025 2700 3725 
Q 2800 3425 2687 3025 
Q 2575 2625 2100 2400 
Q 2525 2275 2700 2012 
Q 2875 1750 2875 1375 
Q 2875 1000 2762 775 
Q 2650 550 2512 400 
Q 2375 250 2137 162 
Q 1900 75 1537 75 
Q 1175 75 912 162 
Q 650 250 475 425 
Q 300 600 237 837 
Q 175 1075 175 1375 
z
M 687 1400 
Q 675 1100 787 875 
Q 900 650 1200 587 
Q 1500 525 1825 600 
Q 2150 675 2275 950 
Q 2400 1225 2362 1500 
Q 2325 1775 2050 1962 
Q 1775 2150 1450 2125 
Q 1125 2100 912 1900 
Q 700 1700 687 1400 
z
M 775 3350 
Q 775 3100 950 2875 
Q 1125 2650 1500 2650 
Q 1875 2650 2062 2875 
Q 2250 3100 2237 3412 
Q 2225 3725 2012 3875 
Q 1800 4025 1437 4000 
Q 1075 3975 925 3787 
Q 775 3600 775 3350 
z
" transform="scale(0.015625)"/>
      <path id="SimHei-3003" d="M 4225 4000 
Q 4225 4975 4200 5275 
L 4725 5275 
Q 4700 5000 4700 4000 
L 6000 4000 
Q 5975 3725 5975 3250 
L 5975 1550 
Q 5975 1275 6000 925 
L 5500 925 
L 5500 1425 
L 4700 1425 
L 4700 375 
Q 4700 -275 4725 -700 
L 4200 -700 
Q 4225 -275 4225 375 
L 4225 1425 
L 3425 1425 
L 3425 825 
L 2925 825 
Q 2950 1125 2950 1500 
L 2950 3200 
Q 2950 3725 2925 4000 
L 4225 4000 
z
M 350 3250 
Q 725 3225 1225 3225 
L 1425 3225 
L 1425 4325 
Q 1175 4250 575 4125 
Q 475 4350 350 4575 
Q 900 4600 1412 4737 
Q 1925 4875 2350 5100 
Q 2500 4900 2725 4625 
Q 2475 4600 2300 4550 
Q 2125 4500 1900 4450 
L 1900 3225 
Q 2225 3225 2700 3250 
L 2700 2800 
Q 2225 2825 1900 2825 
L 1900 225 
Q 1900 -125 1925 -650 
L 1400 -650 
Q 1425 -125 1425 225 
L 1425 1875 
Q 1225 1375 1062 1075 
Q 900 775 625 350 
Q 425 625 250 850 
Q 600 1225 887 1725 
Q 1175 2225 1300 2825 
L 925 2825 
Q 575 2825 350 2800 
L 350 3250 
z
M 4225 1825 
L 4225 3600 
L 3425 3600 
L 3425 1825 
L 4225 1825 
z
M 5500 1825 
L 5500 3600 
L 4700 3600 
L 4700 1825 
L 5500 1825 
z
M 2375 2475 
Q 2450 2300 2575 2125 
Q 2700 1950 2850 1625 
Q 2625 1525 2425 1375 
Q 2300 1650 2212 1837 
Q 2125 2025 1975 2225 
Q 2125 2325 2375 2475 
z
" transform="scale(0.015625)"/>
     </defs>
     <use xlink:href="#SimHei-43f"/>
     <use xlink:href="#SimHei-19dd" transform="translate(100 0)"/>
     <use xlink:href="#SimHei-1536" transform="translate(200 0)"/>
     <use xlink:href="#SimHei-7a9" transform="translate(300 0)"/>
     <use xlink:href="#SimHei-2d55" transform="translate(400 0)"/>
     <use xlink:href="#SimHei-672" transform="translate(500 0)"/>
     <use xlink:href="#SimHei-3e9e" transform="translate(600 0)"/>
     <use xlink:href="#SimHei-3" transform="translate(700 0)"/>
     <use xlink:href="#SimHei-b" transform="translate(750 0)"/>
     <use xlink:href="#SimHei-7a7" transform="translate(800 0)"/>
     <use xlink:href="#SimHei-3" transform="translate(900 0)"/>
     <use xlink:href="#SimHei-1b" transform="translate(950 0)"/>
     <use xlink:href="#SimHei-3" transform="translate(1000 0)"/>
     <use xlink:href="#SimHei-3003" transform="translate(1050 0)"/>
     <use xlink:href="#SimHei-28ec" transform="translate(1150 0)"/>
     <use xlink:href="#SimHei-1637" transform="translate(1250 0)"/>
     <use xlink:href="#SimHei-c" transform="translate(1350 0)"/>
    </g>
   </g>
  </g>
 </g>
</svg>
