<?xml version="1.0" encoding="utf-8" standalone="no"?>
<!DOCTYPE svg PUBLIC "-//W3C//DTD SVG 1.1//EN"
  "http://www.w3.org/Graphics/SVG/1.1/DTD/svg11.dtd">
<svg xmlns:xlink="http://www.w3.org/1999/xlink" width="572.4pt" height="492.904375pt" viewBox="0 0 572.4 492.904375" xmlns="http://www.w3.org/2000/svg" version="1.1">
 <metadata>
  <rdf:RDF xmlns:dc="http://purl.org/dc/elements/1.1/" xmlns:cc="http://creativecommons.org/ns#" xmlns:rdf="http://www.w3.org/1999/02/22-rdf-syntax-ns#">
   <cc:Work>
    <dc:type rdf:resource="http://purl.org/dc/dcmitype/StillImage"/>
    <dc:date>2026-07-07T11:21:55.090635</dc:date>
    <dc:format>image/svg+xml</dc:format>
    <dc:creator>
     <cc:Agent>
      <dc:title>Matplotlib v3.11.0, https://matplotlib.org/</dc:title>
     </cc:Agent>
    </dc:creator>
   </cc:Work>
  </rdf:RDF>
 </metadata>
 <defs>
  <style type="text/css">*{stroke-linejoin: round; stroke-linecap: butt}</style>
 </defs>
 <g id="figure_1">
  <g id="patch_1">
   <path d="M 0 492.904375 
L 572.4 492.904375 
L 572.4 0 
L 0 0 
z
" style="fill: #ffffff"/>
  </g>
  <g id="axes_1">
   <g id="LineCollection_1">
    <path d="M 55.621488 263.944391 
L 123.156401 393.537783 
" clip-path="url(#p3fe545f099)" style="fill: none; stroke: #808080; stroke-opacity: 0.5; stroke-width: 1.5"/>
    <path d="M 55.621488 263.944391 
L 286.200003 447.217102 
" clip-path="url(#p3fe545f099)" style="fill: none; stroke: #808080; stroke-opacity: 0.5; stroke-width: 1.5"/>
    <path d="M 55.621488 263.944391 
L 516.778512 263.944343 
" clip-path="url(#p3fe545f099)" style="fill: none; stroke: #808080; stroke-opacity: 0.5; stroke-width: 1.5"/>
    <path d="M 123.156401 393.537783 
L 449.243682 393.537717 
" clip-path="url(#p3fe545f099)" style="fill: none; stroke: #808080; stroke-opacity: 0.5; stroke-width: 1.5"/>
    <path d="M 123.156401 393.537783 
L 449.243627 134.350989 
" clip-path="url(#p3fe545f099)" style="fill: none; stroke: #808080; stroke-opacity: 0.5; stroke-width: 1.5"/>
    <path d="M 286.200003 447.217102 
L 449.243682 393.537717 
" clip-path="url(#p3fe545f099)" style="fill: none; stroke: #808080; stroke-opacity: 0.5; stroke-width: 1.5"/>
    <path d="M 286.200003 447.217102 
L 286.199922 80.671648 
" clip-path="url(#p3fe545f099)" style="fill: none; stroke: #808080; stroke-opacity: 0.5; stroke-width: 1.5"/>
    <path d="M 449.243682 393.537717 
L 123.156414 134.350945 
" clip-path="url(#p3fe545f099)" style="fill: none; stroke: #808080; stroke-opacity: 0.5; stroke-width: 1.5"/>
    <path d="M 516.778512 263.944343 
L 449.243627 134.350989 
" clip-path="url(#p3fe545f099)" style="fill: none; stroke: #808080; stroke-opacity: 0.5; stroke-width: 1.5"/>
    <path d="M 516.778512 263.944343 
L 286.199922 80.671648 
" clip-path="url(#p3fe545f099)" style="fill: none; stroke: #808080; stroke-opacity: 0.5; stroke-width: 1.5"/>
    <path d="M 449.243627 134.350989 
L 123.156414 134.350945 
" clip-path="url(#p3fe545f099)" style="fill: none; stroke: #808080; stroke-opacity: 0.5; stroke-width: 1.5"/>
    <path d="M 286.199922 80.671648 
L 123.156414 134.350945 
" clip-path="url(#p3fe545f099)" style="fill: none; stroke: #808080; stroke-opacity: 0.5; stroke-width: 1.5"/>
   </g>
   <g id="PathCollection_1">
    <defs>
     <path id="C0_0_93cf3a7cef" d="M 0 14.142136 
C 3.750538 14.142136 7.347969 12.652031 10 10 
C 12.652031 7.347969 14.142136 3.750538 14.142136 -0 
C 14.142136 -3.750538 12.652031 -7.347969 10 -10 
C 7.347969 -12.652031 3.750538 -14.142136 0 -14.142136 
C -3.750538 -14.142136 -7.347969 -12.652031 -10 -10 
C -12.652031 -7.347969 -14.142136 -3.750538 -14.142136 0 
C -14.142136 3.750538 -12.652031 7.347969 -10 10 
C -7.347969 12.652031 -3.750538 14.142136 0 14.142136 
z
"/>
    </defs>
    <g clip-path="url(#p3fe545f099)">
     <use xlink:href="#C0_0_93cf3a7cef" x="55.621488" y="263.944391" style="fill: #ff6666; fill-opacity: 0.9; stroke: #ff6666; stroke-opacity: 0.9"/>
    </g>
    <g clip-path="url(#p3fe545f099)">
     <use xlink:href="#C0_0_93cf3a7cef" x="123.156401" y="393.537783" style="fill: #66ff66; fill-opacity: 0.9; stroke: #66ff66; stroke-opacity: 0.9"/>
    </g>
    <g clip-path="url(#p3fe545f099)">
     <use xlink:href="#C0_0_93cf3a7cef" x="286.200003" y="447.217102" style="fill: #66ff66; fill-opacity: 0.9; stroke: #66ff66; stroke-opacity: 0.9"/>
    </g>
    <g clip-path="url(#p3fe545f099)">
     <use xlink:href="#C0_0_93cf3a7cef" x="449.243682" y="393.537717" style="fill: #ff6666; fill-opacity: 0.9; stroke: #ff6666; stroke-opacity: 0.9"/>
    </g>
    <g clip-path="url(#p3fe545f099)">
     <use xlink:href="#C0_0_93cf3a7cef" x="516.778512" y="263.944343" style="fill: #66ff66; fill-opacity: 0.9; stroke: #66ff66; stroke-opacity: 0.9"/>
    </g>
    <g clip-path="url(#p3fe545f099)">
     <use xlink:href="#C0_0_93cf3a7cef" x="449.243627" y="134.350989" style="fill: #ff6666; fill-opacity: 0.9; stroke: #ff6666; stroke-opacity: 0.9"/>
    </g>
    <g clip-path="url(#p3fe545f099)">
     <use xlink:href="#C0_0_93cf3a7cef" x="286.199922" y="80.671648" style="fill: #ff6666; fill-opacity: 0.9; stroke: #ff6666; stroke-opacity: 0.9"/>
    </g>
    <g clip-path="url(#p3fe545f099)">
     <use xlink:href="#C0_0_93cf3a7cef" x="123.156414" y="134.350945" style="fill: #66ff66; fill-opacity: 0.9; stroke: #66ff66; stroke-opacity: 0.9"/>
    </g>
   </g>
   <g id="text_1">
    <g clip-path="url(#p3fe545f099)">
     <!-- 000 -->
     <g style="fill: #1a1a1a" transform="translate(46.621488 268.256891) scale(0.12 -0.12)">
      <defs>
       <path id="SimHei-13" d="M 225 2537 
Q 250 3200 412 3587 
Q 575 3975 875 4225 
Q 1175 4475 1612 4475 
Q 2050 4475 2375 4112 
Q 2700 3750 2800 3200 
Q 2900 2650 2862 1937 
Q 2825 1225 2612 775 
Q 2400 325 1975 150 
Q 1550 -25 1125 187 
Q 700 400 525 750 
Q 350 1100 275 1487 
Q 200 1875 225 2537 
z
M 750 2687 
Q 675 2000 800 1462 
Q 925 925 1212 700 
Q 1500 475 1800 612 
Q 2100 750 2237 1162 
Q 2375 1575 2375 2062 
Q 2375 2550 2337 2950 
Q 2300 3350 2112 3675 
Q 1925 4000 1612 4012 
Q 1300 4025 1062 3700 
Q 825 3375 750 2687 
z
" transform="scale(0.015625)"/>
      </defs>
      <use xlink:href="#SimHei-13"/>
      <use xlink:href="#SimHei-13" transform="translate(50 0)"/>
      <use xlink:href="#SimHei-13" transform="translate(100 0)"/>
     </g>
    </g>
   </g>
   <g id="text_2">
    <g clip-path="url(#p3fe545f099)">
     <!-- 001 -->
     <g style="fill: #1a1a1a" transform="translate(114.156401 397.850283) scale(0.12 -0.12)">
      <defs>
       <path id="SimHei-14" d="M 1400 3600 
Q 1075 3275 575 2975 
L 575 3450 
Q 1200 3875 1600 4450 
L 1900 4450 
L 1900 150 
L 1400 150 
L 1400 3600 
z
" transform="scale(0.015625)"/>
      </defs>
      <use xlink:href="#SimHei-13"/>
      <use xlink:href="#SimHei-13" transform="translate(50 0)"/>
      <use xlink:href="#SimHei-14" transform="translate(100 0)"/>
     </g>
    </g>
   </g>
   <g id="text_3">
    <g clip-path="url(#p3fe545f099)">
     <!-- 010 -->
     <g style="fill: #1a1a1a" transform="translate(277.200003 451.529602) scale(0.12 -0.12)">
      <use xlink:href="#SimHei-13"/>
      <use xlink:href="#SimHei-14" transform="translate(50 0)"/>
      <use xlink:href="#SimHei-13" transform="translate(100 0)"/>
     </g>
    </g>
   </g>
   <g id="text_4">
    <g clip-path="url(#p3fe545f099)">
     <!-- 011 -->
     <g style="fill: #1a1a1a" transform="translate(440.243682 397.850217) scale(0.12 -0.12)">
      <use xlink:href="#SimHei-13"/>
      <use xlink:href="#SimHei-14" transform="translate(50 0)"/>
      <use xlink:href="#SimHei-14" transform="translate(100 0)"/>
     </g>
    </g>
   </g>
   <g id="text_5">
    <g clip-path="url(#p3fe545f099)">
     <!-- 100 -->
     <g style="fill: #1a1a1a" transform="translate(507.778512 268.256843) scale(0.12 -0.12)">
      <use xlink:href="#SimHei-14"/>
      <use xlink:href="#SimHei-13" transform="translate(50 0)"/>
      <use xlink:href="#SimHei-13" transform="translate(100 0)"/>
     </g>
    </g>
   </g>
   <g id="text_6">
    <g clip-path="url(#p3fe545f099)">
     <!-- 101 -->
     <g style="fill: #1a1a1a" transform="translate(440.243627 138.663489) scale(0.12 -0.12)">
      <use xlink:href="#SimHei-14"/>
      <use xlink:href="#SimHei-13" transform="translate(50 0)"/>
      <use xlink:href="#SimHei-14" transform="translate(100 0)"/>
     </g>
    </g>
   </g>
   <g id="text_7">
    <g clip-path="url(#p3fe545f099)">
     <!-- 110 -->
     <g style="fill: #1a1a1a" transform="translate(277.199922 84.984148) scale(0.12 -0.12)">
      <use xlink:href="#SimHei-14"/>
      <use xlink:href="#SimHei-14" transform="translate(50 0)"/>
      <use xlink:href="#SimHei-13" transform="translate(100 0)"/>
     </g>
    </g>
   </g>
   <g id="text_8">
    <g clip-path="url(#p3fe545f099)">
     <!-- 111 -->
     <g style="fill: #1a1a1a" transform="translate(114.156414 138.663445) scale(0.12 -0.12)">
      <use xlink:href="#SimHei-14"/>
      <use xlink:href="#SimHei-14" transform="translate(50 0)"/>
      <use xlink:href="#SimHei-14" transform="translate(100 0)"/>
     </g>
    </g>
   </g>
   <g id="text_9">
    <!-- 三控开关状态空间图 -->
    <g style="fill: #262626" transform="translate(223.2 20.215625) scale(0.14 -0.14)">
     <defs>
      <path id="SimHei-43f" d="M 6000 -200 
Q 5550 -175 5200 -175 
L 1300 -175 
Q 900 -175 375 -200 
L 375 350 
Q 850 325 1300 325 
L 5200 325 
Q 5575 325 6000 375 
L 6000 -200 
z
M 900 4600 
Q 1400 4575 1825 4575 
L 4600 4575 
Q 5075 4575 5475 4600 
L 5475 4075 
Q 5100 4100 4600 4100 
L 1800 4100 
Q 1375 4100 900 4075 
L 900 4600 
z
M 2075 2100 
Q 1700 2100 1275 2075 
L 1275 2625 
Q 1675 2600 2075 2600 
L 4225 2600 
Q 4600 2600 5050 2625 
L 5050 2075 
Q 4550 2100 4225 2100 
L 2075 2100 
z
" transform="scale(0.015625)"/>
      <path id="SimHei-19dd" d="M 400 1300 
Q 350 1650 225 1875 
Q 725 2000 1100 2125 
L 1100 3350 
L 925 3350 
Q 550 3350 325 3325 
L 325 3775 
Q 550 3750 925 3750 
L 1100 3750 
L 1100 4325 
Q 1100 4750 1050 5150 
L 1625 5150 
Q 1575 4850 1575 4425 
L 1575 3750 
Q 1850 3750 2125 3775 
L 2125 3325 
Q 1850 3350 1575 3350 
L 1575 2300 
Q 1950 2500 2125 2575 
Q 2125 2475 2150 2100 
Q 1850 1975 1575 1850 
L 1575 125 
Q 1550 -400 1312 -475 
Q 1075 -550 700 -625 
Q 625 -225 500 -25 
Q 900 -75 1012 -37 
Q 1125 0 1100 275 
L 1100 1650 
Q 900 1575 400 1300 
z
M 4850 2025 
Q 5300 2025 5675 2050 
L 5675 1600 
Q 5300 1625 4875 1625 
L 4400 1625 
L 4400 75 
L 5225 75 
Q 5675 75 6125 125 
L 6125 -350 
Q 5675 -325 5275 -325 
L 3200 -325 
Q 2600 -325 2300 -350 
L 2300 125 
Q 2600 75 3125 75 
L 3925 75 
L 3925 1625 
L 3350 1625 
Q 2900 1625 2600 1575 
L 2600 2050 
Q 2875 2025 3325 2025 
L 4850 2025 
z
M 3900 4475 
Q 3825 4750 3675 5075 
Q 3900 5125 4250 5200 
Q 4350 4900 4450 4475 
L 6050 4475 
Q 6025 4200 6025 3900 
Q 6025 3600 6050 3375 
L 5550 3375 
L 5550 4025 
L 2875 4025 
L 2875 3375 
L 2375 3375 
Q 2400 3625 2400 3875 
Q 2400 4150 2375 4475 
L 3900 4475 
z
M 3975 3350 
Q 3825 3225 3575 2925 
Q 3325 2625 2825 2100 
L 2425 2450 
Q 3050 2975 3500 3675 
Q 3750 3475 3975 3350 
z
M 4875 3650 
Q 5700 2775 5900 2475 
Q 5775 2375 5475 2175 
Q 4825 3075 4475 3350 
Q 4625 3450 4875 3650 
z
" transform="scale(0.015625)"/>
      <path id="SimHei-1536" d="M 2200 4450 
Q 1450 4450 800 4425 
L 800 4925 
Q 1425 4900 1950 4900 
L 4650 4900 
Q 5150 4900 5725 4925 
L 5725 4425 
Q 5175 4450 4500 4450 
L 4500 2600 
L 4975 2600 
Q 5475 2600 6050 2625 
L 6050 2125 
Q 5475 2175 4975 2175 
L 4500 2175 
L 4500 825 
Q 4500 200 4525 -575 
L 3950 -575 
Q 3975 200 3975 825 
L 3975 2175 
L 2725 2175 
Q 2650 1700 2525 1287 
Q 2400 875 2125 450 
Q 1850 25 1100 -575 
Q 900 -350 500 -150 
Q 1000 50 1362 412 
Q 1725 775 1937 1262 
Q 2150 1750 2175 2175 
L 1600 2175 
Q 950 2175 350 2100 
L 350 2625 
Q 975 2600 1600 2600 
L 2200 2600 
L 2200 4450 
z
M 3975 2600 
L 3975 4450 
L 2725 4450 
L 2725 2600 
L 3975 2600 
z
" transform="scale(0.015625)"/>
      <path id="SimHei-7a9" d="M 4675 4850 
Q 4525 4675 4362 4375 
Q 4200 4075 4075 3825 
L 4625 3825 
Q 5150 3825 5550 3850 
L 5550 3375 
Q 5225 3400 4700 3400 
L 3400 3400 
L 3400 2150 
L 4975 2150 
Q 5475 2150 5875 2175 
L 5875 1700 
Q 5475 1725 5025 1725 
L 3500 1725 
Q 4250 450 6000 75 
Q 5775 -175 5600 -525 
Q 4025 0 3225 1300 
Q 2800 200 875 -600 
Q 775 -350 500 -150 
Q 2425 375 2875 1725 
L 1550 1725 
Q 975 1725 600 1700 
L 600 2150 
Q 875 2125 1450 2125 
L 2925 2125 
L 2925 3400 
L 1750 3400 
Q 1275 3400 900 3375 
L 900 3850 
Q 1275 3825 1775 3825 
L 3575 3825 
Q 3925 4625 4075 5150 
Q 4325 5000 4675 4850 
z
M 2125 5125 
Q 2450 4725 2800 4175 
Q 2500 4025 2325 3875 
Q 2025 4450 1725 4825 
Q 1950 4975 2125 5125 
z
" transform="scale(0.015625)"/>
      <path id="SimHei-28ec" d="M 2225 -275 
Q 2675 25 2975 475 
Q 3275 925 3450 1350 
Q 3625 1775 3700 2175 
Q 3775 2575 3800 2875 
L 3225 2875 
Q 2850 2875 2500 2850 
L 2500 3325 
Q 2850 3300 3200 3300 
L 3825 3300 
Q 3825 3975 3812 4375 
Q 3800 4775 3775 5075 
L 4425 5075 
Q 4350 4750 4337 4412 
Q 4325 4075 4325 3300 
L 5350 3300 
Q 5625 3300 5975 3325 
L 5975 2850 
Q 5625 2875 5350 2875 
L 4375 2875 
Q 4675 1450 5012 962 
Q 5350 475 5625 262 
Q 5900 50 6125 -75 
Q 5775 -225 5625 -525 
Q 5225 -200 4987 112 
Q 4750 425 4587 725 
Q 4425 1025 4312 1337 
Q 4200 1650 4125 2000 
Q 4000 1400 3812 975 
Q 3625 550 3425 237 
Q 3225 -75 2750 -625 
Q 2525 -400 2225 -275 
z
M 2225 5200 
Q 2200 4825 2200 4250 
L 2200 775 
Q 2200 50 2225 -625 
L 1675 -625 
Q 1700 75 1700 775 
L 1700 1950 
Q 1525 1750 1200 1350 
Q 875 950 700 750 
Q 500 1000 275 1150 
Q 575 1375 912 1712 
Q 1250 2050 1700 2600 
L 1700 4250 
Q 1700 4825 1675 5200 
L 2225 5200 
z
M 625 4325 
Q 800 4125 1000 3875 
Q 1200 3625 1375 3375 
Q 1175 3225 1050 3075 
Q 850 3350 250 4050 
Q 400 4175 625 4325 
z
M 5475 3650 
Q 5250 3975 4700 4475 
Q 4900 4625 5025 4750 
Q 5250 4575 5425 4387 
Q 5600 4200 5825 3975 
Q 5625 3800 5475 3650 
z
" transform="scale(0.015625)"/>
      <path id="SimHei-1637" d="M 2575 4325 
Q 2700 4800 2725 5250 
Q 3075 5125 3350 5100 
Q 3225 4875 3100 4325 
L 5025 4325 
Q 5375 4325 5825 4375 
L 5825 3850 
Q 5350 3875 5000 3875 
L 3975 3875 
Q 4225 3300 4575 2987 
Q 4925 2675 5250 2525 
Q 5575 2375 6100 2275 
Q 5800 2075 5675 1775 
Q 4900 2100 4525 2412 
Q 4150 2725 3900 3075 
Q 3650 3425 3500 3875 
L 2975 3875 
Q 2675 3200 2187 2687 
Q 1700 2175 725 1625 
Q 650 1850 300 2075 
Q 900 2275 1512 2750 
Q 2125 3225 2425 3875 
L 1300 3875 
Q 900 3875 450 3850 
L 450 4375 
Q 875 4325 1300 4325 
L 2575 4325 
z
M 2525 1350 
Q 2500 875 2500 575 
Q 2500 300 2512 150 
Q 2525 0 2800 0 
L 3825 0 
Q 4025 -25 4175 62 
Q 4325 150 4400 625 
Q 4650 450 4975 375 
Q 4775 -150 4625 -312 
Q 4475 -475 4000 -450 
L 2500 -450 
Q 2050 -400 2012 -162 
Q 1975 75 1975 425 
Q 1975 800 1950 1350 
L 2525 1350 
z
M 1425 1175 
Q 1175 450 825 -325 
Q 625 -175 325 -125 
Q 775 625 875 1375 
Q 1175 1250 1425 1175 
z
M 5175 1525 
Q 5600 950 6050 350 
Q 5800 175 5600 0 
Q 5225 700 4750 1250 
Q 5000 1350 5175 1525 
z
M 2700 3050 
Q 3175 2675 3500 2325 
Q 3275 2175 3100 1975 
Q 2825 2350 2350 2700 
L 2700 3050 
z
M 3375 1750 
Q 3625 1350 3825 925 
Q 3625 800 3375 675 
Q 3200 1175 2950 1525 
Q 3175 1600 3375 1750 
z
" transform="scale(0.015625)"/>
      <path id="SimHei-30b0" d="M 4025 1925 
Q 4700 1925 5225 1975 
L 5225 1450 
Q 4725 1500 4025 1500 
L 3475 1500 
L 3475 0 
L 5000 0 
Q 5725 0 6175 50 
L 6175 -475 
Q 5750 -425 5050 -425 
L 1750 -425 
Q 775 -425 350 -475 
L 350 50 
Q 825 0 1800 0 
L 2925 0 
L 2925 1500 
L 2300 1500 
Q 1625 1500 1125 1450 
L 1125 1975 
Q 1600 1925 2375 1925 
L 4025 1925 
z
M 5250 3250 
L 5250 3925 
L 1150 3925 
L 1150 3175 
L 600 3175 
Q 625 3425 625 3750 
Q 625 4100 600 4375 
L 3100 4375 
Q 2950 4725 2750 5075 
Q 3000 5200 3300 5300 
Q 3500 4850 3650 4525 
Q 3400 4450 3175 4375 
L 5825 4375 
Q 5800 4150 5800 3775 
Q 5800 3425 5825 3250 
L 5250 3250 
z
M 3975 3525 
Q 4275 3400 4762 3175 
Q 5250 2950 5925 2550 
Q 5675 2275 5575 2075 
Q 5100 2375 4650 2625 
Q 4200 2875 3675 3125 
Q 3800 3275 3975 3525 
z
M 2700 3225 
Q 2425 3100 1937 2737 
Q 1450 2375 825 2000 
Q 675 2225 450 2450 
Q 925 2650 1375 2962 
Q 1825 3275 2150 3650 
Q 2400 3425 2700 3225 
z
" transform="scale(0.015625)"/>
      <path id="SimHei-4c2a" d="M 4450 3550 
Q 4425 3075 4425 2725 
L 4425 1400 
Q 4425 1075 4450 625 
L 1925 625 
Q 1950 1075 1950 1425 
L 1950 2725 
Q 1950 3075 1925 3550 
L 4450 3550 
z
M 5800 4875 
Q 5775 4400 5775 3925 
L 5775 250 
Q 5800 -325 5462 -450 
Q 5125 -575 4725 -625 
Q 4700 -325 4525 -25 
Q 5000 -50 5137 25 
Q 5275 100 5275 350 
L 5275 4450 
L 3775 4450 
Q 3175 4450 2650 4425 
L 2650 4900 
Q 3175 4875 3775 4875 
L 5800 4875 
z
M 550 -525 
Q 600 -25 600 525 
L 600 3150 
Q 600 3675 550 4025 
L 1125 4025 
Q 1100 3650 1100 3300 
L 1100 500 
Q 1100 0 1125 -525 
L 550 -525 
z
M 3950 1025 
L 3950 1950 
L 2425 1950 
L 2425 1025 
L 3950 1025 
z
M 3950 2350 
L 3950 3150 
L 2425 3150 
L 2425 2350 
L 3950 2350 
z
M 1525 5300 
Q 1750 5000 2225 4350 
Q 1950 4225 1700 4075 
Q 1450 4575 1075 5025 
Q 1350 5225 1525 5300 
z
" transform="scale(0.015625)"/>
      <path id="SimHei-d34" d="M 5800 4975 
Q 5775 4350 5775 3600 
L 5775 925 
Q 5775 150 5800 -600 
L 5300 -600 
L 5300 -275 
L 1125 -275 
L 1125 -650 
L 625 -650 
Q 650 125 650 950 
L 650 3600 
Q 650 4325 625 4975 
L 5800 4975 
z
M 5300 150 
L 5300 4575 
L 1125 4575 
L 1125 150 
L 5300 150 
z
M 3225 4250 
Q 3075 4100 2950 3925 
L 4625 3925 
Q 4525 3700 4300 3375 
Q 4075 3050 3600 2600 
Q 4350 2225 5075 2150 
Q 4900 1925 4775 1675 
Q 3850 1950 3225 2350 
Q 2500 1875 1675 1650 
Q 1600 1875 1400 2075 
Q 2200 2200 2875 2600 
Q 2525 2925 2375 3150 
Q 2150 2900 1900 2650 
Q 1725 2850 1525 2950 
Q 1950 3300 2250 3737 
Q 2550 4175 2675 4475 
Q 2925 4350 3225 4250 
z
M 2450 1275 
Q 3550 950 4100 725 
Q 3975 525 3850 300 
Q 2825 725 2275 850 
Q 2375 1050 2450 1275 
z
M 2925 2050 
Q 3775 1700 4075 1600 
Q 3950 1400 3850 1150 
Q 3000 1550 2700 1650 
Q 2825 1825 2925 2050 
z
M 2625 3450 
Q 3000 3025 3275 2850 
Q 3600 3100 3875 3525 
L 2675 3525 
L 2625 3450 
z
" transform="scale(0.015625)"/>
     </defs>
     <use xlink:href="#SimHei-43f"/>
     <use xlink:href="#SimHei-19dd" transform="translate(100 0)"/>
     <use xlink:href="#SimHei-1536" transform="translate(200 0)"/>
     <use xlink:href="#SimHei-7a9" transform="translate(300 0)"/>
     <use xlink:href="#SimHei-28ec" transform="translate(400 0)"/>
     <use xlink:href="#SimHei-1637" transform="translate(500 0)"/>
     <use xlink:href="#SimHei-30b0" transform="translate(600 0)"/>
     <use xlink:href="#SimHei-4c2a" transform="translate(700 0)"/>
     <use xlink:href="#SimHei-d34" transform="translate(800 0)"/>
    </g>
    <!-- (绿=亮, 红=灭; 蓝线=演示路径) -->
    <g style="fill: #262626" transform="translate(184.7 36.184375) scale(0.14 -0.14)">
     <defs>
      <path id="SimHei-b" d="M 2975 -200 
L 2700 -475 
Q 2075 125 1762 775 
Q 1450 1425 1450 2250 
Q 1450 3075 1762 3725 
Q 2075 4375 2700 5000 
L 2975 4725 
Q 2400 4175 2112 3587 
Q 1825 3000 1825 2250 
Q 1825 1500 2112 912 
Q 2400 325 2975 -200 
z
" transform="scale(0.015625)"/>
      <path id="SimHei-3535" d="M 3750 3525 
Q 3300 3525 2900 3500 
L 2900 3950 
Q 3275 3900 3725 3900 
L 5050 3900 
L 5100 4500 
L 3525 4500 
Q 3075 4500 2700 4475 
L 2700 4900 
Q 3075 4875 3525 4875 
L 5600 4875 
Q 5500 4050 5425 2925 
Q 5700 2925 6075 2950 
L 6075 2500 
Q 5675 2525 5275 2525 
L 4425 2525 
L 4425 2075 
Q 4600 1700 4775 1500 
Q 4925 1600 5112 1775 
Q 5300 1950 5550 2175 
Q 5700 1975 5900 1725 
Q 5775 1700 5525 1562 
Q 5275 1425 4975 1200 
Q 5175 925 5437 675 
Q 5700 425 6150 300 
Q 5900 -25 5825 -275 
Q 5225 125 4975 462 
Q 4725 800 4425 1325 
L 4425 -75 
Q 4425 -475 4162 -562 
Q 3900 -650 3625 -700 
Q 3550 -400 3425 -150 
Q 3850 -150 3912 -62 
Q 3975 25 3975 225 
L 3975 1050 
Q 3675 750 3350 462 
Q 3025 175 2625 -100 
Q 2450 225 2300 400 
Q 2750 575 3137 875 
Q 3525 1175 3975 1575 
L 3975 2525 
L 3250 2525 
Q 2850 2525 2375 2500 
L 2375 2950 
Q 2875 2925 3250 2925 
L 4975 2925 
L 5025 3525 
L 3750 3525 
z
M 1800 4825 
Q 1625 4600 1400 4137 
Q 1175 3675 850 3150 
L 1675 3150 
Q 1950 3700 2050 4075 
Q 2275 3825 2550 3675 
Q 2375 3550 2137 3137 
Q 1900 2725 1175 1600 
Q 1650 1650 2350 1775 
Q 2325 1500 2300 1325 
Q 1875 1275 1475 1225 
Q 1075 1175 600 1075 
Q 550 1300 450 1525 
Q 700 1625 950 1975 
Q 1200 2325 1475 2775 
Q 1125 2750 900 2725 
Q 675 2700 450 2625 
Q 375 2875 275 3100 
Q 550 3300 825 3912 
Q 1100 4525 1250 5150 
Q 1525 4950 1800 4825 
z
M 2250 725 
Q 2250 475 2275 325 
Q 1975 250 1487 112 
Q 1000 -25 575 -200 
Q 500 50 375 300 
Q 925 375 1325 475 
Q 1725 575 2250 725 
z
M 3050 2175 
Q 3150 2025 3525 1450 
Q 3300 1325 3125 1175 
Q 2950 1525 2650 1900 
Q 2850 2050 3050 2175 
z
" transform="scale(0.015625)"/>
      <path id="SimHei-20" d="M 2975 2900 
L 125 2900 
L 125 3300 
L 2975 3300 
L 2975 2900 
z
M 2975 1375 
L 125 1375 
L 125 1775 
L 2975 1775 
L 2975 1375 
z
" transform="scale(0.015625)"/>
      <path id="SimHei-4e4" d="M 4975 3800 
Q 4950 3575 4950 3225 
Q 4950 2875 4975 2650 
L 1450 2650 
Q 1475 2900 1475 3225 
Q 1475 3550 1450 3800 
L 4975 3800 
z
M 6075 250 
Q 5925 -475 5425 -500 
L 4200 -500 
Q 3750 -475 3725 0 
L 3725 1000 
L 2650 1000 
Q 2550 200 2175 -125 
Q 1800 -450 975 -675 
Q 925 -375 625 -150 
Q 1800 -25 1950 462 
Q 2100 950 2050 1350 
L 4250 1350 
L 4250 225 
Q 4275 -125 4600 -100 
L 5225 -100 
Q 5475 -100 5500 525 
Q 5800 325 6075 250 
z
M 6000 2200 
Q 5975 2000 5975 1725 
Q 5975 1475 6000 1275 
L 5450 1275 
L 5450 1800 
L 975 1800 
L 975 1250 
L 425 1250 
Q 450 1500 450 1725 
Q 450 1950 425 2200 
L 6000 2200 
z
M 2700 5150 
Q 2975 5200 3250 5300 
Q 3425 4900 3500 4675 
L 4875 4675 
Q 5350 4675 5850 4700 
L 5850 4250 
Q 5350 4275 4875 4275 
L 1625 4275 
Q 1075 4275 600 4250 
L 600 4700 
Q 1075 4675 1600 4675 
L 2900 4675 
Q 2825 4950 2700 5150 
z
M 4425 3000 
L 4425 3450 
L 2000 3450 
L 2000 3000 
L 4425 3000 
z
" transform="scale(0.015625)"/>
      <path id="SimHei-f" d="M 1100 125 
L 775 -550 
L 525 -550 
L 775 125 
L 525 125 
L 525 675 
L 1100 675 
L 1100 125 
z
" transform="scale(0.015625)"/>
      <path id="SimHei-3" transform="scale(0.015625)"/>
      <path id="SimHei-34d8" d="M 4975 4375 
Q 5400 4375 5850 4400 
L 5850 3950 
Q 5400 3975 4975 3975 
L 4600 3975 
L 4600 175 
L 5125 175 
Q 5550 175 6025 200 
L 6025 -275 
Q 5550 -250 5125 -250 
L 3600 -250 
Q 3225 -250 2750 -275 
L 2750 200 
Q 3225 175 3625 175 
L 4125 175 
L 4125 3975 
L 3850 3975 
Q 3375 3975 2950 3950 
L 2950 4400 
Q 3400 4375 3800 4375 
L 4975 4375 
z
M 2775 1775 
Q 2725 1525 2725 1350 
Q 1475 1175 1200 1112 
Q 925 1050 675 975 
Q 575 1250 475 1425 
Q 775 1550 1062 1887 
Q 1350 2225 1700 2750 
Q 1450 2725 1125 2700 
Q 800 2675 475 2575 
Q 375 2825 275 3050 
Q 500 3075 900 3737 
Q 1300 4400 1525 5100 
Q 1825 4925 2050 4850 
Q 1850 4600 1625 4187 
Q 1400 3775 925 3075 
Q 1525 3100 1950 3125 
Q 2275 3700 2375 3975 
Q 2550 3825 2850 3650 
Q 2700 3475 2412 3037 
Q 2125 2600 1300 1550 
Q 2025 1650 2775 1775 
z
M 2825 750 
Q 2825 550 2850 300 
Q 1500 -50 1187 -162 
Q 875 -275 625 -375 
Q 525 -50 400 175 
Q 825 250 1337 362 
Q 1850 475 2825 750 
z
" transform="scale(0.015625)"/>
      <path id="SimHei-26a3" d="M 4725 4750 
Q 5175 4750 5875 4775 
L 5875 4275 
Q 5200 4300 4725 4300 
L 3450 4300 
Q 3400 3675 3412 3187 
Q 3425 2700 3725 2075 
Q 4025 1450 4662 887 
Q 5300 325 6125 50 
Q 5875 -150 5725 -450 
Q 5350 -250 4887 75 
Q 4425 400 4162 687 
Q 3900 975 3650 1337 
Q 3400 1700 3225 2175 
Q 3075 1700 2912 1362 
Q 2750 1025 2487 700 
Q 2225 375 1812 75 
Q 1400 -225 675 -600 
Q 600 -425 300 -125 
Q 1225 200 1712 625 
Q 2200 1050 2475 1600 
Q 2750 2150 2837 2787 
Q 2925 3425 2925 4300 
L 1950 4300 
Q 1400 4300 650 4275 
L 650 4775 
Q 1375 4750 1925 4750 
L 4725 4750 
z
M 1825 3375 
Q 1725 3125 1600 2725 
Q 1475 2325 1225 1625 
Q 1025 1725 725 1850 
Q 925 2200 1050 2625 
Q 1175 3050 1275 3525 
Q 1575 3400 1825 3375 
z
M 4500 1825 
Q 4700 2200 4837 2575 
Q 4975 2950 5100 3450 
Q 5425 3300 5625 3250 
Q 5550 3000 5350 2512 
Q 5150 2025 5000 1600 
Q 4750 1725 4500 1825 
z
" transform="scale(0.015625)"/>
      <path id="SimHei-1e" d="M 1825 2425 
L 1250 2425 
L 1250 2975 
L 1825 2975 
L 1825 2425 
z
M 1825 125 
L 1500 -550 
L 1250 -550 
L 1500 125 
L 1250 125 
L 1250 675 
L 1825 675 
L 1825 125 
z
" transform="scale(0.015625)"/>
      <path id="SimHei-3b13" d="M 5425 1350 
Q 5400 925 5400 525 
L 5400 -100 
Q 5775 -100 6175 -75 
L 6175 -525 
Q 5700 -500 5075 -500 
L 1275 -500 
Q 750 -500 250 -525 
L 250 -75 
Q 650 -100 1025 -100 
L 1025 575 
Q 1025 925 1000 1350 
L 5425 1350 
z
M 2575 5250 
Q 2525 5075 2525 4875 
L 2525 4675 
L 3775 4675 
L 3775 4825 
Q 3775 5050 3750 5275 
L 4300 5275 
Q 4225 5075 4225 4825 
L 4225 4675 
L 5350 4675 
Q 5725 4675 6125 4700 
L 6125 4225 
Q 5725 4275 5350 4275 
L 4225 4275 
L 4225 4125 
Q 4225 3975 4275 3800 
L 3750 3800 
Q 3775 3975 3775 4125 
L 3775 4275 
L 2525 4275 
L 2525 4175 
Q 2525 4025 2575 3825 
L 2050 3825 
Q 2075 4000 2075 4175 
L 2075 4275 
L 1100 4275 
Q 725 4275 325 4250 
L 325 4700 
Q 725 4675 1100 4675 
L 2075 4675 
L 2075 4775 
Q 2075 5025 2050 5250 
L 2575 5250 
z
M 4350 3450 
Q 4175 3275 4075 3050 
L 4950 3050 
Q 5450 3050 5925 3075 
L 5925 2625 
Q 5450 2650 4950 2650 
L 3875 2650 
Q 3725 2425 3612 2212 
Q 3500 2000 3275 1700 
Q 3100 1875 2850 2000 
Q 3200 2400 3437 2862 
Q 3675 3325 3750 3700 
Q 3975 3575 4350 3450 
z
M 2625 2150 
Q 2625 1900 2650 1600 
L 2125 1600 
Q 2150 1825 2150 2150 
L 2150 3000 
Q 2150 3300 2125 3575 
L 2650 3575 
Q 2625 3250 2625 3000 
L 2625 2150 
z
M 4925 -100 
L 4925 950 
L 4050 950 
L 4050 -100 
L 4925 -100 
z
M 2350 -100 
L 2350 950 
L 1500 950 
L 1500 -100 
L 2350 -100 
z
M 3600 -100 
L 3600 950 
L 2800 950 
L 2800 -100 
L 3600 -100 
z
M 1425 2225 
Q 1425 1925 1450 1650 
L 950 1650 
Q 975 1925 975 2200 
L 975 2975 
Q 975 3225 950 3425 
L 1450 3425 
Q 1425 3175 1425 2925 
L 1425 2225 
z
M 4575 2575 
Q 4825 2275 4925 2137 
Q 5025 2000 5200 1800 
Q 4975 1675 4775 1525 
Q 4600 1750 4500 1912 
Q 4400 2075 4150 2300 
Q 4425 2425 4575 2575 
z
" transform="scale(0.015625)"/>
      <path id="SimHei-34f5" d="M 3450 4300 
Q 3450 4675 3375 5125 
Q 3700 5100 4050 5050 
Q 3975 4900 3950 4562 
Q 3925 4225 3950 3600 
L 4800 3750 
Q 5225 3850 5650 3975 
L 5750 3500 
Q 5325 3450 4875 3375 
L 3975 3200 
Q 3975 2800 4025 2500 
L 5000 2675 
Q 5500 2775 5950 2925 
L 6025 2450 
Q 5575 2375 5075 2275 
L 4100 2100 
Q 4150 1600 4350 1175 
Q 4575 1350 4787 1575 
Q 5000 1800 5175 2075 
Q 5550 1775 5750 1675 
Q 5425 1525 5237 1337 
Q 5050 1150 4625 750 
Q 4925 250 5162 112 
Q 5400 -25 5500 100 
Q 5600 225 5675 625 
Q 5900 450 6200 350 
Q 5775 -750 5275 -537 
Q 4775 -325 4225 450 
Q 3875 175 3537 -62 
Q 3200 -300 2700 -550 
Q 2575 -300 2325 -100 
Q 2825 75 3175 275 
Q 3525 475 3975 850 
Q 3750 1350 3650 2025 
Q 2900 1900 2600 1800 
L 2525 2275 
Q 2825 2275 3550 2425 
Q 3500 2825 3500 3100 
Q 2825 2950 2575 2875 
L 2475 3350 
Q 2725 3350 3450 3500 
L 3450 4300 
z
M 1950 4875 
Q 1700 4650 1462 4237 
Q 1225 3825 825 3225 
Q 1425 3250 1650 3250 
Q 1875 3625 2050 4075 
Q 2300 3900 2600 3800 
Q 2350 3550 2087 3125 
Q 1825 2700 1175 1675 
Q 1850 1725 2375 1775 
Q 2300 1525 2300 1350 
Q 2125 1350 1525 1287 
Q 925 1225 550 1125 
Q 525 1375 400 1650 
Q 700 1725 950 2050 
Q 1200 2375 1475 2875 
Q 650 2825 425 2675 
Q 350 2950 200 3225 
Q 525 3450 825 3962 
Q 1125 4475 1375 5150 
Q 1625 4975 1950 4875 
z
M 2575 875 
Q 2550 600 2575 450 
Q 1950 325 1450 200 
Q 950 75 525 -75 
Q 450 200 250 475 
Q 950 550 1325 612 
Q 1700 675 2575 875 
z
M 4850 4025 
Q 4675 4300 4375 4675 
L 4775 4875 
Q 4875 4750 5275 4275 
Q 5025 4175 4850 4025 
z
" transform="scale(0.015625)"/>
      <path id="SimHei-254a" d="M 4475 3575 
Q 4825 3575 5250 3600 
L 5250 3200 
Q 4850 3225 4475 3225 
L 4175 3225 
L 4175 2700 
L 5675 2700 
Q 5650 2375 5650 2000 
L 5650 1275 
Q 5650 975 5675 625 
L 4750 625 
Q 5025 475 5375 250 
Q 5725 25 6100 -250 
Q 5925 -450 5800 -650 
Q 5425 -350 5075 -112 
Q 4725 125 4425 300 
Q 4600 500 4675 625 
L 2300 625 
Q 2325 975 2325 1275 
L 2325 2000 
Q 2325 2375 2300 2700 
L 3750 2700 
L 3750 3225 
L 3475 3225 
Q 3125 3225 2700 3200 
L 2700 3600 
Q 3150 3575 3450 3575 
L 4475 3575 
z
M 3850 5275 
Q 4125 4825 4275 4475 
L 6100 4475 
Q 6075 4175 6075 3925 
Q 6075 3700 6100 3400 
L 5600 3400 
L 5600 4125 
L 2425 4125 
L 2425 3450 
L 1925 3450 
Q 1950 3750 1950 3975 
Q 1950 4200 1925 4475 
L 3725 4475 
Q 3625 4775 3375 5100 
Q 3650 5175 3850 5275 
z
M 1775 1325 
Q 1500 850 1337 575 
Q 1175 300 1025 37 
Q 875 -225 700 -550 
Q 500 -350 275 -175 
Q 600 200 900 737 
Q 1200 1275 1400 1700 
Q 1575 1500 1775 1325 
z
M 3600 225 
Q 3425 125 3012 -162 
Q 2600 -450 2175 -700 
Q 2025 -500 1850 -350 
Q 2200 -200 2537 12 
Q 2875 225 3200 550 
Q 3375 375 3600 225 
z
M 525 3425 
Q 1275 2975 1550 2750 
Q 1400 2550 1275 2325 
Q 1050 2550 275 3050 
Q 400 3200 525 3425 
z
M 725 5025 
Q 1475 4575 1750 4375 
Q 1575 4225 1475 3975 
Q 750 4550 475 4650 
Q 650 4875 725 5025 
z
M 5200 975 
L 5200 1475 
L 4175 1475 
L 4175 975 
L 5200 975 
z
M 5200 1850 
L 5200 2350 
L 4175 2350 
L 4175 1850 
L 5200 1850 
z
M 3750 1850 
L 3750 2350 
L 2750 2350 
L 2750 1850 
L 3750 1850 
z
M 3750 975 
L 3750 1475 
L 2750 1475 
L 2750 975 
L 3750 975 
z
" transform="scale(0.015625)"/>
      <path id="SimHei-2f70" d="M 5175 3050 
Q 5500 3050 5975 3075 
L 5975 2575 
Q 5500 2625 5150 2625 
L 3500 2625 
L 3500 -75 
Q 3500 -350 3212 -487 
Q 2925 -625 2425 -675 
Q 2400 -425 2175 -100 
Q 2625 -125 2825 -87 
Q 3025 -50 3025 175 
L 3025 2625 
L 1400 2625 
Q 900 2625 500 2600 
L 500 3075 
Q 925 3050 1400 3050 
L 5175 3050 
z
M 4425 4775 
Q 4775 4775 5225 4800 
L 5225 4325 
Q 4775 4350 4425 4350 
L 2125 4350 
Q 1600 4350 1200 4325 
L 1200 4800 
Q 1600 4775 2125 4775 
L 4425 4775 
z
M 2225 1825 
Q 1950 1400 1650 900 
Q 1350 400 975 -125 
Q 775 75 500 150 
Q 900 600 1200 1087 
Q 1500 1575 1725 2075 
Q 1975 1925 2225 1825 
z
M 4500 2025 
Q 5450 925 5925 275 
Q 5650 125 5475 -25 
Q 5100 550 4125 1750 
Q 4325 1850 4500 2025 
z
" transform="scale(0.015625)"/>
      <path id="SimHei-4425" d="M 2900 425 
Q 1225 -75 475 -350 
Q 425 -150 275 125 
Q 525 150 700 225 
L 700 1800 
Q 700 2000 675 2325 
L 1150 2325 
Q 1125 2100 1125 1675 
L 1125 325 
Q 1300 375 1550 450 
L 1550 2975 
L 725 2975 
Q 750 3225 750 3850 
Q 750 4500 725 4750 
L 2650 4750 
Q 2625 4475 2625 3850 
Q 2625 3250 2650 2975 
L 1975 2975 
L 1975 2075 
Q 2275 2075 2600 2100 
L 2600 1650 
Q 2275 1675 1975 1675 
L 1975 550 
Q 2200 600 2900 875 
Q 2875 675 2900 425 
z
M 4225 5025 
Q 4075 4850 3925 4550 
L 5750 4550 
Q 5575 4125 5287 3650 
Q 5000 3175 4750 2850 
Q 5325 2400 6200 2200 
Q 6000 1950 5900 1750 
Q 5600 1875 5200 2087 
Q 4800 2300 4475 2550 
Q 4150 2300 3762 2100 
Q 3375 1900 2925 1700 
Q 2825 1925 2650 2125 
Q 2975 2200 3400 2375 
Q 3825 2550 4150 2825 
Q 3900 3075 3425 3650 
Q 3250 3350 3100 3150 
Q 2950 3300 2725 3425 
Q 3000 3675 3275 4187 
Q 3550 4700 3700 5225 
Q 3975 5050 4225 5025 
z
M 5525 1800 
Q 5500 1475 5500 650 
Q 5500 -150 5525 -525 
L 5050 -525 
L 5050 -50 
L 3625 -50 
L 3625 -550 
L 3175 -550 
Q 3200 -125 3200 650 
Q 3200 1450 3175 1800 
L 5525 1800 
z
M 5050 325 
L 5050 1400 
L 3625 1400 
L 3625 325 
L 5050 325 
z
M 2200 3350 
L 2200 4375 
L 1175 4375 
L 1175 3350 
L 2200 3350 
z
M 3650 4000 
Q 3950 3550 4425 3125 
Q 4575 3275 4775 3612 
Q 4975 3950 5075 4175 
L 3750 4175 
L 3650 4000 
z
" transform="scale(0.015625)"/>
      <path id="SimHei-15ba" d="M 4700 1875 
Q 5325 1875 5675 1900 
L 5675 1425 
Q 5350 1450 4725 1450 
L 4350 1450 
L 4350 100 
L 5375 100 
L 6075 150 
L 6075 -350 
Q 5725 -325 5375 -325 
L 2900 -325 
Q 2450 -325 2075 -350 
L 2075 125 
Q 2450 100 2900 100 
L 3875 100 
L 3875 1450 
L 3550 1450 
Q 3100 1450 2575 1425 
L 2575 1900 
Q 3100 1875 3550 1875 
L 4700 1875 
z
M 5625 4700 
Q 5400 4325 5162 4037 
Q 4925 3750 4625 3425 
Q 5475 2950 6050 2550 
Q 5825 2350 5675 2175 
Q 4825 2850 4300 3150 
Q 3900 2850 3550 2650 
Q 3200 2450 2525 2100 
Q 2450 2275 2175 2525 
Q 2775 2700 3537 3162 
Q 4300 3625 4775 4300 
L 3475 4300 
Q 3025 4300 2625 4275 
L 2625 4725 
Q 3000 4700 3450 4700 
L 5625 4700 
z
M 2550 3600 
Q 2300 3375 1725 2625 
L 1725 575 
Q 1725 50 1750 -600 
L 1250 -600 
Q 1275 50 1275 600 
L 1275 2150 
Q 925 1825 600 1550 
Q 450 1725 275 1900 
Q 850 2275 1337 2837 
Q 1825 3400 2100 3950 
Q 2300 3775 2550 3600 
z
M 2275 4850 
Q 2100 4650 1637 4150 
Q 1175 3650 750 3275 
Q 600 3450 375 3625 
Q 825 3925 1212 4337 
Q 1600 4750 1850 5175 
Q 2050 5000 2275 4850 
z
" transform="scale(0.015625)"/>
      <path id="SimHei-c" d="M 1675 2250 
Q 1675 1425 1362 775 
Q 1050 125 425 -475 
L 150 -200 
Q 725 325 1012 912 
Q 1300 1500 1300 2250 
Q 1300 3000 1012 3587 
Q 725 4175 150 4725 
L 425 5000 
Q 1050 4375 1362 3725 
Q 1675 3075 1675 2250 
z
" transform="scale(0.015625)"/>
     </defs>
     <use xlink:href="#SimHei-b"/>
     <use xlink:href="#SimHei-3535" transform="translate(50 0)"/>
     <use xlink:href="#SimHei-20" transform="translate(150 0)"/>
     <use xlink:href="#SimHei-4e4" transform="translate(200 0)"/>
     <use xlink:href="#SimHei-f" transform="translate(300 0)"/>
     <use xlink:href="#SimHei-3" transform="translate(350 0)"/>
     <use xlink:href="#SimHei-34d8" transform="translate(400 0)"/>
     <use xlink:href="#SimHei-20" transform="translate(500 0)"/>
     <use xlink:href="#SimHei-26a3" transform="translate(550 0)"/>
     <use xlink:href="#SimHei-1e" transform="translate(650 0)"/>
     <use xlink:href="#SimHei-3" transform="translate(700 0)"/>
     <use xlink:href="#SimHei-3b13" transform="translate(750 0)"/>
     <use xlink:href="#SimHei-34f5" transform="translate(850 0)"/>
     <use xlink:href="#SimHei-20" transform="translate(950 0)"/>
     <use xlink:href="#SimHei-254a" transform="translate(1000 0)"/>
     <use xlink:href="#SimHei-2f70" transform="translate(1100 0)"/>
     <use xlink:href="#SimHei-4425" transform="translate(1200 0)"/>
     <use xlink:href="#SimHei-15ba" transform="translate(1300 0)"/>
     <use xlink:href="#SimHei-c" transform="translate(1400 0)"/>
    </g>
   </g>
  </g>
 </g>
 <defs>
  <clipPath id="p3fe545f099">
   <rect x="7.2" y="42.184375" width="558" height="443.52"/>
  </clipPath>
 </defs>
</svg>
