<?xml version="1.0" encoding="utf-8" standalone="no"?>
<!DOCTYPE svg PUBLIC "-//W3C//DTD SVG 1.1//EN"
  "http://www.w3.org/Graphics/SVG/1.1/DTD/svg11.dtd">
<svg xmlns:xlink="http://www.w3.org/1999/xlink" width="648pt" height="432pt" viewBox="0 0 648 432" xmlns="http://www.w3.org/2000/svg" version="1.1">
 <metadata>
  <rdf:RDF xmlns:dc="http://purl.org/dc/elements/1.1/" xmlns:cc="http://creativecommons.org/ns#" xmlns:rdf="http://www.w3.org/1999/02/22-rdf-syntax-ns#">
   <cc:Work>
    <dc:type rdf:resource="http://purl.org/dc/dcmitype/StillImage"/>
    <dc:date>2026-07-07T11:21:35.787615</dc:date>
    <dc:format>image/svg+xml</dc:format>
    <dc:creator>
     <cc:Agent>
      <dc:title>Matplotlib v3.11.0, https://matplotlib.org/</dc:title>
     </cc:Agent>
    </dc:creator>
   </cc:Work>
  </rdf:RDF>
 </metadata>
 <defs>
  <style type="text/css">*{stroke-linejoin: round; stroke-linecap: butt}</style>
 </defs>
 <g id="figure_1">
  <g id="patch_1">
   <path d="M 0 432 
L 648 432 
L 648 0 
L 0 0 
z
" style="fill: #ffffff"/>
  </g>
  <g id="axes_1">
   <g id="patch_2">
    <path d="M 49.98 382.54 
L 635.04 382.54 
L 635.04 30.99125 
L 49.98 30.99125 
z
" style="fill: #ffffff"/>
   </g>
   <g id="matplotlib.axis_1">
    <g id="xtick_1">
     <g id="line2d_1">
      <path d="M 76.573636 382.54 
L 76.573636 30.99125 
" clip-path="url(#p673fd67387)" style="fill: none; stroke: #cccccc; stroke-opacity: 0.3; stroke-linecap: round"/>
     </g>
     <g id="text_1">
      <!-- 0 -->
      <g style="fill: #262626" transform="translate(73.823636 401.493125) scale(0.11 -0.11)">
       <defs>
        <path id="SimHei-13" d="M 225 2537 
Q 250 3200 412 3587 
Q 575 3975 875 4225 
Q 1175 4475 1612 4475 
Q 2050 4475 2375 4112 
Q 2700 3750 2800 3200 
Q 2900 2650 2862 1937 
Q 2825 1225 2612 775 
Q 2400 325 1975 150 
Q 1550 -25 1125 187 
Q 700 400 525 750 
Q 350 1100 275 1487 
Q 200 1875 225 2537 
z
M 750 2687 
Q 675 2000 800 1462 
Q 925 925 1212 700 
Q 1500 475 1800 612 
Q 2100 750 2237 1162 
Q 2375 1575 2375 2062 
Q 2375 2550 2337 2950 
Q 2300 3350 2112 3675 
Q 1925 4000 1612 4012 
Q 1300 4025 1062 3700 
Q 825 3375 750 2687 
z
" transform="scale(0.015625)"/>
       </defs>
       <use xlink:href="#SimHei-13"/>
      </g>
     </g>
    </g>
    <g id="xtick_2">
     <g id="line2d_2">
      <path d="M 143.057727 382.54 
L 143.057727 30.99125 
" clip-path="url(#p673fd67387)" style="fill: none; stroke: #cccccc; stroke-opacity: 0.3; stroke-linecap: round"/>
     </g>
     <g id="text_2">
      <!-- 1 -->
      <g style="fill: #262626" transform="translate(140.307727 401.493125) scale(0.11 -0.11)">
       <defs>
        <path id="SimHei-14" d="M 1400 3600 
Q 1075 3275 575 2975 
L 575 3450 
Q 1200 3875 1600 4450 
L 1900 4450 
L 1900 150 
L 1400 150 
L 1400 3600 
z
" transform="scale(0.015625)"/>
       </defs>
       <use xlink:href="#SimHei-14"/>
      </g>
     </g>
    </g>
    <g id="xtick_3">
     <g id="line2d_3">
      <path d="M 209.541818 382.54 
L 209.541818 30.99125 
" clip-path="url(#p673fd67387)" style="fill: none; stroke: #cccccc; stroke-opacity: 0.3; stroke-linecap: round"/>
     </g>
     <g id="text_3">
      <!-- 2 -->
      <g style="fill: #262626" transform="translate(206.791818 401.493125) scale(0.11 -0.11)">
       <defs>
        <path id="SimHei-15" d="M 300 250 
Q 325 625 650 925 
Q 975 1225 1475 1862 
Q 1975 2500 2125 2850 
Q 2275 3200 2237 3450 
Q 2200 3700 2000 3862 
Q 1800 4025 1537 4000 
Q 1275 3975 1037 3800 
Q 800 3625 675 3275 
L 200 3350 
Q 400 3925 712 4187 
Q 1025 4450 1450 4475 
Q 1700 4500 1900 4462 
Q 2100 4425 2312 4287 
Q 2525 4150 2662 3875 
Q 2800 3600 2762 3212 
Q 2725 2825 2375 2287 
Q 2025 1750 1025 600 
L 2825 600 
L 2825 150 
L 300 150 
L 300 250 
z
" transform="scale(0.015625)"/>
       </defs>
       <use xlink:href="#SimHei-15"/>
      </g>
     </g>
    </g>
    <g id="xtick_4">
     <g id="line2d_4">
      <path d="M 276.025909 382.54 
L 276.025909 30.99125 
" clip-path="url(#p673fd67387)" style="fill: none; stroke: #cccccc; stroke-opacity: 0.3; stroke-linecap: round"/>
     </g>
     <g id="text_4">
      <!-- 3 -->
      <g style="fill: #262626" transform="translate(273.275909 401.493125) scale(0.11 -0.11)">
       <defs>
        <path id="SimHei-16" d="M 250 1225 
L 700 1300 
Q 800 975 1025 762 
Q 1250 550 1587 562 
Q 1925 575 2125 837 
Q 2325 1100 2300 1437 
Q 2275 1775 2037 1962 
Q 1800 2150 1275 2225 
L 1275 2550 
Q 1800 2600 2037 2825 
Q 2275 3050 2250 3412 
Q 2225 3775 1925 3937 
Q 1625 4100 1287 3975 
Q 950 3850 750 3275 
L 300 3350 
Q 450 3800 712 4100 
Q 975 4400 1425 4450 
Q 1875 4500 2212 4337 
Q 2550 4175 2687 3837 
Q 2825 3500 2725 3100 
Q 2625 2700 2150 2400 
Q 2500 2250 2687 1950 
Q 2875 1650 2812 1162 
Q 2750 675 2375 375 
Q 2000 75 1525 87 
Q 1050 100 700 387 
Q 350 675 250 1225 
z
" transform="scale(0.015625)"/>
       </defs>
       <use xlink:href="#SimHei-16"/>
      </g>
     </g>
    </g>
    <g id="xtick_5">
     <g id="line2d_5">
      <path d="M 342.51 382.54 
L 342.51 30.99125 
" clip-path="url(#p673fd67387)" style="fill: none; stroke: #cccccc; stroke-opacity: 0.3; stroke-linecap: round"/>
     </g>
     <g id="text_5">
      <!-- 4 -->
      <g style="fill: #262626" transform="translate(339.76 401.493125) scale(0.11 -0.11)">
       <defs>
        <path id="SimHei-17" d="M 2000 1100 
L 75 1100 
L 75 1525 
L 2100 4450 
L 2475 4450 
L 2475 1525 
L 3075 1525 
L 3075 1100 
L 2475 1100 
L 2475 150 
L 2000 150 
L 2000 1100 
z
M 2000 1525 
L 2000 3500 
L 600 1525 
L 2000 1525 
z
" transform="scale(0.015625)"/>
       </defs>
       <use xlink:href="#SimHei-17"/>
      </g>
     </g>
    </g>
    <g id="xtick_6">
     <g id="line2d_6">
      <path d="M 408.994091 382.54 
L 408.994091 30.99125 
" clip-path="url(#p673fd67387)" style="fill: none; stroke: #cccccc; stroke-opacity: 0.3; stroke-linecap: round"/>
     </g>
     <g id="text_6">
      <!-- 5 -->
      <g style="fill: #262626" transform="translate(406.244091 401.493125) scale(0.11 -0.11)">
       <defs>
        <path id="SimHei-18" d="M 550 1325 
Q 725 650 1150 575 
Q 1575 500 1837 662 
Q 2100 825 2212 1087 
Q 2325 1350 2312 1675 
Q 2300 2000 2137 2225 
Q 1975 2450 1725 2525 
Q 1475 2600 1162 2525 
Q 850 2450 650 2175 
L 225 2225 
Q 275 2375 700 4375 
L 2675 4375 
L 2675 3925 
L 1075 3925 
Q 950 3250 825 2850 
Q 1200 3025 1525 3012 
Q 1850 3000 2150 2862 
Q 2450 2725 2587 2487 
Q 2725 2250 2787 2012 
Q 2850 1775 2837 1500 
Q 2825 1225 2725 937 
Q 2625 650 2425 462 
Q 2225 275 1937 162 
Q 1650 50 1275 75 
Q 900 100 562 350 
Q 225 600 100 1200 
L 550 1325 
z
" transform="scale(0.015625)"/>
       </defs>
       <use xlink:href="#SimHei-18"/>
      </g>
     </g>
    </g>
    <g id="xtick_7">
     <g id="line2d_7">
      <path d="M 475.478182 382.54 
L 475.478182 30.99125 
" clip-path="url(#p673fd67387)" style="fill: none; stroke: #cccccc; stroke-opacity: 0.3; stroke-linecap: round"/>
     </g>
     <g id="text_7">
      <!-- 6 -->
      <g style="fill: #262626" transform="translate(472.728182 401.493125) scale(0.11 -0.11)">
       <defs>
        <path id="SimHei-19" d="M 250 1612 
Q 275 1975 387 2225 
Q 500 2475 725 2850 
L 1750 4450 
L 2325 4450 
L 1275 2800 
Q 1950 2975 2350 2750 
Q 2750 2525 2887 2237 
Q 3025 1950 3037 1612 
Q 3050 1275 2937 950 
Q 2825 625 2537 362 
Q 2250 100 1737 75 
Q 1225 50 862 262 
Q 500 475 362 862 
Q 225 1250 250 1612 
z
M 1025 787 
Q 1250 550 1625 525 
Q 2000 500 2250 775 
Q 2500 1050 2500 1575 
Q 2500 2100 2187 2300 
Q 1875 2500 1487 2450 
Q 1100 2400 925 2075 
Q 750 1750 775 1387 
Q 800 1025 1025 787 
z
" transform="scale(0.015625)"/>
       </defs>
       <use xlink:href="#SimHei-19"/>
      </g>
     </g>
    </g>
    <g id="xtick_8">
     <g id="line2d_8">
      <path d="M 541.962273 382.54 
L 541.962273 30.99125 
" clip-path="url(#p673fd67387)" style="fill: none; stroke: #cccccc; stroke-opacity: 0.3; stroke-linecap: round"/>
     </g>
     <g id="text_8">
      <!-- 7 -->
      <g style="fill: #262626" transform="translate(539.212273 401.493125) scale(0.11 -0.11)">
       <defs>
        <path id="SimHei-1a" d="M 850 150 
Q 1300 2050 2425 3925 
L 275 3925 
L 275 4375 
L 2950 4375 
L 2950 3950 
Q 1775 2050 1400 150 
L 850 150 
z
" transform="scale(0.015625)"/>
       </defs>
       <use xlink:href="#SimHei-1a"/>
      </g>
     </g>
    </g>
    <g id="xtick_9">
     <g id="line2d_9">
      <path d="M 608.446364 382.54 
L 608.446364 30.99125 
" clip-path="url(#p673fd67387)" style="fill: none; stroke: #cccccc; stroke-opacity: 0.3; stroke-linecap: round"/>
     </g>
     <g id="text_9">
      <!-- 8 -->
      <g style="fill: #262626" transform="translate(605.696364 401.493125) scale(0.11 -0.11)">
       <defs>
        <path id="SimHei-1b" d="M 175 1375 
Q 175 1675 325 1962 
Q 475 2250 825 2425 
Q 525 2600 425 2812 
Q 325 3025 312 3300 
Q 300 3575 387 3775 
Q 475 3975 650 4150 
Q 825 4325 1037 4387 
Q 1250 4450 1500 4450 
Q 1750 4450 1950 4400 
Q 2150 4350 2375 4187 
Q 2600 4025 2700 3725 
Q 2800 3425 2687 3025 
Q 2575 2625 2100 2400 
Q 2525 2275 2700 2012 
Q 2875 1750 2875 1375 
Q 2875 1000 2762 775 
Q 2650 550 2512 400 
Q 2375 250 2137 162 
Q 1900 75 1537 75 
Q 1175 75 912 162 
Q 650 250 475 425 
Q 300 600 237 837 
Q 175 1075 175 1375 
z
M 687 1400 
Q 675 1100 787 875 
Q 900 650 1200 587 
Q 1500 525 1825 600 
Q 2150 675 2275 950 
Q 2400 1225 2362 1500 
Q 2325 1775 2050 1962 
Q 1775 2150 1450 2125 
Q 1125 2100 912 1900 
Q 700 1700 687 1400 
z
M 775 3350 
Q 775 3100 950 2875 
Q 1125 2650 1500 2650 
Q 1875 2650 2062 2875 
Q 2250 3100 2237 3412 
Q 2225 3725 2012 3875 
Q 1800 4025 1437 4000 
Q 1075 3975 925 3787 
Q 775 3600 775 3350 
z
" transform="scale(0.015625)"/>
       </defs>
       <use xlink:href="#SimHei-1b"/>
      </g>
     </g>
    </g>
    <g id="text_10">
     <!-- 未知量索引 -->
     <g style="fill: #262626" transform="translate(312.51 417.3525) scale(0.12 -0.12)">
      <defs>
       <path id="SimHei-1d60" d="M 2875 4150 
Q 2875 4900 2850 5225 
L 3400 5225 
Q 3375 4925 3375 4150 
L 4475 4150 
Q 4950 4150 5375 4175 
L 5375 3725 
Q 4950 3750 4475 3750 
L 3375 3750 
L 3375 2750 
L 4850 2750 
Q 5400 2750 5875 2775 
L 5875 2325 
Q 5400 2350 4875 2350 
L 3675 2350 
Q 4125 1675 4662 1187 
Q 5200 700 6175 425 
Q 5850 275 5725 -100 
Q 5050 150 4462 650 
Q 3875 1150 3375 2050 
L 3375 300 
Q 3375 -175 3400 -575 
L 2825 -575 
Q 2875 -175 2875 300 
L 2875 2125 
Q 2275 1150 1700 650 
Q 1125 150 675 -150 
Q 575 75 225 300 
Q 650 450 1312 1000 
Q 1975 1550 2475 2350 
L 1225 2350 
Q 675 2350 375 2325 
L 375 2775 
Q 750 2750 1275 2750 
L 2875 2750 
L 2875 3750 
L 1825 3750 
Q 1225 3750 850 3725 
L 850 4175 
Q 1225 4150 1775 4150 
L 2875 4150 
z
" transform="scale(0.015625)"/>
       <path id="SimHei-2e1b" d="M 5925 4350 
Q 5900 3850 5900 3450 
L 5900 850 
Q 5900 375 5925 -125 
L 5400 -125 
L 5400 550 
L 4075 550 
L 4075 -225 
L 3550 -225 
Q 3575 250 3575 775 
L 3575 3450 
Q 3575 3850 3550 4350 
L 5925 4350 
z
M 500 -275 
Q 825 0 1087 387 
Q 1350 775 1525 1187 
Q 1700 1600 1750 2000 
Q 825 2000 425 1975 
L 425 2450 
Q 800 2425 1825 2425 
Q 1900 2950 1900 3700 
L 1325 3700 
Q 1200 3350 950 2875 
Q 675 2950 450 3000 
Q 625 3250 800 3662 
Q 975 4075 1087 4462 
Q 1200 4850 1250 5150 
Q 1500 5075 1825 5025 
Q 1700 4850 1625 4625 
Q 1550 4400 1450 4125 
Q 2875 4125 3225 4150 
L 3225 3700 
L 2375 3700 
Q 2375 3150 2325 2425 
Q 2925 2425 3375 2450 
L 3375 1975 
Q 2925 2000 2250 2000 
Q 2225 1725 2150 1475 
Q 2375 1300 2650 1087 
Q 2925 875 3350 375 
Q 3175 300 2950 25 
Q 2725 400 2487 637 
Q 2250 875 2000 1075 
Q 1850 675 1537 225 
Q 1225 -225 900 -575 
Q 775 -425 500 -275 
z
M 5400 950 
L 5400 3950 
L 4075 3950 
L 4075 950 
L 5400 950 
z
" transform="scale(0.015625)"/>
       <path id="SimHei-4805" d="M 5250 2500 
Q 5225 2200 5225 1700 
Q 5225 1225 5250 950 
L 3425 950 
L 3425 625 
L 4575 625 
Q 5000 625 5375 650 
L 5375 275 
Q 5025 300 4575 300 
L 3425 300 
L 3425 -75 
L 5125 -75 
Q 5525 -75 5925 -50 
L 5925 -425 
Q 5525 -400 5125 -400 
L 1275 -400 
Q 900 -400 475 -425 
L 475 -50 
Q 925 -50 1275 -75 
L 2975 -75 
L 2975 300 
L 1725 300 
Q 1350 300 975 250 
L 975 650 
Q 1375 625 1725 625 
L 2975 625 
L 2975 950 
L 1150 950 
Q 1175 1375 1175 1775 
Q 1175 2175 1150 2500 
L 5250 2500 
z
M 5200 4950 
Q 5175 4575 5175 4250 
Q 5175 3925 5200 3400 
L 1200 3400 
Q 1225 3925 1225 4250 
Q 1225 4575 1200 4950 
L 5200 4950 
z
M 4900 3100 
Q 5500 3125 6000 3150 
L 6000 2750 
Q 5500 2775 4925 2775 
L 1650 2775 
Q 975 2775 325 2750 
L 325 3150 
Q 975 3125 1650 3100 
L 4900 3100 
z
M 4725 3700 
L 4725 4025 
L 1675 4025 
L 1675 3700 
L 4725 3700 
z
M 4725 4350 
L 4725 4650 
L 1675 4650 
L 1675 4350 
L 4725 4350 
z
M 4750 1875 
L 4750 2175 
L 3425 2175 
L 3425 1875 
L 4750 1875 
z
M 2975 1875 
L 2975 2175 
L 1650 2175 
L 1650 1875 
L 2975 1875 
z
M 2975 1275 
L 2975 1550 
L 1650 1550 
L 1650 1275 
L 2975 1275 
z
M 4750 1275 
L 4750 1550 
L 3425 1550 
L 3425 1275 
L 4750 1275 
z
" transform="scale(0.015625)"/>
       <path id="SimHei-3358" d="M 3275 3000 
Q 3100 2925 2850 2775 
Q 2600 2625 2200 2375 
L 3425 2375 
Q 3825 2575 4175 2900 
Q 4475 2700 4775 2525 
Q 4325 2400 3937 2187 
Q 3550 1975 2300 1375 
Q 3375 1425 4600 1475 
Q 4400 1650 4200 1800 
Q 4475 1925 4575 2075 
Q 5025 1825 5675 1125 
Q 5425 975 5275 800 
Q 5050 1000 4900 1150 
Q 4400 1150 3450 1075 
L 3450 -25 
Q 3450 -400 3212 -475 
Q 2975 -550 2450 -625 
Q 2425 -350 2250 -100 
Q 2600 -100 2775 -75 
Q 2950 -50 2950 125 
L 2950 1025 
Q 2175 1025 1700 962 
Q 1225 900 975 850 
Q 900 1100 825 1300 
Q 1425 1400 1837 1550 
Q 2250 1700 2875 2050 
Q 2300 2050 2012 2025 
Q 1725 2000 1325 1900 
Q 1250 2175 1175 2350 
Q 1525 2375 1925 2612 
Q 2325 2850 2675 3275 
Q 2975 3125 3275 3000 
z
M 2900 4625 
Q 2900 4925 2875 5150 
L 3425 5150 
Q 3400 4850 3400 4625 
L 4775 4625 
Q 5050 4625 5575 4650 
L 5575 4250 
Q 5100 4275 4750 4275 
L 3400 4275 
L 3400 3750 
L 5900 3750 
Q 5875 3550 5875 3250 
Q 5875 2950 5900 2700 
L 5375 2700 
L 5375 3375 
L 975 3375 
L 975 2525 
L 475 2525 
L 475 3750 
L 2900 3750 
L 2900 4275 
L 1750 4275 
Q 1050 4275 825 4250 
L 825 4650 
Q 1150 4625 1725 4625 
L 2900 4625 
z
M 4525 800 
Q 5175 375 5875 -75 
Q 5650 -250 5475 -450 
Q 4800 100 4125 500 
Q 4350 675 4525 800 
z
M 2125 450 
Q 1900 325 1575 75 
Q 1250 -175 775 -475 
Q 650 -275 375 -125 
Q 1100 225 1700 775 
Q 1900 600 2125 450 
z
" transform="scale(0.015625)"/>
       <path id="SimHei-154b" d="M 3475 4825 
Q 3450 4350 3450 3925 
Q 3450 3500 3475 3050 
L 1400 3050 
L 1350 2075 
L 3525 2075 
Q 3300 150 3225 -100 
Q 3150 -350 2837 -462 
Q 2525 -575 1600 -625 
Q 1575 -350 1400 -25 
Q 2275 -50 2487 0 
Q 2700 50 2775 300 
L 2950 1675 
L 825 1675 
Q 850 2075 875 2487 
Q 900 2900 900 3450 
L 2950 3450 
L 2950 4400 
L 1925 4400 
Q 1350 4400 800 4375 
L 800 4850 
Q 1350 4825 1750 4825 
L 3475 4825 
z
M 5450 5075 
Q 5425 4625 5425 4175 
L 5425 600 
Q 5425 50 5450 -550 
L 4900 -550 
Q 4925 100 4925 600 
L 4925 4200 
Q 4925 4625 4900 5075 
L 5450 5075 
z
" transform="scale(0.015625)"/>
      </defs>
      <use xlink:href="#SimHei-1d60"/>
      <use xlink:href="#SimHei-2e1b" transform="translate(100 0)"/>
      <use xlink:href="#SimHei-4805" transform="translate(200 0)"/>
      <use xlink:href="#SimHei-3358" transform="translate(300 0)"/>
      <use xlink:href="#SimHei-154b" transform="translate(400 0)"/>
     </g>
    </g>
   </g>
   <g id="matplotlib.axis_2">
    <g id="ytick_1">
     <g id="line2d_10">
      <path d="M 49.98 374.550256 
L 635.04 374.550256 
" clip-path="url(#p673fd67387)" style="fill: none; stroke: #cccccc; stroke-opacity: 0.3; stroke-linecap: round"/>
     </g>
     <g id="text_11">
      <!-- 20 -->
      <g style="fill: #262626" transform="translate(29.48 379.276818) scale(0.11 -0.11)">
       <use xlink:href="#SimHei-15"/>
       <use xlink:href="#SimHei-13" transform="translate(50 0)"/>
      </g>
     </g>
    </g>
    <g id="ytick_2">
     <g id="line2d_11">
      <path d="M 49.98 318.622045 
L 635.04 318.622045 
" clip-path="url(#p673fd67387)" style="fill: none; stroke: #cccccc; stroke-opacity: 0.3; stroke-linecap: round"/>
     </g>
     <g id="text_12">
      <!-- 30 -->
      <g style="fill: #262626" transform="translate(29.48 323.348608) scale(0.11 -0.11)">
       <use xlink:href="#SimHei-16"/>
       <use xlink:href="#SimHei-13" transform="translate(50 0)"/>
      </g>
     </g>
    </g>
    <g id="ytick_3">
     <g id="line2d_12">
      <path d="M 49.98 262.693835 
L 635.04 262.693835 
" clip-path="url(#p673fd67387)" style="fill: none; stroke: #cccccc; stroke-opacity: 0.3; stroke-linecap: round"/>
     </g>
     <g id="text_13">
      <!-- 40 -->
      <g style="fill: #262626" transform="translate(29.48 267.420398) scale(0.11 -0.11)">
       <use xlink:href="#SimHei-17"/>
       <use xlink:href="#SimHei-13" transform="translate(50 0)"/>
      </g>
     </g>
    </g>
    <g id="ytick_4">
     <g id="line2d_13">
      <path d="M 49.98 206.765625 
L 635.04 206.765625 
" clip-path="url(#p673fd67387)" style="fill: none; stroke: #cccccc; stroke-opacity: 0.3; stroke-linecap: round"/>
     </g>
     <g id="text_14">
      <!-- 50 -->
      <g style="fill: #262626" transform="translate(29.48 211.492187) scale(0.11 -0.11)">
       <use xlink:href="#SimHei-18"/>
       <use xlink:href="#SimHei-13" transform="translate(50 0)"/>
      </g>
     </g>
    </g>
    <g id="ytick_5">
     <g id="line2d_14">
      <path d="M 49.98 150.837415 
L 635.04 150.837415 
" clip-path="url(#p673fd67387)" style="fill: none; stroke: #cccccc; stroke-opacity: 0.3; stroke-linecap: round"/>
     </g>
     <g id="text_15">
      <!-- 60 -->
      <g style="fill: #262626" transform="translate(29.48 155.563977) scale(0.11 -0.11)">
       <use xlink:href="#SimHei-19"/>
       <use xlink:href="#SimHei-13" transform="translate(50 0)"/>
      </g>
     </g>
    </g>
    <g id="ytick_6">
     <g id="line2d_15">
      <path d="M 49.98 94.909205 
L 635.04 94.909205 
" clip-path="url(#p673fd67387)" style="fill: none; stroke: #cccccc; stroke-opacity: 0.3; stroke-linecap: round"/>
     </g>
     <g id="text_16">
      <!-- 70 -->
      <g style="fill: #262626" transform="translate(29.48 99.635767) scale(0.11 -0.11)">
       <use xlink:href="#SimHei-1a"/>
       <use xlink:href="#SimHei-13" transform="translate(50 0)"/>
      </g>
     </g>
    </g>
    <g id="ytick_7">
     <g id="line2d_16">
      <path d="M 49.98 38.980994 
L 635.04 38.980994 
" clip-path="url(#p673fd67387)" style="fill: none; stroke: #cccccc; stroke-opacity: 0.3; stroke-linecap: round"/>
     </g>
     <g id="text_17">
      <!-- 80 -->
      <g style="fill: #262626" transform="translate(29.48 43.707557) scale(0.11 -0.11)">
       <use xlink:href="#SimHei-1b"/>
       <use xlink:href="#SimHei-13" transform="translate(50 0)"/>
      </g>
     </g>
    </g>
    <g id="text_18">
     <!-- 变量值 -->
     <g style="fill: #262626" transform="translate(23.7925 224.765625) rotate(-90) scale(0.12 -0.12)">
      <defs>
       <path id="SimHei-a0e" d="M 5200 1975 
Q 4950 1600 4537 1137 
Q 4125 675 3675 375 
Q 3925 225 4600 87 
Q 5275 -50 6000 -75 
Q 5700 -400 5650 -625 
Q 4850 -525 4212 -312 
Q 3575 -100 3225 125 
Q 2800 -125 2150 -325 
Q 1500 -525 700 -675 
Q 600 -425 400 -175 
Q 950 -150 1687 12 
Q 2425 175 2825 375 
Q 2275 775 1675 1575 
Q 1350 1575 1000 1550 
L 1000 2000 
Q 1450 1975 2075 1975 
L 5200 1975 
z
M 3225 5275 
Q 3400 4900 3550 4475 
L 4675 4475 
Q 5400 4475 5975 4500 
L 5975 4025 
Q 5375 4050 4725 4050 
L 4125 4050 
L 4125 2950 
Q 4125 2550 4150 2150 
L 3600 2150 
Q 3625 2550 3625 2950 
L 3625 4050 
L 2750 4050 
L 2750 2950 
Q 2750 2675 2775 2150 
L 2225 2150 
Q 2250 2675 2250 2950 
L 2250 4050 
L 1700 4050 
Q 975 4050 425 4025 
L 425 4500 
Q 950 4475 1700 4475 
L 2975 4475 
Q 2925 4675 2700 5125 
Q 2950 5150 3225 5275 
z
M 2200 1575 
Q 2650 975 3250 600 
Q 3850 1000 4275 1575 
L 2200 1575 
z
M 4850 3750 
Q 5375 3275 5950 2675 
Q 5750 2525 5500 2300 
Q 5075 2800 4450 3400 
Q 4675 3575 4850 3750 
z
M 1825 3500 
Q 1700 3375 1425 3025 
Q 1150 2675 825 2300 
Q 575 2475 375 2600 
Q 975 3150 1300 3825 
Q 1525 3650 1825 3500 
z
" transform="scale(0.015625)"/>
       <path id="SimHei-672" d="M 3675 4450 
L 3675 5100 
Q 3975 5075 4350 5050 
Q 4225 4875 4200 4450 
L 5125 4450 
Q 5550 4450 5875 4475 
L 5875 4025 
Q 5525 4050 5125 4050 
L 4175 4050 
L 4125 3500 
L 5400 3500 
Q 5375 3200 5375 2700 
L 5375 150 
Q 5875 150 6100 175 
L 6100 -275 
Q 5775 -250 5200 -250 
L 2850 -250 
Q 2275 -250 1900 -275 
L 1900 175 
Q 2125 150 2600 150 
L 2600 2700 
Q 2600 3175 2575 3500 
L 3600 3500 
L 3650 4050 
L 3200 4050 
Q 2575 4050 2225 4025 
L 2225 4475 
Q 2550 4450 3200 4450 
L 3675 4450 
z
M 2225 4900 
Q 2025 4675 1650 3750 
L 1650 450 
Q 1650 -75 1675 -550 
L 1150 -550 
Q 1175 -125 1175 375 
L 1175 2950 
Q 875 2450 625 2150 
Q 425 2425 250 2575 
Q 500 2825 937 3537 
Q 1375 4250 1625 5150 
Q 1975 4975 2225 4900 
z
M 4925 2650 
L 4925 3150 
L 3075 3150 
L 3075 2650 
L 4925 2650 
z
M 4925 150 
L 4925 625 
L 3075 625 
L 3075 150 
L 4925 150 
z
M 4925 1000 
L 4925 1450 
L 3075 1450 
L 3075 1000 
L 4925 1000 
z
M 4925 1825 
L 4925 2275 
L 3075 2275 
L 3075 1825 
L 4925 1825 
z
" transform="scale(0.015625)"/>
      </defs>
      <use xlink:href="#SimHei-a0e"/>
      <use xlink:href="#SimHei-4805" transform="translate(100 0)"/>
      <use xlink:href="#SimHei-672" transform="translate(200 0)"/>
     </g>
    </g>
   </g>
   <g id="patch_3">
    <path d="M 49.98 382.54 
L 49.98 30.99125 
" style="fill: none; stroke: #cccccc; stroke-width: 1.25; stroke-linejoin: miter; stroke-linecap: square"/>
   </g>
   <g id="patch_4">
    <path d="M 635.04 382.54 
L 635.04 30.99125 
" style="fill: none; stroke: #cccccc; stroke-width: 1.25; stroke-linejoin: miter; stroke-linecap: square"/>
   </g>
   <g id="patch_5">
    <path d="M 49.98 382.54 
L 635.04 382.54 
" style="fill: none; stroke: #cccccc; stroke-width: 1.25; stroke-linejoin: miter; stroke-linecap: square"/>
   </g>
   <g id="patch_6">
    <path d="M 49.98 30.99125 
L 635.04 30.99125 
" style="fill: none; stroke: #cccccc; stroke-width: 1.25; stroke-linejoin: miter; stroke-linecap: square"/>
   </g>
   <g id="text_19">
    <!-- 数值解与参考解对比 -->
    <g style="fill: #262626" transform="translate(279.51 24.99125) scale(0.14 -0.14)">
     <defs>
      <path id="SimHei-1ba6" d="M 4525 4925 
Q 4475 4800 4400 4587 
Q 4325 4375 4175 3825 
L 5325 3825 
Q 5575 3825 5925 3850 
L 5925 3400 
Q 5650 3425 5500 3425 
Q 5500 3025 5362 2162 
Q 5225 1300 4875 675 
Q 5125 375 5437 137 
Q 5750 -100 6025 -200 
Q 5725 -425 5625 -625 
Q 5325 -450 5075 -225 
Q 4825 0 4575 325 
Q 4300 25 3987 -187 
Q 3675 -400 3200 -650 
Q 3075 -425 2850 -300 
Q 3225 -150 3650 125 
Q 4075 400 4300 675 
Q 4125 1025 3962 1425 
Q 3800 1825 3675 2475 
Q 3600 2275 3425 1950 
Q 3250 2050 3000 2150 
Q 3400 2850 3650 3675 
Q 3900 4500 3975 5100 
Q 4275 4975 4525 4925 
z
M 2100 2250 
Q 2000 2150 1875 1925 
L 3250 1925 
Q 3100 1300 2725 675 
Q 3125 525 3350 400 
Q 3225 225 3125 25 
Q 2900 175 2450 325 
Q 1950 -225 725 -650 
Q 600 -375 400 -275 
Q 1575 0 2000 475 
Q 1300 650 850 775 
Q 1000 1000 1250 1525 
Q 1000 1525 425 1500 
L 425 1950 
Q 900 1925 1400 1925 
Q 1500 2150 1550 2425 
Q 1825 2325 2100 2250 
z
M 1775 3950 
Q 1775 4550 1750 5100 
L 2250 5100 
Q 2225 4575 2225 3950 
Q 3075 3950 3425 3975 
L 3425 3525 
Q 3075 3550 2225 3550 
Q 2225 2825 2250 2425 
L 1750 2425 
Q 1775 2775 1775 3300 
Q 1650 3100 1300 2787 
Q 950 2475 650 2300 
Q 525 2525 275 2625 
Q 500 2700 875 2975 
Q 1250 3250 1450 3550 
Q 950 3550 500 3525 
L 500 3975 
Q 925 3950 1775 3950 
z
M 3975 3175 
Q 4200 1700 4600 1125 
Q 4850 1700 4937 2287 
Q 5025 2875 5050 3425 
L 4075 3425 
L 3975 3175 
z
M 1450 1000 
Q 1750 925 2275 800 
Q 2475 1050 2650 1525 
L 1725 1525 
Q 1600 1275 1450 1000 
z
M 3325 4825 
Q 3200 4625 3125 4450 
Q 3050 4275 2925 4025 
Q 2725 4125 2525 4175 
Q 2725 4500 2900 5000 
Q 3150 4875 3325 4825 
z
M 2575 3375 
Q 2900 3050 3200 2725 
Q 3050 2600 2875 2425 
Q 2525 2850 2300 3100 
Q 2450 3225 2575 3375 
z
M 925 5000 
Q 1275 4650 1500 4300 
L 1125 4075 
Q 950 4425 600 4725 
Q 825 4875 925 5000 
z
" transform="scale(0.015625)"/>
      <path id="SimHei-4019" d="M 1925 5025 
Q 1725 4925 1625 4575 
L 2925 4575 
Q 2800 4400 2600 4100 
Q 2400 3800 2325 3650 
L 3225 3650 
Q 3175 3150 3175 2650 
L 3175 75 
Q 3175 -225 3012 -312 
Q 2850 -400 2500 -450 
Q 2450 -175 2350 75 
Q 2550 75 2650 87 
Q 2750 100 2750 325 
L 2750 1150 
L 2225 1150 
L 2225 -25 
L 1800 -25 
L 1800 1150 
L 1275 1150 
Q 1250 775 1150 375 
Q 1050 -25 825 -500 
Q 600 -375 350 -250 
Q 600 100 725 612 
Q 850 1125 875 1925 
Q 900 2725 875 3525 
Q 675 3300 550 3175 
Q 400 3375 200 3525 
Q 575 3825 887 4262 
Q 1200 4700 1400 5300 
Q 1600 5175 1925 5025 
z
M 4325 2425 
Q 4200 2325 4150 2125 
L 4575 2125 
Q 4575 2650 4550 2825 
L 5050 2825 
Q 5000 2600 5000 2125 
L 5350 2125 
Q 5725 2125 5950 2150 
L 5950 1700 
Q 5625 1750 5300 1750 
L 5000 1750 
L 5000 1025 
L 5175 1025 
Q 5650 1025 6150 1050 
L 6150 625 
Q 5675 650 5175 650 
L 5000 650 
L 5000 225 
Q 5000 -125 5025 -650 
L 4550 -650 
Q 4575 -125 4575 225 
L 4575 650 
L 4025 650 
Q 3750 650 3325 625 
L 3325 1050 
Q 3700 1025 4025 1025 
L 4575 1025 
L 4575 1750 
L 3950 1750 
Q 3875 1550 3725 1250 
Q 3550 1350 3325 1525 
Q 3500 1725 3625 2050 
Q 3750 2375 3825 2675 
L 4325 2425 
z
M 4900 2975 
Q 4850 3250 4725 3500 
Q 5000 3500 5162 3525 
Q 5325 3550 5350 3675 
Q 5375 3800 5425 4550 
L 4525 4550 
Q 4375 3850 4225 3537 
Q 4075 3225 3750 2850 
Q 3600 3050 3350 3225 
Q 3625 3425 3800 3737 
Q 3975 4050 4050 4550 
Q 3750 4550 3325 4525 
L 3325 4950 
Q 3725 4925 4050 4925 
L 5925 4925 
Q 5850 3700 5787 3450 
Q 5725 3200 5475 3100 
Q 5225 3000 4900 2975 
z
M 1825 3650 
Q 2025 3900 2175 4200 
L 1375 4200 
Q 1150 3900 975 3650 
L 1825 3650 
z
M 2750 1550 
L 2750 2225 
L 2225 2225 
L 2225 1550 
L 2750 1550 
z
M 2750 2600 
L 2750 3275 
L 2225 3275 
L 2225 2600 
L 2750 2600 
z
M 1800 1550 
L 1800 2225 
L 1325 2225 
L 1300 1550 
L 1800 1550 
z
M 1800 2600 
L 1800 3275 
L 1325 3275 
L 1325 2600 
L 1800 2600 
z
" transform="scale(0.015625)"/>
      <path id="SimHei-444" d="M 5350 100 
Q 5275 -300 4925 -425 
Q 4575 -550 3900 -600 
Q 3875 -375 3650 -25 
Q 4375 -50 4575 0 
Q 4775 50 4837 225 
Q 4900 400 5100 2350 
L 1125 2350 
Q 1450 4350 1475 5200 
Q 1800 5150 2075 5125 
Q 1975 4825 1900 4275 
L 4900 4275 
Q 5400 4275 5800 4300 
L 5800 3825 
Q 5400 3850 4950 3850 
L 1850 3850 
L 1700 2750 
L 5675 2750 
Q 5625 2450 5575 2050 
L 5350 100 
z
M 3675 1350 
Q 4125 1350 4500 1375 
L 4500 875 
Q 4125 900 3850 900 
L 1450 900 
Q 1000 900 500 875 
L 500 1375 
Q 1000 1350 1450 1350 
L 3675 1350 
z
" transform="scale(0.015625)"/>
      <path id="SimHei-9f8" d="M 3325 4850 
Q 3100 4725 2850 4500 
Q 2600 4275 2175 3925 
Q 2850 3950 3275 3950 
Q 3700 3950 4200 3975 
Q 3950 4200 3600 4450 
Q 3800 4625 3925 4775 
Q 4900 4100 5325 3675 
Q 5100 3475 4925 3300 
Q 4750 3475 4550 3625 
Q 3625 3600 3200 3575 
Q 3025 3250 2925 3125 
L 5075 3125 
Q 5575 3125 5950 3150 
L 5950 2700 
Q 5600 2725 5075 2725 
L 4325 2725 
Q 4675 2350 5187 2075 
Q 5700 1800 6150 1700 
Q 5850 1550 5675 1225 
Q 5100 1525 4612 1900 
Q 4125 2275 3800 2725 
L 2725 2725 
Q 2325 2300 1812 1962 
Q 1300 1625 650 1325 
Q 525 1525 250 1700 
Q 725 1825 1237 2100 
Q 1750 2375 2100 2725 
L 1475 2725 
Q 950 2725 375 2700 
L 375 3150 
Q 875 3125 1475 3125 
L 2400 3125 
L 2550 3350 
L 2650 3550 
Q 1925 3500 1775 3475 
Q 1625 3450 1500 3425 
Q 1375 3725 1300 3875 
Q 1600 3950 2050 4337 
Q 2500 4725 2825 5225 
Q 3025 5050 3325 4850 
z
M 5350 800 
Q 5025 650 4612 437 
Q 4200 225 3850 75 
Q 3500 -75 3062 -212 
Q 2625 -350 2150 -450 
Q 1675 -550 1225 -600 
Q 1150 -350 900 -150 
Q 1675 -125 2362 25 
Q 3050 175 3512 387 
Q 3975 600 4312 800 
Q 4650 1000 4900 1250 
Q 5100 1025 5350 800 
z
M 4550 1450 
Q 4350 1375 4037 1200 
Q 3725 1025 3350 862 
Q 2975 700 2512 550 
Q 2050 400 1575 325 
Q 1450 575 1250 775 
Q 1775 800 2175 900 
Q 2575 1000 3075 1212 
Q 3575 1425 4125 1850 
Q 4300 1675 4550 1450 
z
M 3900 2075 
Q 3575 1950 3350 1825 
Q 3125 1700 2687 1525 
Q 2250 1350 1750 1200 
Q 1625 1425 1450 1600 
Q 2025 1700 2587 1937 
Q 3150 2175 3500 2500 
Q 3700 2275 3900 2075 
z
" transform="scale(0.015625)"/>
      <path id="SimHei-3639" d="M 5175 1300 
Q 5125 1000 5012 425 
Q 4900 -150 4775 -300 
Q 4650 -450 4250 -525 
Q 3850 -600 3150 -650 
Q 3125 -325 2975 -100 
Q 4300 -150 4412 75 
Q 4525 300 4600 900 
L 3225 900 
Q 2700 900 2375 800 
Q 2325 1025 2200 1225 
Q 2375 1250 2500 1412 
Q 2625 1575 2775 1900 
L 2275 1900 
Q 2000 1750 1562 1550 
Q 1125 1350 550 1125 
Q 475 1325 250 1550 
Q 825 1700 1600 2037 
Q 2375 2375 3125 2950 
L 1425 2950 
Q 1100 2950 450 2925 
L 450 3375 
Q 1100 3350 1425 3350 
L 2725 3350 
L 2725 4150 
L 2025 4150 
Q 1800 4150 1350 4125 
L 1350 4550 
Q 1800 4525 2000 4525 
L 2725 4525 
Q 2725 5000 2700 5225 
L 3175 5225 
Q 3150 4875 3150 4525 
L 3525 4525 
Q 3700 4525 4325 4550 
L 4325 4125 
Q 3650 4150 3550 4150 
L 3150 4150 
L 3150 3350 
L 3625 3350 
Q 4100 3750 4487 4150 
Q 4875 4550 5075 4850 
Q 5275 4650 5550 4500 
Q 5375 4375 5012 4062 
Q 4650 3750 4225 3350 
L 5250 3350 
Q 5600 3350 6025 3375 
L 6025 2925 
Q 5600 2950 5250 2950 
L 3775 2950 
Q 3475 2725 2900 2300 
L 4675 2300 
Q 5075 2300 5300 2325 
L 5300 1875 
Q 5075 1900 4700 1900 
L 3250 1900 
Q 3125 1625 2950 1300 
L 5175 1300 
z
" transform="scale(0.015625)"/>
      <path id="SimHei-122f" d="M 525 4250 
Q 900 4225 1400 4225 
L 2825 4225 
Q 2575 2625 2200 1750 
Q 2825 875 3125 400 
Q 2950 275 2725 75 
Q 2200 975 1950 1300 
Q 1650 775 1350 425 
Q 1050 75 600 -350 
Q 425 -125 200 -25 
Q 625 275 975 675 
Q 1325 1075 1650 1700 
Q 1050 2425 550 2900 
Q 700 3025 900 3225 
Q 1625 2425 1875 2150 
Q 2200 3050 2300 3825 
L 1400 3825 
Q 900 3825 525 3800 
L 525 4250 
z
M 2925 3700 
Q 3525 3675 3750 3675 
L 4825 3675 
L 4825 4425 
Q 4825 4750 4775 5125 
L 5350 5125 
Q 5325 4825 5325 4375 
L 5325 3675 
Q 5575 3675 6150 3700 
L 6150 3250 
Q 5575 3275 5325 3275 
L 5325 125 
Q 5350 -350 5012 -475 
Q 4675 -600 4250 -650 
Q 4175 -350 4025 -100 
Q 4575 -100 4712 -37 
Q 4850 25 4825 325 
L 4825 3275 
L 3775 3275 
Q 3550 3275 2925 3225 
L 2925 3700 
z
M 3450 2725 
Q 3875 1975 4175 1325 
Q 3850 1200 3700 1075 
Q 3475 1750 3050 2475 
Q 3225 2550 3450 2725 
z
" transform="scale(0.015625)"/>
      <path id="SimHei-220a" d="M 3775 5100 
Q 3750 4575 3750 4100 
L 3750 3050 
Q 4925 3600 5475 4175 
Q 5675 3900 5900 3675 
Q 5600 3500 5037 3187 
Q 4475 2875 3750 2550 
L 3750 450 
Q 3750 100 4050 100 
L 5000 100 
Q 5175 100 5262 250 
Q 5350 400 5450 900 
Q 5650 775 6025 675 
Q 5850 0 5650 -175 
Q 5450 -350 5225 -350 
L 3900 -350 
Q 3250 -350 3250 275 
L 3250 4000 
Q 3250 4550 3225 5100 
L 3775 5100 
z
M 1275 4975 
Q 1250 4575 1250 4000 
L 1250 3150 
L 1850 3150 
Q 2325 3150 2875 3175 
L 2875 2650 
Q 2325 2675 1850 2675 
L 1250 2675 
L 1250 475 
Q 1650 650 1962 812 
Q 2275 975 2850 1275 
Q 2900 950 2950 750 
Q 2375 475 1762 175 
Q 1150 -125 925 -325 
Q 750 -100 575 200 
Q 700 300 750 600 
L 750 3950 
Q 750 4550 725 4975 
L 1275 4975 
z
" transform="scale(0.015625)"/>
     </defs>
     <use xlink:href="#SimHei-1ba6"/>
     <use xlink:href="#SimHei-672" transform="translate(100 0)"/>
     <use xlink:href="#SimHei-4019" transform="translate(200 0)"/>
     <use xlink:href="#SimHei-444" transform="translate(300 0)"/>
     <use xlink:href="#SimHei-9f8" transform="translate(400 0)"/>
     <use xlink:href="#SimHei-3639" transform="translate(500 0)"/>
     <use xlink:href="#SimHei-4019" transform="translate(600 0)"/>
     <use xlink:href="#SimHei-122f" transform="translate(700 0)"/>
     <use xlink:href="#SimHei-220a" transform="translate(800 0)"/>
    </g>
   </g>
   <g id="PathCollection_1">
    <defs>
     <path id="m95aca6c276" d="M -4.472136 4.472136 
L 4.472136 4.472136 
L 4.472136 -4.472136 
L -4.472136 -4.472136 
z
" style="stroke: #0000ff"/>
    </defs>
    <g clip-path="url(#p673fd67387)">
     <use xlink:href="#m95aca6c276" x="76.573636" y="46.970739" style="fill: #0000ff; stroke: #0000ff"/>
     <use xlink:href="#m95aca6c276" x="143.057727" y="86.91946" style="fill: #0000ff; stroke: #0000ff"/>
     <use xlink:href="#m95aca6c276" x="209.541818" y="166.816903" style="fill: #0000ff; stroke: #0000ff"/>
     <use xlink:href="#m95aca6c276" x="276.025909" y="134.857926" style="fill: #0000ff; stroke: #0000ff"/>
     <use xlink:href="#m95aca6c276" x="342.51" y="206.765625" style="fill: #0000ff; stroke: #0000ff"/>
     <use xlink:href="#m95aca6c276" x="408.994091" y="278.673324" style="fill: #0000ff; stroke: #0000ff"/>
     <use xlink:href="#m95aca6c276" x="475.478182" y="246.714347" style="fill: #0000ff; stroke: #0000ff"/>
     <use xlink:href="#m95aca6c276" x="541.962273" y="326.61179" style="fill: #0000ff; stroke: #0000ff"/>
     <use xlink:href="#m95aca6c276" x="608.446364" y="366.560511" style="fill: #0000ff; stroke: #0000ff"/>
    </g>
   </g>
   <g id="PathCollection_2">
    <defs>
     <path id="m90c0bbf7a9" d="M 0 -4.472136 
L -4.472136 4.472136 
L 4.472136 4.472136 
z
" style="stroke: #008000"/>
    </defs>
    <g clip-path="url(#p673fd67387)">
     <use xlink:href="#m90c0bbf7a9" x="76.573636" y="46.970739" style="fill: #008000; stroke: #008000"/>
     <use xlink:href="#m90c0bbf7a9" x="143.057727" y="86.91946" style="fill: #008000; stroke: #008000"/>
     <use xlink:href="#m90c0bbf7a9" x="209.541818" y="166.816903" style="fill: #008000; stroke: #008000"/>
     <use xlink:href="#m90c0bbf7a9" x="276.025909" y="134.857926" style="fill: #008000; stroke: #008000"/>
     <use xlink:href="#m90c0bbf7a9" x="342.51" y="206.765625" style="fill: #008000; stroke: #008000"/>
     <use xlink:href="#m90c0bbf7a9" x="408.994091" y="278.673324" style="fill: #008000; stroke: #008000"/>
     <use xlink:href="#m90c0bbf7a9" x="475.478182" y="246.714347" style="fill: #008000; stroke: #008000"/>
     <use xlink:href="#m90c0bbf7a9" x="541.962273" y="326.61179" style="fill: #008000; stroke: #008000"/>
     <use xlink:href="#m90c0bbf7a9" x="608.446364" y="366.560511" style="fill: #008000; stroke: #008000"/>
    </g>
   </g>
   <g id="legend_1">
    <g id="patch_7">
     <path d="M 476.64 89.29125 
L 627.34 89.29125 
Q 629.54 89.29125 629.54 87.09125 
L 629.54 38.69125 
Q 629.54 36.49125 627.34 36.49125 
L 476.64 36.49125 
Q 474.44 36.49125 474.44 38.69125 
L 474.44 87.09125 
Q 474.44 89.29125 476.64 89.29125 
z
" style="fill: #ffffff; opacity: 0.8; stroke: #cccccc; stroke-linejoin: miter"/>
    </g>
    <g id="line2d_17">
     <path d="M 478.84 46.494375 
L 489.84 46.494375 
L 500.84 46.494375 
" style="fill: none; stroke: #1a1a1a; stroke-width: 2; stroke-linecap: round"/>
     <defs>
      <path id="m026017ea69" d="M 0 3 
C 0.795609 3 1.55874 2.683901 2.12132 2.12132 
C 2.683901 1.55874 3 0.795609 3 0 
C 3 -0.795609 2.683901 -1.55874 2.12132 -2.12132 
C 1.55874 -2.683901 0.795609 -3 0 -3 
C -0.795609 -3 -1.55874 -2.683901 -2.12132 -2.12132 
C -2.683901 -1.55874 -3 -0.795609 -3 0 
C -3 0.795609 -2.683901 1.55874 -2.12132 2.12132 
C -1.55874 2.683901 -0.795609 3 0 3 
z
" style="stroke: #1a1a1a"/>
     </defs>
     <g>
      <use xlink:href="#m026017ea69" x="489.84" y="46.494375" style="fill: #1a1a1a; stroke: #1a1a1a"/>
     </g>
    </g>
    <g id="text_20">
     <!-- 参考解 (Direct Solve) -->
     <g style="fill: #262626" transform="translate(509.64 50.344375) scale(0.11 -0.11)">
      <defs>
       <path id="SimHei-3" transform="scale(0.015625)"/>
       <path id="SimHei-b" d="M 2975 -200 
L 2700 -475 
Q 2075 125 1762 775 
Q 1450 1425 1450 2250 
Q 1450 3075 1762 3725 
Q 2075 4375 2700 5000 
L 2975 4725 
Q 2400 4175 2112 3587 
Q 1825 3000 1825 2250 
Q 1825 1500 2112 912 
Q 2400 325 2975 -200 
z
" transform="scale(0.015625)"/>
       <path id="SimHei-27" d="M 2925 2250 
Q 2925 1100 2437 612 
Q 1950 125 1125 125 
L 275 125 
L 275 4400 
L 1125 4400 
Q 2050 4400 2487 3900 
Q 2925 3400 2925 2250 
z
M 2325 2250 
Q 2325 3175 2025 3550 
Q 1725 3925 1125 3925 
L 850 3925 
L 850 600 
L 1125 600 
Q 1725 600 2025 962 
Q 2325 1325 2325 2250 
z
" transform="scale(0.015625)"/>
       <path id="SimHei-4c" d="M 1800 3725 
L 1300 3725 
L 1300 4375 
L 1800 4375 
L 1800 3725 
z
M 1800 125 
L 1300 125 
L 1300 2925 
L 1800 2925 
L 1800 125 
z
" transform="scale(0.015625)"/>
       <path id="SimHei-55" d="M 2500 2425 
Q 2025 2500 1700 2287 
Q 1375 2075 1150 1550 
L 1150 125 
L 650 125 
L 650 2925 
L 1150 2925 
L 1150 2200 
Q 1375 2600 1712 2787 
Q 2050 2975 2500 2975 
L 2500 2425 
z
" transform="scale(0.015625)"/>
       <path id="SimHei-48" d="M 2850 1075 
Q 2800 625 2450 350 
Q 2100 75 1625 75 
Q 1025 75 637 462 
Q 250 850 250 1525 
Q 250 2200 637 2587 
Q 1025 2975 1625 2975 
Q 2150 2975 2487 2637 
Q 2825 2300 2825 1525 
L 800 1525 
Q 800 975 1037 750 
Q 1275 525 1625 525 
Q 1900 525 2075 662 
Q 2250 800 2300 1075 
L 2850 1075 
z
M 2250 1925 
Q 2200 2275 2025 2412 
Q 1850 2550 1575 2550 
Q 1325 2550 1125 2412 
Q 925 2275 825 1925 
L 2250 1925 
z
" transform="scale(0.015625)"/>
       <path id="SimHei-46" d="M 2850 1250 
Q 2850 725 2487 400 
Q 2125 75 1575 75 
Q 1025 75 625 462 
Q 225 850 225 1525 
Q 225 2200 625 2587 
Q 1025 2975 1575 2975 
Q 2125 2975 2450 2687 
Q 2775 2400 2775 2000 
L 2225 2000 
Q 2200 2300 2012 2412 
Q 1825 2525 1575 2525 
Q 1275 2525 1025 2287 
Q 775 2050 775 1525 
Q 775 1000 1025 762 
Q 1275 525 1575 525 
Q 1900 525 2100 700 
Q 2300 875 2300 1250 
L 2850 1250 
z
" transform="scale(0.015625)"/>
       <path id="SimHei-57" d="M 2750 200 
Q 2625 150 2462 112 
Q 2300 75 2025 75 
Q 1575 75 1300 325 
Q 1025 575 1025 1025 
L 1025 2525 
L 175 2525 
L 175 2925 
L 1025 2925 
L 1025 3900 
L 1525 3900 
L 1525 2925 
L 2550 2925 
L 2550 2525 
L 1525 2525 
L 1525 1000 
Q 1525 800 1625 662 
Q 1725 525 2000 525 
Q 2275 525 2450 575 
Q 2625 625 2750 700 
L 2750 200 
z
" transform="scale(0.015625)"/>
       <path id="SimHei-36" d="M 2900 1325 
Q 2900 750 2537 412 
Q 2175 75 1550 75 
Q 925 75 575 425 
Q 225 775 225 1300 
L 225 1475 
L 800 1475 
L 800 1325 
Q 800 950 1025 750 
Q 1250 550 1550 550 
Q 1950 550 2137 762 
Q 2325 975 2325 1275 
Q 2325 1525 2100 1737 
Q 1875 1950 1450 2125 
Q 850 2350 587 2625 
Q 325 2900 325 3275 
Q 325 3800 687 4125 
Q 1050 4450 1550 4450 
Q 2200 4450 2487 4062 
Q 2775 3675 2775 3225 
L 2200 3225 
Q 2225 3500 2050 3725 
Q 1875 3950 1550 3950 
Q 1250 3950 1075 3787 
Q 900 3625 900 3350 
Q 900 3125 1037 2962 
Q 1175 2800 1750 2575 
Q 2300 2350 2600 2037 
Q 2900 1725 2900 1325 
z
" transform="scale(0.015625)"/>
       <path id="SimHei-52" d="M 2925 1525 
Q 2925 875 2525 475 
Q 2125 75 1575 75 
Q 1025 75 625 475 
Q 225 875 225 1525 
Q 225 2175 625 2575 
Q 1025 2975 1575 2975 
Q 2125 2975 2525 2575 
Q 2925 2175 2925 1525 
z
M 2375 1525 
Q 2375 2025 2125 2275 
Q 1875 2525 1575 2525 
Q 1275 2525 1025 2275 
Q 775 2025 775 1525 
Q 775 1025 1025 775 
Q 1275 525 1575 525 
Q 1875 525 2125 775 
Q 2375 1025 2375 1525 
z
" transform="scale(0.015625)"/>
       <path id="SimHei-4f" d="M 1825 125 
L 1325 125 
L 1325 4400 
L 1825 4400 
L 1825 125 
z
" transform="scale(0.015625)"/>
       <path id="SimHei-59" d="M 2875 2925 
L 1825 75 
L 1275 75 
L 225 2925 
L 750 2925 
L 1525 750 
L 1575 750 
L 2350 2925 
L 2875 2925 
z
" transform="scale(0.015625)"/>
       <path id="SimHei-c" d="M 1675 2250 
Q 1675 1425 1362 775 
Q 1050 125 425 -475 
L 150 -200 
Q 725 325 1012 912 
Q 1300 1500 1300 2250 
Q 1300 3000 1012 3587 
Q 725 4175 150 4725 
L 425 5000 
Q 1050 4375 1362 3725 
Q 1675 3075 1675 2250 
z
" transform="scale(0.015625)"/>
      </defs>
      <use xlink:href="#SimHei-9f8"/>
      <use xlink:href="#SimHei-3639" transform="translate(100 0)"/>
      <use xlink:href="#SimHei-4019" transform="translate(200 0)"/>
      <use xlink:href="#SimHei-3" transform="translate(300 0)"/>
      <use xlink:href="#SimHei-b" transform="translate(350 0)"/>
      <use xlink:href="#SimHei-27" transform="translate(400 0)"/>
      <use xlink:href="#SimHei-4c" transform="translate(450 0)"/>
      <use xlink:href="#SimHei-55" transform="translate(500 0)"/>
      <use xlink:href="#SimHei-48" transform="translate(550 0)"/>
      <use xlink:href="#SimHei-46" transform="translate(600 0)"/>
      <use xlink:href="#SimHei-57" transform="translate(650 0)"/>
      <use xlink:href="#SimHei-3" transform="translate(700 0)"/>
      <use xlink:href="#SimHei-36" transform="translate(750 0)"/>
      <use xlink:href="#SimHei-52" transform="translate(800 0)"/>
      <use xlink:href="#SimHei-4f" transform="translate(850 0)"/>
      <use xlink:href="#SimHei-59" transform="translate(900 0)"/>
      <use xlink:href="#SimHei-48" transform="translate(950 0)"/>
      <use xlink:href="#SimHei-c" transform="translate(1000 0)"/>
     </g>
    </g>
    <g id="PathCollection_3">
     <g>
      <use xlink:href="#m95aca6c276" x="489.84" y="63.956875" style="fill: #0000ff; stroke: #0000ff"/>
     </g>
    </g>
    <g id="text_21">
     <!-- Jacobi 数值解 -->
     <g style="fill: #262626" transform="translate(509.64 66.844375) scale(0.11 -0.11)">
      <defs>
       <path id="SimHei-2d" d="M 2800 1550 
Q 2800 775 2462 425 
Q 2125 75 1550 75 
Q 1025 75 675 412 
Q 325 750 325 1500 
L 325 1775 
L 900 1775 
L 900 1425 
Q 900 975 1087 787 
Q 1275 600 1525 600 
Q 1875 600 2050 800 
Q 2225 1000 2225 1525 
L 2225 4400 
L 2800 4400 
L 2800 1550 
z
" transform="scale(0.015625)"/>
       <path id="SimHei-44" d="M 2875 125 
L 2275 125 
Q 2225 175 2200 262 
Q 2175 350 2175 475 
Q 2000 275 1750 175 
Q 1500 75 1225 75 
Q 825 75 550 275 
Q 275 475 275 850 
Q 275 1225 525 1450 
Q 775 1675 1300 1750 
Q 1650 1800 1912 1875 
Q 2175 1950 2175 2075 
Q 2175 2225 2062 2375 
Q 1950 2525 1575 2525 
Q 1275 2525 1137 2412 
Q 1000 2300 950 2100 
L 400 2100 
Q 450 2500 762 2737 
Q 1075 2975 1575 2975 
Q 2125 2975 2400 2725 
Q 2675 2475 2675 2025 
L 2675 650 
Q 2675 500 2725 375 
Q 2775 250 2875 125 
z
M 2175 1050 
L 2175 1550 
Q 2025 1500 1887 1462 
Q 1750 1425 1425 1375 
Q 1050 1325 937 1200 
Q 825 1075 825 900 
Q 825 750 937 637 
Q 1050 525 1275 525 
Q 1500 525 1762 650 
Q 2025 775 2175 1050 
z
" transform="scale(0.015625)"/>
       <path id="SimHei-45" d="M 2825 1525 
Q 2825 800 2475 437 
Q 2125 75 1625 75 
Q 1350 75 1150 175 
Q 950 275 800 500 
L 800 125 
L 300 125 
L 300 4400 
L 800 4400 
L 800 2550 
Q 950 2775 1150 2887 
Q 1350 3000 1625 3000 
Q 2125 3000 2475 2625 
Q 2825 2250 2825 1525 
z
M 2275 1525 
Q 2275 2000 2087 2275 
Q 1900 2550 1525 2550 
Q 1225 2550 1012 2275 
Q 800 2000 800 1525 
Q 800 1050 1012 787 
Q 1225 525 1525 525 
Q 1900 525 2087 787 
Q 2275 1050 2275 1525 
z
" transform="scale(0.015625)"/>
      </defs>
      <use xlink:href="#SimHei-2d"/>
      <use xlink:href="#SimHei-44" transform="translate(50 0)"/>
      <use xlink:href="#SimHei-46" transform="translate(100 0)"/>
      <use xlink:href="#SimHei-52" transform="translate(150 0)"/>
      <use xlink:href="#SimHei-45" transform="translate(200 0)"/>
      <use xlink:href="#SimHei-4c" transform="translate(250 0)"/>
      <use xlink:href="#SimHei-3" transform="translate(300 0)"/>
      <use xlink:href="#SimHei-1ba6" transform="translate(350 0)"/>
      <use xlink:href="#SimHei-672" transform="translate(450 0)"/>
      <use xlink:href="#SimHei-4019" transform="translate(550 0)"/>
     </g>
    </g>
    <g id="PathCollection_4">
     <g>
      <use xlink:href="#m90c0bbf7a9" x="489.84" y="80.456875" style="fill: #008000; stroke: #008000"/>
     </g>
    </g>
    <g id="text_22">
     <!-- G-S 数值解 -->
     <g style="fill: #262626" transform="translate(509.64 83.344375) scale(0.11 -0.11)">
      <defs>
       <path id="SimHei-2a" d="M 2850 75 
L 2425 75 
L 2350 425 
Q 2250 275 2037 175 
Q 1825 75 1575 75 
Q 1050 75 637 562 
Q 225 1050 225 2125 
Q 225 3300 600 3875 
Q 975 4450 1625 4450 
Q 2200 4450 2525 4025 
Q 2850 3600 2850 2925 
L 2300 2925 
Q 2300 3450 2125 3712 
Q 1950 3975 1625 3975 
Q 1225 3975 1025 3562 
Q 825 3150 825 2175 
Q 825 1250 1075 900 
Q 1325 550 1650 550 
Q 1975 550 2162 787 
Q 2350 1025 2350 1525 
L 2350 1800 
L 1575 1800 
L 1575 2275 
L 2850 2275 
L 2850 75 
z
" transform="scale(0.015625)"/>
       <path id="SimHei-10" d="M 2975 2125 
L 125 2125 
L 125 2525 
L 2975 2525 
L 2975 2125 
z
" transform="scale(0.015625)"/>
      </defs>
      <use xlink:href="#SimHei-2a"/>
      <use xlink:href="#SimHei-10" transform="translate(50 0)"/>
      <use xlink:href="#SimHei-36" transform="translate(100 0)"/>
      <use xlink:href="#SimHei-3" transform="translate(150 0)"/>
      <use xlink:href="#SimHei-1ba6" transform="translate(200 0)"/>
      <use xlink:href="#SimHei-672" transform="translate(300 0)"/>
      <use xlink:href="#SimHei-4019" transform="translate(400 0)"/>
     </g>
    </g>
   </g>
   <g id="line2d_18">
    <path d="M 76.573636 46.970739 
L 143.057727 86.91946 
L 209.541818 166.816903 
L 276.025909 134.857926 
L 342.51 206.765625 
L 408.994091 278.673324 
L 475.478182 246.714347 
L 541.962273 326.61179 
L 608.446364 366.560511 
" clip-path="url(#p673fd67387)" style="fill: none; stroke: #1a1a1a; stroke-width: 2; stroke-linecap: round"/>
    <g clip-path="url(#p673fd67387)">
     <use xlink:href="#m026017ea69" x="76.573636" y="46.970739" style="fill: #1a1a1a; stroke: #1a1a1a"/>
     <use xlink:href="#m026017ea69" x="143.057727" y="86.91946" style="fill: #1a1a1a; stroke: #1a1a1a"/>
     <use xlink:href="#m026017ea69" x="209.541818" y="166.816903" style="fill: #1a1a1a; stroke: #1a1a1a"/>
     <use xlink:href="#m026017ea69" x="276.025909" y="134.857926" style="fill: #1a1a1a; stroke: #1a1a1a"/>
     <use xlink:href="#m026017ea69" x="342.51" y="206.765625" style="fill: #1a1a1a; stroke: #1a1a1a"/>
     <use xlink:href="#m026017ea69" x="408.994091" y="278.673324" style="fill: #1a1a1a; stroke: #1a1a1a"/>
     <use xlink:href="#m026017ea69" x="475.478182" y="246.714347" style="fill: #1a1a1a; stroke: #1a1a1a"/>
     <use xlink:href="#m026017ea69" x="541.962273" y="326.61179" style="fill: #1a1a1a; stroke: #1a1a1a"/>
     <use xlink:href="#m026017ea69" x="608.446364" y="366.560511" style="fill: #1a1a1a; stroke: #1a1a1a"/>
    </g>
   </g>
  </g>
 </g>
 <defs>
  <clipPath id="p673fd67387">
   <rect x="49.98" y="30.99125" width="585.06" height="351.54875"/>
  </clipPath>
 </defs>
</svg>
