<?xml version="1.0" encoding="utf-8" standalone="no"?>
<!DOCTYPE svg PUBLIC "-//W3C//DTD SVG 1.1//EN"
  "http://www.w3.org/Graphics/SVG/1.1/DTD/svg11.dtd">
<svg xmlns:xlink="http://www.w3.org/1999/xlink" width="648pt" height="432pt" viewBox="0 0 648 432" xmlns="http://www.w3.org/2000/svg" version="1.1">
 <metadata>
  <rdf:RDF xmlns:dc="http://purl.org/dc/elements/1.1/" xmlns:cc="http://creativecommons.org/ns#" xmlns:rdf="http://www.w3.org/1999/02/22-rdf-syntax-ns#">
   <cc:Work>
    <dc:type rdf:resource="http://purl.org/dc/dcmitype/StillImage"/>
    <dc:date>2026-07-07T11:21:39.660676</dc:date>
    <dc:format>image/svg+xml</dc:format>
    <dc:creator>
     <cc:Agent>
      <dc:title>Matplotlib v3.11.0, https://matplotlib.org/</dc:title>
     </cc:Agent>
    </dc:creator>
   </cc:Work>
  </rdf:RDF>
 </metadata>
 <defs>
  <style type="text/css">*{stroke-linejoin: round; stroke-linecap: butt}</style>
 </defs>
 <g id="figure_1">
  <g id="patch_1">
   <path d="M 0 432 
L 648 432 
L 648 0 
L 0 0 
z
" style="fill: #ffffff"/>
  </g>
  <g id="axes_1">
   <g id="patch_2">
    <path d="M 57.9 382.54 
L 631.664939 382.54 
L 631.664939 30.99125 
L 57.9 30.99125 
z
" style="fill: #ffffff"/>
   </g>
   <g id="matplotlib.axis_1">
    <g id="xtick_1">
     <g id="line2d_1">
      <path d="M 83.980224 382.54 
L 83.980224 30.99125 
" clip-path="url(#pf31d2a91f6)" style="fill: none; stroke: #cccccc; stroke-opacity: 0.5; stroke-linecap: round"/>
     </g>
     <g id="text_1">
      <!-- 0 -->
      <g style="fill: #262626" transform="translate(81.230224 401.493125) scale(0.11 -0.11)">
       <defs>
        <path id="SimHei-13" d="M 225 2537 
Q 250 3200 412 3587 
Q 575 3975 875 4225 
Q 1175 4475 1612 4475 
Q 2050 4475 2375 4112 
Q 2700 3750 2800 3200 
Q 2900 2650 2862 1937 
Q 2825 1225 2612 775 
Q 2400 325 1975 150 
Q 1550 -25 1125 187 
Q 700 400 525 750 
Q 350 1100 275 1487 
Q 200 1875 225 2537 
z
M 750 2687 
Q 675 2000 800 1462 
Q 925 925 1212 700 
Q 1500 475 1800 612 
Q 2100 750 2237 1162 
Q 2375 1575 2375 2062 
Q 2375 2550 2337 2950 
Q 2300 3350 2112 3675 
Q 1925 4000 1612 4012 
Q 1300 4025 1062 3700 
Q 825 3375 750 2687 
z
" transform="scale(0.015625)"/>
       </defs>
       <use xlink:href="#SimHei-13"/>
      </g>
     </g>
    </g>
    <g id="xtick_2">
     <g id="line2d_2">
      <path d="M 161.831641 382.54 
L 161.831641 30.99125 
" clip-path="url(#pf31d2a91f6)" style="fill: none; stroke: #cccccc; stroke-opacity: 0.5; stroke-linecap: round"/>
     </g>
     <g id="text_2">
      <!-- 10 -->
      <g style="fill: #262626" transform="translate(156.331641 401.493125) scale(0.11 -0.11)">
       <defs>
        <path id="SimHei-14" d="M 1400 3600 
Q 1075 3275 575 2975 
L 575 3450 
Q 1200 3875 1600 4450 
L 1900 4450 
L 1900 150 
L 1400 150 
L 1400 3600 
z
" transform="scale(0.015625)"/>
       </defs>
       <use xlink:href="#SimHei-14"/>
       <use xlink:href="#SimHei-13" transform="translate(50 0)"/>
      </g>
     </g>
    </g>
    <g id="xtick_3">
     <g id="line2d_3">
      <path d="M 239.683057 382.54 
L 239.683057 30.99125 
" clip-path="url(#pf31d2a91f6)" style="fill: none; stroke: #cccccc; stroke-opacity: 0.5; stroke-linecap: round"/>
     </g>
     <g id="text_3">
      <!-- 20 -->
      <g style="fill: #262626" transform="translate(234.183057 401.493125) scale(0.11 -0.11)">
       <defs>
        <path id="SimHei-15" d="M 300 250 
Q 325 625 650 925 
Q 975 1225 1475 1862 
Q 1975 2500 2125 2850 
Q 2275 3200 2237 3450 
Q 2200 3700 2000 3862 
Q 1800 4025 1537 4000 
Q 1275 3975 1037 3800 
Q 800 3625 675 3275 
L 200 3350 
Q 400 3925 712 4187 
Q 1025 4450 1450 4475 
Q 1700 4500 1900 4462 
Q 2100 4425 2312 4287 
Q 2525 4150 2662 3875 
Q 2800 3600 2762 3212 
Q 2725 2825 2375 2287 
Q 2025 1750 1025 600 
L 2825 600 
L 2825 150 
L 300 150 
L 300 250 
z
" transform="scale(0.015625)"/>
       </defs>
       <use xlink:href="#SimHei-15"/>
       <use xlink:href="#SimHei-13" transform="translate(50 0)"/>
      </g>
     </g>
    </g>
    <g id="xtick_4">
     <g id="line2d_4">
      <path d="M 317.534474 382.54 
L 317.534474 30.99125 
" clip-path="url(#pf31d2a91f6)" style="fill: none; stroke: #cccccc; stroke-opacity: 0.5; stroke-linecap: round"/>
     </g>
     <g id="text_4">
      <!-- 30 -->
      <g style="fill: #262626" transform="translate(312.034474 401.493125) scale(0.11 -0.11)">
       <defs>
        <path id="SimHei-16" d="M 250 1225 
L 700 1300 
Q 800 975 1025 762 
Q 1250 550 1587 562 
Q 1925 575 2125 837 
Q 2325 1100 2300 1437 
Q 2275 1775 2037 1962 
Q 1800 2150 1275 2225 
L 1275 2550 
Q 1800 2600 2037 2825 
Q 2275 3050 2250 3412 
Q 2225 3775 1925 3937 
Q 1625 4100 1287 3975 
Q 950 3850 750 3275 
L 300 3350 
Q 450 3800 712 4100 
Q 975 4400 1425 4450 
Q 1875 4500 2212 4337 
Q 2550 4175 2687 3837 
Q 2825 3500 2725 3100 
Q 2625 2700 2150 2400 
Q 2500 2250 2687 1950 
Q 2875 1650 2812 1162 
Q 2750 675 2375 375 
Q 2000 75 1525 87 
Q 1050 100 700 387 
Q 350 675 250 1225 
z
" transform="scale(0.015625)"/>
       </defs>
       <use xlink:href="#SimHei-16"/>
       <use xlink:href="#SimHei-13" transform="translate(50 0)"/>
      </g>
     </g>
    </g>
    <g id="xtick_5">
     <g id="line2d_5">
      <path d="M 395.38589 382.54 
L 395.38589 30.99125 
" clip-path="url(#pf31d2a91f6)" style="fill: none; stroke: #cccccc; stroke-opacity: 0.5; stroke-linecap: round"/>
     </g>
     <g id="text_5">
      <!-- 40 -->
      <g style="fill: #262626" transform="translate(389.88589 401.493125) scale(0.11 -0.11)">
       <defs>
        <path id="SimHei-17" d="M 2000 1100 
L 75 1100 
L 75 1525 
L 2100 4450 
L 2475 4450 
L 2475 1525 
L 3075 1525 
L 3075 1100 
L 2475 1100 
L 2475 150 
L 2000 150 
L 2000 1100 
z
M 2000 1525 
L 2000 3500 
L 600 1525 
L 2000 1525 
z
" transform="scale(0.015625)"/>
       </defs>
       <use xlink:href="#SimHei-17"/>
       <use xlink:href="#SimHei-13" transform="translate(50 0)"/>
      </g>
     </g>
    </g>
    <g id="xtick_6">
     <g id="line2d_6">
      <path d="M 473.237307 382.54 
L 473.237307 30.99125 
" clip-path="url(#pf31d2a91f6)" style="fill: none; stroke: #cccccc; stroke-opacity: 0.5; stroke-linecap: round"/>
     </g>
     <g id="text_6">
      <!-- 50 -->
      <g style="fill: #262626" transform="translate(467.737307 401.493125) scale(0.11 -0.11)">
       <defs>
        <path id="SimHei-18" d="M 550 1325 
Q 725 650 1150 575 
Q 1575 500 1837 662 
Q 2100 825 2212 1087 
Q 2325 1350 2312 1675 
Q 2300 2000 2137 2225 
Q 1975 2450 1725 2525 
Q 1475 2600 1162 2525 
Q 850 2450 650 2175 
L 225 2225 
Q 275 2375 700 4375 
L 2675 4375 
L 2675 3925 
L 1075 3925 
Q 950 3250 825 2850 
Q 1200 3025 1525 3012 
Q 1850 3000 2150 2862 
Q 2450 2725 2587 2487 
Q 2725 2250 2787 2012 
Q 2850 1775 2837 1500 
Q 2825 1225 2725 937 
Q 2625 650 2425 462 
Q 2225 275 1937 162 
Q 1650 50 1275 75 
Q 900 100 562 350 
Q 225 600 100 1200 
L 550 1325 
z
" transform="scale(0.015625)"/>
       </defs>
       <use xlink:href="#SimHei-18"/>
       <use xlink:href="#SimHei-13" transform="translate(50 0)"/>
      </g>
     </g>
    </g>
    <g id="xtick_7">
     <g id="line2d_7">
      <path d="M 551.088723 382.54 
L 551.088723 30.99125 
" clip-path="url(#pf31d2a91f6)" style="fill: none; stroke: #cccccc; stroke-opacity: 0.5; stroke-linecap: round"/>
     </g>
     <g id="text_7">
      <!-- 60 -->
      <g style="fill: #262626" transform="translate(545.588723 401.493125) scale(0.11 -0.11)">
       <defs>
        <path id="SimHei-19" d="M 250 1612 
Q 275 1975 387 2225 
Q 500 2475 725 2850 
L 1750 4450 
L 2325 4450 
L 1275 2800 
Q 1950 2975 2350 2750 
Q 2750 2525 2887 2237 
Q 3025 1950 3037 1612 
Q 3050 1275 2937 950 
Q 2825 625 2537 362 
Q 2250 100 1737 75 
Q 1225 50 862 262 
Q 500 475 362 862 
Q 225 1250 250 1612 
z
M 1025 787 
Q 1250 550 1625 525 
Q 2000 500 2250 775 
Q 2500 1050 2500 1575 
Q 2500 2100 2187 2300 
Q 1875 2500 1487 2450 
Q 1100 2400 925 2075 
Q 750 1750 775 1387 
Q 800 1025 1025 787 
z
" transform="scale(0.015625)"/>
       </defs>
       <use xlink:href="#SimHei-19"/>
       <use xlink:href="#SimHei-13" transform="translate(50 0)"/>
      </g>
     </g>
    </g>
    <g id="xtick_8">
     <g id="line2d_8">
      <path d="M 628.940139 382.54 
L 628.940139 30.99125 
" clip-path="url(#pf31d2a91f6)" style="fill: none; stroke: #cccccc; stroke-opacity: 0.5; stroke-linecap: round"/>
     </g>
     <g id="text_8">
      <!-- 70 -->
      <g style="fill: #262626" transform="translate(623.440139 401.493125) scale(0.11 -0.11)">
       <defs>
        <path id="SimHei-1a" d="M 850 150 
Q 1300 2050 2425 3925 
L 275 3925 
L 275 4375 
L 2950 4375 
L 2950 3950 
Q 1775 2050 1400 150 
L 850 150 
z
" transform="scale(0.015625)"/>
       </defs>
       <use xlink:href="#SimHei-1a"/>
       <use xlink:href="#SimHei-13" transform="translate(50 0)"/>
      </g>
     </g>
    </g>
    <g id="text_9">
     <!-- 迭代步数 (Iterations) -->
     <g style="fill: #262626" transform="translate(281.782469 417.3525) scale(0.12 -0.12)">
      <defs>
       <path id="SimHei-4623" d="M 3900 1875 
Q 3600 1350 3287 1012 
Q 2975 675 2450 275 
Q 2350 475 2025 700 
Q 2600 975 3012 1425 
Q 3425 1875 3600 2450 
Q 2350 2450 1950 2425 
L 1950 2900 
Q 2375 2875 3675 2875 
Q 3725 3250 3750 3775 
L 2800 3775 
Q 2675 3450 2550 3175 
Q 2300 3300 2075 3350 
Q 2275 3675 2425 4112 
Q 2575 4550 2700 5100 
Q 2850 5000 3225 4925 
Q 3075 4725 2950 4200 
L 3750 4200 
Q 3750 4850 3700 5250 
L 4275 5225 
Q 4225 4925 4200 4200 
L 4950 4200 
Q 5175 4200 5575 4225 
L 5575 3725 
Q 5175 3775 4875 3775 
L 4200 3775 
Q 4175 3250 4125 2875 
L 5150 2875 
Q 5475 2875 5925 2900 
L 5925 2425 
Q 5475 2450 5075 2450 
L 4100 2450 
L 4050 2300 
Q 4650 1775 5725 700 
Q 5600 650 5275 300 
Q 4775 975 3900 1875 
z
M 1550 2950 
L 1550 625 
Q 2200 -25 3712 -12 
Q 5225 0 6125 100 
Q 5950 -225 5900 -475 
L 3575 -475 
Q 2975 -475 2525 -387 
Q 2075 -300 1725 -50 
Q 1375 200 1162 12 
Q 950 -175 650 -550 
Q 500 -350 250 -175 
Q 775 275 1075 575 
L 1075 2525 
Q 750 2525 350 2500 
L 350 2975 
Q 775 2950 1075 2950 
L 1550 2950 
z
M 1125 5025 
Q 1525 4275 1675 3900 
Q 1450 3875 1175 3650 
Q 950 4275 650 4750 
Q 900 4850 1125 5025 
z
" transform="scale(0.015625)"/>
       <path id="SimHei-519" d="M 3300 2950 
Q 3175 4575 3150 5100 
Q 3300 5075 3725 5025 
Q 3675 4725 3800 3050 
Q 5000 3275 5650 3475 
L 5775 3000 
Q 5500 2975 3850 2625 
Q 4150 1050 4737 450 
Q 5325 -150 5412 125 
Q 5500 400 5525 725 
Q 5800 550 6075 500 
Q 5900 -200 5737 -425 
Q 5575 -650 5137 -500 
Q 4700 -350 4187 300 
Q 3675 950 3350 2525 
Q 2400 2325 2175 2250 
L 2025 2725 
Q 2425 2775 3300 2950 
z
M 2250 4975 
Q 2100 4725 1700 3650 
L 1700 475 
Q 1700 -50 1725 -600 
L 1200 -600 
Q 1225 -50 1225 475 
L 1225 2750 
Q 850 2150 600 1850 
Q 450 2050 225 2225 
Q 625 2600 1050 3425 
Q 1475 4250 1675 5200 
Q 2050 5025 2250 4975 
z
M 4700 4875 
Q 5150 4325 5325 4050 
Q 5100 3900 4875 3725 
Q 4650 4150 4300 4575 
Q 4500 4700 4700 4875 
z
" transform="scale(0.015625)"/>
       <path id="SimHei-219b" d="M 4800 4250 
Q 5150 4250 5550 4275 
L 5550 3825 
Q 5150 3850 4800 3850 
L 3700 3850 
L 3700 3000 
L 5125 3000 
Q 5675 3000 6100 3025 
L 6100 2550 
Q 5675 2575 5125 2575 
L 1475 2575 
Q 1050 2575 475 2525 
L 475 3025 
Q 1050 3000 1475 3000 
L 1725 3000 
L 1725 3775 
Q 1725 4225 1700 4500 
L 2225 4500 
Q 2200 4175 2200 3775 
L 2200 3000 
L 3225 3000 
Q 3225 4750 3200 5100 
L 3725 5100 
Q 3700 4750 3700 4250 
L 4800 4250 
z
M 3725 2400 
Q 3700 1975 3700 1600 
L 3700 450 
Q 4250 750 4725 1225 
Q 5200 1700 5400 2050 
Q 5650 1825 5900 1700 
Q 5675 1475 5362 1150 
Q 5050 825 4537 437 
Q 4025 50 3212 -225 
Q 2400 -500 800 -650 
Q 725 -400 500 -150 
Q 1275 -150 2100 -25 
Q 2925 100 3225 275 
L 3225 1600 
Q 3225 1975 3200 2400 
L 3725 2400 
z
M 2600 1875 
Q 2275 1600 1975 1275 
Q 1675 950 1075 400 
Q 875 600 700 725 
Q 1175 1075 1562 1512 
Q 1950 1950 2125 2200 
Q 2325 2025 2600 1875 
z
" transform="scale(0.015625)"/>
       <path id="SimHei-1ba6" d="M 4525 4925 
Q 4475 4800 4400 4587 
Q 4325 4375 4175 3825 
L 5325 3825 
Q 5575 3825 5925 3850 
L 5925 3400 
Q 5650 3425 5500 3425 
Q 5500 3025 5362 2162 
Q 5225 1300 4875 675 
Q 5125 375 5437 137 
Q 5750 -100 6025 -200 
Q 5725 -425 5625 -625 
Q 5325 -450 5075 -225 
Q 4825 0 4575 325 
Q 4300 25 3987 -187 
Q 3675 -400 3200 -650 
Q 3075 -425 2850 -300 
Q 3225 -150 3650 125 
Q 4075 400 4300 675 
Q 4125 1025 3962 1425 
Q 3800 1825 3675 2475 
Q 3600 2275 3425 1950 
Q 3250 2050 3000 2150 
Q 3400 2850 3650 3675 
Q 3900 4500 3975 5100 
Q 4275 4975 4525 4925 
z
M 2100 2250 
Q 2000 2150 1875 1925 
L 3250 1925 
Q 3100 1300 2725 675 
Q 3125 525 3350 400 
Q 3225 225 3125 25 
Q 2900 175 2450 325 
Q 1950 -225 725 -650 
Q 600 -375 400 -275 
Q 1575 0 2000 475 
Q 1300 650 850 775 
Q 1000 1000 1250 1525 
Q 1000 1525 425 1500 
L 425 1950 
Q 900 1925 1400 1925 
Q 1500 2150 1550 2425 
Q 1825 2325 2100 2250 
z
M 1775 3950 
Q 1775 4550 1750 5100 
L 2250 5100 
Q 2225 4575 2225 3950 
Q 3075 3950 3425 3975 
L 3425 3525 
Q 3075 3550 2225 3550 
Q 2225 2825 2250 2425 
L 1750 2425 
Q 1775 2775 1775 3300 
Q 1650 3100 1300 2787 
Q 950 2475 650 2300 
Q 525 2525 275 2625 
Q 500 2700 875 2975 
Q 1250 3250 1450 3550 
Q 950 3550 500 3525 
L 500 3975 
Q 925 3950 1775 3950 
z
M 3975 3175 
Q 4200 1700 4600 1125 
Q 4850 1700 4937 2287 
Q 5025 2875 5050 3425 
L 4075 3425 
L 3975 3175 
z
M 1450 1000 
Q 1750 925 2275 800 
Q 2475 1050 2650 1525 
L 1725 1525 
Q 1600 1275 1450 1000 
z
M 3325 4825 
Q 3200 4625 3125 4450 
Q 3050 4275 2925 4025 
Q 2725 4125 2525 4175 
Q 2725 4500 2900 5000 
Q 3150 4875 3325 4825 
z
M 2575 3375 
Q 2900 3050 3200 2725 
Q 3050 2600 2875 2425 
Q 2525 2850 2300 3100 
Q 2450 3225 2575 3375 
z
M 925 5000 
Q 1275 4650 1500 4300 
L 1125 4075 
Q 950 4425 600 4725 
Q 825 4875 925 5000 
z
" transform="scale(0.015625)"/>
       <path id="SimHei-3" transform="scale(0.015625)"/>
       <path id="SimHei-b" d="M 2975 -200 
L 2700 -475 
Q 2075 125 1762 775 
Q 1450 1425 1450 2250 
Q 1450 3075 1762 3725 
Q 2075 4375 2700 5000 
L 2975 4725 
Q 2400 4175 2112 3587 
Q 1825 3000 1825 2250 
Q 1825 1500 2112 912 
Q 2400 325 2975 -200 
z
" transform="scale(0.015625)"/>
       <path id="SimHei-2c" d="M 1850 125 
L 1275 125 
L 1275 4400 
L 1850 4400 
L 1850 125 
z
" transform="scale(0.015625)"/>
       <path id="SimHei-57" d="M 2750 200 
Q 2625 150 2462 112 
Q 2300 75 2025 75 
Q 1575 75 1300 325 
Q 1025 575 1025 1025 
L 1025 2525 
L 175 2525 
L 175 2925 
L 1025 2925 
L 1025 3900 
L 1525 3900 
L 1525 2925 
L 2550 2925 
L 2550 2525 
L 1525 2525 
L 1525 1000 
Q 1525 800 1625 662 
Q 1725 525 2000 525 
Q 2275 525 2450 575 
Q 2625 625 2750 700 
L 2750 200 
z
" transform="scale(0.015625)"/>
       <path id="SimHei-48" d="M 2850 1075 
Q 2800 625 2450 350 
Q 2100 75 1625 75 
Q 1025 75 637 462 
Q 250 850 250 1525 
Q 250 2200 637 2587 
Q 1025 2975 1625 2975 
Q 2150 2975 2487 2637 
Q 2825 2300 2825 1525 
L 800 1525 
Q 800 975 1037 750 
Q 1275 525 1625 525 
Q 1900 525 2075 662 
Q 2250 800 2300 1075 
L 2850 1075 
z
M 2250 1925 
Q 2200 2275 2025 2412 
Q 1850 2550 1575 2550 
Q 1325 2550 1125 2412 
Q 925 2275 825 1925 
L 2250 1925 
z
" transform="scale(0.015625)"/>
       <path id="SimHei-55" d="M 2500 2425 
Q 2025 2500 1700 2287 
Q 1375 2075 1150 1550 
L 1150 125 
L 650 125 
L 650 2925 
L 1150 2925 
L 1150 2200 
Q 1375 2600 1712 2787 
Q 2050 2975 2500 2975 
L 2500 2425 
z
" transform="scale(0.015625)"/>
       <path id="SimHei-44" d="M 2875 125 
L 2275 125 
Q 2225 175 2200 262 
Q 2175 350 2175 475 
Q 2000 275 1750 175 
Q 1500 75 1225 75 
Q 825 75 550 275 
Q 275 475 275 850 
Q 275 1225 525 1450 
Q 775 1675 1300 1750 
Q 1650 1800 1912 1875 
Q 2175 1950 2175 2075 
Q 2175 2225 2062 2375 
Q 1950 2525 1575 2525 
Q 1275 2525 1137 2412 
Q 1000 2300 950 2100 
L 400 2100 
Q 450 2500 762 2737 
Q 1075 2975 1575 2975 
Q 2125 2975 2400 2725 
Q 2675 2475 2675 2025 
L 2675 650 
Q 2675 500 2725 375 
Q 2775 250 2875 125 
z
M 2175 1050 
L 2175 1550 
Q 2025 1500 1887 1462 
Q 1750 1425 1425 1375 
Q 1050 1325 937 1200 
Q 825 1075 825 900 
Q 825 750 937 637 
Q 1050 525 1275 525 
Q 1500 525 1762 650 
Q 2025 775 2175 1050 
z
" transform="scale(0.015625)"/>
       <path id="SimHei-4c" d="M 1800 3725 
L 1300 3725 
L 1300 4375 
L 1800 4375 
L 1800 3725 
z
M 1800 125 
L 1300 125 
L 1300 2925 
L 1800 2925 
L 1800 125 
z
" transform="scale(0.015625)"/>
       <path id="SimHei-52" d="M 2925 1525 
Q 2925 875 2525 475 
Q 2125 75 1575 75 
Q 1025 75 625 475 
Q 225 875 225 1525 
Q 225 2175 625 2575 
Q 1025 2975 1575 2975 
Q 2125 2975 2525 2575 
Q 2925 2175 2925 1525 
z
M 2375 1525 
Q 2375 2025 2125 2275 
Q 1875 2525 1575 2525 
Q 1275 2525 1025 2275 
Q 775 2025 775 1525 
Q 775 1025 1025 775 
Q 1275 525 1575 525 
Q 1875 525 2125 775 
Q 2375 1025 2375 1525 
z
" transform="scale(0.015625)"/>
       <path id="SimHei-51" d="M 2800 125 
L 2300 125 
L 2300 1925 
Q 2300 2225 2150 2400 
Q 2000 2575 1750 2575 
Q 1425 2575 1137 2237 
Q 850 1900 850 1400 
L 850 125 
L 350 125 
L 350 2925 
L 850 2925 
L 850 2400 
Q 1050 2675 1287 2825 
Q 1525 2975 1900 2975 
Q 2350 2975 2575 2725 
Q 2800 2475 2800 2100 
L 2800 125 
z
" transform="scale(0.015625)"/>
       <path id="SimHei-56" d="M 2750 900 
Q 2750 500 2437 287 
Q 2125 75 1650 75 
Q 1050 75 725 312 
Q 400 550 400 1000 
L 900 1000 
Q 900 700 1112 600 
Q 1325 500 1625 500 
Q 1925 500 2075 612 
Q 2225 725 2225 900 
Q 2225 1025 2100 1150 
Q 1975 1275 1475 1350 
Q 900 1425 687 1637 
Q 475 1850 475 2200 
Q 475 2500 762 2737 
Q 1050 2975 1600 2975 
Q 2100 2975 2387 2750 
Q 2675 2525 2675 2150 
L 2175 2150 
Q 2175 2375 2012 2462 
Q 1850 2550 1600 2550 
Q 1275 2550 1137 2437 
Q 1000 2325 1000 2175 
Q 1000 2000 1125 1900 
Q 1250 1800 1650 1750 
Q 2300 1650 2525 1437 
Q 2750 1225 2750 900 
z
" transform="scale(0.015625)"/>
       <path id="SimHei-c" d="M 1675 2250 
Q 1675 1425 1362 775 
Q 1050 125 425 -475 
L 150 -200 
Q 725 325 1012 912 
Q 1300 1500 1300 2250 
Q 1300 3000 1012 3587 
Q 725 4175 150 4725 
L 425 5000 
Q 1050 4375 1362 3725 
Q 1675 3075 1675 2250 
z
" transform="scale(0.015625)"/>
      </defs>
      <use xlink:href="#SimHei-4623"/>
      <use xlink:href="#SimHei-519" transform="translate(100 0)"/>
      <use xlink:href="#SimHei-219b" transform="translate(200 0)"/>
      <use xlink:href="#SimHei-1ba6" transform="translate(300 0)"/>
      <use xlink:href="#SimHei-3" transform="translate(400 0)"/>
      <use xlink:href="#SimHei-b" transform="translate(450 0)"/>
      <use xlink:href="#SimHei-2c" transform="translate(500 0)"/>
      <use xlink:href="#SimHei-57" transform="translate(550 0)"/>
      <use xlink:href="#SimHei-48" transform="translate(600 0)"/>
      <use xlink:href="#SimHei-55" transform="translate(650 0)"/>
      <use xlink:href="#SimHei-44" transform="translate(700 0)"/>
      <use xlink:href="#SimHei-57" transform="translate(750 0)"/>
      <use xlink:href="#SimHei-4c" transform="translate(800 0)"/>
      <use xlink:href="#SimHei-52" transform="translate(850 0)"/>
      <use xlink:href="#SimHei-51" transform="translate(900 0)"/>
      <use xlink:href="#SimHei-56" transform="translate(950 0)"/>
      <use xlink:href="#SimHei-c" transform="translate(1000 0)"/>
     </g>
    </g>
   </g>
   <g id="matplotlib.axis_2">
    <g id="ytick_1">
     <g id="line2d_9">
      <path d="M 57.9 361.153611 
L 631.664939 361.153611 
" clip-path="url(#pf31d2a91f6)" style="fill: none; stroke: #cccccc; stroke-opacity: 0.5; stroke-linecap: round"/>
     </g>
     <g id="text_10">
      <!-- $\mathdefault{10^{-8}}$ -->
      <g style="fill: #262626" transform="translate(29.26 366.103611) scale(0.11 -0.11)">
       <defs>
        <path id="STIXGeneral-Regular-66" d="M 3341 256 
L 3034 -64 
L 2406 563 
Q 2029 301 1606 301 
Q 1171 301 794 563 
L 179 -64 
L -141 256 
L 486 870 
Q 224 1248 224 1677 
Q 224 2118 486 2483 
L -141 3110 
L 179 3418 
L 794 2803 
Q 1184 3053 1606 3053 
Q 2048 3053 2406 2803 
L 3034 3418 
L 3341 3110 
L 2726 2483 
Q 2976 2112 2976 1683 
Q 2976 1261 2726 870 
L 3341 256 
z
M 2541 1690 
Q 2541 2086 2265 2364 
Q 1990 2643 1594 2643 
Q 1210 2643 934 2361 
Q 659 2080 659 1683 
Q 659 1280 937 995 
Q 1216 710 1606 710 
Q 2003 710 2272 995 
Q 2541 1280 2541 1690 
z
" transform="scale(0.015625)"/>
        <path id="SimHei-1b" d="M 175 1375 
Q 175 1675 325 1962 
Q 475 2250 825 2425 
Q 525 2600 425 2812 
Q 325 3025 312 3300 
Q 300 3575 387 3775 
Q 475 3975 650 4150 
Q 825 4325 1037 4387 
Q 1250 4450 1500 4450 
Q 1750 4450 1950 4400 
Q 2150 4350 2375 4187 
Q 2600 4025 2700 3725 
Q 2800 3425 2687 3025 
Q 2575 2625 2100 2400 
Q 2525 2275 2700 2012 
Q 2875 1750 2875 1375 
Q 2875 1000 2762 775 
Q 2650 550 2512 400 
Q 2375 250 2137 162 
Q 1900 75 1537 75 
Q 1175 75 912 162 
Q 650 250 475 425 
Q 300 600 237 837 
Q 175 1075 175 1375 
z
M 687 1400 
Q 675 1100 787 875 
Q 900 650 1200 587 
Q 1500 525 1825 600 
Q 2150 675 2275 950 
Q 2400 1225 2362 1500 
Q 2325 1775 2050 1962 
Q 1775 2150 1450 2125 
Q 1125 2100 912 1900 
Q 700 1700 687 1400 
z
M 775 3350 
Q 775 3100 950 2875 
Q 1125 2650 1500 2650 
Q 1875 2650 2062 2875 
Q 2250 3100 2237 3412 
Q 2225 3725 2012 3875 
Q 1800 4025 1437 4000 
Q 1075 3975 925 3787 
Q 775 3600 775 3350 
z
" transform="scale(0.015625)"/>
       </defs>
       <use xlink:href="#SimHei-14" transform="translate(0 0.028125)"/>
       <use xlink:href="#SimHei-13" transform="translate(50 0.028125)"/>
       <use xlink:href="#STIXGeneral-Regular-66" transform="translate(100.957031 41.328125) scale(0.7)"/>
       <use xlink:href="#SimHei-1b" transform="translate(135.956999 41.328125) scale(0.7)"/>
      </g>
     </g>
    </g>
    <g id="ytick_2">
     <g id="line2d_10">
      <path d="M 57.9 300.10489 
L 631.664939 300.10489 
" clip-path="url(#pf31d2a91f6)" style="fill: none; stroke: #cccccc; stroke-opacity: 0.5; stroke-linecap: round"/>
     </g>
     <g id="text_11">
      <!-- $\mathdefault{10^{-6}}$ -->
      <g style="fill: #262626" transform="translate(29.26 305.05489) scale(0.11 -0.11)">
       <use xlink:href="#SimHei-14" transform="translate(0 0.028125)"/>
       <use xlink:href="#SimHei-13" transform="translate(50 0.028125)"/>
       <use xlink:href="#STIXGeneral-Regular-66" transform="translate(100.957031 41.328125) scale(0.7)"/>
       <use xlink:href="#SimHei-19" transform="translate(135.956999 41.328125) scale(0.7)"/>
      </g>
     </g>
    </g>
    <g id="ytick_3">
     <g id="line2d_11">
      <path d="M 57.9 239.056169 
L 631.664939 239.056169 
" clip-path="url(#pf31d2a91f6)" style="fill: none; stroke: #cccccc; stroke-opacity: 0.5; stroke-linecap: round"/>
     </g>
     <g id="text_12">
      <!-- $\mathdefault{10^{-4}}$ -->
      <g style="fill: #262626" transform="translate(29.26 244.006169) scale(0.11 -0.11)">
       <use xlink:href="#SimHei-14" transform="translate(0 0.028125)"/>
       <use xlink:href="#SimHei-13" transform="translate(50 0.028125)"/>
       <use xlink:href="#STIXGeneral-Regular-66" transform="translate(100.957031 41.328125) scale(0.7)"/>
       <use xlink:href="#SimHei-17" transform="translate(135.956999 41.328125) scale(0.7)"/>
      </g>
     </g>
    </g>
    <g id="ytick_4">
     <g id="line2d_12">
      <path d="M 57.9 178.007448 
L 631.664939 178.007448 
" clip-path="url(#pf31d2a91f6)" style="fill: none; stroke: #cccccc; stroke-opacity: 0.5; stroke-linecap: round"/>
     </g>
     <g id="text_13">
      <!-- $\mathdefault{10^{-2}}$ -->
      <g style="fill: #262626" transform="translate(29.26 183.012448) scale(0.11 -0.11)">
       <use xlink:href="#SimHei-14" transform="translate(0 0.48125)"/>
       <use xlink:href="#SimHei-13" transform="translate(50 0.48125)"/>
       <use xlink:href="#STIXGeneral-Regular-66" transform="translate(100.957031 41.78125) scale(0.7)"/>
       <use xlink:href="#SimHei-15" transform="translate(135.956999 41.78125) scale(0.7)"/>
      </g>
     </g>
    </g>
    <g id="ytick_5">
     <g id="line2d_13">
      <path d="M 57.9 116.958727 
L 631.664939 116.958727 
" clip-path="url(#pf31d2a91f6)" style="fill: none; stroke: #cccccc; stroke-opacity: 0.5; stroke-linecap: round"/>
     </g>
     <g id="text_14">
      <!-- $\mathdefault{10^{0}}$ -->
      <g style="fill: #262626" transform="translate(33.11 121.963727) scale(0.11 -0.11)">
       <use xlink:href="#SimHei-14" transform="translate(0 0.754688)"/>
       <use xlink:href="#SimHei-13" transform="translate(50 0.754688)"/>
       <use xlink:href="#SimHei-13" transform="translate(100.957031 42.054688) scale(0.7)"/>
      </g>
     </g>
    </g>
    <g id="ytick_6">
     <g id="line2d_14">
      <path d="M 57.9 55.910005 
L 631.664939 55.910005 
" clip-path="url(#pf31d2a91f6)" style="fill: none; stroke: #cccccc; stroke-opacity: 0.5; stroke-linecap: round"/>
     </g>
     <g id="text_15">
      <!-- $\mathdefault{10^{2}}$ -->
      <g style="fill: #262626" transform="translate(33.11 60.915005) scale(0.11 -0.11)">
       <use xlink:href="#SimHei-14" transform="translate(0 0.48125)"/>
       <use xlink:href="#SimHei-13" transform="translate(50 0.48125)"/>
       <use xlink:href="#SimHei-15" transform="translate(100.957031 41.78125) scale(0.7)"/>
      </g>
     </g>
    </g>
    <g id="text_16">
     <!-- 相对误差 (Log Scale) -->
     <g style="fill: #262626" transform="translate(23.5725 266.765625) rotate(-90) scale(0.12 -0.12)">
      <defs>
       <path id="SimHei-2d2e" d="M 5900 4825 
Q 5875 4225 5875 3575 
L 5875 750 
Q 5875 75 5900 -575 
L 5400 -575 
L 5400 -100 
L 3525 -100 
L 3525 -625 
L 3025 -625 
Q 3050 125 3050 675 
L 3050 3600 
Q 3050 4250 3025 4825 
L 5900 4825 
z
M 1400 3825 
Q 1400 4850 1375 5200 
L 1925 5200 
Q 1900 4825 1900 3825 
Q 2500 3825 2825 3850 
L 2825 3375 
Q 2525 3400 1900 3400 
L 1900 2450 
Q 2025 2575 2175 2750 
Q 2625 2275 2950 1825 
Q 2800 1725 2575 1500 
Q 2300 1975 1900 2375 
L 1900 475 
Q 1900 50 1925 -625 
L 1375 -625 
Q 1400 50 1400 450 
L 1400 2150 
Q 1075 1225 650 675 
Q 475 950 300 1100 
Q 475 1250 800 1887 
Q 1125 2525 1300 3400 
Q 750 3400 400 3375 
L 400 3850 
Q 850 3825 1400 3825 
z
M 5400 325 
L 5400 1475 
L 3525 1475 
L 3525 325 
L 5400 325 
z
M 5400 3300 
L 5400 4400 
L 3525 4400 
L 3525 3300 
L 5400 3300 
z
M 5400 1900 
L 5400 2900 
L 3525 2900 
L 3525 1900 
L 5400 1900 
z
" transform="scale(0.015625)"/>
       <path id="SimHei-122f" d="M 525 4250 
Q 900 4225 1400 4225 
L 2825 4225 
Q 2575 2625 2200 1750 
Q 2825 875 3125 400 
Q 2950 275 2725 75 
Q 2200 975 1950 1300 
Q 1650 775 1350 425 
Q 1050 75 600 -350 
Q 425 -125 200 -25 
Q 625 275 975 675 
Q 1325 1075 1650 1700 
Q 1050 2425 550 2900 
Q 700 3025 900 3225 
Q 1625 2425 1875 2150 
Q 2200 3050 2300 3825 
L 1400 3825 
Q 900 3825 525 3800 
L 525 4250 
z
M 2925 3700 
Q 3525 3675 3750 3675 
L 4825 3675 
L 4825 4425 
Q 4825 4750 4775 5125 
L 5350 5125 
Q 5325 4825 5325 4375 
L 5325 3675 
Q 5575 3675 6150 3700 
L 6150 3250 
Q 5575 3275 5325 3275 
L 5325 125 
Q 5350 -350 5012 -475 
Q 4675 -600 4250 -650 
Q 4175 -350 4025 -100 
Q 4575 -100 4712 -37 
Q 4850 25 4825 325 
L 4825 3275 
L 3775 3275 
Q 3550 3275 2925 3225 
L 2925 3700 
z
M 3450 2725 
Q 3875 1975 4175 1325 
Q 3850 1200 3700 1075 
Q 3475 1750 3050 2475 
Q 3225 2550 3450 2725 
z
" transform="scale(0.015625)"/>
       <path id="SimHei-4225" d="M 4625 2750 
Q 5325 2750 5800 2775 
L 5800 2350 
Q 5300 2375 4625 2375 
L 4150 2375 
Q 4150 2125 4100 1650 
L 5025 1650 
Q 5575 1650 6100 1675 
L 6100 1225 
Q 5575 1250 5025 1250 
L 4250 1250 
Q 4575 600 5050 287 
Q 5525 -25 6125 -125 
Q 5900 -350 5775 -625 
Q 4875 -275 4450 175 
Q 4025 625 3900 1000 
Q 3600 325 3125 -62 
Q 2650 -450 2025 -675 
Q 1975 -450 1725 -200 
Q 2475 -75 2937 437 
Q 3400 950 3475 1250 
L 2975 1250 
Q 2400 1250 2025 1225 
L 2025 1675 
Q 2475 1650 2900 1650 
L 3600 1650 
Q 3650 2025 3650 2375 
L 3325 2375 
Q 2675 2375 2225 2350 
L 2225 2775 
Q 2700 2750 3150 2750 
L 4625 2750 
z
M 5425 4875 
Q 5400 4550 5400 4075 
Q 5400 3600 5425 3325 
L 2450 3325 
Q 2475 3575 2475 4050 
Q 2475 4525 2450 4875 
L 5425 4875 
z
M 1550 3325 
Q 1525 3000 1525 2500 
L 1525 675 
L 1900 1100 
Q 2025 875 2225 700 
Q 1675 300 1250 -325 
Q 1100 -100 825 50 
Q 1025 250 1050 500 
L 1050 2900 
Q 700 2900 325 2875 
L 325 3350 
Q 550 3325 750 3325 
L 1550 3325 
z
M 4975 3700 
L 4975 4475 
L 2900 4475 
L 2900 3700 
L 4975 3700 
z
M 975 5125 
Q 1150 5000 1900 4275 
Q 1725 4125 1550 3925 
Q 1150 4400 675 4775 
Q 875 4975 975 5125 
z
" transform="scale(0.015625)"/>
       <path id="SimHei-1424" d="M 4725 4975 
Q 4500 4725 4250 4275 
L 4850 4275 
Q 5450 4275 5825 4300 
L 5825 3850 
Q 5425 3875 4850 3875 
L 3275 3875 
Q 3225 3600 3150 3275 
L 4525 3275 
Q 5075 3275 5525 3300 
L 5525 2850 
Q 5075 2875 4500 2875 
L 3050 2875 
Q 2975 2650 2850 2325 
L 5125 2325 
Q 5675 2325 6025 2350 
L 6025 1900 
Q 5700 1925 5150 1925 
L 2650 1925 
Q 2425 1550 2250 1300 
Q 2650 1275 3100 1275 
L 4525 1275 
Q 4975 1275 5350 1300 
L 5350 850 
Q 4975 875 4575 875 
L 3925 875 
L 3925 -50 
L 5000 -50 
Q 5200 -50 5900 -25 
L 5900 -500 
Q 5275 -475 5025 -475 
L 2100 -475 
Q 1700 -475 1400 -500 
L 1400 -25 
Q 1775 -50 2125 -50 
L 3425 -50 
L 3425 875 
L 3100 875 
Q 2625 875 2175 850 
L 2175 1200 
Q 1925 875 1487 475 
Q 1050 75 625 -250 
Q 425 -25 200 150 
Q 750 475 1262 925 
Q 1775 1375 2100 1925 
L 1325 1925 
Q 750 1925 375 1900 
L 375 2350 
Q 750 2325 1350 2325 
L 2325 2325 
Q 2450 2575 2550 2875 
L 1725 2875 
Q 1375 2875 1000 2850 
L 1000 3300 
Q 1500 3275 1700 3275 
L 2650 3275 
Q 2725 3575 2775 3875 
L 1500 3875 
Q 1100 3875 650 3850 
L 650 4300 
Q 1025 4275 1425 4275 
L 2275 4275 
Q 2075 4675 1850 4950 
Q 2025 5050 2250 5225 
Q 2450 4975 2725 4550 
Q 2525 4450 2325 4275 
L 3750 4275 
Q 4000 4700 4150 5250 
Q 4400 5100 4725 4975 
z
" transform="scale(0.015625)"/>
       <path id="SimHei-2f" d="M 2900 125 
L 300 125 
L 300 4400 
L 875 4400 
L 875 600 
L 2900 600 
L 2900 125 
z
" transform="scale(0.015625)"/>
       <path id="SimHei-4a" d="M 2975 2500 
Q 2800 2550 2637 2562 
Q 2475 2575 2300 2525 
Q 2375 2450 2425 2337 
Q 2475 2225 2475 2000 
Q 2475 1575 2187 1300 
Q 1900 1025 1475 1025 
Q 1375 1025 1212 1062 
Q 1050 1100 950 1150 
Q 875 1100 850 1050 
Q 825 1000 825 925 
Q 825 800 1000 737 
Q 1175 675 1625 675 
Q 2350 675 2612 475 
Q 2875 275 2875 -25 
Q 2875 -425 2487 -612 
Q 2100 -800 1575 -800 
Q 900 -800 575 -625 
Q 250 -450 250 -150 
Q 250 0 375 150 
Q 500 300 700 400 
Q 550 475 462 587 
Q 375 700 375 875 
Q 375 1025 487 1137 
Q 600 1250 750 1325 
Q 625 1450 550 1625 
Q 475 1800 475 2000 
Q 475 2425 762 2700 
Q 1050 2975 1475 2975 
Q 1700 2975 1862 2912 
Q 2025 2850 2150 2725 
Q 2350 2875 2550 2937 
Q 2750 3000 2975 2975 
L 2975 2500 
z
M 1975 2000 
Q 1975 2250 1850 2400 
Q 1725 2550 1475 2550 
Q 1225 2550 1100 2400 
Q 975 2250 975 2000 
Q 975 1750 1100 1600 
Q 1225 1450 1475 1450 
Q 1725 1450 1850 1600 
Q 1975 1750 1975 2000 
z
M 2400 -75 
Q 2400 25 2287 125 
Q 2175 225 1725 225 
Q 1625 225 1450 237 
Q 1275 250 1050 275 
Q 850 200 775 100 
Q 700 0 700 -100 
Q 700 -250 900 -350 
Q 1100 -450 1600 -450 
Q 2025 -450 2212 -337 
Q 2400 -225 2400 -75 
z
" transform="scale(0.015625)"/>
       <path id="SimHei-36" d="M 2900 1325 
Q 2900 750 2537 412 
Q 2175 75 1550 75 
Q 925 75 575 425 
Q 225 775 225 1300 
L 225 1475 
L 800 1475 
L 800 1325 
Q 800 950 1025 750 
Q 1250 550 1550 550 
Q 1950 550 2137 762 
Q 2325 975 2325 1275 
Q 2325 1525 2100 1737 
Q 1875 1950 1450 2125 
Q 850 2350 587 2625 
Q 325 2900 325 3275 
Q 325 3800 687 4125 
Q 1050 4450 1550 4450 
Q 2200 4450 2487 4062 
Q 2775 3675 2775 3225 
L 2200 3225 
Q 2225 3500 2050 3725 
Q 1875 3950 1550 3950 
Q 1250 3950 1075 3787 
Q 900 3625 900 3350 
Q 900 3125 1037 2962 
Q 1175 2800 1750 2575 
Q 2300 2350 2600 2037 
Q 2900 1725 2900 1325 
z
" transform="scale(0.015625)"/>
       <path id="SimHei-46" d="M 2850 1250 
Q 2850 725 2487 400 
Q 2125 75 1575 75 
Q 1025 75 625 462 
Q 225 850 225 1525 
Q 225 2200 625 2587 
Q 1025 2975 1575 2975 
Q 2125 2975 2450 2687 
Q 2775 2400 2775 2000 
L 2225 2000 
Q 2200 2300 2012 2412 
Q 1825 2525 1575 2525 
Q 1275 2525 1025 2287 
Q 775 2050 775 1525 
Q 775 1000 1025 762 
Q 1275 525 1575 525 
Q 1900 525 2100 700 
Q 2300 875 2300 1250 
L 2850 1250 
z
" transform="scale(0.015625)"/>
       <path id="SimHei-4f" d="M 1825 125 
L 1325 125 
L 1325 4400 
L 1825 4400 
L 1825 125 
z
" transform="scale(0.015625)"/>
      </defs>
      <use xlink:href="#SimHei-2d2e"/>
      <use xlink:href="#SimHei-122f" transform="translate(100 0)"/>
      <use xlink:href="#SimHei-4225" transform="translate(200 0)"/>
      <use xlink:href="#SimHei-1424" transform="translate(300 0)"/>
      <use xlink:href="#SimHei-3" transform="translate(400 0)"/>
      <use xlink:href="#SimHei-b" transform="translate(450 0)"/>
      <use xlink:href="#SimHei-2f" transform="translate(500 0)"/>
      <use xlink:href="#SimHei-52" transform="translate(550 0)"/>
      <use xlink:href="#SimHei-4a" transform="translate(600 0)"/>
      <use xlink:href="#SimHei-3" transform="translate(650 0)"/>
      <use xlink:href="#SimHei-36" transform="translate(700 0)"/>
      <use xlink:href="#SimHei-46" transform="translate(750 0)"/>
      <use xlink:href="#SimHei-44" transform="translate(800 0)"/>
      <use xlink:href="#SimHei-4f" transform="translate(850 0)"/>
      <use xlink:href="#SimHei-48" transform="translate(900 0)"/>
      <use xlink:href="#SimHei-c" transform="translate(950 0)"/>
     </g>
    </g>
   </g>
   <g id="line2d_15">
    <path d="M 83.980224 50.721657 
L 91.765366 59.129706 
L 99.550508 63.965135 
L 107.335649 68.621168 
L 115.120791 73.231047 
L 122.905933 77.829303 
L 130.691074 82.424647 
L 138.476216 87.019264 
L 146.261358 91.613699 
L 154.046499 96.208088 
L 161.831641 100.802466 
L 169.616783 105.396841 
L 177.401924 109.991215 
L 185.187066 114.58559 
L 192.972207 119.179964 
L 200.757349 123.774338 
L 208.542491 128.368712 
L 216.327632 132.963086 
L 224.112774 137.55746 
L 231.897916 142.151834 
L 239.683057 146.746208 
L 247.468199 151.340582 
L 255.253341 155.934956 
L 263.038482 160.52933 
L 270.823624 165.123704 
L 278.608766 169.718078 
L 286.393907 174.312452 
L 294.179049 178.906826 
L 301.96419 183.5012 
L 309.749332 188.095575 
L 317.534474 192.689949 
L 325.319615 197.284323 
L 333.104757 201.878697 
L 340.889899 206.473071 
L 348.67504 211.067445 
L 356.460182 215.661819 
L 364.245324 220.256193 
L 372.030465 224.850567 
L 379.815607 229.444941 
L 387.600748 234.039315 
L 395.38589 238.633689 
L 403.171032 243.228063 
L 410.956173 247.822437 
L 418.741315 252.416811 
L 426.526457 257.011185 
L 434.311598 261.60556 
L 442.09674 266.199934 
L 449.881882 270.794308 
L 457.667023 275.388682 
L 465.452165 279.983056 
L 473.237307 284.57743 
L 481.022448 289.171804 
L 488.80759 293.766178 
L 496.592731 298.360552 
L 504.377873 302.954926 
L 512.163015 307.5493 
L 519.948156 312.143674 
L 527.733298 316.738048 
L 535.51844 321.332422 
L 543.303581 325.926795 
L 551.088723 330.52117 
L 558.873865 335.115542 
L 566.659006 339.709917 
L 574.444148 344.304287 
L 582.22929 348.898665 
L 590.014431 353.49303 
L 597.799573 358.087411 
L 605.584714 362.681767 
" clip-path="url(#pf31d2a91f6)" style="fill: none; stroke: #4c72b0; stroke-width: 1.5; stroke-linecap: round"/>
    <defs>
     <path id="m7e9f13592d" d="M 0 2 
C 0.530406 2 1.03916 1.789267 1.414214 1.414214 
C 1.789267 1.03916 2 0.530406 2 0 
C 2 -0.530406 1.789267 -1.03916 1.414214 -1.414214 
C 1.03916 -1.789267 0.530406 -2 0 -2 
C -0.530406 -2 -1.03916 -1.789267 -1.414214 -1.414214 
C -1.789267 -1.03916 -2 -0.530406 -2 0 
C -2 0.530406 -1.789267 1.03916 -1.414214 1.414214 
C -1.03916 1.789267 -0.530406 2 0 2 
z
" style="stroke: #4c72b0"/>
    </defs>
    <g clip-path="url(#pf31d2a91f6)">
     <use xlink:href="#m7e9f13592d" x="83.980224" y="50.721657" style="fill: #4c72b0; stroke: #4c72b0"/>
     <use xlink:href="#m7e9f13592d" x="91.765366" y="59.129706" style="fill: #4c72b0; stroke: #4c72b0"/>
     <use xlink:href="#m7e9f13592d" x="99.550508" y="63.965135" style="fill: #4c72b0; stroke: #4c72b0"/>
     <use xlink:href="#m7e9f13592d" x="107.335649" y="68.621168" style="fill: #4c72b0; stroke: #4c72b0"/>
     <use xlink:href="#m7e9f13592d" x="115.120791" y="73.231047" style="fill: #4c72b0; stroke: #4c72b0"/>
     <use xlink:href="#m7e9f13592d" x="122.905933" y="77.829303" style="fill: #4c72b0; stroke: #4c72b0"/>
     <use xlink:href="#m7e9f13592d" x="130.691074" y="82.424647" style="fill: #4c72b0; stroke: #4c72b0"/>
     <use xlink:href="#m7e9f13592d" x="138.476216" y="87.019264" style="fill: #4c72b0; stroke: #4c72b0"/>
     <use xlink:href="#m7e9f13592d" x="146.261358" y="91.613699" style="fill: #4c72b0; stroke: #4c72b0"/>
     <use xlink:href="#m7e9f13592d" x="154.046499" y="96.208088" style="fill: #4c72b0; stroke: #4c72b0"/>
     <use xlink:href="#m7e9f13592d" x="161.831641" y="100.802466" style="fill: #4c72b0; stroke: #4c72b0"/>
     <use xlink:href="#m7e9f13592d" x="169.616783" y="105.396841" style="fill: #4c72b0; stroke: #4c72b0"/>
     <use xlink:href="#m7e9f13592d" x="177.401924" y="109.991215" style="fill: #4c72b0; stroke: #4c72b0"/>
     <use xlink:href="#m7e9f13592d" x="185.187066" y="114.58559" style="fill: #4c72b0; stroke: #4c72b0"/>
     <use xlink:href="#m7e9f13592d" x="192.972207" y="119.179964" style="fill: #4c72b0; stroke: #4c72b0"/>
     <use xlink:href="#m7e9f13592d" x="200.757349" y="123.774338" style="fill: #4c72b0; stroke: #4c72b0"/>
     <use xlink:href="#m7e9f13592d" x="208.542491" y="128.368712" style="fill: #4c72b0; stroke: #4c72b0"/>
     <use xlink:href="#m7e9f13592d" x="216.327632" y="132.963086" style="fill: #4c72b0; stroke: #4c72b0"/>
     <use xlink:href="#m7e9f13592d" x="224.112774" y="137.55746" style="fill: #4c72b0; stroke: #4c72b0"/>
     <use xlink:href="#m7e9f13592d" x="231.897916" y="142.151834" style="fill: #4c72b0; stroke: #4c72b0"/>
     <use xlink:href="#m7e9f13592d" x="239.683057" y="146.746208" style="fill: #4c72b0; stroke: #4c72b0"/>
     <use xlink:href="#m7e9f13592d" x="247.468199" y="151.340582" style="fill: #4c72b0; stroke: #4c72b0"/>
     <use xlink:href="#m7e9f13592d" x="255.253341" y="155.934956" style="fill: #4c72b0; stroke: #4c72b0"/>
     <use xlink:href="#m7e9f13592d" x="263.038482" y="160.52933" style="fill: #4c72b0; stroke: #4c72b0"/>
     <use xlink:href="#m7e9f13592d" x="270.823624" y="165.123704" style="fill: #4c72b0; stroke: #4c72b0"/>
     <use xlink:href="#m7e9f13592d" x="278.608766" y="169.718078" style="fill: #4c72b0; stroke: #4c72b0"/>
     <use xlink:href="#m7e9f13592d" x="286.393907" y="174.312452" style="fill: #4c72b0; stroke: #4c72b0"/>
     <use xlink:href="#m7e9f13592d" x="294.179049" y="178.906826" style="fill: #4c72b0; stroke: #4c72b0"/>
     <use xlink:href="#m7e9f13592d" x="301.96419" y="183.5012" style="fill: #4c72b0; stroke: #4c72b0"/>
     <use xlink:href="#m7e9f13592d" x="309.749332" y="188.095575" style="fill: #4c72b0; stroke: #4c72b0"/>
     <use xlink:href="#m7e9f13592d" x="317.534474" y="192.689949" style="fill: #4c72b0; stroke: #4c72b0"/>
     <use xlink:href="#m7e9f13592d" x="325.319615" y="197.284323" style="fill: #4c72b0; stroke: #4c72b0"/>
     <use xlink:href="#m7e9f13592d" x="333.104757" y="201.878697" style="fill: #4c72b0; stroke: #4c72b0"/>
     <use xlink:href="#m7e9f13592d" x="340.889899" y="206.473071" style="fill: #4c72b0; stroke: #4c72b0"/>
     <use xlink:href="#m7e9f13592d" x="348.67504" y="211.067445" style="fill: #4c72b0; stroke: #4c72b0"/>
     <use xlink:href="#m7e9f13592d" x="356.460182" y="215.661819" style="fill: #4c72b0; stroke: #4c72b0"/>
     <use xlink:href="#m7e9f13592d" x="364.245324" y="220.256193" style="fill: #4c72b0; stroke: #4c72b0"/>
     <use xlink:href="#m7e9f13592d" x="372.030465" y="224.850567" style="fill: #4c72b0; stroke: #4c72b0"/>
     <use xlink:href="#m7e9f13592d" x="379.815607" y="229.444941" style="fill: #4c72b0; stroke: #4c72b0"/>
     <use xlink:href="#m7e9f13592d" x="387.600748" y="234.039315" style="fill: #4c72b0; stroke: #4c72b0"/>
     <use xlink:href="#m7e9f13592d" x="395.38589" y="238.633689" style="fill: #4c72b0; stroke: #4c72b0"/>
     <use xlink:href="#m7e9f13592d" x="403.171032" y="243.228063" style="fill: #4c72b0; stroke: #4c72b0"/>
     <use xlink:href="#m7e9f13592d" x="410.956173" y="247.822437" style="fill: #4c72b0; stroke: #4c72b0"/>
     <use xlink:href="#m7e9f13592d" x="418.741315" y="252.416811" style="fill: #4c72b0; stroke: #4c72b0"/>
     <use xlink:href="#m7e9f13592d" x="426.526457" y="257.011185" style="fill: #4c72b0; stroke: #4c72b0"/>
     <use xlink:href="#m7e9f13592d" x="434.311598" y="261.60556" style="fill: #4c72b0; stroke: #4c72b0"/>
     <use xlink:href="#m7e9f13592d" x="442.09674" y="266.199934" style="fill: #4c72b0; stroke: #4c72b0"/>
     <use xlink:href="#m7e9f13592d" x="449.881882" y="270.794308" style="fill: #4c72b0; stroke: #4c72b0"/>
     <use xlink:href="#m7e9f13592d" x="457.667023" y="275.388682" style="fill: #4c72b0; stroke: #4c72b0"/>
     <use xlink:href="#m7e9f13592d" x="465.452165" y="279.983056" style="fill: #4c72b0; stroke: #4c72b0"/>
     <use xlink:href="#m7e9f13592d" x="473.237307" y="284.57743" style="fill: #4c72b0; stroke: #4c72b0"/>
     <use xlink:href="#m7e9f13592d" x="481.022448" y="289.171804" style="fill: #4c72b0; stroke: #4c72b0"/>
     <use xlink:href="#m7e9f13592d" x="488.80759" y="293.766178" style="fill: #4c72b0; stroke: #4c72b0"/>
     <use xlink:href="#m7e9f13592d" x="496.592731" y="298.360552" style="fill: #4c72b0; stroke: #4c72b0"/>
     <use xlink:href="#m7e9f13592d" x="504.377873" y="302.954926" style="fill: #4c72b0; stroke: #4c72b0"/>
     <use xlink:href="#m7e9f13592d" x="512.163015" y="307.5493" style="fill: #4c72b0; stroke: #4c72b0"/>
     <use xlink:href="#m7e9f13592d" x="519.948156" y="312.143674" style="fill: #4c72b0; stroke: #4c72b0"/>
     <use xlink:href="#m7e9f13592d" x="527.733298" y="316.738048" style="fill: #4c72b0; stroke: #4c72b0"/>
     <use xlink:href="#m7e9f13592d" x="535.51844" y="321.332422" style="fill: #4c72b0; stroke: #4c72b0"/>
     <use xlink:href="#m7e9f13592d" x="543.303581" y="325.926795" style="fill: #4c72b0; stroke: #4c72b0"/>
     <use xlink:href="#m7e9f13592d" x="551.088723" y="330.52117" style="fill: #4c72b0; stroke: #4c72b0"/>
     <use xlink:href="#m7e9f13592d" x="558.873865" y="335.115542" style="fill: #4c72b0; stroke: #4c72b0"/>
     <use xlink:href="#m7e9f13592d" x="566.659006" y="339.709917" style="fill: #4c72b0; stroke: #4c72b0"/>
     <use xlink:href="#m7e9f13592d" x="574.444148" y="344.304287" style="fill: #4c72b0; stroke: #4c72b0"/>
     <use xlink:href="#m7e9f13592d" x="582.22929" y="348.898665" style="fill: #4c72b0; stroke: #4c72b0"/>
     <use xlink:href="#m7e9f13592d" x="590.014431" y="353.49303" style="fill: #4c72b0; stroke: #4c72b0"/>
     <use xlink:href="#m7e9f13592d" x="597.799573" y="358.087411" style="fill: #4c72b0; stroke: #4c72b0"/>
     <use xlink:href="#m7e9f13592d" x="605.584714" y="362.681767" style="fill: #4c72b0; stroke: #4c72b0"/>
    </g>
   </g>
   <g id="line2d_16">
    <path d="M 83.980224 46.970739 
L 91.765366 57.039332 
L 99.550508 65.097414 
L 107.335649 73.307567 
L 115.120791 81.910161 
L 122.905933 90.948486 
L 130.691074 100.099433 
L 138.476216 109.278719 
L 146.261358 118.465101 
L 154.046499 127.653257 
L 161.831641 136.841858 
L 169.616783 146.030569 
L 177.401924 155.219308 
L 185.187066 164.408053 
L 192.972207 173.596801 
L 200.757349 182.785549 
L 208.542491 191.974297 
L 216.327632 201.163045 
L 224.112774 210.351793 
L 231.897916 219.540541 
L 239.683057 228.72929 
L 247.468199 237.918038 
L 255.253341 247.106786 
L 263.038482 256.295534 
L 270.823624 265.484282 
L 278.608766 274.67303 
L 286.393907 283.861778 
L 294.179049 293.050526 
L 301.96419 302.239275 
L 309.749332 311.428023 
L 317.534474 320.616771 
L 325.319615 329.805519 
L 333.104757 338.994267 
L 340.889899 348.183015 
L 348.67504 357.371763 
L 356.460182 366.560511 
" clip-path="url(#pf31d2a91f6)" style="fill: none; stroke-dasharray: 5.55,2.4; stroke-dashoffset: 0; stroke: #dd8452; stroke-width: 1.5"/>
    <defs>
     <path id="m09be178f91" d="M -2 2 
L 2 2 
L 2 -2 
L -2 -2 
z
" style="stroke: #dd8452; stroke-linejoin: miter"/>
    </defs>
    <g clip-path="url(#pf31d2a91f6)">
     <use xlink:href="#m09be178f91" x="83.980224" y="46.970739" style="fill: #dd8452; stroke: #dd8452; stroke-linejoin: miter"/>
     <use xlink:href="#m09be178f91" x="91.765366" y="57.039332" style="fill: #dd8452; stroke: #dd8452; stroke-linejoin: miter"/>
     <use xlink:href="#m09be178f91" x="99.550508" y="65.097414" style="fill: #dd8452; stroke: #dd8452; stroke-linejoin: miter"/>
     <use xlink:href="#m09be178f91" x="107.335649" y="73.307567" style="fill: #dd8452; stroke: #dd8452; stroke-linejoin: miter"/>
     <use xlink:href="#m09be178f91" x="115.120791" y="81.910161" style="fill: #dd8452; stroke: #dd8452; stroke-linejoin: miter"/>
     <use xlink:href="#m09be178f91" x="122.905933" y="90.948486" style="fill: #dd8452; stroke: #dd8452; stroke-linejoin: miter"/>
     <use xlink:href="#m09be178f91" x="130.691074" y="100.099433" style="fill: #dd8452; stroke: #dd8452; stroke-linejoin: miter"/>
     <use xlink:href="#m09be178f91" x="138.476216" y="109.278719" style="fill: #dd8452; stroke: #dd8452; stroke-linejoin: miter"/>
     <use xlink:href="#m09be178f91" x="146.261358" y="118.465101" style="fill: #dd8452; stroke: #dd8452; stroke-linejoin: miter"/>
     <use xlink:href="#m09be178f91" x="154.046499" y="127.653257" style="fill: #dd8452; stroke: #dd8452; stroke-linejoin: miter"/>
     <use xlink:href="#m09be178f91" x="161.831641" y="136.841858" style="fill: #dd8452; stroke: #dd8452; stroke-linejoin: miter"/>
     <use xlink:href="#m09be178f91" x="169.616783" y="146.030569" style="fill: #dd8452; stroke: #dd8452; stroke-linejoin: miter"/>
     <use xlink:href="#m09be178f91" x="177.401924" y="155.219308" style="fill: #dd8452; stroke: #dd8452; stroke-linejoin: miter"/>
     <use xlink:href="#m09be178f91" x="185.187066" y="164.408053" style="fill: #dd8452; stroke: #dd8452; stroke-linejoin: miter"/>
     <use xlink:href="#m09be178f91" x="192.972207" y="173.596801" style="fill: #dd8452; stroke: #dd8452; stroke-linejoin: miter"/>
     <use xlink:href="#m09be178f91" x="200.757349" y="182.785549" style="fill: #dd8452; stroke: #dd8452; stroke-linejoin: miter"/>
     <use xlink:href="#m09be178f91" x="208.542491" y="191.974297" style="fill: #dd8452; stroke: #dd8452; stroke-linejoin: miter"/>
     <use xlink:href="#m09be178f91" x="216.327632" y="201.163045" style="fill: #dd8452; stroke: #dd8452; stroke-linejoin: miter"/>
     <use xlink:href="#m09be178f91" x="224.112774" y="210.351793" style="fill: #dd8452; stroke: #dd8452; stroke-linejoin: miter"/>
     <use xlink:href="#m09be178f91" x="231.897916" y="219.540541" style="fill: #dd8452; stroke: #dd8452; stroke-linejoin: miter"/>
     <use xlink:href="#m09be178f91" x="239.683057" y="228.72929" style="fill: #dd8452; stroke: #dd8452; stroke-linejoin: miter"/>
     <use xlink:href="#m09be178f91" x="247.468199" y="237.918038" style="fill: #dd8452; stroke: #dd8452; stroke-linejoin: miter"/>
     <use xlink:href="#m09be178f91" x="255.253341" y="247.106786" style="fill: #dd8452; stroke: #dd8452; stroke-linejoin: miter"/>
     <use xlink:href="#m09be178f91" x="263.038482" y="256.295534" style="fill: #dd8452; stroke: #dd8452; stroke-linejoin: miter"/>
     <use xlink:href="#m09be178f91" x="270.823624" y="265.484282" style="fill: #dd8452; stroke: #dd8452; stroke-linejoin: miter"/>
     <use xlink:href="#m09be178f91" x="278.608766" y="274.67303" style="fill: #dd8452; stroke: #dd8452; stroke-linejoin: miter"/>
     <use xlink:href="#m09be178f91" x="286.393907" y="283.861778" style="fill: #dd8452; stroke: #dd8452; stroke-linejoin: miter"/>
     <use xlink:href="#m09be178f91" x="294.179049" y="293.050526" style="fill: #dd8452; stroke: #dd8452; stroke-linejoin: miter"/>
     <use xlink:href="#m09be178f91" x="301.96419" y="302.239275" style="fill: #dd8452; stroke: #dd8452; stroke-linejoin: miter"/>
     <use xlink:href="#m09be178f91" x="309.749332" y="311.428023" style="fill: #dd8452; stroke: #dd8452; stroke-linejoin: miter"/>
     <use xlink:href="#m09be178f91" x="317.534474" y="320.616771" style="fill: #dd8452; stroke: #dd8452; stroke-linejoin: miter"/>
     <use xlink:href="#m09be178f91" x="325.319615" y="329.805519" style="fill: #dd8452; stroke: #dd8452; stroke-linejoin: miter"/>
     <use xlink:href="#m09be178f91" x="333.104757" y="338.994267" style="fill: #dd8452; stroke: #dd8452; stroke-linejoin: miter"/>
     <use xlink:href="#m09be178f91" x="340.889899" y="348.183015" style="fill: #dd8452; stroke: #dd8452; stroke-linejoin: miter"/>
     <use xlink:href="#m09be178f91" x="348.67504" y="357.371763" style="fill: #dd8452; stroke: #dd8452; stroke-linejoin: miter"/>
     <use xlink:href="#m09be178f91" x="356.460182" y="366.560511" style="fill: #dd8452; stroke: #dd8452; stroke-linejoin: miter"/>
    </g>
   </g>
   <g id="line2d_17">
    <path d="M 57.9 361.153611 
L 631.664939 361.153611 
" clip-path="url(#pf31d2a91f6)" style="fill: none; stroke-dasharray: 5.55,2.4; stroke-dashoffset: 0; stroke: #c44e52; stroke-opacity: 0.7; stroke-width: 1.5"/>
   </g>
   <g id="patch_3">
    <path d="M 57.9 382.54 
L 57.9 30.99125 
" style="fill: none; stroke: #cccccc; stroke-width: 1.25; stroke-linejoin: miter; stroke-linecap: square"/>
   </g>
   <g id="patch_4">
    <path d="M 631.664939 382.54 
L 631.664939 30.99125 
" style="fill: none; stroke: #cccccc; stroke-width: 1.25; stroke-linejoin: miter; stroke-linecap: square"/>
   </g>
   <g id="patch_5">
    <path d="M 57.9 382.54 
L 631.664939 382.54 
" style="fill: none; stroke: #cccccc; stroke-width: 1.25; stroke-linejoin: miter; stroke-linecap: square"/>
   </g>
   <g id="patch_6">
    <path d="M 57.9 30.99125 
L 631.664939 30.99125 
" style="fill: none; stroke: #cccccc; stroke-width: 1.25; stroke-linejoin: miter; stroke-linecap: square"/>
   </g>
   <g id="text_17">
    <!-- 迭代误差随步数变化曲线 (对数坐标) -->
    <g style="fill: #262626" transform="translate(229.282469 24.99125) scale(0.14 -0.14)">
     <defs>
      <path id="SimHei-4cc5" d="M 4050 4425 
Q 4325 5025 4350 5300 
Q 4675 5150 4950 5075 
Q 4825 4925 4525 4400 
L 5350 4400 
Q 5725 4400 6075 4425 
L 6075 4000 
Q 5775 4025 5350 4025 
L 4400 4025 
Q 4200 3675 3975 3350 
L 5800 3350 
Q 5775 3000 5775 2525 
L 5775 850 
Q 5775 600 5612 525 
Q 5450 450 5050 375 
Q 5025 600 4900 850 
Q 5350 775 5300 1250 
L 4175 1250 
L 4175 425 
L 3700 425 
Q 3725 775 3725 1200 
L 3725 3000 
L 3550 2725 
Q 3350 2900 3125 3000 
Q 3525 3350 3875 4025 
Q 3675 4025 3325 4000 
L 3325 4450 
Q 3675 4425 4050 4425 
z
M 2225 4900 
Q 2125 4725 1575 2925 
Q 1875 2525 2037 2150 
Q 2200 1775 2187 1462 
Q 2175 1150 1900 937 
Q 1625 725 1325 650 
Q 1275 875 1075 1200 
Q 1500 1200 1612 1350 
Q 1725 1500 1625 1900 
Q 1525 2300 1075 2875 
Q 1475 4025 1575 4550 
L 875 4550 
L 875 -625 
L 400 -625 
Q 425 0 425 675 
L 425 3800 
Q 425 4425 400 4900 
L 2225 4900 
z
M 3100 2825 
Q 3075 2475 3075 2050 
L 3075 525 
Q 3125 300 3750 175 
Q 4375 50 4787 37 
Q 5200 25 5500 37 
Q 5800 50 6175 125 
Q 6025 -150 6025 -425 
Q 5350 -425 4837 -387 
Q 4325 -350 3912 -262 
Q 3500 -175 3200 -25 
Q 2900 125 2737 -12 
Q 2575 -150 2300 -475 
Q 2150 -275 1950 -125 
Q 2275 175 2625 400 
L 2625 2425 
L 2175 2425 
L 2175 2850 
Q 2425 2825 3100 2825 
z
M 5300 1600 
L 5300 2125 
L 4175 2125 
L 4175 1600 
L 5300 1600 
z
M 5300 2475 
L 5300 3000 
L 4175 3000 
L 4175 2475 
L 5300 2475 
z
M 2750 4575 
Q 2975 4000 3125 3425 
Q 2875 3400 2625 3275 
Q 2500 3900 2275 4425 
Q 2525 4475 2750 4575 
z
" transform="scale(0.015625)"/>
      <path id="SimHei-a0e" d="M 5200 1975 
Q 4950 1600 4537 1137 
Q 4125 675 3675 375 
Q 3925 225 4600 87 
Q 5275 -50 6000 -75 
Q 5700 -400 5650 -625 
Q 4850 -525 4212 -312 
Q 3575 -100 3225 125 
Q 2800 -125 2150 -325 
Q 1500 -525 700 -675 
Q 600 -425 400 -175 
Q 950 -150 1687 12 
Q 2425 175 2825 375 
Q 2275 775 1675 1575 
Q 1350 1575 1000 1550 
L 1000 2000 
Q 1450 1975 2075 1975 
L 5200 1975 
z
M 3225 5275 
Q 3400 4900 3550 4475 
L 4675 4475 
Q 5400 4475 5975 4500 
L 5975 4025 
Q 5375 4050 4725 4050 
L 4125 4050 
L 4125 2950 
Q 4125 2550 4150 2150 
L 3600 2150 
Q 3625 2550 3625 2950 
L 3625 4050 
L 2750 4050 
L 2750 2950 
Q 2750 2675 2775 2150 
L 2225 2150 
Q 2250 2675 2250 2950 
L 2250 4050 
L 1700 4050 
Q 975 4050 425 4025 
L 425 4500 
Q 950 4475 1700 4475 
L 2975 4475 
Q 2925 4675 2700 5125 
Q 2950 5150 3225 5275 
z
M 2200 1575 
Q 2650 975 3250 600 
Q 3850 1000 4275 1575 
L 2200 1575 
z
M 4850 3750 
Q 5375 3275 5950 2675 
Q 5750 2525 5500 2300 
Q 5075 2800 4450 3400 
Q 4675 3575 4850 3750 
z
M 1825 3500 
Q 1700 3375 1425 3025 
Q 1150 2675 825 2300 
Q 575 2475 375 2600 
Q 975 3150 1300 3825 
Q 1525 3650 1825 3500 
z
" transform="scale(0.015625)"/>
      <path id="SimHei-94c" d="M 3925 5025 
Q 3900 4900 3900 4400 
L 3900 2625 
Q 4375 3025 4775 3450 
Q 5175 3875 5400 4300 
Q 5600 4100 5900 3925 
Q 5700 3700 5225 3212 
Q 4750 2725 4487 2512 
Q 4225 2300 3900 2025 
L 3900 450 
Q 3900 50 4225 50 
L 5200 50 
Q 5400 75 5462 262 
Q 5525 450 5575 850 
Q 5800 650 6150 600 
Q 6000 -100 5825 -250 
Q 5650 -400 5350 -400 
L 3950 -400 
Q 3425 -400 3400 200 
L 3400 1675 
Q 3225 1525 2962 1350 
Q 2700 1175 2375 975 
Q 2225 1225 2025 1400 
Q 2350 1550 2737 1787 
Q 3125 2025 3400 2250 
L 3400 4500 
Q 3400 4800 3375 5025 
L 3925 5025 
z
M 2400 4850 
Q 2175 4550 2075 4337 
Q 1975 4125 1825 3775 
L 1825 675 
Q 1825 -75 1850 -550 
L 1325 -550 
Q 1350 -125 1350 650 
L 1350 3050 
Q 1125 2725 962 2525 
Q 800 2325 675 2175 
Q 500 2375 275 2525 
Q 625 2850 875 3212 
Q 1125 3575 1312 3912 
Q 1500 4250 1625 4575 
Q 1750 4900 1825 5100 
Q 1975 4975 2400 4850 
z
" transform="scale(0.015625)"/>
      <path id="SimHei-1d28" d="M 5825 500 
Q 5825 -200 5850 -550 
L 5275 -550 
L 5275 -50 
L 1150 -50 
L 1150 -550 
L 575 -550 
Q 600 125 600 550 
L 600 2775 
Q 600 3425 575 3900 
L 2150 3900 
L 2150 4450 
Q 2125 4850 2125 5150 
L 2700 5150 
Q 2650 4825 2650 4475 
L 2650 3900 
L 3700 3900 
L 3700 4525 
Q 3700 4850 3675 5175 
L 4250 5175 
Q 4225 4875 4225 4550 
L 4225 3900 
L 5850 3900 
Q 5825 3525 5825 2750 
L 5825 500 
z
M 3700 325 
L 3700 1875 
L 2650 1875 
L 2650 325 
L 3700 325 
z
M 5275 325 
L 5275 1875 
L 4225 1875 
L 4225 325 
L 5275 325 
z
M 2150 325 
L 2150 1875 
L 1150 1875 
L 1150 325 
L 2150 325 
z
M 3700 2250 
L 3700 3525 
L 2650 3525 
L 2650 2250 
L 3700 2250 
z
M 5275 2250 
L 5275 3525 
L 4225 3525 
L 4225 2250 
L 5275 2250 
z
M 2150 2250 
L 2150 3525 
L 1150 3525 
L 1150 2250 
L 2150 2250 
z
" transform="scale(0.015625)"/>
      <path id="SimHei-34f5" d="M 3450 4300 
Q 3450 4675 3375 5125 
Q 3700 5100 4050 5050 
Q 3975 4900 3950 4562 
Q 3925 4225 3950 3600 
L 4800 3750 
Q 5225 3850 5650 3975 
L 5750 3500 
Q 5325 3450 4875 3375 
L 3975 3200 
Q 3975 2800 4025 2500 
L 5000 2675 
Q 5500 2775 5950 2925 
L 6025 2450 
Q 5575 2375 5075 2275 
L 4100 2100 
Q 4150 1600 4350 1175 
Q 4575 1350 4787 1575 
Q 5000 1800 5175 2075 
Q 5550 1775 5750 1675 
Q 5425 1525 5237 1337 
Q 5050 1150 4625 750 
Q 4925 250 5162 112 
Q 5400 -25 5500 100 
Q 5600 225 5675 625 
Q 5900 450 6200 350 
Q 5775 -750 5275 -537 
Q 4775 -325 4225 450 
Q 3875 175 3537 -62 
Q 3200 -300 2700 -550 
Q 2575 -300 2325 -100 
Q 2825 75 3175 275 
Q 3525 475 3975 850 
Q 3750 1350 3650 2025 
Q 2900 1900 2600 1800 
L 2525 2275 
Q 2825 2275 3550 2425 
Q 3500 2825 3500 3100 
Q 2825 2950 2575 2875 
L 2475 3350 
Q 2725 3350 3450 3500 
L 3450 4300 
z
M 1950 4875 
Q 1700 4650 1462 4237 
Q 1225 3825 825 3225 
Q 1425 3250 1650 3250 
Q 1875 3625 2050 4075 
Q 2300 3900 2600 3800 
Q 2350 3550 2087 3125 
Q 1825 2700 1175 1675 
Q 1850 1725 2375 1775 
Q 2300 1525 2300 1350 
Q 2125 1350 1525 1287 
Q 925 1225 550 1125 
Q 525 1375 400 1650 
Q 700 1725 950 2050 
Q 1200 2375 1475 2875 
Q 650 2825 425 2675 
Q 350 2950 200 3225 
Q 525 3450 825 3962 
Q 1125 4475 1375 5150 
Q 1625 4975 1950 4875 
z
M 2575 875 
Q 2550 600 2575 450 
Q 1950 325 1450 200 
Q 950 75 525 -75 
Q 450 200 250 475 
Q 950 550 1325 612 
Q 1700 675 2575 875 
z
M 4850 4025 
Q 4675 4300 4375 4675 
L 4775 4875 
Q 4875 4750 5275 4275 
Q 5025 4175 4850 4025 
z
" transform="scale(0.015625)"/>
      <path id="SimHei-d86" d="M 3450 5100 
Q 3425 4675 3425 4150 
L 3425 1500 
L 4550 1500 
Q 4975 1500 5450 1525 
L 5450 1075 
Q 5000 1100 4500 1100 
L 3425 1100 
L 3425 50 
L 5075 50 
Q 5500 50 5975 75 
L 5975 -375 
Q 5525 -350 5075 -350 
L 1475 -350 
Q 925 -350 400 -375 
L 400 75 
Q 925 50 1475 50 
L 2925 50 
L 2925 1100 
L 2050 1100 
Q 1450 1100 950 1075 
L 950 1525 
Q 1450 1500 2050 1500 
L 2925 1500 
L 2925 4150 
Q 2925 4675 2900 5100 
L 3450 5100 
z
M 5200 4450 
Q 5050 4250 4825 3600 
Q 5200 3300 5975 2500 
Q 5775 2400 5575 2150 
Q 5075 2800 4650 3150 
Q 4375 2500 3975 1925 
Q 3725 2125 3525 2200 
Q 3875 2575 4212 3362 
Q 4550 4150 4600 4650 
Q 4900 4525 5200 4450 
z
M 350 2150 
Q 600 2375 950 3087 
Q 1300 3800 1450 4575 
Q 1625 4475 2050 4400 
Q 1950 4275 1862 4050 
Q 1775 3825 1700 3575 
Q 2400 2950 2700 2475 
Q 2425 2325 2250 2150 
Q 2025 2550 1887 2725 
Q 1750 2900 1500 3125 
Q 1250 2525 800 1875 
Q 575 2050 350 2150 
z
" transform="scale(0.015625)"/>
      <path id="SimHei-1e3d" d="M 1275 4400 
Q 1275 4800 1250 5175 
L 1750 5175 
Q 1725 4825 1725 4400 
L 1725 3800 
Q 2125 3800 2575 3825 
L 2575 3350 
Q 2125 3375 1725 3375 
L 1725 2525 
Q 1900 2650 2075 2800 
Q 2400 2275 2650 1775 
Q 2375 1650 2175 1500 
Q 2025 2000 1725 2425 
L 1725 475 
Q 1725 -50 1750 -575 
L 1250 -575 
Q 1275 -25 1275 475 
L 1275 2100 
Q 1025 1400 500 750 
Q 350 950 125 1125 
Q 550 1550 812 2187 
Q 1075 2825 1150 3375 
Q 675 3375 325 3325 
L 325 3825 
Q 800 3800 1275 3800 
L 1275 4400 
z
M 5175 3125 
Q 5675 3125 6050 3150 
L 6050 2675 
Q 5675 2700 5275 2700 
L 4500 2700 
L 4500 175 
Q 4500 -225 4275 -350 
Q 4050 -475 3475 -550 
Q 3425 -250 3275 25 
Q 3775 25 3900 62 
Q 4025 100 4025 350 
L 4025 2700 
L 3400 2700 
Q 2775 2700 2500 2650 
L 2500 3150 
Q 2825 3125 3400 3125 
L 5175 3125 
z
M 4900 4775 
Q 5425 4775 5750 4800 
L 5750 4300 
Q 5275 4350 4750 4350 
L 3525 4350 
Q 3125 4350 2750 4300 
L 2750 4800 
Q 3100 4775 3525 4775 
L 4900 4775 
z
M 5275 2025 
Q 5825 1175 6200 500 
Q 5925 375 5650 200 
Q 5375 925 4825 1725 
Q 5075 1850 5275 2025 
z
M 3600 1775 
Q 3500 1625 3225 975 
Q 2950 325 2800 50 
Q 2575 175 2300 275 
Q 2625 775 2787 1187 
Q 2950 1600 3050 2000 
Q 3325 1875 3600 1775 
z
" transform="scale(0.015625)"/>
     </defs>
     <use xlink:href="#SimHei-4623"/>
     <use xlink:href="#SimHei-519" transform="translate(100 0)"/>
     <use xlink:href="#SimHei-4225" transform="translate(200 0)"/>
     <use xlink:href="#SimHei-1424" transform="translate(300 0)"/>
     <use xlink:href="#SimHei-4cc5" transform="translate(400 0)"/>
     <use xlink:href="#SimHei-219b" transform="translate(500 0)"/>
     <use xlink:href="#SimHei-1ba6" transform="translate(600 0)"/>
     <use xlink:href="#SimHei-a0e" transform="translate(700 0)"/>
     <use xlink:href="#SimHei-94c" transform="translate(800 0)"/>
     <use xlink:href="#SimHei-1d28" transform="translate(900 0)"/>
     <use xlink:href="#SimHei-34f5" transform="translate(1000 0)"/>
     <use xlink:href="#SimHei-3" transform="translate(1100 0)"/>
     <use xlink:href="#SimHei-b" transform="translate(1150 0)"/>
     <use xlink:href="#SimHei-122f" transform="translate(1200 0)"/>
     <use xlink:href="#SimHei-1ba6" transform="translate(1300 0)"/>
     <use xlink:href="#SimHei-d86" transform="translate(1400 0)"/>
     <use xlink:href="#SimHei-1e3d" transform="translate(1500 0)"/>
     <use xlink:href="#SimHei-c" transform="translate(1600 0)"/>
    </g>
   </g>
   <g id="legend_1">
    <g id="patch_7">
     <path d="M 500.764939 89.29125 
L 623.964939 89.29125 
Q 626.164939 89.29125 626.164939 87.09125 
L 626.164939 38.69125 
Q 626.164939 36.49125 623.964939 36.49125 
L 500.764939 36.49125 
Q 498.564939 36.49125 498.564939 38.69125 
L 498.564939 87.09125 
Q 498.564939 89.29125 500.764939 89.29125 
z
" style="fill: #ffffff; opacity: 0.8; stroke: #cccccc; stroke-linejoin: miter"/>
    </g>
    <g id="line2d_18">
     <path d="M 502.964939 46.494375 
L 513.964939 46.494375 
L 524.964939 46.494375 
" style="fill: none; stroke: #4c72b0; stroke-width: 1.5; stroke-linecap: round"/>
     <g>
      <use xlink:href="#m7e9f13592d" x="513.964939" y="46.494375" style="fill: #4c72b0; stroke: #4c72b0"/>
     </g>
    </g>
    <g id="text_18">
     <!-- Jacobi -->
     <g style="fill: #262626" transform="translate(533.764939 50.344375) scale(0.11 -0.11)">
      <defs>
       <path id="SimHei-2d" d="M 2800 1550 
Q 2800 775 2462 425 
Q 2125 75 1550 75 
Q 1025 75 675 412 
Q 325 750 325 1500 
L 325 1775 
L 900 1775 
L 900 1425 
Q 900 975 1087 787 
Q 1275 600 1525 600 
Q 1875 600 2050 800 
Q 2225 1000 2225 1525 
L 2225 4400 
L 2800 4400 
L 2800 1550 
z
" transform="scale(0.015625)"/>
       <path id="SimHei-45" d="M 2825 1525 
Q 2825 800 2475 437 
Q 2125 75 1625 75 
Q 1350 75 1150 175 
Q 950 275 800 500 
L 800 125 
L 300 125 
L 300 4400 
L 800 4400 
L 800 2550 
Q 950 2775 1150 2887 
Q 1350 3000 1625 3000 
Q 2125 3000 2475 2625 
Q 2825 2250 2825 1525 
z
M 2275 1525 
Q 2275 2000 2087 2275 
Q 1900 2550 1525 2550 
Q 1225 2550 1012 2275 
Q 800 2000 800 1525 
Q 800 1050 1012 787 
Q 1225 525 1525 525 
Q 1900 525 2087 787 
Q 2275 1050 2275 1525 
z
" transform="scale(0.015625)"/>
      </defs>
      <use xlink:href="#SimHei-2d"/>
      <use xlink:href="#SimHei-44" transform="translate(50 0)"/>
      <use xlink:href="#SimHei-46" transform="translate(100 0)"/>
      <use xlink:href="#SimHei-52" transform="translate(150 0)"/>
      <use xlink:href="#SimHei-45" transform="translate(200 0)"/>
      <use xlink:href="#SimHei-4c" transform="translate(250 0)"/>
     </g>
    </g>
    <g id="line2d_19">
     <path d="M 502.964939 62.994375 
L 513.964939 62.994375 
L 524.964939 62.994375 
" style="fill: none; stroke-dasharray: 5.55,2.4; stroke-dashoffset: 0; stroke: #dd8452; stroke-width: 1.5"/>
     <g>
      <use xlink:href="#m09be178f91" x="513.964939" y="62.994375" style="fill: #dd8452; stroke: #dd8452; stroke-linejoin: miter"/>
     </g>
    </g>
    <g id="text_19">
     <!-- Gauss-Seidel -->
     <g style="fill: #262626" transform="translate(533.764939 66.844375) scale(0.11 -0.11)">
      <defs>
       <path id="SimHei-2a" d="M 2850 75 
L 2425 75 
L 2350 425 
Q 2250 275 2037 175 
Q 1825 75 1575 75 
Q 1050 75 637 562 
Q 225 1050 225 2125 
Q 225 3300 600 3875 
Q 975 4450 1625 4450 
Q 2200 4450 2525 4025 
Q 2850 3600 2850 2925 
L 2300 2925 
Q 2300 3450 2125 3712 
Q 1950 3975 1625 3975 
Q 1225 3975 1025 3562 
Q 825 3150 825 2175 
Q 825 1250 1075 900 
Q 1325 550 1650 550 
Q 1975 550 2162 787 
Q 2350 1025 2350 1525 
L 2350 1800 
L 1575 1800 
L 1575 2275 
L 2850 2275 
L 2850 75 
z
" transform="scale(0.015625)"/>
       <path id="SimHei-58" d="M 2800 125 
L 2300 125 
L 2300 650 
Q 2100 375 1862 225 
Q 1625 75 1250 75 
Q 800 75 575 325 
Q 350 575 350 950 
L 350 2925 
L 850 2925 
L 850 1125 
Q 850 825 1000 650 
Q 1150 475 1400 475 
Q 1725 475 2012 812 
Q 2300 1150 2300 1650 
L 2300 2925 
L 2800 2925 
L 2800 125 
z
" transform="scale(0.015625)"/>
       <path id="SimHei-10" d="M 2975 2125 
L 125 2125 
L 125 2525 
L 2975 2525 
L 2975 2125 
z
" transform="scale(0.015625)"/>
       <path id="SimHei-47" d="M 2750 125 
L 2250 125 
L 2250 500 
Q 2100 275 1900 175 
Q 1700 75 1425 75 
Q 925 75 575 437 
Q 225 800 225 1525 
Q 225 2250 575 2625 
Q 925 3000 1425 3000 
Q 1700 3000 1900 2887 
Q 2100 2775 2250 2550 
L 2250 4400 
L 2750 4400 
L 2750 125 
z
M 2250 1525 
Q 2250 2000 2037 2275 
Q 1825 2550 1525 2550 
Q 1150 2550 962 2275 
Q 775 2000 775 1525 
Q 775 1050 962 787 
Q 1150 525 1525 525 
Q 1825 525 2037 787 
Q 2250 1050 2250 1525 
z
" transform="scale(0.015625)"/>
      </defs>
      <use xlink:href="#SimHei-2a"/>
      <use xlink:href="#SimHei-44" transform="translate(50 0)"/>
      <use xlink:href="#SimHei-58" transform="translate(100 0)"/>
      <use xlink:href="#SimHei-56" transform="translate(150 0)"/>
      <use xlink:href="#SimHei-56" transform="translate(200 0)"/>
      <use xlink:href="#SimHei-10" transform="translate(250 0)"/>
      <use xlink:href="#SimHei-36" transform="translate(300 0)"/>
      <use xlink:href="#SimHei-48" transform="translate(350 0)"/>
      <use xlink:href="#SimHei-4c" transform="translate(400 0)"/>
      <use xlink:href="#SimHei-47" transform="translate(450 0)"/>
      <use xlink:href="#SimHei-48" transform="translate(500 0)"/>
      <use xlink:href="#SimHei-4f" transform="translate(550 0)"/>
     </g>
    </g>
    <g id="line2d_20">
     <path d="M 502.964939 79.494375 
L 513.964939 79.494375 
L 524.964939 79.494375 
" style="fill: none; stroke-dasharray: 5.55,2.4; stroke-dashoffset: 0; stroke: #c44e52; stroke-opacity: 0.7; stroke-width: 1.5"/>
    </g>
    <g id="text_20">
     <!-- 收敛阈值 (1e-08) -->
     <g style="fill: #262626" transform="translate(533.764939 83.344375) scale(0.11 -0.11)">
      <defs>
       <path id="SimHei-1b6c" d="M 4250 5050 
Q 4125 4850 3750 4050 
L 5150 4050 
Q 5675 4050 6125 4075 
L 6125 3600 
Q 5675 3625 5300 3625 
Q 5225 2625 5025 1975 
Q 4825 1325 4575 900 
Q 4900 500 5287 275 
Q 5675 50 6200 -75 
Q 5900 -275 5800 -550 
Q 5300 -350 4950 -100 
Q 4600 150 4275 525 
Q 3800 0 2775 -625 
Q 2650 -425 2300 -225 
Q 3275 150 3950 925 
Q 3775 1325 3612 1787 
Q 3450 2250 3250 3000 
Q 2975 2450 2825 2275 
Q 2650 2400 2425 2525 
Q 2775 3025 3137 3837 
Q 3500 4650 3625 5250 
Q 3925 5125 4250 5050 
z
M 975 4275 
Q 925 3950 925 3450 
L 925 1575 
L 1775 1725 
L 1775 4425 
Q 1775 4775 1750 5150 
L 2250 5150 
Q 2225 4850 2225 4450 
L 2225 300 
Q 2225 -50 2250 -550 
L 1750 -550 
Q 1775 -25 1775 350 
L 1775 1350 
Q 625 1050 500 925 
Q 375 1125 225 1350 
Q 450 1475 450 1800 
L 450 3575 
Q 450 3925 425 4275 
L 975 4275 
z
M 3725 3150 
Q 3800 2700 3962 2212 
Q 4125 1725 4300 1375 
Q 4725 2150 4825 3625 
L 3575 3625 
Q 3400 3275 3300 3100 
L 3725 3150 
z
" transform="scale(0.015625)"/>
       <path id="SimHei-1b91" d="M 3525 2325 
Q 3375 2500 3125 2675 
Q 3525 3150 3775 3837 
Q 4025 4525 4125 5175 
Q 4350 5100 4700 5000 
Q 4625 4975 4537 4712 
Q 4450 4450 4300 4025 
L 5600 4025 
Q 5825 4025 6100 4050 
L 6100 3575 
Q 5725 3600 5525 3600 
Q 5450 2850 5325 2162 
Q 5200 1475 4900 800 
Q 5350 250 6200 -50 
Q 5975 -275 5850 -575 
Q 5050 -75 4625 425 
Q 4100 -200 3250 -675 
Q 3100 -350 2925 -175 
Q 3750 75 4325 775 
Q 4075 1225 3900 1687 
Q 3725 2150 3650 2550 
L 3525 2325 
z
M 2975 2925 
Q 2650 2950 2075 2950 
Q 1450 2950 1175 2925 
L 1175 3325 
Q 900 3000 575 2750 
Q 425 2975 175 3125 
Q 750 3525 1237 4187 
Q 1725 4850 1875 5275 
Q 2175 5100 2400 5000 
Q 2325 4900 2200 4700 
Q 2875 4300 3525 3850 
Q 3325 3575 3175 3375 
Q 2950 3625 2612 3900 
Q 2275 4175 1975 4375 
Q 1650 3925 1225 3375 
Q 1500 3350 2075 3350 
Q 2650 3350 2975 3375 
L 2975 2925 
z
M 3325 2450 
Q 3175 2250 3050 1725 
Q 2925 1200 2775 625 
Q 3075 675 3475 775 
Q 3400 575 3450 325 
Q 2300 150 1600 0 
Q 900 -150 725 -250 
Q 650 75 550 325 
Q 1125 350 2325 550 
Q 2475 1125 2600 1725 
Q 2725 2325 2750 2600 
Q 3000 2525 3325 2450 
z
M 3925 3000 
Q 4050 2500 4262 1925 
Q 4475 1350 4600 1175 
Q 4825 1725 4925 2287 
Q 5025 2850 5075 3600 
L 4175 3600 
Q 4100 3375 3925 3000 
z
M 1025 2350 
Q 1275 1625 1450 925 
Q 1200 850 1000 775 
Q 725 1875 575 2175 
Q 825 2250 1025 2350 
z
M 2000 2525 
Q 2150 1975 2275 1250 
Q 2050 1225 1825 1150 
Q 1775 1525 1575 2425 
Q 1775 2475 2000 2525 
z
" transform="scale(0.015625)"/>
       <path id="SimHei-4c3e" d="M 5225 825 
Q 4925 75 4612 150 
Q 4300 225 3975 800 
Q 3850 600 3687 362 
Q 3525 125 3325 -100 
Q 3150 50 2875 175 
Q 3150 425 3337 687 
Q 3525 950 3700 1250 
Q 3525 1750 3437 2087 
Q 3350 2425 3300 3175 
L 1900 3175 
Q 1675 3175 1350 3150 
L 1350 3550 
Q 1675 3525 1900 3525 
L 3300 3525 
Q 3250 4025 3225 4300 
Q 3425 4275 3775 4275 
Q 3750 3850 3750 3525 
L 4425 3525 
Q 4675 3525 5075 3550 
L 5075 3150 
Q 4675 3175 4425 3175 
L 3750 3175 
Q 3750 2900 3812 2475 
Q 3875 2050 4000 1775 
Q 4075 1975 4137 2237 
Q 4200 2500 4250 2925 
Q 4675 2800 4850 2725 
Q 4700 2550 4562 2112 
Q 4425 1675 4225 1200 
Q 4350 950 4537 787 
Q 4725 625 4850 1100 
Q 5075 925 5225 825 
z
M 5900 4875 
Q 5875 4400 5875 3825 
L 5875 100 
Q 5875 -400 5550 -475 
Q 5225 -550 4850 -625 
Q 4750 -350 4575 -50 
Q 5150 -75 5300 -50 
Q 5450 -25 5450 300 
L 5450 4500 
L 3600 4500 
Q 3050 4500 2400 4475 
L 2400 4900 
Q 3050 4875 3550 4875 
L 5900 4875 
z
M 3050 2725 
Q 2975 2450 2975 2200 
L 2975 1300 
L 1450 1300 
Q 1475 1550 1475 1725 
L 1475 2200 
Q 1475 2425 1450 2725 
L 3050 2725 
z
M 1075 3850 
Q 1050 3475 1050 3100 
L 1050 -575 
L 550 -575 
Q 600 100 600 625 
L 600 2975 
Q 600 3500 550 3850 
L 1075 3850 
z
M 3100 1050 
Q 3075 775 3100 650 
Q 2775 575 2200 450 
Q 1625 325 1325 200 
Q 1200 475 1125 725 
Q 1425 750 1987 850 
Q 2550 950 3100 1050 
z
M 1375 5275 
Q 1650 4900 1975 4375 
Q 1725 4225 1475 4100 
Q 1200 4625 900 5000 
Q 1150 5200 1375 5275 
z
M 2550 1675 
L 2550 2350 
L 1900 2350 
L 1900 1675 
L 2550 1675 
z
M 4500 4400 
Q 4625 4150 4800 3875 
Q 4625 3800 4350 3650 
Q 4225 3925 4075 4175 
Q 4325 4350 4500 4400 
z
" transform="scale(0.015625)"/>
       <path id="SimHei-672" d="M 3675 4450 
L 3675 5100 
Q 3975 5075 4350 5050 
Q 4225 4875 4200 4450 
L 5125 4450 
Q 5550 4450 5875 4475 
L 5875 4025 
Q 5525 4050 5125 4050 
L 4175 4050 
L 4125 3500 
L 5400 3500 
Q 5375 3200 5375 2700 
L 5375 150 
Q 5875 150 6100 175 
L 6100 -275 
Q 5775 -250 5200 -250 
L 2850 -250 
Q 2275 -250 1900 -275 
L 1900 175 
Q 2125 150 2600 150 
L 2600 2700 
Q 2600 3175 2575 3500 
L 3600 3500 
L 3650 4050 
L 3200 4050 
Q 2575 4050 2225 4025 
L 2225 4475 
Q 2550 4450 3200 4450 
L 3675 4450 
z
M 2225 4900 
Q 2025 4675 1650 3750 
L 1650 450 
Q 1650 -75 1675 -550 
L 1150 -550 
Q 1175 -125 1175 375 
L 1175 2950 
Q 875 2450 625 2150 
Q 425 2425 250 2575 
Q 500 2825 937 3537 
Q 1375 4250 1625 5150 
Q 1975 4975 2225 4900 
z
M 4925 2650 
L 4925 3150 
L 3075 3150 
L 3075 2650 
L 4925 2650 
z
M 4925 150 
L 4925 625 
L 3075 625 
L 3075 150 
L 4925 150 
z
M 4925 1000 
L 4925 1450 
L 3075 1450 
L 3075 1000 
L 4925 1000 
z
M 4925 1825 
L 4925 2275 
L 3075 2275 
L 3075 1825 
L 4925 1825 
z
" transform="scale(0.015625)"/>
      </defs>
      <use xlink:href="#SimHei-1b6c"/>
      <use xlink:href="#SimHei-1b91" transform="translate(100 0)"/>
      <use xlink:href="#SimHei-4c3e" transform="translate(200 0)"/>
      <use xlink:href="#SimHei-672" transform="translate(300 0)"/>
      <use xlink:href="#SimHei-3" transform="translate(400 0)"/>
      <use xlink:href="#SimHei-b" transform="translate(450 0)"/>
      <use xlink:href="#SimHei-14" transform="translate(500 0)"/>
      <use xlink:href="#SimHei-48" transform="translate(550 0)"/>
      <use xlink:href="#SimHei-10" transform="translate(600 0)"/>
      <use xlink:href="#SimHei-13" transform="translate(650 0)"/>
      <use xlink:href="#SimHei-1b" transform="translate(700 0)"/>
      <use xlink:href="#SimHei-c" transform="translate(750 0)"/>
     </g>
    </g>
   </g>
  </g>
 </g>
 <defs>
  <clipPath id="pf31d2a91f6">
   <rect x="57.9" y="30.99125" width="573.764939" height="351.54875"/>
  </clipPath>
 </defs>
</svg>
